<?xml version="1.0" encoding="UTF-8"?>
<svg id="Layer_1" data-name="Layer 1" xmlns="http://www.w3.org/2000/svg" xmlns:xlink="http://www.w3.org/1999/xlink" viewBox="0 0 57.95 17.1">
  <defs>
    <style>
      .cls-1 {
        fill: url(#linear-gradient-3);
      }

      .cls-1, .cls-2, .cls-3, .cls-4, .cls-5, .cls-6, .cls-7, .cls-8, .cls-9, .cls-10, .cls-11, .cls-12, .cls-13 {
        isolation: isolate;
      }

      .cls-1, .cls-3, .cls-4, .cls-10, .cls-13 {
        opacity: .61;
      }

      .cls-14 {
        fill: #73452e;
      }

      .cls-2 {
        fill: #f5f6f6;
        opacity: .51;
      }

      .cls-15 {
        fill: #9f5b25;
      }

      .cls-16 {
        clip-path: url(#clippath-2);
      }

      .cls-17 {
        fill: #542d1f;
      }

      .cls-3 {
        fill: #e9a829;
      }

      .cls-18 {
        clip-path: url(#clippath-6);
      }

      .cls-4 {
        fill: #ecf7f9;
      }

      .cls-19 {
        fill: #bd792e;
      }

      .cls-5 {
        fill: url(#linear-gradient-2);
      }

      .cls-5, .cls-8 {
        opacity: .52;
      }

      .cls-6 {
        fill: #cd8e2a;
        opacity: .64;
      }

      .cls-7 {
        fill: #125d69;
        opacity: .42;
      }

      .cls-20 {
        clip-path: url(#clippath-1);
      }

      .cls-21 {
        clip-path: url(#clippath-4);
      }

      .cls-8 {
        fill: #bddfeb;
      }

      .cls-22 {
        fill: #f9c850;
      }

      .cls-9 {
        fill: #fff5c2;
        opacity: .34;
      }

      .cls-10 {
        fill: #fff;
      }

      .cls-23 {
        clip-path: url(#clippath);
      }

      .cls-11 {
        fill: #723d18;
        opacity: .62;
      }

      .cls-24 {
        fill: none;
      }

      .cls-25 {
        clip-path: url(#clippath-3);
      }

      .cls-12 {
        fill: #6e4b3b;
        opacity: .54;
      }

      .cls-26 {
        fill: #db8339;
      }

      .cls-27 {
        fill: #e39954;
      }

      .cls-13 {
        fill: #c9eaf2;
      }

      .cls-28 {
        opacity: .59;
      }

      .cls-29 {
        clip-path: url(#clippath-5);
      }

      .cls-30 {
        fill: url(#linear-gradient);
      }

      .cls-31 {
        fill: url(#linear-gradient-4);
      }
    </style>
    <linearGradient id="linear-gradient" x1="20.87" y1="-2.93" x2="37.97" y2="-2.93" gradientTransform="translate(35.88 -20.87) rotate(90)" gradientUnits="userSpaceOnUse">
      <stop offset="0" stop-color="#98d8e4"/>
      <stop offset=".65" stop-color="#3fa5c3"/>
    </linearGradient>
    <linearGradient id="linear-gradient-2" x1="22.93" y1="18.08" x2="29.34" y2=".47" gradientTransform="translate(18.18 -20.87) rotate(90) scale(1 -1)" gradientUnits="userSpaceOnUse">
      <stop offset=".02" stop-color="#aee0f0"/>
      <stop offset=".18" stop-color="#8ed6e8"/>
      <stop offset=".53" stop-color="#4fb0c6"/>
    </linearGradient>
    <linearGradient id="linear-gradient-3" x1="43.63" y1="-18.25" x2="23.97" y2="10.89" gradientTransform="translate(35.88 -20.87) rotate(90)" gradientUnits="userSpaceOnUse">
      <stop offset="0" stop-color="#74c5d3"/>
      <stop offset=".65" stop-color="#3593a5"/>
    </linearGradient>
    <linearGradient id="linear-gradient-4" x1="29.04" y1="1.79" x2="30.71" y2="20.94" gradientTransform="translate(18.18 -20.87) rotate(90) scale(1 -1)" gradientUnits="userSpaceOnUse">
      <stop offset=".14" stop-color="#2b8ea3"/>
      <stop offset=".73" stop-color="#4aa2b7"/>
    </linearGradient>
    <clipPath id="clippath">
      <path class="cls-24" d="m22.53,14.22c.42-.81-1.17-3-1.43-3.46-1.07-1.89-1.37-3.81-.99-6.24.16-1.05-.99-1.25-2.1-1.15-1.02.09-3.1-.08-2.74,1.67-.01.82.41,2.34.41,3.24,0,.83-1,4.05-.74,4.71.48,1.23.93,1.96,2.82,1.61,1.95-.36,3.93,1.25,4.77-.39Z"/>
    </clipPath>
    <clipPath id="clippath-1">
      <path class="cls-24" d="m22.53,14.22c.42-.81-1.17-3-1.43-3.46-1.07-1.89-1.37-3.81-.99-6.24.16-1.05-.99-1.25-2.1-1.15-1.02.09-3.1-.08-2.74,1.67-.01.82.41,2.34.41,3.24,0,.83-1,4.05-.74,4.71.48,1.23.93,1.96,2.82,1.61,1.95-.36,3.93,1.25,4.77-.39Z"/>
    </clipPath>
    <clipPath id="clippath-2">
      <path class="cls-24" d="m22.53,14.22c.42-.81-1.17-3-1.43-3.46-1.07-1.89-1.37-3.81-.99-6.24.16-1.05-.99-1.25-2.1-1.15-1.02.09-3.1-.08-2.74,1.67-.01.82.41,2.34.41,3.24,0,.83-1,4.05-.74,4.71.48,1.23.93,1.96,2.82,1.61,1.95-.36,3.93,1.25,4.77-.39Z"/>
    </clipPath>
    <clipPath id="clippath-3">
      <path class="cls-24" d="m22.53,14.22c.42-.81-1.17-3-1.43-3.46-1.07-1.89-1.37-3.81-.99-6.24.16-1.05-.99-1.25-2.1-1.15-1.02.09-3.1-.08-2.74,1.67-.01.82.41,2.34.41,3.24,0,.83-1,4.05-.74,4.71.48,1.23.93,1.96,2.82,1.61,1.95-.36,3.93,1.25,4.77-.39Z"/>
    </clipPath>
    <clipPath id="clippath-4">
      <path class="cls-24" d="m22.53,14.22c.42-.81-1.17-3-1.43-3.46-1.07-1.89-1.37-3.81-.99-6.24.16-1.05-.99-1.25-2.1-1.15-1.02.09-3.1-.08-2.74,1.67-.01.82.41,2.34.41,3.24,0,.83-1,4.05-.74,4.71.48,1.23.93,1.96,2.82,1.61,1.95-.36,3.93,1.25,4.77-.39Z"/>
    </clipPath>
    <clipPath id="clippath-5">
      <path class="cls-24" d="m22.53,14.22c.42-.81-1.17-3-1.43-3.46-1.07-1.89-1.37-3.81-.99-6.24.16-1.05-.99-1.25-2.1-1.15-1.02.09-3.1-.08-2.74,1.67-.01.82.41,2.34.41,3.24,0,.83-1,4.05-.74,4.71.48,1.23.93,1.96,2.82,1.61,1.95-.36,3.93,1.25,4.77-.39Z"/>
    </clipPath>
    <clipPath id="clippath-6">
      <path class="cls-24" d="m22.53,14.22c.42-.81-1.17-3-1.43-3.46-1.07-1.89-1.37-3.81-.99-6.24.16-1.05-.99-1.25-2.1-1.15-1.02.09-3.1-.08-2.74,1.67-.01.82.41,2.34.41,3.24,0,.83-1,4.05-.74,4.71.48,1.23.93,1.96,2.82,1.61,1.95-.36,3.93,1.25,4.77-.39Z"/>
    </clipPath>
  </defs>
  <path class="cls-17" d="m11.7,10.55c1.33.42,3.65,1.33,4.99.66,1.21-.6,1.21-3.17.87-4.58-3.65,1.32-7.88-1.34-11.51-1.33-1.2,0-4.43.5-5.36,1.34-1.31,1.19-.65,3.94,1.01,4.85.89.63,1.97-1.43,4.47-1.72,1.91-.23,3.74.23,5.52.79Z"/>
  <path class="cls-15" d="m15.75,10.98c.09-.53.18-1.05.26-1.59.11-.68.65-2.05-.13-2.5-.25-.11-.58-.07-1.42-.18-.71-.1-1.59-.31-2.03-.46-.95-.32-1.46-.43-1.08,1.25.36,1.6,1.68,3.99,3.67,4.16.72.06.62-.04.73-.67Z"/>
  <path class="cls-11" d="m15.7,11.29c-1.21-.06-2.24-.74-2.86-1.83-.56-.98-1.37-2.24-.98-3.38-.56-.11-.8.11-.51,1.41.36,1.6,1.68,3.99,3.67,4.16.57.05.63-.01.68-.36Z"/>
  <path class="cls-15" d="m13.26,11.05l-.32-.1c-.67-.52-1.14-1.28-1.5-1.94-.5-.94-.72-1.76-.51-2.79l.22.06c.18-1.17-4.69-1.79-4.9-1.23-.21.56.28,3.55,1.84,4.87.57.48,1.81.44,2.51.66.78.25,2.43,1.2,2.66.47Z"/>
  <path class="cls-26" d="m13.26,11.05l-.32-.1c-.67-.52-1.14-1.28-1.5-1.94-.5-.94-.72-1.76-.51-2.79l.22.06c.03-.22-.11-.42-.37-.6-.67.13-.21,2.15-.09,2.46.42,1.06,1.04,2.01,1.83,2.79.14.13.3.25.45.37.14-.03.24-.11.29-.25Z"/>
  <path class="cls-11" d="m13.26,11.05l-.32-.1c-.3-.23-.56-.52-.79-.82-.17.1-.39.16-.64.16-1.61-.02-3.21-.92-4.05-2.3-.54-.9-1.18-2.15-.57-3.13-.35.02-.59.09-.63.2-.21.56.28,3.55,1.84,4.87.57.48,1.81.44,2.51.66.78.25,2.43,1.2,2.66.47Z"/>
  <path class="cls-15" d="m7.58,9.71h-.32c-.64-.62-.98-1.38-1.24-2.09-.26-.71-.42-1.67-.31-2.31h.35c-.1-.54-2.4-.18-3.17.11-.73.28-2.18.78-2.42,1.38-.6,1.5,1.87,4.03,3.35,3.98.71-.02,1.27-.55,1.98-.66.8-.13,1.75.12,1.79-.41Z"/>
  <path class="cls-26" d="m7.58,9.71h-.32c-.64-.62-.98-1.38-1.24-2.09-.26-.71-.42-1.67-.31-2.31h.35c-.03-.15-.2-.23-.46-.26-1.33.42.6,4.09,1.52,5.01.26-.03.45-.12.47-.34Z"/>
  <path class="cls-11" d="m7.58,9.71h-.32c-.15-.15-.28-.3-.4-.46-.03.01-.06.03-.1.04-1.52.37-3.4.93-4.68-.33-.87-.86-1.24-2.02-.64-2.95-.46.23-.86.49-.98.78-.6,1.5,1.87,4.03,3.35,3.98.71-.02,1.27-.55,1.98-.66.8-.13,1.75.12,1.79-.41Z"/>
  <path class="cls-12" d="m15.75,10.98c.09-.53.18-1.05.26-1.59.11-.68.65-2.05-.13-2.5-.2-.09-.45-.08-.98-.13.43,1.05.42,2.53-.27,3.22-.49.49-1.03.69-1.57.69.54.54,1.2.92,1.95.98.72.06.62-.04.73-.67Z"/>
  <path class="cls-30" d="m36.92.06c-10.38-.79-16.54,5.97-16.83,6.57-.71,1.47-.31,4.98-.29,4.97l7.8.54s.12-4.28,4.81-4.47c9.26-.72,20.57,5.14,25.53,9.43C54.19,11.97,45.7.73,36.92.06Zm-9.59,8.77c-.91.95-.94,1.91-.94,1.91,0,0-1.76-.15-3.07-.12.56-.52,3.1-1.73,4-1.79,0,0,.02-.02,0,0Z"/>
  <path class="cls-4" d="m36.92.06c-.11,0-.21-.01-.31-.02-.07.73-.33,1.4-.6,2.14-.56,1.53-.98,3.13-1.5,4.68-.08.25-.17.5-.25.75.42,0,.85.02,1.28.05.92-2.47,1.72-4.98,2.75-7.41-.45-.09-.9-.16-1.35-.19Z"/>
  <path class="cls-5" d="m33.29,6.14c.12,0,.49.04.61.05.51-2.15,1.25-3.95,1.63-6.12-9.54-.13-15.17,6.05-15.44,6.62-.71,1.47-.31,4.98-.29,4.97l.25.02c.01-.17.07-.33.2-.46,3.29-3.08,8.05-5.35,13.03-5.08Z"/>
  <path class="cls-1" d="m42.41,7.48c-3.64-.75-7.41-1.78-11.15-1.58-3.83.2-7.43,1.37-10.34,3.93-.4.35-.8.72-1.19,1.08.03.43.07.7.07.7l7.8.54s.12-4.28,4.81-4.47c9.26-.72,20.57,5.14,25.53,9.43-1.56-2.14-3.95-5.33-6.84-8.38-2.93-.15-5.82-.65-8.7-1.25Zm-15.08,1.36c-.91.95-.94,1.91-.94,1.91,0,0-1.76-.15-3.07-.12.56-.52,3.1-1.73,4-1.79,0,0,.02-.02,0,0Z"/>
  <path class="cls-31" d="m22.53,9.49c.05-.09,4.14-2.82,7.31-3.09,1.63-.14,2.45-.2,4.4-.19,1.04.02,1.7.08,2.3.06-1.76-.29-3.53-.48-5.29-.38-3.83.2-7.43,1.37-10.34,3.93-.4.35-.8.72-1.19,1.08.03.43.07.7.07.7h.12s.08-.1.13-.15c.85-.75,1.67-1.4,2.47-1.96Z"/>
  <path class="cls-8" d="m41.43,1.28c-1.92,2.23-3.53,4.48-5.85,6.39.82.06,1.65.15,2.49.28,2.47-1.23,4.73-2.89,6.95-4.61-1.16-.81-2.36-1.51-3.58-2.06Z"/>
  <path class="cls-8" d="m40.3,4.44c.81-.85,1.53-1.76,2.37-2.54-.41-.22-.82-.43-1.24-.62-1.92,2.23-3.53,4.48-5.85,6.39.37.03.74.06,1.11.1,1.26-1.05,2.49-2.16,3.6-3.33Z"/>
  <path class="cls-4" d="m43.56,2.48s.03-.03.05-.04c-.16-.09-.32-.19-.47-.28-1.9,1.91-3.79,3.83-5.72,5.71.16.02.32.04.48.07,1.82-1.89,3.67-3.75,5.66-5.45Z"/>
  <path class="cls-8" d="m48.12,5.81c-2.8,1.17-5.68,1.97-8.61,2.41,7.36,1.53,14.7,5.66,18.44,8.89-2.08-2.84-5.61-7.54-9.83-11.3Z"/>
  <path class="cls-13" d="m36.92.06c-10.38-.79-16.54,5.97-16.83,6.57-.48,1-.45,2.94-.37,4.08,1.98-2.11,3.66-4.53,6.12-6.12,2.83-1.83,6.56-2.65,9.91-2.25,3.76.45,6.84,2.16,9.84,4.39,2.47,1.84,4.85,3.87,6.6,6.42,2.32,1.32,4.31,2.7,5.76,3.96C54.19,11.97,45.7.73,36.92.06Z"/>
  <path class="cls-4" d="m28.04,3.43c-.16-.66-.3-1.33-.41-2-1.3.51-2.44,1.1-3.42,1.7.29.67.57,1.33.85,2,.25-.19.5-.37.76-.55.69-.45,1.43-.83,2.21-1.15Z"/>
  <path class="cls-4" d="m36.92.06c-2.36-.18-4.51.03-6.41.48.19.66.37,1.32.55,1.99,1.56-.3,3.17-.38,4.69-.2,3.76.45,6.84,2.16,9.84,4.39.68.5,1.35,1.02,2,1.56.83-.23,1.67-.44,2.52-.61C46.24,3.82,41.62.42,36.92.06Z"/>
  <path class="cls-13" d="m37.66,2.34c-3.66-.84-7.66-.3-11.13,1.21-2.05,1.2-3.64,2.9-5.33,4.6-.43.44-.98.94-1.53,1.48,0,.4.02.77.04,1.09,1.98-2.11,3.66-4.53,6.12-6.12,2.83-1.83,6.56-2.65,9.91-2.25,3.76.45,6.84,2.16,9.84,4.39,2.47,1.84,4.85,3.87,6.6,6.42.6.34,1.17.68,1.72,1.02-3.89-4.96-10.64-10.54-16.24-11.83Z"/>
  <path class="cls-10" d="m46.57,6.99c-2.92-2.23-6.06-3.99-8.91-4.64-2.2-.5-4.52-.51-6.78-.1.03.1.06.2.09.31,1.59-.32,3.23-.4,4.78-.22,3.76.45,6.84,2.16,9.84,4.39.25.19.5.37.74.56.05-.12.13-.23.24-.3Z"/>
  <path class="cls-7" d="m21.13,5.47c-.63.59-.98,1.03-1.05,1.16-.71,1.47-.31,4.98-.29,4.97l2.73.19c-2.42-2.75-1.4-6.16-1.4-6.32Z"/>
  <path class="cls-27" d="m12.4,7.38c.17.04.52.44.43-.03.35.03.64.54.84.78.1-.14.15-.3.19-.46.17.1.25.31.35.46.02-.05.09-.11.12-.18.21.25.32-.08.32-.29.18.2.23.72.45.81.01-.47-.09-1.08-.31-1.49l-.07-.04s.07-.05-.04-.08c-.02.07-.1.15-.11.25-.22-.03-.35-.27-.53-.39-.37.36-.32.35-.75,0-.32.39-.49-.19-.78-.17,0,.15.03.27.02.42-.33-.11-.42-.45-.56-.71,0,.69.1,1.81.73,2.27-.17-.27-.39-.87-.31-1.17Z"/>
  <path class="cls-27" d="m10.11,7.05c-.04-.34-.15-1.17.21-1.32l-.02-.02c-.76.14-.48-.22-.79-.19-.13.01-.06.26-.22.28-.14.01-.23-.27-.36-.28-.21-.03-.19.19-.33.21-.21.02-.14-.13-.31-.17-.26-.07-.3.09-.54.28-.06-.09-.1-.2-.11-.32-.35.05-.36-.35-.59-.5-.26.38-.12,1.22.02,1.63.17.49.5,1.09.96,1.39-.3-.48-.83-1.19-.77-1.78.35.03.74.95.99,1.2.04-.37-.17-.71-.14-1.09.08.09.16.17.22.27.33-.19.38-.35.67.1,0-.81.28-.2.47.15.05-.09.08-.18.07-.31.25.57.58,1.15.9,1.71-.13-.43-.29-.81-.34-1.25Z"/>
  <path class="cls-27" d="m5.56,8.09c-.13-.29-.34-.6-.48-.89-.28-.61-.21-1.8-.48-1.92-.04.18-.08.37-.16.53-.11-.11-.23-.27-.39-.34-.03.11-.14.18-.17.28-.44-.35-.28.14-.44.21-.26.1-.41-.13-.72-.09.02.1-.04.24-.01.33-.18,0-.37-.05-.54-.08,0,.07-.07.19-.05.28-.5-.04-.64.02-.58.6.04.38.19.69.48.93.01-.21,0-.42.02-.63.2.06.4.18.62.18-.03-.35.09-.9.55-.75,0-.04-.01-.08,0-.12.25.07.44.37.68.48,0-.1.08-.25.06-.38.51.16,1.04,1.14,1.6,1.37Z"/>
  <g>
    <g class="cls-23">
      <path class="cls-14" d="m17.49,6.34c.03.09.05.18.08.28.02,0,.04-.01.05-.02l-.13-.26Z"/>
    </g>
    <g class="cls-20">
      <path class="cls-22" d="m22.53,14.22c.42-.81-1.17-3-1.43-3.46-1.07-1.89-1.37-3.81-.99-6.24.16-1.05-.99-1.25-2.1-1.15-1.02.09-3.1-.08-2.74,1.67-.01.82.41,2.34.41,3.24,0,.83-1,4.05-.74,4.71.48,1.23.93,1.96,2.82,1.61,1.95-.36,3.93,1.25,4.77-.39Z"/>
    </g>
    <g class="cls-16">
      <path class="cls-3" d="m22.53,14.22c.08-.16.08-.38.03-.63-1.24.81-3.11.17-4.24-.62-1.31-.92-1.09-1.88-1.36-3.32-.45-2.43-1.4-5.47,1.59-6.3-.18,0-.36,0-.55.02-1.02.09-3.1-.08-2.74,1.67-.01.82.41,2.34.41,3.24,0,.83-1,4.05-.74,4.71.48,1.23.93,1.96,2.82,1.61,1.95-.36,3.93,1.25,4.77-.39Z"/>
    </g>
    <g class="cls-25">
      <path class="cls-6" d="m22.53,14.22s.02-.07.03-.11c-1.76.79-6.51.48-6.76-1.81-.14-1.25.44-2.42.31-3.7-.11-1.1-.55-2.32-.35-3.43.14-.82.49-1.34.97-1.71-.88.11-1.7.43-1.46,1.58-.01.82.41,2.34.41,3.24,0,.83-1,4.05-.74,4.71.48,1.23.93,1.96,2.82,1.61,1.95-.36,3.93,1.25,4.77-.39Z"/>
    </g>
    <g class="cls-21">
      <g class="cls-28">
        <path class="cls-19" d="m20.28,9.19c-.14-.4-.26-.75-.32-1-.32-1.29-.92-3.68.2-5.01l-.09-.07c-1.15,1.37-.55,3.8-.22,5.11.06.25.18.6.32,1,.46,1.35,2.43,9.29-1.73-.39-.12-.27-.17-.53-.24-.72-.46-1.33-1.07-3.84.02-5.85.18.02.31.08.42.21.35.41.25,1.35.18,2.1-.03.34-.06.63-.05.85.03.66.18,1.32.32,1.95.15.67.29,1.3.31,1.94-1.3-.57-1.28-4.24-1.27-5.83,0-.12,0-.23,0-.32h-.11c0,.09,0,.2,0,.32,0,1.64.21,6.06,1.66,6.54,0,0-.33-2-.48-2.67-.14-.63-.28-1.28-.32-1.93-.01-.2.02-.51.05-.83.08-.78.18-1.74-.2-2.19-.13-.15-.31-.24-.53-.25h-.04s-.02.03-.02.03c-.48.86-.65,1.81-.65,2.73,0,1.27.32,2.46.6,3.25.07.19.15.44.24.72.49,1.52,1.65,4.81,2.73,5.31.7-.72-.31-3.59-.79-4.98Z"/>
      </g>
    </g>
    <g class="cls-29">
      <g class="cls-28">
        <path class="cls-19" d="m15.8,9.2c.08-1.32.16-2.68.04-3.98-.04-.37-.03-2.16.45-2.37.14-.06.33.02.55.26.34.37.3,1.34.26,2.13-.02.37-.03.69,0,.91.25,2.43,1.03,6.77,3.34,8.47.47.34.86.41,1.17.2.75-.51.7-2.43.51-3.14l-.11.03c.21.79.19,2.57-.46,3.01-.26.18-.61.11-1.04-.2-2.28-1.68-3.04-5.97-3.29-8.39-.02-.22,0-.55,0-.9.04-.81.08-1.81-.29-2.21-.26-.28-.48-.37-.68-.29-.58.26-.54,2.22-.51,2.49.13,1.29.04,2.65-.04,3.96-.05.83-.1,1.67-.1,2.51,0,1.19.11,2.38.47,3.49l.11-.03c-.61-1.88-.48-3.95-.36-5.96Z"/>
      </g>
    </g>
    <g class="cls-18">
      <g class="cls-28">
        <path class="cls-19" d="m16.76,11.6c.07-.63.13-1.28.08-1.91-.04-.46-.19-1.04-.34-1.65-.34-1.36-.71-2.61-.2-3.5.49.92.57,1.81.66,2.94.04.56.08,1.08.17,1.57.02.23.04.46.06.7.14,1.77.3,3.78,1.65,5.12l.08-.08c-1.32-1.32-1.48-3.3-1.62-5.05-.02-.24-.04-.48-.06-.71-.08-.49-.12-1.01-.17-1.56-.09-1.17-.18-2.39-.72-3.34,0,0-.41.79-.41,1.28,0,.82.24,1.78.46,2.67.15.61.29,1.19.33,1.64.06.62-.01,1.27-.08,1.89-.12,1.14-.24,2.31.37,3.42l.1-.05c-.59-1.08-.47-2.23-.36-3.35Z"/>
      </g>
    </g>
  </g>
  <path class="cls-9" d="m21.63,12.58c-.93-1.36-1.36-3.11-1.81-4.65-.19-.66-.43-1.2-.39-1.92.02-.36.34-1.79,0-1.82l.2-.05s-2.28-.12-2.51,0c-.2.11.97.39,1.28.71.52.55.31,1.65.6,2.34.33.77.42,1.63.64,2.46.23.86.56,1.71.93,2.53.26.59.64,1.7,1.29,1.9,1,.3.02-1.15-.22-1.5Z"/>
  <path class="cls-2" d="m19.62,7.4c-.04-.29-.2-.53-.2-.84l-.1.05c.14-.39.12-1.05.1-1.48-.03-.71-.1-.82-.83-.78.08.33.07.64.14.98.07.32.19.66.25.99.11.63.3,1.54.59,2.03.04-.3.09-.64.05-.94Z"/>
</svg>