<?xml version="1.0" encoding="UTF-8"?>
<svg id="Layer_1" data-name="Layer 1" xmlns="http://www.w3.org/2000/svg" xmlns:xlink="http://www.w3.org/1999/xlink" viewBox="0 0 773.09 69.9">
  <defs>
    <style>
      .cls-1 {
        fill: none;
        stroke: url(#linear-gradient);
        stroke-miterlimit: 10;
        stroke-width: 2px;
      }
    </style>
    <linearGradient id="linear-gradient" x1="386.55" y1="68.9" x2="386.55" y2="1" gradientUnits="userSpaceOnUse">
      <stop offset="0" stop-color="#231f20"/>
      <stop offset=".32" stop-color="#726f70"/>
      <stop offset=".65" stop-color="#bdbcbc"/>
      <stop offset=".88" stop-color="#ececec"/>
      <stop offset="1" stop-color="#fff"/>
    </linearGradient>
  </defs>
  <path class="cls-1" d="m29.4,2.4c7.9,0,13.9,1.4,18,4.1,5,3.3,7.8,8.1,7.8,15,0,14.5-12.3,20.6-23,20.7-1,0-2.3-.1-3-.2l-5.8-1.5v13.6c0,8.4.7,8.8,9.4,9.6v3.7H1v-3.7c7.5-.9,8.5-1.2,8.5-9.6V15.9c0-8.4-1-9.3-8.5-9.8v-3.7h28.4Zm-6,33.9c1.2.6,3.2,1,5.3,1,4.6,0,12.1-2.7,12.1-15.9,0-11.2-6.1-14.9-12.6-14.9-2.1,0-3.3.5-3.9,1-.7.6-.9,1.6-.9,3.1v25.7Z"/>
  <path class="cls-1" d="m93.1,68.6c-2.7,0-4.9-.9-6.2-2.1-1.4-1.2-2.1-2.6-2.6-3.7-3.8,2.5-8.7,5.8-10.6,5.8-8.6,0-13.6-6.7-13.6-12.9,0-5.3,2.4-7.7,7.7-9.8,5.9-2.2,13.8-4.6,16.1-6.6v-4.4c0-5.2-1.9-8.1-6.2-8.1-1.7,0-3.1.8-4,2-1.2,1.6-1.6,3.6-2.4,6.6-.7,2.7-2.3,3.4-4.3,3.4-2.6,0-5.9-2.4-5.9-5.2,0-1.8,1.2-3.1,3.5-4.7,4.5-3,10.4-5.9,16-7.1,4,0,7.4.9,10.3,2.9,4.3,3,5.5,7.2,5.5,12.3v17.3c0,4.8,1.6,6,3.2,6,1,0,2-.3,3.1-.8l1.1,3.4-10.7,5.7Zm-9.2-25.2c-1.8,1-3.6,2-5.6,3.1-3.1,1.6-4.9,3.4-4.9,6.8,0,5.6,3.9,7.6,6.1,7.6,1.4,0,2.8-.1,4.4-1.6v-15.9Z"/>
  <path class="cls-1" d="m135.3,36c-2.6-7-6-10.2-10.7-10.2-2.8,0-5.3,2-5.3,5.3,0,3.5,2.5,5.4,7.7,7.7,8.1,3.6,13.6,7,13.6,14.9,0,10-9.5,14.9-18.2,14.9-5.2,0-10.6-2-12.7-3-.4-2.3-1.3-9.2-1.6-12.7l3.3-.6c2.1,6.3,6.2,12.2,12.7,12.2,3.8,0,5.7-2.3,5.7-5.2,0-3.1-1.5-5.4-7.7-8.4-6.6-3.2-13-6.7-13-15s6.5-14.1,17.1-14.1c4.8,0,8.5,1,10.8,1.5.3,2.7,1.2,9.1,1.6,11.8l-3.3.9Z"/>
  <path class="cls-1" d="m166.7,67.5c-1.7.8-3.3,1.1-4,1.1-7.7,0-12.3-3.6-12.3-12.7v-27.9h-6.4l-.6-1.2,2.9-3.8h4.1v-8.3c3.4-2.4,8.3-5.6,11.8-8l1.3.8c-.1,2.7-.3,8-.2,15.5h10c.9,1,.5,4.1-.8,5h-9.2v24.5c0,7.8,3.2,8.7,5.1,8.7,1.7,0,3-.3,4.8-1l1,3.6-7.5,3.7Z"/>
  <path class="cls-1" d="m263.9,50.2c-1.4,5-4,12.6-5.6,16.1-2.6.6-10.8,2.6-18.4,2.6-26.9,0-38-17.3-38-33.2,0-20.7,15.8-34.7,39.8-34.7,8.7,0,16.4,2.1,18.9,2.4.5,4.7,1.2,12.1,1.9,16.5l-4,.7c-2.1-7.8-5.1-11.5-10.4-13.6-2.4-1-6-1.4-8.7-1.4-14.5,0-21.8,12.1-21.8,27.8,0,18.3,9.4,30.7,23.1,30.7,8.4,0,14-4.4,19.4-15.4l3.8,1.5Z"/>
  <path class="cls-1" d="m295.2,21.8c14.1,0,23,10.6,23,22.6,0,16.1-11.6,24.2-23.4,24.2-15.1,0-23.7-11.4-23.7-23.1,0-15.3,12.6-23.7,24.1-23.7Zm-1.2,4c-4.3,0-8.5,4.5-8.5,16.8s4.1,21.9,10.4,21.9c3.8,0,7.9-2.6,7.9-17.2s-3.6-21.5-9.8-21.5Z"/>
  <path class="cls-1" d="m379.4,67.4v-3.4c4-.6,4.7-1,4.7-7.1v-17.3c0-8.3-3.9-9.8-7-9.8-2,0-4.3.6-7.4,3.1.1,1.2.2,2.7.2,4.2v20.2c0,5.6.3,6.1,4.9,6.7v3.4h-22.5v-3.4c4.4-.6,4.8-.9,4.8-6.7v-18.2c0-7.1-2.8-9.4-6.5-9.4-2.5,0-4.9.9-7.7,3v24.6c0,5.6.6,6.1,4.3,6.7v3.4h-22.9v-3.4c5.5-.7,5.8-1.1,5.8-7.1v-21.2c0-5.6-.1-6.5-4.8-7.2v-3.2c5.6-.6,11.3-2,17.6-3.8v7.5c2.2-1.5,4-2.8,6.1-4.1,3.1-1.9,5.5-3.1,8.5-3.1,5.6,0,9.3,3,11.2,7.6,2.4-1.8,4.4-3.2,6.9-4.9,2.2-1.4,5-2.7,8-2.7,8.7,0,13.3,5.9,13.3,16.1v19.4c0,5.5.5,5.9,5.4,6.7v3.4h-22.9Z"/>
  <path class="cls-1" d="m462.7,67.4v-3.4c4-.6,4.7-1,4.7-7.1v-17.3c0-8.3-3.9-9.8-7-9.8-2,0-4.3.6-7.4,3.1.1,1.2.2,2.7.2,4.2v20.2c0,5.6.3,6.1,4.9,6.7v3.4h-22.5v-3.4c4.4-.6,4.8-.9,4.8-6.7v-18.2c0-7.1-2.8-9.4-6.5-9.4-2.5,0-4.9.9-7.7,3v24.6c0,5.6.6,6.1,4.3,6.7v3.4h-22.9v-3.4c5.5-.7,5.8-1.1,5.8-7.1v-21.2c0-5.6-.1-6.5-4.8-7.2v-3.2c5.6-.6,11.3-2,17.6-3.8v7.5c2.2-1.5,4-2.8,6.1-4.1,3.1-1.9,5.5-3.1,8.5-3.1,5.6,0,9.3,3,11.2,7.6,2.4-1.8,4.4-3.2,6.9-4.9,2.2-1.4,5-2.7,8-2.7,8.7,0,13.3,5.9,13.3,16.1v19.4c0,5.5.5,5.9,5.4,6.7v3.4h-22.9Z"/>
  <path class="cls-1" d="m490.69,67.4v-3.4c5.4-.7,6-1.1,6-8.2v-19.5c0-6.7-.5-7.1-5.2-7.7v-3.3c6.3-.7,12.6-2,18.1-3.6v34.1c0,6.8.4,7.5,6.2,8.2v3.4h-25.1Zm11.7-51.8c-3.8,0-7.2-3.2-7.2-7.1,0-4.1,3.4-7.1,7.3-7.1s7.2,3,7.2,7.1-3.2,7.1-7.3,7.1Z"/>
  <path class="cls-1" d="m548.5,36c-2.6-7-6-10.2-10.7-10.2-2.8,0-5.3,2-5.3,5.3,0,3.5,2.5,5.4,7.7,7.7,8.1,3.6,13.6,7,13.6,14.9,0,10-9.5,14.9-18.2,14.9-5.2,0-10.6-2-12.7-3-.4-2.3-1.3-9.2-1.6-12.7l3.3-.6c2.1,6.3,6.2,12.2,12.7,12.2,3.8,0,5.7-2.3,5.7-5.2,0-3.1-1.5-5.4-7.7-8.4-6.6-3.2-13-6.7-13-15s6.5-14.1,17.1-14.1c4.8,0,8.5,1,10.8,1.5.3,2.7,1.2,9.1,1.6,11.8l-3.3.9Z"/>
  <path class="cls-1" d="m587.79,36c-2.6-7-6-10.2-10.7-10.2-2.8,0-5.3,2-5.3,5.3,0,3.5,2.5,5.4,7.7,7.7,8.1,3.6,13.6,7,13.6,14.9,0,10-9.5,14.9-18.2,14.9-5.2,0-10.6-2-12.7-3-.4-2.3-1.3-9.2-1.6-12.7l3.3-.6c2.1,6.3,6.2,12.2,12.7,12.2,3.8,0,5.7-2.3,5.7-5.2,0-3.1-1.5-5.4-7.7-8.4-6.6-3.2-13-6.7-13-15s6.5-14.1,17.1-14.1c4.8,0,8.5,1,10.8,1.5.3,2.7,1.2,9.1,1.6,11.8l-3.3.9Z"/>
  <path class="cls-1" d="m598.79,67.4v-3.4c5.4-.7,6-1.1,6-8.2v-19.5c0-6.7-.5-7.1-5.2-7.7v-3.3c6.3-.7,12.6-2,18.1-3.6v34.1c0,6.8.4,7.5,6.2,8.2v3.4h-25.1Zm11.7-51.8c-3.8,0-7.2-3.2-7.2-7.1,0-4.1,3.4-7.1,7.3-7.1s7.2,3,7.2,7.1-3.2,7.1-7.3,7.1Z"/>
  <path class="cls-1" d="m653.29,21.8c14.1,0,23,10.6,23,22.6,0,16.1-11.6,24.2-23.4,24.2-15.1,0-23.7-11.4-23.7-23.1,0-15.3,12.6-23.7,24.1-23.7Zm-1.2,4c-4.3,0-8.5,4.5-8.5,16.8s4.1,21.9,10.4,21.9c3.8,0,7.9-2.6,7.9-17.2s-3.6-21.5-9.8-21.5Z"/>
  <path class="cls-1" d="m711.09,67.4v-3.4c4.2-.6,4.5-1,4.5-7.9v-17.1c0-7.1-3.5-9.3-7-9.3-2.6,0-4.8,1-7.5,3v24.2c0,6.1.4,6.5,4.5,7.1v3.4h-23.2v-3.4c5.2-.9,5.8-1,5.8-7.5v-20.8c0-6-.8-6.3-5.2-7.2v-3.2c5.8-.7,12.7-2,18.3-3.8-.1,1.4-.2,4.9-.2,7.2,2-1.4,4.1-2.9,6.4-4.3,3-1.8,4.9-2.6,7.8-2.6,8.1,0,13.2,5.9,13.2,16.1v18.9c0,6.2.6,6.5,5.4,7.2v3.4h-22.8Z"/>
  <path class="cls-1" d="m766.79,36c-2.6-7-6-10.2-10.7-10.2-2.8,0-5.3,2-5.3,5.3,0,3.5,2.5,5.4,7.7,7.7,8.1,3.6,13.6,7,13.6,14.9,0,10-9.5,14.9-18.2,14.9-5.2,0-10.6-2-12.7-3-.4-2.3-1.3-9.2-1.6-12.7l3.3-.6c2.1,6.3,6.2,12.2,12.7,12.2,3.8,0,5.7-2.3,5.7-5.2,0-3.1-1.5-5.4-7.7-8.4-6.6-3.2-13-6.7-13-15s6.5-14.1,17.1-14.1c4.8,0,8.5,1,10.8,1.5.3,2.7,1.2,9.1,1.6,11.8l-3.3.9Z"/>
</svg>