<?xml version="1.0" encoding="UTF-8"?>
<svg id="Layer_1" data-name="Layer 1" xmlns="http://www.w3.org/2000/svg" viewBox="0 0 59.94 15.59">
  <defs>
    <style>
      .cls-1 {
        fill: #96c8d8;
      }

      .cls-2 {
        fill: #ecad20;
      }

      .cls-3 {
        fill: #bddceb;
      }

      .cls-4 {
        fill: #b0d5e2;
      }

      .cls-5 {
        fill: #f4bc2e;
      }
    </style>
  </defs>
  <g>
    <path class="cls-5" d="m15.68,15.59c-.75,0-1.36-.73-1.36-1.61V1.61c0-.89.61-1.61,1.36-1.61s1.36.73,1.36,1.61v12.36c0,.89-.61,1.61-1.36,1.61Z"/>
    <rect class="cls-2" x="11.04" y="3.16" width="3.29" height="9.27"/>
    <path class="cls-5" d="m11.04,6.28h-6.84c-.85,0-1.54.69-1.54,1.53s.69,1.53,1.54,1.53h6.84v-3.07Z"/>
    <g>
      <path class="cls-5" d="m2.43,10.25c-1.34,0-2.43-1.09-2.43-2.43s1.09-2.43,2.43-2.43,2.43,1.09,2.43,2.43c0,1.34-1.09,2.43-2.43,2.43Z"/>
      <path class="cls-2" d="m2.43,9.25c-.79,0-1.43-.64-1.43-1.43s.64-1.43,1.43-1.43,1.43.64,1.43,1.43-.64,1.43-1.43,1.43Z"/>
    </g>
  </g>
  <g>
    <g>
      <polygon class="cls-3" points="17.04 3.16 52.47 3.16 59.94 7.82 17.04 7.82 17.04 3.16"/>
      <polygon class="cls-4" points="17.04 12.45 52.47 12.45 59.94 7.79 17.04 7.79 17.04 12.45"/>
    </g>
    <path class="cls-1" d="m56.38,7.5H18.98c-.37,0-.37.58,0,.58h37.4c.37,0,.37-.58,0-.58h0Z"/>
  </g>
</svg>