<svg id="ehbiAz92gfQ1" xmlns="http://www.w3.org/2000/svg" xmlns:xlink="http://www.w3.org/1999/xlink" viewBox="0 0 267.77 331.83" shape-rendering="geometricPrecision" text-rendering="geometricPrecision"><g transform="matrix(.849821 0 0 0.849821 20.102466 40.44222)"><g><ellipse id="ehbiAz92gfQ4" rx="133.89" ry="21.94" transform="translate(133.89 309.9)" fill="#bce6f9"/><ellipse id="ehbiAz92gfQ5" rx="100.47" ry="18.21" transform="translate(133.89 308.51)" fill="#45b4e2"/><ellipse id="ehbiAz92gfQ6" rx="70.14" ry="12.43" transform="translate(133.89 306.47)" fill="#3496b5"/></g><g><g id="ehbiAz92gfQ8" transform="matrix(0 0 0 0 133.203364 304.181126)"><path d="M172.09,125.34c-6.83-6.61-33.83-11.04-37.93-11.68v-.08c0,0-.11.02-.27.04-.17-.03-.27-.04-.27-.04v.08c-4.11.64-31.1,5.07-37.93,11.68-7.4,7.16,4.93,59.32,10.85,62.89h54.72c5.92-3.58,18.25-55.73,10.85-62.89h-.02Z" fill="#2d2d2c"/><g><rect width="13.61" height="99.71" rx="0" ry="0" transform="translate(105.66 184.14)" fill="#2d2d2c"/><rect width="13.61" height="99.71" rx="0" ry="0" transform="translate(148.5 184.14)" fill="#2d2d2c"/><path d="M151.08,225.05v-.21c0,.07-.01.14-.01.21h.01ZM116.7,184.14v40.7c0-8.07,7.7-14.61,17.19-14.61s17.19,6.54,17.19,14.61v-40.7h-34.38Zm.01,40.91c0-.07-.01-.14-.01-.21v.21h.01Z" fill="#2d2d2c"/></g><g><g><path d="M95.95,163.69c0,0,3.46,16.36,6.71,20.45c0,0,15.4-6.39,20.45-7.67l-4.26-16.11-22.91,3.32.01.01Z" fill="#dad9d7"/><path d="M102.19,186l-.72-.91c-3.38-4.25-6.65-19.38-7.02-21.09l-.34-1.6l25.88-3.76l5,18.93-1.5.38c-4.89,1.24-20.08,7.53-20.24,7.6l-1.07.44.01.01Zm-4.38-21.03c1.09,4.79,3.36,13.6,5.44,17.27c3.35-1.37,12.96-5.27,18-6.83l-3.52-13.33-19.92,2.89Z" fill="#9a9a9a"/></g><g><path d="M171.82,163.69c0,0-3.46,16.36-6.71,20.45c0,0-15.4-6.39-20.45-7.67l4.26-16.11l22.91,3.32-.01.01Z" fill="#dad9d7"/><path d="M165.59,186l-1.07-.44c-.15-.06-15.35-6.36-20.24-7.6l-1.5-.38l5-18.93l25.88,3.76-.34,1.6c-.36,1.71-3.63,16.84-7.02,21.09l-.72.91.01-.01Zm-19.06-10.59c5.04,1.56,14.65,5.45,18,6.83c2.08-3.67,4.36-12.48,5.44-17.27l-19.92-2.89-3.52,13.33Z" fill="#9a9a9a"/></g><g><path d="M133.89,158.9l-19.08,6.9c0,0,6.42,25.26,19.08,25.26s19.08-25.26,19.08-25.26l-19.08-6.9Z" fill="#dad9d7"/><path d="M133.89,192.58c-13.7,0-20.29-25.33-20.57-26.41l-.34-1.35l20.91-7.56l20.91,7.56-.34,1.35c-.28,1.08-6.87,26.41-20.57,26.41Zm-17.22-25.83c1.5,5.06,7.46,22.76,17.22,22.76s15.71-17.7,17.22-22.76l-17.22-6.22-17.22,6.22Z" fill="#9a9a9a"/></g><g><path d="M89.56,142.98c.29,5.99.29,21.48,3.21,23.78s38.7-1.66,40.37-7.86c1.15-4.29.71-13.93.33-19.47-.17-2.49-1.95-4.57-4.39-5.14-10.97-2.54-40.34-7.8-39.53,8.69h.01Z" fill="#dad9d7"/><path d="M98.12,168.94c-3.12,0-5.43-.29-6.29-.97-2.55-2.01-3.26-9.13-3.67-21.57-.04-1.28-.08-2.43-.13-3.34v0c-.19-3.82,1.06-6.88,3.71-9.1c8.04-6.72,27.07-3.61,37.69-1.15c3.11.72,5.35,3.34,5.57,6.53.46,6.74.78,15.68-.38,19.97-.54,2.03-2.96,3.69-7.61,5.23-7.28,2.41-20.79,4.41-28.89,4.41v-.01Zm-7.03-26.03c.05.93.08,2.09.13,3.39.16,4.86.59,17.75,2.5,19.26c2.5,1.28,25.46-.76,34.87-4.91c2.75-1.21,3.05-2.06,3.07-2.15.8-2.99.91-9.9.28-18.96-.13-1.83-1.41-3.33-3.2-3.75-16.88-3.9-29.98-3.7-35.03.52-1.9,1.59-2.76,3.75-2.62,6.6v0Z" fill="#9a9a9a"/></g><g><path d="M178.21,142.98c-.29,5.99-.29,21.48-3.21,23.78s-38.7-1.66-40.37-7.86c-1.15-4.29-.71-13.93-.33-19.47.17-2.49,1.95-4.57,4.39-5.14c10.97-2.54,40.34-7.8,39.53,8.69h-.01Z" fill="#dad9d7"/><path d="M169.65,168.94c-8.11,0-21.61-2-28.89-4.41-4.65-1.54-7.07-3.2-7.61-5.23-1.15-4.29-.84-13.23-.38-19.97.22-3.18,2.46-5.81,5.57-6.53c10.62-2.45,29.65-5.57,37.69,1.15c2.65,2.22,3.9,5.28,3.71,9.1v0c-.04.92-.08,2.06-.13,3.35-.42,12.44-1.12,19.55-3.67,21.56-.86.68-3.18.97-6.29.97v.01ZM160.18,133c-5.88,0-13.08.93-21.15,2.79-1.79.41-3.08,1.92-3.2,3.75-.62,9.06-.52,15.98.28,18.96.03.09.32.94,3.07,2.15c9.4,4.14,32.37,6.19,34.93,4.86c1.84-1.46,2.28-14.36,2.44-19.21.04-1.3.08-2.46.13-3.39v0c.14-2.85-.72-5.01-2.62-6.6-2.64-2.21-7.47-3.31-13.88-3.31Z" fill="#9a9a9a"/></g><g><path d="M142.01,155.5c-.37,0-.74-.09-1.08-.28l-16.84-9.31c-1.08-.6-1.47-1.96-.87-3.04s1.96-1.47,3.04-.87l16.84,9.31c1.08.6,1.47,1.96.87,3.04-.4.74-1.17,1.15-1.96,1.15Z" fill="#2d2d2c"/><path d="M143.79,144.81c-.18.32-.45.59-.79.79l-16.54,9.85c-1.06.63-2.43.28-3.06-.78s-.29-2.43.78-3.06l16.54-9.85c1.06-.63,2.43-.28,3.06.78.43.72.41,1.59,0,2.28l.01-.01Z" fill="#2d2d2c"/></g></g><g id="ehbiAz92gfQ33"><path d="M79.51,198.54c-.5-1-12.24-24.79-6.66-47.6c5.94-24.25,35.28-31.39,36.52-31.68l2.8,11.95-1.4-5.97l1.41,5.97c-.23.06-23.28,5.76-27.42,22.66-4.52,18.47,5.61,38.97,5.71,39.17l-10.97,5.5h.01Z" fill="#2d2d2c"/><g><g><path d="M93.42,204.64c0,0,6.91,4.07,8.32,6.32c1.41,2.26.56,7.89,0,9.02s-3.14,1.41-4.39,0c0,0-.12,4.79-.96,5.92-.85,1.13-3.88,2.72-6.16.42-1.28-1.3-5.07-1.49-6.76-1.49-1.14,0-3.21-2.35-4.43-3.87-.63-.79-.9-1.79-.75-2.79.43-2.73,1.32-8.43,1.74-10.92.57-3.34,8.02-6.18,13.4-2.61h-.01Z" fill="#e2bc33"/><path d="M92.93,229.04c-1.43,0-2.74-.56-3.8-1.63-.5-.5-2.65-1.04-5.67-1.04-.96,0-2.47-.51-5.63-4.45-.9-1.12-1.29-2.57-1.07-3.98.38-2.43,1.31-8.37,1.74-10.94.31-1.83,1.87-3.48,4.29-4.53c2.95-1.28,7.5-1.72,11.43.87c1.29.76,7.29,4.38,8.8,6.81c1.77,2.83.79,9.08.07,10.52-.47.95-1.49,1.59-2.8,1.76-.53.07-1.06.05-1.56-.04-.16,1.72-.48,3.56-1.14,4.43-.72.97-2.38,2.07-4.29,2.2-.13,0-.26.02-.38.02h.01Zm-9.38-5.74c2.23,0,6.11.28,7.76,1.95.52.53,1.11.75,1.79.71.98-.07,1.82-.67,2.05-.98.29-.48.6-2.85.66-5.04l.1-3.9l2.59,2.92c.22.25.61.41,1.05.43.48.02.81-.12.87-.18.4-.86,1.03-5.83.02-7.45-.83-1.33-5.06-4.2-7.79-5.81l-.07-.04c-2.92-1.94-6.44-1.55-8.55-.64-1.57.68-2.38,1.61-2.48,2.23-.43,2.56-1.36,8.47-1.74,10.9-.09.56.07,1.14.43,1.59c1.86,2.32,2.96,3.16,3.32,3.3l-.01.01Z" fill="#85732d"/></g><path d="M94.72,221.43c0,1.14-.92,2.06-2.06,2.06s-2.06-.92-2.06-2.06.92-2.06,2.06-2.06s2.06.92,2.06,2.06Z" fill="#85732d"/><path d="M90.12,219.36c0,1.14-.92,2.06-2.06,2.06s-2.06-.92-2.06-2.06.92-2.06,2.06-2.06s2.06.92,2.06,2.06Z" fill="#85732d"/><path d="M85.02,218.85c0,1.14-.92,2.06-2.06,2.06s-2.06-.92-2.06-2.06.92-2.06,2.06-2.06s2.06.92,2.06,2.06Z" fill="#85732d"/></g><g><g><path d="M86.29,168.82c0,0,8.56,14.47,8.56,30.5c0,0,0,6.99-5.69,7.54c0,0-12.25-26.86-12.51-36.27c0,0,2.78-2.05,9.64-1.78v.01Z" fill="#dad9d7"/><path d="M88.21,208.49l-.46-1c-.51-1.11-12.38-27.26-12.64-36.86l-.02-.8.64-.48c.33-.24,3.42-2.36,10.61-2.07l.83.03.43.72c.36.61,8.77,15.02,8.77,31.28c0,2.9-1.48,8.53-7.08,9.07l-1.09.11h.01Zm-9.97-37.01c.84,8.56,9.6,28.68,11.81,33.63c3.22-1.11,3.26-5.59,3.26-5.79c0-13.43-6.26-25.89-7.94-28.99-3.79-.04-6.08.69-7.13,1.15Z" fill="#9a9a9a"/></g><g><path d="M67.26,164.62c0,0,8.86,2.42,10.81,6.11s11.08,36.13,11.08,36.13l-8.96,2.19c0,0-15.58-15.37-12.93-44.42v-.01Z" fill="#dad9d7"/><path d="M79.72,210.74l-.61-.6c-.66-.65-16.07-16.22-13.38-45.65l.17-1.82l1.77.48c.97.27,9.57,2.71,11.76,6.87c1.97,3.72,10.26,33.09,11.2,36.43l.43,1.53-11.34,2.76ZM68.64,166.66c-1.54,23.71,9.42,37.69,12.06,40.69l6.54-1.6c-2.8-9.9-9.08-31.55-10.53-34.3-.99-1.88-4.94-3.72-8.07-4.79Z" fill="#9a9a9a"/></g><g><path d="M73.08,167.86c-.68,7.2-4.43,12.74-8.38,12.36s-6.6-6.51-5.92-13.71s4.43-12.74,8.38-12.36c3.95.37,6.6,6.51,5.92,13.71Z" fill="#dad9d7"/><path d="M65.09,181.77c-.18,0-.36,0-.53-.03-2.49-.23-4.61-2.09-5.96-5.21-1.22-2.82-1.7-6.44-1.34-10.17.77-8.17,5.19-14.23,10.05-13.75c4.87.46,8.07,7.22,7.3,15.39v0c-.35,3.74-1.5,7.2-3.22,9.74-1.78,2.62-4,4.03-6.3,4.03Zm1.71-26.11c-2.62,0-5.87,4.39-6.5,10.99-.3,3.23.09,6.31,1.11,8.66.87,2.02,2.12,3.25,3.43,3.38s2.77-.85,4-2.68c1.44-2.12,2.4-5.07,2.71-8.3.64-6.78-1.88-11.79-4.54-12.04-.07,0-.14-.01-.22-.01h.01Z" fill="#9a9a9a"/></g><g><path d="M88.29,183.44c-.2.07-.42.09-.64.05l-10.93-1.86c-.7-.12-1.17-.79-1.05-1.49s.79-1.17,1.49-1.05l10.93,1.86c.7.12,1.17.79,1.05,1.49-.08.48-.42.85-.85,1Z" fill="#9a9a9a"/><path d="M87.22,177.29c-.04.21-.13.41-.28.58l-7.12,8.5c-.46.54-1.27.62-1.81.16s-.62-1.27-.16-1.81l7.12-8.5c.46-.54,1.27-.62,1.81-.16.37.31.53.79.44,1.23Z" fill="#9a9a9a"/></g><g><path d="M91.63,196.62c-.2.07-.42.09-.64.05l-10.93-1.86c-.7-.12-1.17-.79-1.05-1.49s.79-1.17,1.49-1.05l10.93,1.86c.7.12,1.17.79,1.05,1.49-.08.48-.42.85-.85,1Z" fill="#9a9a9a"/><path d="M90.57,190.46c-.04.21-.13.41-.28.58l-7.12,8.5c-.46.54-1.27.62-1.81.16s-.62-1.27-.16-1.81l7.12-8.5c.46-.54,1.27-.62,1.81-.16.37.31.52.79.44,1.23Z" fill="#9a9a9a"/></g><path d="M65.93,162.41l-19.15,3.32l17.39,6.52c0,0,5.07-1.66,1.77-9.84h-.01Z" fill="#9a9a9a"/></g></g><g id="ehbiAz92gfQ59"><path d="M188.26,198.54c.5-1,12.25-24.79,6.66-47.6-5.94-24.25-35.28-31.39-36.52-31.68l-2.8,11.95l1.4-5.97-1.41,5.97c.23.06,23.28,5.76,27.42,22.66c4.52,18.47-5.61,38.97-5.71,39.17l10.97,5.5h-.01Z" fill="#2d2d2c"/><g><g><path d="M165.2,119l-3.38,12.1c-1.62,5.8,2.54,11.61,8.55,11.94c11.7.64,28.84.72,34.86-3.6c0,0-5.33-16.21-33.54-24.1-2.79-.78-5.7.87-6.48,3.66h-.01Z" fill="#dad9d7"/><path d="M170.28,144.57c-3.33-.18-6.35-1.84-8.29-4.55-1.95-2.71-2.55-6.12-1.65-9.33l3.38-12.1c.49-1.75,1.63-3.2,3.21-4.1s3.42-1.12,5.17-.63c28.67,8.02,34.36,24.41,34.58,25.1l.35,1.07-.91.66c-4.54,3.26-14.63,4.2-24.76,4.2-3.78,0-7.57-.13-11.08-.32Zm.99-27.75c-.96-.27-1.96-.14-2.83.35s-1.5,1.29-1.76,2.25l-3.38,12.1c-.65,2.32-.21,4.77,1.19,6.72s3.57,3.14,5.97,3.27c16.29.88,27.83-.06,32.84-2.68-1.8-3.67-9.26-15.65-32.02-22.01h-.01Z" fill="#9a9a9a"/></g><path d="M176.98,122.26c-.57.98,2.41,3.76,6.65,6.21s8.14,3.63,8.7,2.65-2.41-3.76-6.65-6.21-8.14-3.63-8.7-2.65Z" fill="#fdfeff"/><path d="M167.81,136.59c0,1.7,1.37,3.07,3.07,3.07s3.07-1.37,3.07-3.07-1.37-3.07-3.07-3.07-3.07,1.37-3.07,3.07Z" fill="#2d2d2c"/></g><g><g><g><path d="M174.35,204.64c0,0-6.91,4.07-8.32,6.32-1.41,2.26-.56,7.89,0,9.02s3.14,1.41,4.39,0c0,0,.12,4.79.96,5.92s3.88,2.72,6.16.42c1.28-1.3,5.07-1.49,6.76-1.49c1.14,0,3.21-2.35,4.43-3.87.63-.79.9-1.79.75-2.79-.43-2.73-1.32-8.43-1.74-10.92-.57-3.34-8.02-6.18-13.4-2.61h.01Z" fill="#e2bc33"/><path d="M174.46,229.03c-1.92-.13-3.57-1.23-4.29-2.2-.66-.88-.98-2.72-1.14-4.43-.51.09-1.04.11-1.56.04-1.3-.17-2.33-.81-2.8-1.76-.72-1.44-1.7-7.7.07-10.52c1.52-2.43,7.52-6.05,8.8-6.81c3.94-2.59,8.48-2.15,11.43-.87c2.41,1.04,3.98,2.7,4.29,4.53.43,2.57,1.36,8.51,1.74,10.94.22,1.41-.17,2.86-1.07,3.98-3.16,3.94-4.67,4.45-5.63,4.45-3.01,0-5.17.54-5.67,1.04-1.06,1.07-2.37,1.63-3.8,1.63-.13,0-.25,0-.38-.02h.01Zm13.08-9.02c.36-.45.52-1.03.43-1.59-.38-2.43-1.3-8.35-1.74-10.9-.1-.62-.91-1.55-2.48-2.23-2.12-.92-5.63-1.3-8.55.64l-.07.04c-2.73,1.61-6.96,4.48-7.79,5.81-1.01,1.61-.38,6.58.02,7.45.06.06.39.21.87.18.44-.02.83-.18,1.05-.43l2.59-2.92.1,3.9c.05,2.19.37,4.55.66,5.04.23.31,1.07.91,2.05.98.68.04,1.27-.19,1.79-.71c1.66-1.67,5.54-1.94,7.76-1.95.36-.14,1.46-.98,3.32-3.3l-.01-.01Z" fill="#85732d"/></g><path d="M173.05,221.43c0,1.14.92,2.06,2.06,2.06s2.06-.92,2.06-2.06-.92-2.06-2.06-2.06-2.06.92-2.06,2.06Z" fill="#85732d"/><path d="M177.65,219.36c0,1.14.92,2.06,2.06,2.06s2.06-.92,2.06-2.06-.92-2.06-2.06-2.06-2.06.92-2.06,2.06Z" fill="#85732d"/><path d="M182.75,218.85c0,1.14.92,2.06,2.06,2.06s2.06-.92,2.06-2.06-.92-2.06-2.06-2.06-2.06.92-2.06,2.06Z" fill="#85732d"/></g><g><g><path d="M181.49,168.82c0,0-8.56,14.47-8.56,30.5c0,0,0,6.99,5.69,7.54c0,0,12.25-26.86,12.51-36.27c0,0-2.78-2.05-9.64-1.78v.01Z" fill="#dad9d7"/><path d="M178.47,208.38c-5.6-.55-7.08-6.17-7.08-9.07c0-16.25,8.41-30.67,8.77-31.28l.43-.72.83-.03c7.19-.29,10.28,1.83,10.61,2.07l.65.48-.02.8c-.27,9.6-12.14,35.75-12.64,36.86l-.46,1-1.09-.11Zm3.93-38.06c-1.68,3.09-7.94,15.56-7.94,28.99c0,.21.04,4.68,3.26,5.79c2.21-4.95,10.97-25.07,11.81-33.63-1.05-.46-3.35-1.19-7.13-1.15Z" fill="#9a9a9a"/></g><g><path d="M200.52,164.62c0,0-8.86,2.42-10.81,6.11s-11.08,36.13-11.08,36.13l8.96,2.19c0,0,15.58-15.37,12.93-44.42v-.01Z" fill="#dad9d7"/><path d="M176.72,207.97l.43-1.53c.94-3.34,9.24-32.71,11.2-36.43c2.2-4.16,10.79-6.6,11.76-6.87l1.77-.48.17,1.82c2.69,29.44-12.72,45-13.38,45.65l-.61.6-11.34-2.76Zm14.35-36.53c-1.46,2.76-7.73,24.4-10.53,34.3l6.54,1.6c2.64-3,13.6-16.98,12.06-40.69-3.13,1.07-7.08,2.91-8.07,4.79Z" fill="#9a9a9a"/></g><g><path d="M194.69,167.86c.68,7.2,4.43,12.74,8.38,12.36s6.6-6.51,5.92-13.71-4.43-12.74-8.38-12.36-6.6,6.51-5.92,13.71Z" fill="#dad9d7"/><path d="M196.39,177.74c-1.73-2.54-2.87-6-3.22-9.74v0c-.77-8.17,2.44-14.93,7.3-15.39c4.86-.48,9.28,5.58,10.05,13.75.35,3.73-.12,7.35-1.34,10.17-1.35,3.13-3.47,4.98-5.96,5.21-.18.02-.36.03-.53.03-2.31,0-4.53-1.41-6.3-4.03Zm4.37-22.07c-2.66.25-5.18,5.26-4.54,12.04.3,3.23,1.27,6.18,2.71,8.3c1.24,1.82,2.7,2.8,4,2.68c1.31-.12,2.56-1.35,3.43-3.38c1.02-2.36,1.41-5.44,1.11-8.66-.62-6.6-3.87-10.99-6.5-10.99-.07,0-.14,0-.22.01h.01Z" fill="#9a9a9a"/></g><g><path d="M179.49,183.44c.2.07.42.09.64.05l10.93-1.86c.7-.12,1.17-.79,1.05-1.49s-.79-1.17-1.49-1.05l-10.93,1.86c-.7.12-1.17.79-1.05,1.49.08.48.42.85.85,1Z" fill="#9a9a9a"/><path d="M180.55,177.29c.04.21.13.41.28.58l7.12,8.5c.46.54,1.27.62,1.81.16s.62-1.27.16-1.81l-7.12-8.5c-.46-.54-1.27-.62-1.81-.16-.37.31-.52.79-.44,1.23Z" fill="#9a9a9a"/></g><g><path d="M176.14,196.62c.2.07.42.09.64.05l10.93-1.86c.7-.12,1.17-.79,1.05-1.49s-.79-1.17-1.49-1.05l-10.93,1.86c-.7.12-1.17.79-1.05,1.49.08.48.42.85.85,1Z" fill="#9a9a9a"/><path d="M177.2,190.46c.04.21.13.41.28.58l7.12,8.5c.46.54,1.27.62,1.81.16s.62-1.27.16-1.81l-7.12-8.5c-.46-.54-1.27-.62-1.81-.16-.37.31-.53.79-.44,1.23Z" fill="#9a9a9a"/></g><path d="M201.84,162.41l19.15,3.32-17.39,6.52c0,0-5.07-1.66-1.77-9.84h.01Z" fill="#9a9a9a"/></g></g></g><g><g><path d="M102.57,119l3.38,12.1c1.62,5.8-2.54,11.61-8.55,11.94-11.7.64-28.84.72-34.86-3.6c0,0,5.33-16.21,33.54-24.1c2.79-.78,5.7.87,6.48,3.66h.01Z" fill="#dad9d7"/><path d="M86.41,144.89c-10.13,0-20.21-.94-24.76-4.2l-.91-.66.35-1.07c.23-.69,5.92-17.08,34.58-25.1c1.75-.49,3.58-.27,5.17.63c1.58.89,2.72,2.35,3.21,4.1l3.38,12.1c.9,3.22.3,6.62-1.65,9.33-1.94,2.71-4.96,4.37-8.29,4.55-3.51.19-7.3.32-11.08.32Zm-21.93-6.06c5.01,2.61,16.55,3.56,32.84,2.68c2.39-.13,4.57-1.32,5.97-3.27s1.83-4.4,1.19-6.72l-3.38-12.1c-.27-.96-.89-1.76-1.76-2.25s-1.87-.61-2.83-.35c-22.76,6.37-30.21,18.34-32.02,22.01h-.01Z" fill="#9a9a9a"/></g><path d="M90.79,122.26c.57.98-2.41,3.76-6.65,6.21s-8.14,3.63-8.7,2.65s2.41-3.76,6.65-6.21s8.14-3.63,8.7-2.65Z" fill="#fdfeff"/><path d="M99.96,136.59c0,1.7-1.37,3.07-3.07,3.07s-3.07-1.37-3.07-3.07s1.37-3.07,3.07-3.07s3.07,1.37,3.07,3.07Z" fill="#2d2d2c"/></g><g><g><path d="M100.06,285.9l-7.78,15.76l11.51,5.38c0,0,14.86-.86,16.78-3.18s.16-13.52-1.11-15.23-16.67-8.27-19.41-2.73h.01Z" fill="#2d2d2c"/><g><path d="M102.13,243.29L95.36,291.7c0,0,13.79-3.07,24.1,9.89c0,0,7.3,1.02,7.61-4.43s-5.33-43.98-5.33-43.98-18.1-20.77-19.62-9.89h.01Z" fill="#dad9d7"/><path d="M120.83,303.2c-.82,0-1.42-.07-1.58-.1l-.61-.09-.38-.48c-9.61-12.06-22.44-9.37-22.57-9.34l-2.16.48l7.07-50.6c.41-2.93,1.89-3.95,3.06-4.3c5.72-1.7,17.03,10.86,19.24,13.39l.3.34.06.45c.23,1.58,5.66,38.74,5.34,44.29-.1,1.76-.81,3.22-2.06,4.25-1.75,1.44-4.15,1.71-5.72,1.71h.01Zm-.58-3.09c1.17.06,3.2-.05,4.36-1c.59-.49.89-1.14.94-2.05.24-4.14-3.29-29.81-5.25-43.22-5.71-6.47-13.27-12.87-15.76-12.13-.55.16-.79,1.06-.89,1.79l-6.49,46.41c4.4-.35,14.7.09,23.09,10.2Z" fill="#9a9a9a"/></g><g><path d="M108.44,249.28c-.76,7.19-4.57,12.69-8.51,12.28-3.95-.41-6.53-6.58-5.78-13.77.76-7.19,4.57-12.69,8.51-12.28c3.95.41,6.53,6.58,5.78,13.77Z" fill="#dad9d7"/><path d="M100.36,263.11c-.2,0-.39-.01-.59-.03-2.49-.26-4.59-2.13-5.91-5.28-1.19-2.84-1.63-6.45-1.24-10.18.86-8.16,5.33-14.15,10.2-13.64c4.86.51,8,7.3,7.14,15.46-.39,3.73-1.57,7.18-3.32,9.7-1.79,2.58-4,3.97-6.28,3.97Zm1.9-26.09c-2.62,0-5.89,4.35-6.59,10.92-.34,3.23.02,6.31,1.01,8.68.85,2.03,2.09,3.28,3.4,3.41c1.3.14,2.78-.82,4.03-2.63c1.46-2.11,2.45-5.05,2.79-8.28.71-6.78-1.75-11.81-4.41-12.09-.08,0-.16-.01-.24-.01h.01Z" fill="#9a9a9a"/></g><path d="M101.35,243.76l-19.19,3.12l17.32,6.7c0,0,5.09-1.61,1.87-9.82Z" fill="#9a9a9a"/><g><path d="M80.9,303.56c0,0,8.95-8.52,17.07-6.82c8.12,1.71,13.52,7.5,14.91,10.91s-45.23,5.12-31.98-4.09Z" fill="#dad9d7"/><path d="M95.3,311.9c-8.1,0-16.19-1.02-17.88-3.87-.74-1.25-.9-3.25,2.52-5.66c1.04-.96,9.9-8.9,18.35-7.12c8.91,1.87,14.55,8.25,16.01,11.83.12.29.61,1.8-1.39,2.8-2.26,1.12-9.94,2.03-17.61,2.03v-.01Zm-15.23-5.38c0,0,.45.62,2.86,1.23c7.98,2,24.27.98,28.11-.39-1.79-3.22-6.68-7.71-13.38-9.11-7.25-1.53-15.61,6.35-15.69,6.43l-.18.15c-1.54,1.07-1.71,1.65-1.71,1.7v0l-.01-.01Z" fill="#9a9a9a"/></g></g><g><path d="M167.71,285.9l7.78,15.76-11.51,5.38c0,0-14.86-.86-16.78-3.18s-.16-13.52,1.11-15.23s16.67-8.27,19.4-2.73Z" fill="#2d2d2c"/><g><path d="M165.64,243.29l6.77,48.41c0,0-13.79-3.07-24.1,9.89c0,0-7.3,1.02-7.61-4.43s5.33-43.98,5.33-43.98s18.1-20.77,19.62-9.89h-.01Z" fill="#dad9d7"/><path d="M141.22,301.49c-1.25-1.02-1.96-2.49-2.06-4.25-.32-5.55,5.11-42.71,5.34-44.29l.07-.45.3-.34c2.21-2.54,13.52-15.09,19.24-13.39c1.17.35,2.65,1.38,3.06,4.3l7.07,50.6-2.16-.48c-.13-.03-12.96-2.72-22.57,9.34l-.38.48-.61.09c-.16.02-.76.1-1.58.1-1.58,0-3.97-.27-5.72-1.71Zm29.39-11.58l-6.49-46.41c-.1-.72-.34-1.62-.89-1.79-2.48-.74-10.05,5.66-15.76,12.13-1.96,13.4-5.49,39.07-5.25,43.22.05.91.35,1.56.94,2.05c1.15.95,3.19,1.06,4.36,1c8.38-10.12,18.69-10.56,23.09-10.2Z" fill="#9a9a9a"/></g><g><path d="M159.33,249.28c.76,7.19,4.57,12.69,8.51,12.28c3.95-.41,6.53-6.58,5.78-13.77-.76-7.19-4.57-12.69-8.51-12.28-3.95.41-6.53,6.58-5.78,13.77Z" fill="#dad9d7"/><path d="M161.13,259.15c-1.75-2.53-2.93-5.97-3.32-9.7-.86-8.16,2.28-14.95,7.14-15.46c4.87-.51,9.34,5.48,10.2,13.64.39,3.73-.05,7.35-1.24,10.18-1.32,3.14-3.42,5.02-5.91,5.28-.2.02-.39.03-.59.03-2.28,0-4.49-1.39-6.28-3.97Zm4.14-22.11c-2.66.28-5.12,5.31-4.41,12.09.34,3.23,1.33,6.17,2.79,8.28c1.26,1.81,2.73,2.77,4.03,2.63c1.31-.14,2.54-1.38,3.4-3.41.99-2.37,1.35-5.45,1.01-8.68-.69-6.57-3.96-10.92-6.59-10.92-.08,0-.16,0-.24.01h.01Z" fill="#9a9a9a"/></g><path d="M166.43,243.76l19.19,3.12-17.32,6.7c0,0-5.09-1.61-1.87-9.82Z" fill="#9a9a9a"/><g><path d="M186.87,303.56c0,0-8.95-8.52-17.07-6.82-8.12,1.71-13.52,7.5-14.91,10.91s45.23,5.12,31.98-4.09Z" fill="#dad9d7"/><path d="M154.87,309.87c-2-.99-1.51-2.5-1.39-2.8c1.46-3.58,7.11-9.96,16.01-11.83c8.45-1.78,17.31,6.16,18.35,7.12c3.42,2.41,3.26,4.41,2.52,5.66-1.69,2.86-9.78,3.87-17.88,3.87-7.67,0-15.35-.91-17.61-2.03v.01Zm32.85-3.35c0,0-.17-.62-1.71-1.7l-.18-.15c-.08-.08-8.45-7.95-15.69-6.43-6.7,1.41-11.58,5.89-13.38,9.11c3.84,1.37,20.13,2.38,28.11.39c2.41-.6,2.83-1.23,2.86-1.23v0l-.01.01Z" fill="#9a9a9a"/></g></g></g></g><g id="ehbiAz92gfQ123" transform="matrix(0 0 0 0 133.897583 69.835668)"><g><path d="M127.93,48.52c0,0-3.48-6.92-10.03-7.13-6.54-.21-16.91-6.87-16.96-13.62-.05-6.53,4.78-17.15,8.77-15.41c4.02,1.76,4.22,6.79,2.29,9.08c0,0,2.69-4.08,6.85-1c0,0,.07-8.1,4.83-9.61c4.72-1.5,4.68,5.52,4.68,5.52s3.49-15.96,11.83-16.34c8.32-.38,13.16,5.12,11.72,10.55-1.48,5.58-7.79,8.49-7.79,8.49s13.84-2.54,15.86,3.67c2.09,6.4.02,12.1-4.59,11.47c0,0,6.91-.74,6.37,4.26-.56,5.12-5.22,4.12-5.22,4.12s5.01,6.85-.15,7.45c-4.93.57-4.85-5.68-4.85-5.68s-4.7-1.88-7.78-.91c-3.09.98-1.05,5.74-.89,7.22c0,0-12.04.48-14.93-2.12l-.01-.01Z" fill="#ca202c"/><path d="M128.4,46.57c0,0-2.43-4.75-5.36-5.36-2.92-.61-11.63-2.83-14.65-4.83-3-1.98-5.96-9.73-4.34-13.87c1.59-4.06,6.53-.56,7.01,2.44c0,0,3.58-1.88,5.22.19c1.66,2.09.41,5.74.41,5.74s3.84-2.51,6.21-.58c2.38,1.94,2.54,4.89,1.63,5.69-.92.8,5.57,2.4,5.78,4.22.21,1.83-.29,5.55-1.9,6.38l-.01-.02Z" fill="#ef3e56"/><path d="M127.74,30.87c0,0-5.97-7.06-3.3-9.48c2.64-2.39,5.4-.19,5.38,1.49c0,0,.29-6.25,3.92-6.07s6.22,2.19,4.74,4.03c0,0,4.75,0,4.57,2.04-.18,2.06-.79,3.96-2.32,4.53c0,0,2.9,2.49.72,3.85-2.2,1.37-6.86-.58-6.64-2.89c0,0-6.54-3.24-7.07,2.5Z" fill="#ef3e56"/><path d="M135.65,11.27c0,0,.82-4.87,4.15-4.87s6.06,1.03,5.71,3.47c-.36,2.46-3.45,6.22-3.45,6.22s1.62-3.58-.3-4.99c-1.91-1.4-6.11.18-6.11.18v-.01Z" fill="#ef3e56"/><path d="M148.6,26.64c0,0,3.95.19,4.66,1.33.71,1.15,1.02,3.08.4,3.86-.63.78-1.71,1.56-2.82,1.56s-3.38-1.37-3.38-1.37s3.71-1.36,3.23-2.52c-.48-1.15-2.08-2.87-2.08-2.87l-.01.01Z" transform="translate(.000001 0)" fill="#ef3e56"/><g><path d="M143.6,49.73c.05,1.59-4.04,2.9-9.13,2.9s-9.18-1.3-9.14-2.9c.05-1.58,4.14-2.84,9.13-2.84s9.09,1.27,9.14,2.84Z" fill="#85732d"/><polygon points="143.76,55.07 125.17,55.07 125.33,49.61 143.59,49.61 143.76,55.07" fill="#85732d"/></g><g><path d="M142.61,50.02c.04,1.42-3.61,2.59-8.15,2.59s-8.19-1.16-8.15-2.59c.04-1.41,3.69-2.54,8.15-2.54s8.11,1.13,8.15,2.54Z" fill="#e2bc33"/><polygon points="142.74,54.78 126.19,54.78 126.32,49.92 142.61,49.92 142.74,54.78" fill="#e2bc33"/></g></g><g><g><path d="M134.7,128.4l-.31-.07c-.17-.04-4.28-.99-7.48-1.95-3.26-.98-19.42-14.61-22.45-17.18l-.49-.42.24-.61c2.38-6.14,1.73-16.02,1.72-16.12l-.09-1.31l28.85,5.01l28.85-5.01-.09,1.31c0,.1-.65,9.97,1.74,16.12l.24.61-.49.42c-3.03,2.57-19.18,16.2-22.44,17.18-3.2.96-7.3,1.91-7.48,1.95l-.31.07h-.01Zm-27.99-20.36c7.03,5.89,18.97,15.48,21.04,16.1c2.61.78,5.94,1.57,6.95,1.81c1.02-.24,4.35-1.03,6.95-1.81c2.07-.62,14-10.21,21.03-16.1-1.75-5.17-1.69-12.12-1.57-14.95l-26.42,4.62-26.42-4.62c.12,2.83.19,9.78-1.56,14.95Z" fill="#9a9a9a"/><path d="M166.21,106.68v0c-.49-.51-1.19-.81-1.92-.84-.73-.02-1.39.23-1.81.71-.58.64-1.54,1.67-2.78,2.9-3.74,3.51-9.43,7.98-10.02,8.45-5.38,3.76-10.49,6.12-15.1,6.93-4.62-.81-9.73-3.16-15.05-6.89-.64-.5-6.28-4.94-10.05-8.47-1.26-1.25-2.21-2.28-2.79-2.93-.43-.47-1.08-.73-1.81-.71s-1.43.33-1.92.84c-.71.74-.82,1.76-.27,2.5.31.45,4.49,6.35,12.32,11.83c8.18,5.82,15.42,7.78,18.26,8.35l.03.4l1.3-.17l1.41.16v-.41c2.89-.6,10.07-2.57,18.17-8.34c7.83-5.48,12.01-11.38,12.32-11.83.56-.73.45-1.76-.27-2.49l-.02.01Z" fill="#9a9a9a"/></g><path d="M161.68,92.3l-27,4.7-27-4.7c0,0,.74,9.86-1.64,16.12c0,0,18.38,15.49,21.47,16.41c3.1.93,7.18,1.87,7.18,1.87s4.08-.94,7.18-1.87c3.08-.92,21.45-16.41,21.45-16.41-2.38-6.27-1.65-16.12-1.65-16.12h.01Z" fill="#dad9d7"/><path d="M161.2,64.99c-1.09-2.54-11.89-8.41-17.48-10.05-5.51-1.62-9.14-1.21-9.14-1.21s-3.63-.4-9.14,1.21c-5.59,1.64-16.39,7.52-17.48,10.05-1.12,2.59.52,18.53.52,18.53c7.69,3.48,26.1,3.39,26.1,3.39s18.41.09,26.1-3.39c0,0,1.64-15.94.52-18.53Z" fill="#dad9d7"/><path d="M134.78,88.51h-.42c-2.22,0-19.72-.12-27.49-3.66l-.46-.21-.04-.43c-.17-1.82-1.54-16.79-.33-19.54c1.34-3.04,13.21-9.23,18.74-10.84c5.31-1.55,9.01-1.37,9.8-1.3.79-.06,4.49-.24,9.8,1.3c5.53,1.61,17.4,7.8,18.74,10.84c1.21,2.74-.16,17.72-.33,19.54l-.04.43-.46.21c-7.78,3.55-25.27,3.66-27.5,3.66h-.01Zm-.21-1.81c.19,0,18.15.04,26.03-3.2.69-6.84,1.33-16.66.55-18.48v0c-.94-2.18-11.62-8.19-17.49-9.92-5.39-1.58-8.91-1.22-8.94-1.21l-.15.02-.15-.02c0,0-3.6-.35-8.94,1.21-5.87,1.72-16.55,7.73-17.49,9.92-.78,1.82-.14,11.64.55,18.48c7.89,3.25,25.84,3.21,26.02,3.2h.01Z" fill="#9a9a9a"/><g><polygon points="137.53,80.5 131.62,80.5 131.99,48.39 137.16,48.39 137.53,80.5" fill="#9a9a9a"/><polygon points="136.68,80.5 132.47,80.5 132.73,49.02 136.42,49.02 136.68,80.5" fill="#dad9d7"/></g><polygon points="107.51,82.33 108.35,87.15 133.51,99.25 156.24,91.14 161.79,87.59 161.76,83.5 107.51,82.33" fill="#2d2d2c"/><path d="M163.43,89.88c-.28-.16-.51-.37-.64-.62-.22-.43-.51-1.38-.91-4.01-.02-.14-.04-.27-.06-.41h.03c0,0-.01-.25-.01-.25-.09-2.11-.12-4.43,0-4.7l.5-.69-1,.18c-.11.02-11.21,2.03-17.92,2.11l-.4-11.57c.1-.29.88-2.26,4.25-2.28l.66.06-.21-.49c-2.05-3.07-5.84-2.94-7.11-2.81-.06-1.03-.72-3.85-5.85-5.84l-.18-.07v0v29.76c0,0,.04,0,.04,0c.17,0,17.49-1.03,26.94-3.35-.04.03-.08.05-.13.08-11.21,8.44-24.28,10.85-26.55,10.31-.1-.02-.2-.03-.3-.03v44.39c.08-.02.15-.05.23-.07c5.26-1.86,6.72-4.53,7.14-6.14.17-.65.72-1.12,1.4-1.26.75-.15,1.67-.42,2.62-.87.11-.05.2-.1.3-.15c0,0,.32-.17.4-.21c3.25-1.87,4.11-4.47,4.15-4.55.07-.2.13-.4.2-.6-.24.09-.48.19-.71.28-3.29,1.19-4.75.07-5.32-.68-.21-.27-.31-.59-.32-.92-.23-6.49-.48-13.86-.78-22.31-.02-.67.48-1.24,1.22-1.42c6.89-1.68,16.54-8.24,17.47-9.42.08-.1.17-.18.28-.25.41-.27.82-.54,1.23-.82-.22-.11-.43-.23-.65-.35l-.01-.03Z" fill="#e2bc33"/><path d="M134.2,95.31c-1.46.34-7.45-.56-14.62-3.58-1.17-.54-2.76-1.27-4.23-1.98-2.57-1.33-5.17-2.91-7.66-4.78-.03-.02-.06-.04-.09-.05c1.26.31,2.67.6,4.15.86v0c3.12.55,6.6,1.01,9.89,1.37.01,0,.03,0,.04,0v0c6.65.73,12.45,1.09,12.88,1.11v-29.76l-.17.07c-5.12,1.99-5.78,4.81-5.85,5.84-.63-.07-1.79-.12-3.05.17-.08.02-.16.04-.24.06c0,0-.26.07-.32.09-2.54.75-3.42,2.46-3.45,2.53l-.2.4h.55c3.41,0,4.2,1.98,4.3,2.28l-.4,11.57c-1.15-.01-2.44-.09-3.78-.2-.27-.03-8.74-1.04-9.7-1.19-2.59-.39-4.39-.72-4.44-.73l-1.01-.21.5.69c.12.29.1,2.62,0,4.73v.14c0,0,0,0-.01,0-.03.17-.05.33-.08.5-.37,2.44-.64,3.44-.86,3.9-.13.29-.37.54-.69.71-.21.12-.41.23-.62.34.41.29.81.57,1.22.85.1.07.19.14.26.23.86,1.14,10.56,7.76,17.49,9.45.74.18,1.24.76,1.21,1.42-.29,8.46-.55,15.83-.78,22.32-.01.33-.11.65-.32.92-.56.74-2.01,1.86-5.26.71-.28-.13-.56-.27-.85-.41.07.24.13.48.2.72c1.75,3.87,5.4,5.36,7.56,5.8.67.14,1.21.61,1.38,1.26.42,1.61,1.88,4.28,7.13,6.14l.23.08c0,0,0,0,0,0v-44.39c-.12,0-.25,0-.37.03l.06-.01Z" fill="#85732d"/><g><path d="M124.69,103.26c0,0-.04-.04-.06-.05c0,0-.02-.02-.03-.02-.04-.03-.08-.06-.13-.08-.01,0-.02,0-.04-.01-.05-.02-.1-.03-.15-.03c0,0-.06,0-.16.02c0,0-.01,0-.02,0-.15.05-.38.19-.56.55c0,0,0,.02-.01.03-.07.15-.13.32-.17.51-.02.09-.04.19-.04.29-.02.2-.01.39.02.57s.08.33.14.47c.13.27.33.44.56.45.05,0,.1,0,.15-.02.01,0,.03,0,.04-.01.05-.02.1-.04.14-.07c0,0,.02-.01.03-.02.02-.02.05-.03.07-.05v0v0v0c.28-.24.5-.7.54-1.25.04-.54-.09-1.02-.33-1.27c0,0,0,0,0,0l.01-.01Z" fill="#2d2d2c"/><path d="M120.89,104.31c0,0,.09,0,.13-.02.01,0,.02,0,.03-.01.04-.02.08-.04.12-.06c0,0,.02-.01.02-.02.02-.02.04-.03.06-.05v0v0v0c.23-.21.4-.62.42-1.09s-.12-.87-.34-1.08v0c0,0-.04-.03-.05-.04c0,0-.02-.01-.02-.02-.04-.03-.07-.04-.11-.06c0,0-.02,0-.03-.01-.04-.01-.08-.02-.13-.02c0,0-.06,0-.14.02c0,0-.01,0-.02,0-.13.05-.32.17-.46.5-.09.2-.16.45-.17.72-.03.69.27,1.25.68,1.25l.01-.01Z" fill="#2d2d2c"/><path d="M117.88,102.63c.05,0,.1-.01.15-.03.01,0,.03-.01.04-.02.04-.02.07-.04.11-.07c0,0,.02,0,.02-.01v0v0v0c.21-.18.37-.51.4-.91.04-.39-.06-.74-.24-.92v0c0,0-.01,0-.02-.01-.03-.03-.06-.05-.09-.07-.01,0-.02-.02-.04-.02-.04-.02-.09-.04-.14-.04c0,0-.05,0-.12.02c0,0,0,0-.01,0-.11.04-.28.14-.41.41-.09.17-.15.37-.17.6-.05.58.18,1.05.52,1.06v.01Z" fill="#2d2d2c"/><path d="M115.51,101.02c0,0,.02,0,.04-.02.03-.01.06-.03.09-.05c0,0,.01,0,.02-.01v0v0v0c.19-.14.34-.43.39-.77s-.02-.63-.16-.79v0c0,0,0,0-.01-.01-.02-.03-.05-.04-.08-.06c0,0-.02-.01-.03-.02-.04-.02-.08-.03-.12-.04c0,0-.04,0-.1.01c0,0,0,0-.01,0-.1.03-.25.11-.37.34-.08.14-.15.32-.18.51-.07.49.1.91.39.93.04,0,.08,0,.12-.02h.01Z" fill="#2d2d2c"/><path d="M113.25,99.71c0,0,.06-.02.08-.04c0,0,.01,0,.02,0v0v0v0c.17-.12.32-.35.39-.63.07-.29.03-.54-.08-.69v0c0,0,0,0-.01-.01-.02-.02-.04-.04-.06-.06c0,0-.02-.01-.02-.02-.03-.02-.06-.03-.1-.04c0,0-.03,0-.09,0c0,0,0,0-.01,0-.09.02-.22.08-.34.27-.08.12-.15.26-.19.43-.1.42.02.78.27.81.04,0,.07,0,.11-.01c0,0,.02-.01.03-.02v.01Z" fill="#2d2d2c"/><path d="M124.44,107.28c0,0-.04-.04-.06-.05c0,0-.02-.02-.03-.02-.04-.03-.09-.05-.13-.07-.01,0-.02,0-.04-.01-.05-.01-.1-.02-.15-.02c0,0-.06,0-.15.03c0,0-.01,0-.02,0-.15.06-.36.21-.5.58-.1.24-.16.52-.16.83c0,.79.36,1.43.82,1.42.05,0,.1-.01.15-.03.01,0,.03,0,.04-.01.04-.02.09-.04.13-.07c0,0,.02-.02.03-.02.02-.02.04-.04.06-.06c0,0,0,0,0,0v0v0c.26-.25.43-.72.43-1.27s-.17-1-.43-1.23c0,0,0,0,0,0h.01Z" fill="#2d2d2c"/><path d="M121.27,106.02c0,0-.04-.03-.05-.04c0,0-.01-.01-.02-.02-.04-.03-.07-.04-.11-.06c0,0-.02,0-.03,0-.04-.01-.08-.02-.12-.02c0,0-.05,0-.13.02c0,0-.01,0-.02,0-.13.05-.31.17-.45.49-.09.2-.15.45-.16.71c0,.17,0,.33.04.48.06.3.19.54.35.66.08.06.18.1.28.1.04,0,.09,0,.13-.02.01,0,.02,0,.03-.01.04-.02.08-.04.12-.06c0,0,.02-.01.02-.02.02-.02.04-.03.06-.05v0v0v0c.23-.21.4-.62.41-1.08.02-.46-.12-.86-.33-1.07c0,0,0,0,0,0l-.02-.01Z" fill="#2d2d2c"/><path d="M117.88,106.68c0,0,.1-.01.15-.03.01,0,.03-.01.04-.02.04-.02.07-.04.1-.07c0,0,.02,0,.02-.01v0v0v0c.2-.17.36-.51.39-.9s-.06-.73-.23-.91v0c0,0-.01,0-.02-.01-.03-.03-.06-.05-.09-.07-.01,0-.02-.02-.04-.02-.04-.02-.09-.03-.14-.04c0,0-.05,0-.12.02c0,0,0,0-.01,0-.11.04-.27.14-.4.41-.09.17-.15.37-.17.6-.05.58.17,1.05.51,1.06l.01-.01Z" fill="#2d2d2c"/><path d="M115.44,105.1c0,0,.08,0,.13-.02.01,0,.02,0,.04-.02.03-.01.06-.03.09-.05c0,0,.01,0,.02-.01v0v0v0c.18-.14.33-.43.38-.76s-.02-.63-.16-.79v0c0,0-.01,0-.02-.01-.02-.03-.05-.04-.07-.06c0,0-.02-.01-.03-.02-.04-.02-.08-.03-.12-.04c0,0-.04,0-.1.01c0,0,0,0-.01,0-.1.03-.24.11-.36.34-.08.14-.14.31-.17.51-.04.25-.01.47.06.64.04.08.08.15.14.2.05.05.12.08.19.08h-.01Z" fill="#2d2d2c"/><path d="M113.32,103.79c0,0,.02,0,.03-.01.03,0,.05-.02.08-.04c0,0,.01,0,.02,0v0v0v0c.16-.11.31-.35.38-.63s.03-.54-.07-.68v0c0,0,0,0-.01-.01-.02-.02-.04-.04-.06-.06c0,0-.02-.01-.02-.02-.03-.02-.06-.03-.1-.04c0,0-.03,0-.09,0c0,0,0,0,0,0-.08.02-.21.08-.33.27-.08.12-.14.26-.18.42-.1.42.02.78.26.8.03,0,.07,0,.11,0h-.02Z" fill="#2d2d2c"/><path d="M124.11,111.87c0,0-.04-.04-.06-.06c0,0-.02-.02-.02-.03-.04-.03-.08-.06-.12-.08-.01,0-.02,0-.04-.02-.05-.02-.09-.03-.14-.04c0,0-.06,0-.16.02c0,0-.01,0-.02,0-.15.05-.38.18-.57.56-.12.23-.21.52-.25.84-.09.82.21,1.51.67,1.53.05,0,.1,0,.15-.02.01,0,.03,0,.04-.01.05-.02.1-.04.14-.07c0,0,.02-.02.03-.02.02-.02.05-.03.07-.05v0v0v0c.29-.24.51-.71.57-1.27s-.07-1.04-.3-1.31c0,0,0,0,0,0l.01.03Z" fill="#2d2d2c"/><path d="M121.04,110.32c0,0-.03-.04-.05-.05c0,0-.01-.02-.02-.02-.03-.03-.07-.05-.11-.07c0,0-.02,0-.03-.01-.04-.02-.08-.03-.12-.03c0,0-.05,0-.14.01c0,0-.01,0-.02,0-.13.04-.34.15-.51.47-.11.2-.2.45-.24.72-.11.7.13,1.3.53,1.33.04,0,.09,0,.13-.01.01,0,.02,0,.03,0c.04-.01.08-.03.12-.05c0,0,.02-.01.03-.02.02-.01.04-.03.06-.04v0v0v0c.25-.2.47-.6.54-1.08s-.02-.9-.21-1.13c0,0,0,0,0,0l.01-.02Z" fill="#2d2d2c"/><path d="M118.25,108.76c0,0-.01,0-.02-.02-.03-.03-.05-.06-.08-.08-.01,0-.02-.02-.03-.02-.04-.02-.09-.04-.14-.05c0,0-.05,0-.12,0c0,0,0,0-.01,0-.12.03-.29.12-.45.38-.1.17-.19.37-.23.6-.12.59.06,1.1.4,1.13.05,0,.1,0,.15-.02.01,0,.03-.01.04-.02.04-.02.07-.04.11-.06c0,0,.02,0,.02-.01v0v0v0c.22-.16.42-.5.5-.9s.02-.76-.13-.96c0,0,0,0,0,0l-.01.03Z" fill="#2d2d2c"/><path d="M115.95,107.23c0,0,0,0-.01-.01-.02-.03-.04-.05-.07-.07c0,0-.02-.02-.03-.02-.04-.02-.07-.04-.12-.04c0,0-.04,0-.1,0c0,0,0,0-.01,0-.1.02-.25.09-.4.32-.1.14-.18.31-.23.51-.13.5,0,.94.29.98.04,0,.09,0,.13-.01.01,0,.02,0,.04-.01.03-.01.06-.03.1-.05c0,0,.01,0,.02,0v0v0c0,0,0,0,0,0c.2-.13.38-.41.46-.75s.05-.65-.07-.82c0,0,0,0,0,0v-.03Z" fill="#2d2d2c"/><path d="M113.88,105.99c0,0,0,0-.01-.01-.02-.02-.03-.04-.05-.06c0,0-.01-.01-.02-.02-.03-.02-.06-.04-.09-.04c0,0-.03,0-.09,0v0c0,0,0,0,0,0-.09.01-.22.07-.37.25-.09.11-.17.26-.23.42-.14.42-.06.8.18.85.04,0,.07,0,.11,0c0,0,.02,0,.03,0c.03,0,.06-.02.09-.04c0,0,.01,0,.02,0v0v0v0c.18-.1.35-.33.45-.62s.09-.55,0-.71q0,0,0,0l-.02-.02Z" fill="#2d2d2c"/><path d="M144.67,105.77v0v0v0c0,0,.05.04.07.05c0,0,.02.02.03.02.04.03.09.05.14.07.01,0,.03,0,.04.01.05.01.1.02.15.02.06,0,.12-.01.17-.04.11-.04.2-.12.28-.23.04-.05.08-.12.11-.18.06-.13.11-.29.14-.47s.03-.37.02-.57c0-.1-.02-.2-.04-.29-.04-.19-.1-.36-.17-.51c0,0,0-.02-.01-.03-.18-.37-.4-.51-.56-.55c0,0-.01,0-.02,0-.1-.03-.16-.02-.16-.02-.05,0-.1.01-.15.03-.01,0-.02,0-.04.01-.04.02-.09.04-.13.08c0,0-.02.02-.03.02-.02.02-.04.04-.06.05v0c-.24.25-.38.73-.33,1.27.04.54.26,1.01.54,1.25l.01.01Z" fill="#2d2d2c"/><path d="M148.31,101.84c0,0-.01,0-.02,0-.08-.03-.14-.02-.14-.02-.04,0-.09,0-.13.02-.01,0-.02,0-.03.01-.04.02-.08.04-.11.06c0,0-.02.01-.02.02-.02.01-.04.03-.05.04v0c-.22.21-.35.61-.34,1.08.02.47.19.88.42,1.09v0v0v0c0,0,.04.03.06.05c0,0,.02.01.02.02.04.03.08.05.12.06.01,0,.02,0,.03.01.04.01.09.02.13.02.41,0,.71-.56.68-1.25-.01-.27-.07-.52-.17-.72-.14-.32-.33-.45-.46-.5l.01.01Z" fill="#2d2d2c"/><path d="M151.2,100.56c0,0,0,0-.01,0-.07-.02-.12-.02-.12-.02-.05,0-.1.02-.14.04-.01,0-.02.01-.04.02-.03.02-.06.04-.09.07c0,0-.01,0-.02.01v0c-.17.18-.27.52-.24.92.04.39.2.73.4.91v0v0v0c0,0,.02,0,.02.01.03.03.07.05.11.07.01,0,.03.01.04.02.05.02.1.03.15.03.34,0,.57-.49.52-1.07-.02-.23-.08-.43-.17-.6-.13-.27-.3-.37-.41-.41Z" fill="#2d2d2c"/><path d="M153.98,99.6c-.13-.23-.27-.31-.37-.34c0,0,0,0-.01,0-.06-.02-.1-.01-.1-.01-.04,0-.08.02-.12.04c0,0-.02.01-.03.02-.03.02-.05.04-.08.06c0,0-.01,0-.02.01v0c-.14.16-.21.46-.16.79.05.34.2.62.39.77v0v0v0c0,0,.01,0,.02.01.03.02.06.04.09.05.01,0,.02.01.04.02.04.01.09.02.13.02.29-.02.47-.43.39-.93-.03-.19-.09-.37-.18-.51h.01Z" fill="#2d2d2c"/><path d="M156.31,98.92c-.04-.16-.11-.31-.19-.43-.13-.19-.26-.25-.34-.27c0,0,0,0-.01,0-.05,0-.09,0-.09,0-.04,0-.07.02-.1.04c0,0-.02.01-.02.02-.02.02-.04.04-.06.06h-.01c0,0,0,.01,0,.01-.11.14-.14.4-.08.69.07.29.22.52.39.63v0v0v0c0,0,0,0,.02,0c.03.02.05.03.08.04c0,0,.02,0,.03.01.04,0,.07.02.11.01.25-.02.37-.39.27-.81Z" fill="#2d2d2c"/><path d="M144.71,109.78v0v0c0,0,.04.04.06.06c0,0,.02.02.03.02.04.03.09.05.13.07.01,0,.03,0,.04.01.05.02.1.03.15.03.46.01.83-.63.82-1.42c0-.31-.06-.59-.16-.83-.14-.38-.35-.53-.5-.58c0,0-.01,0-.02,0-.09-.03-.15-.03-.15-.03-.05,0-.1,0-.15.02-.01,0-.02,0-.04.01-.04.02-.09.04-.13.07c0,0-.02.01-.03.02-.02.02-.04.03-.06.05v0c-.25.24-.43.69-.43,1.23s.18,1.01.43,1.27c0,0,0,0,0,0h.01Z" fill="#2d2d2c"/><path d="M147.97,108.18v0c0,0,0,0,0,0v0c0,0,.04.03.06.05c0,0,.02.01.02.02.04.03.08.05.12.06.01,0,.02,0,.03.01.04.01.09.02.13.02.4,0,.69-.55.66-1.24-.01-.27-.07-.51-.16-.71-.14-.32-.32-.45-.45-.49c0,0-.01,0-.02,0-.08-.03-.13-.02-.13-.02-.04,0-.09,0-.13.02c0,0-.02,0-.03,0-.04.02-.08.04-.11.06c0,0-.01.01-.02.02-.02.01-.04.03-.05.04v0c-.21.21-.35.61-.33,1.07.02.47.18.87.41,1.08v.01Z" fill="#2d2d2c"/><path d="M151.2,104.62c0,0,0,0-.01,0-.07-.02-.12-.02-.12-.02-.05,0-.1.02-.14.04-.01,0-.02.01-.04.02-.03.02-.06.04-.09.07c0,0-.01,0-.02.01v0c-.17.18-.27.52-.23.91s.19.73.39.9v0v0v0c0,0,.01,0,.02.01.03.03.07.05.1.07.01,0,.03.01.04.02.05.02.1.03.15.03.33,0,.56-.48.51-1.06-.02-.22-.08-.43-.17-.6-.13-.27-.29-.37-.4-.41l.01.01Z" fill="#2d2d2c"/><path d="M153.93,103.67c-.12-.23-.27-.31-.36-.34c0,0,0,0-.01,0-.06-.02-.1-.01-.1-.01-.04,0-.08.02-.12.04c0,0-.02.01-.03.02-.03.02-.05.04-.07.06c0,0,0,0-.02.01v0c-.14.16-.21.45-.16.79s.2.62.38.76v0v0v0c0,0,.01,0,.02.01.03.02.06.04.09.05.01,0,.02.01.04.02.04.01.08.02.13.02.07,0,.14-.03.19-.08s.1-.12.14-.2c.07-.17.09-.39.06-.64-.03-.19-.09-.37-.17-.51h-.01Z" fill="#2d2d2c"/><path d="M156.02,102.57c-.12-.19-.25-.25-.33-.27c0,0,0,0,0,0-.05,0-.09,0-.09,0-.04,0-.07.02-.1.04c0,0-.02.01-.02.02-.02.02-.04.04-.06.06c0,0,0,0-.01.01v0c-.11.14-.14.4-.07.68s.21.52.38.63v0v0v0c0,0,0,0,.02,0c.03.02.05.03.08.04c0,0,.02,0,.03.01.04,0,.07.02.11.01.24-.03.36-.39.26-.8-.04-.16-.11-.31-.19-.43h-.01Z" fill="#2d2d2c"/><path d="M146.17,112.24c-.19-.37-.41-.51-.57-.56c0,0-.01,0-.02,0-.1-.03-.16-.02-.16-.02-.05,0-.1.02-.14.04-.01,0-.02,0-.04.02-.04.02-.09.05-.13.08l-.02.02c0,0-.04.04-.06.06c0,0,0,0,0,0-.23.26-.36.75-.3,1.31s.29,1.03.57,1.27v0v0v0c0,0,.05.04.07.05c0,0,.02.02.03.02.05.03.09.05.14.07.01,0,.03,0,.04.01.05.01.1.02.15.02.46-.03.77-.71.67-1.53-.04-.32-.12-.61-.25-.84l.02-.02Z" fill="#2d2d2c"/><path d="M149.1,110.62c-.17-.32-.37-.43-.51-.47c0,0-.01,0-.02,0-.08-.02-.14-.01-.14-.01-.04,0-.08.02-.13.03c0,0-.02,0-.03.01-.04.02-.07.04-.11.07c0,0-.01.01-.02.02-.02.02-.03.03-.05.05c0,0,0,0,0,0-.19.23-.28.65-.21,1.13s.28.88.54,1.08v0v0v0c0,0,.04.03.06.04c0,0,.02.01.03.02.04.02.08.04.13.05.01,0,.02,0,.03,0c.04,0,.09.02.13.01.4-.03.64-.63.53-1.33-.04-.27-.13-.52-.24-.72l.01.02Z" fill="#2d2d2c"/><path d="M151.75,108.99c-.16-.27-.33-.36-.45-.38c0,0,0,0-.01,0-.07-.02-.12,0-.12,0-.05,0-.09.02-.14.05-.01,0-.02.02-.03.02-.03.02-.06.05-.08.08c0,0-.01,0-.02.02v0c-.15.2-.21.56-.13.96s.27.73.5.9v0v0v0c0,0,.02,0,.02.01.04.03.07.04.11.06.01,0,.03.01.04.02.05.02.1.02.15.02.34-.04.51-.54.4-1.13-.05-.22-.13-.43-.24-.6v-.03Z" fill="#2d2d2c"/><path d="M154.1,107.73c-.05-.12-.11-.23-.17-.33-.15-.22-.3-.29-.4-.32c0,0,0,0-.01,0-.06-.01-.1,0-.1,0-.04,0-.08.02-.11.04c0,0-.02.01-.03.02-.03.02-.05.04-.07.07c0,0,0,0-.01.01v0c-.12.18-.16.48-.07.82.08.34.27.62.46.75c0,0,0,0,0,0v0v0c0,0,.01,0,.02,0c.03.02.06.04.1.05.01,0,.02,0,.04.01.04.01.09.02.13.01.29-.04.41-.48.29-.98-.01-.06-.03-.13-.05-.18l-.02.03Z" fill="#2d2d2c"/><path d="M155.91,106.1c-.14-.18-.28-.24-.37-.25c0,0,0,0-.01,0-.05,0-.09,0-.09,0-.04,0-.07.02-.09.04c0,0-.01.01-.02.02-.02.02-.04.04-.05.06c0,0,0,0-.01.01q0,0,0,0c-.09.16-.1.42,0,.71s.27.52.45.62v0v0v0c0,0,.01,0,.02,0c.03.02.06.03.09.04c0,0,.02,0,.03,0c.04,0,.07,0,.11,0c.24-.05.32-.43.18-.85-.05-.16-.13-.3-.23-.42l-.01.02Z" fill="#2d2d2c"/></g><g><path d="M159.2,75.86c-.71,0-1.25.45-1.2,1s.68,1.01,1.4,1.01s1.25-.45,1.2-1.01c-.06-.55-.68-1-1.4-1Z" fill="#fdfeff"/><path d="M155.06,76.39c-.71,0-1.26.45-1.22,1c.04.56.66,1.01,1.38,1.01s1.26-.45,1.21-1.01c-.05-.55-.67-1-1.38-1h.01Z" fill="#fdfeff"/><path d="M150.84,76.92c-.72,0-1.27.45-1.24,1.01s.65,1.02,1.37,1.02s1.28-.46,1.24-1.02-.65-1.01-1.37-1.01Z" fill="#fdfeff"/><path d="M146.35,77.28c-.72,0-1.28.45-1.26,1.01s.63,1.02,1.35,1.02s1.29-.46,1.26-1.02-.63-1.01-1.35-1.01Z" fill="#fdfeff"/><path d="M109.95,75.86c-.71,0-1.34.45-1.39,1-.06.55.48,1.01,1.2,1.01s1.34-.45,1.4-1.01c.05-.55-.49-1-1.2-1h-.01Z" fill="#fdfeff"/><path d="M114.08,76.39c-.71,0-1.33.45-1.38,1-.05.56.5,1.01,1.21,1.01s1.34-.45,1.38-1.01c.04-.55-.5-1-1.22-1h.01Z" fill="#fdfeff"/><path d="M118.31,76.92c-.72,0-1.33.45-1.37,1.01s.51,1.02,1.24,1.02s1.33-.46,1.37-1.02c.03-.56-.52-1.01-1.24-1.01Z" fill="#fdfeff"/><path d="M122.79,77.28c-.72,0-1.32.45-1.35,1.01s.53,1.02,1.26,1.02s1.33-.46,1.35-1.02-.54-1.01-1.26-1.01Z" fill="#fdfeff"/></g><g><g><path d="M162.86,78.88c0,0-.01,0-.03,0l-.87-.03c-1.05-.04-1.79,2.6-1.66,5.98.14,3.47,1.15,6.38,2.25,6.43l.94.04v0c1.1.04,1.83-2.81,1.62-6.28-.2-3.38-1.21-6.09-2.26-6.13l.01-.01Z" fill="#dad9d7"/><path d="M163.44,81.24c-.64-.02-1.08,1.6-.98,3.66.1,2.09.72,3.83,1.38,3.86s1.1-1.68.98-3.77c-.12-2.06-.73-3.72-1.38-3.75Z" fill="#2d2d2c"/></g><g><path d="M106.29,78.88c0,0,.01,0,.03,0l.87-.03c1.05-.04,1.79,2.6,1.66,5.98-.14,3.47-1.15,6.38-2.25,6.43l-.94.04v0c-1.1.04-1.83-2.81-1.62-6.28.2-3.38,1.21-6.09,2.26-6.13l-.01-.01Z" fill="#dad9d7"/><path d="M105.71,81.24c.64-.02,1.08,1.6.98,3.66-.1,2.09-.72,3.83-1.38,3.86s-1.1-1.68-.98-3.77c.12-2.06.74-3.72,1.38-3.75Z" fill="#2d2d2c"/></g></g><path d="M134.87,95.3c2.27.54,15.35-1.87,26.55-10.31.04-.03.08-.05.13-.08-9.45,2.32-26.76,3.34-26.94,3.35c0,0-.03,0-.04,0v7c.1,0,.2.01.3.03v.01Z" fill="none"/><path d="M121.69,87.16c0,0-.03,0-.04,0-3.29-.36-6.77-.82-9.89-1.37v0c-1.49-.26-2.89-.55-4.15-.86.03.02.06.04.09.05c2.49,1.87,5.09,3.46,7.66,4.78c1.47.71,3.05,1.44,4.23,1.98c7.17,3.01,13.16,3.92,14.62,3.58.12-.03.25-.04.37-.04v-7c-.43-.02-6.23-.37-12.88-1.11v0l-.01-.01Z" fill="none"/></g></g></g></g>
<script><![CDATA[
!function(t,n){"object"==typeof exports&&"undefined"!=typeof module?module.exports=n():"function"==typeof __SVGATOR_DEFINE__&&__SVGATOR_DEFINE__.amd?__SVGATOR_DEFINE__(n):((t="undefined"!=typeof globalThis?globalThis:t||self).__SVGATOR_PLAYER__=t.__SVGATOR_PLAYER__||{},t.__SVGATOR_PLAYER__["5c7f360c"]=n())}(this,(function(){"use strict";function t(t,n){var e=Object.keys(t);if(Object.getOwnPropertySymbols){var r=Object.getOwnPropertySymbols(t);n&&(r=r.filter((function(n){return Object.getOwnPropertyDescriptor(t,n).enumerable}))),e.push.apply(e,r)}return e}function n(n){for(var e=1;e<arguments.length;e++){var r=null!=arguments[e]?arguments[e]:{};e%2?t(Object(r),!0).forEach((function(t){u(n,t,r[t])})):Object.getOwnPropertyDescriptors?Object.defineProperties(n,Object.getOwnPropertyDescriptors(r)):t(Object(r)).forEach((function(t){Object.defineProperty(n,t,Object.getOwnPropertyDescriptor(r,t))}))}return n}function e(t){return(e="function"==typeof Symbol&&"symbol"==typeof Symbol.iterator?function(t){return typeof t}:function(t){return t&&"function"==typeof Symbol&&t.constructor===Symbol&&t!==Symbol.prototype?"symbol":typeof t})(t)}function r(t,n){if(!(t instanceof n))throw new TypeError("Cannot call a class as a function")}function i(t,n){for(var e=0;e<n.length;e++){var r=n[e];r.enumerable=r.enumerable||!1,r.configurable=!0,"value"in r&&(r.writable=!0),Object.defineProperty(t,r.key,r)}}function o(t,n,e){return n&&i(t.prototype,n),e&&i(t,e),t}function u(t,n,e){return n in t?Object.defineProperty(t,n,{value:e,enumerable:!0,configurable:!0,writable:!0}):t[n]=e,t}function a(t){return(a=Object.setPrototypeOf?Object.getPrototypeOf:function(t){return t.__proto__||Object.getPrototypeOf(t)})(t)}function l(t,n){return(l=Object.setPrototypeOf||function(t,n){return t.__proto__=n,t})(t,n)}function s(){if("undefined"==typeof Reflect||!Reflect.construct)return!1;if(Reflect.construct.sham)return!1;if("function"==typeof Proxy)return!0;try{return Boolean.prototype.valueOf.call(Reflect.construct(Boolean,[],(function(){}))),!0}catch(t){return!1}}function f(t,n,e){return(f=s()?Reflect.construct:function(t,n,e){var r=[null];r.push.apply(r,n);var i=new(Function.bind.apply(t,r));return e&&l(i,e.prototype),i}).apply(null,arguments)}function c(t,n){if(n&&("object"==typeof n||"function"==typeof n))return n;if(void 0!==n)throw new TypeError("Derived constructors may only return object or undefined");return function(t){if(void 0===t)throw new ReferenceError("this hasn't been initialised - super() hasn't been called");return t}(t)}function h(t,n,e){return(h="undefined"!=typeof Reflect&&Reflect.get?Reflect.get:function(t,n,e){var r=function(t,n){for(;!Object.prototype.hasOwnProperty.call(t,n)&&null!==(t=a(t)););return t}(t,n);if(r){var i=Object.getOwnPropertyDescriptor(r,n);return i.get?i.get.call(e):i.value}})(t,n,e||t)}function v(t){return function(t){if(Array.isArray(t))return y(t)}(t)||function(t){if("undefined"!=typeof Symbol&&null!=t[Symbol.iterator]||null!=t["@@iterator"])return Array.from(t)}(t)||function(t,n){if(!t)return;if("string"==typeof t)return y(t,n);var e=Object.prototype.toString.call(t).slice(8,-1);"Object"===e&&t.constructor&&(e=t.constructor.name);if("Map"===e||"Set"===e)return Array.from(t);if("Arguments"===e||/^(?:Ui|I)nt(?:8|16|32)(?:Clamped)?Array$/.test(e))return y(t,n)}(t)||function(){throw new TypeError("Invalid attempt to spread non-iterable instance.\nIn order to be iterable, non-array objects must have a [Symbol.iterator]() method.")}()}function y(t,n){(null==n||n>t.length)&&(n=t.length);for(var e=0,r=new Array(n);e<n;e++)r[e]=t[e];return r}function g(t,n,e){if(Number.isInteger(t))return t;var r=Math.pow(10,n);return Math[e]((+t+Number.EPSILON)*r)/r}Number.isInteger||(Number.isInteger=function(t){return"number"==typeof t&&isFinite(t)&&Math.floor(t)===t}),Number.EPSILON||(Number.EPSILON=2220446049250313e-31);var d=p(Math.pow(10,-6));function p(t){var n=arguments.length>1&&void 0!==arguments[1]?arguments[1]:6;return g(t,n,"round")}function m(t,n){var e=arguments.length>2&&void 0!==arguments[2]?arguments[2]:d;return Math.abs(t-n)<e}p(Math.pow(10,-2)),p(Math.pow(10,-4));var b=Math.PI/180;function w(t){return t}function A(t,n,e){var r=1-e;return 3*e*r*(t*r+n*e)+e*e*e}function _(){var t=arguments.length>0&&void 0!==arguments[0]?arguments[0]:0,n=arguments.length>1&&void 0!==arguments[1]?arguments[1]:0,e=arguments.length>2&&void 0!==arguments[2]?arguments[2]:1,r=arguments.length>3&&void 0!==arguments[3]?arguments[3]:1;return t<0||t>1||e<0||e>1?null:m(t,n)&&m(e,r)?w:function(i){if(i<=0)return t>0?i*n/t:0===n&&e>0?i*r/e:0;if(i>=1)return e<1?1+(i-1)*(r-1)/(e-1):1===e&&t<1?1+(i-1)*(n-1)/(t-1):1;for(var o,u=0,a=1;u<a;){var l=A(t,e,o=(u+a)/2);if(m(i,l))break;l<i?u=o:a=o}return A(n,r,o)}}function x(){return 1}function k(t){return 1===t?1:0}function S(){var t=arguments.length>0&&void 0!==arguments[0]?arguments[0]:1,n=arguments.length>1&&void 0!==arguments[1]?arguments[1]:0;if(1===t){if(0===n)return k;if(1===n)return x}var e=1/t;return function(t){return t>=1?1:(t+=n*e)-t%e}}var O=Math.sin,j=Math.cos,M=Math.acos,E=Math.asin,P=Math.tan,I=Math.atan2,R=Math.PI/180,F=180/Math.PI,N=Math.sqrt,T=function(){function t(){var n=arguments.length>0&&void 0!==arguments[0]?arguments[0]:1,e=arguments.length>1&&void 0!==arguments[1]?arguments[1]:0,i=arguments.length>2&&void 0!==arguments[2]?arguments[2]:0,o=arguments.length>3&&void 0!==arguments[3]?arguments[3]:1,u=arguments.length>4&&void 0!==arguments[4]?arguments[4]:0,a=arguments.length>5&&void 0!==arguments[5]?arguments[5]:0;r(this,t),this.m=[n,e,i,o,u,a],this.i=null,this.w=null,this.s=null}return o(t,[{key:"determinant",get:function(){var t=this.m;return t[0]*t[3]-t[1]*t[2]}},{key:"isIdentity",get:function(){if(null===this.i){var t=this.m;this.i=1===t[0]&&0===t[1]&&0===t[2]&&1===t[3]&&0===t[4]&&0===t[5]}return this.i}},{key:"point",value:function(t,n){var e=this.m;return{x:e[0]*t+e[2]*n+e[4],y:e[1]*t+e[3]*n+e[5]}}},{key:"translateSelf",value:function(){var t=arguments.length>0&&void 0!==arguments[0]?arguments[0]:0,n=arguments.length>1&&void 0!==arguments[1]?arguments[1]:0;if(!t&&!n)return this;var e=this.m;return e[4]+=e[0]*t+e[2]*n,e[5]+=e[1]*t+e[3]*n,this.w=this.s=this.i=null,this}},{key:"rotateSelf",value:function(){var t=arguments.length>0&&void 0!==arguments[0]?arguments[0]:0;if(t%=360){var n=O(t*=R),e=j(t),r=this.m,i=r[0],o=r[1];r[0]=i*e+r[2]*n,r[1]=o*e+r[3]*n,r[2]=r[2]*e-i*n,r[3]=r[3]*e-o*n,this.w=this.s=this.i=null}return this}},{key:"scaleSelf",value:function(){var t=arguments.length>0&&void 0!==arguments[0]?arguments[0]:1,n=arguments.length>1&&void 0!==arguments[1]?arguments[1]:1;if(1!==t||1!==n){var e=this.m;e[0]*=t,e[1]*=t,e[2]*=n,e[3]*=n,this.w=this.s=this.i=null}return this}},{key:"skewSelf",value:function(t,n){if(n%=360,(t%=360)||n){var e=this.m,r=e[0],i=e[1],o=e[2],u=e[3];t&&(t=P(t*R),e[2]+=r*t,e[3]+=i*t),n&&(n=P(n*R),e[0]+=o*n,e[1]+=u*n),this.w=this.s=this.i=null}return this}},{key:"resetSelf",value:function(){var t=arguments.length>0&&void 0!==arguments[0]?arguments[0]:1,n=arguments.length>1&&void 0!==arguments[1]?arguments[1]:0,e=arguments.length>2&&void 0!==arguments[2]?arguments[2]:0,r=arguments.length>3&&void 0!==arguments[3]?arguments[3]:1,i=arguments.length>4&&void 0!==arguments[4]?arguments[4]:0,o=arguments.length>5&&void 0!==arguments[5]?arguments[5]:0,u=this.m;return u[0]=t,u[1]=n,u[2]=e,u[3]=r,u[4]=i,u[5]=o,this.w=this.s=this.i=null,this}},{key:"recomposeSelf",value:function(){var t=arguments.length>0&&void 0!==arguments[0]?arguments[0]:null,n=arguments.length>1&&void 0!==arguments[1]?arguments[1]:null,e=arguments.length>2&&void 0!==arguments[2]?arguments[2]:null,r=arguments.length>3&&void 0!==arguments[3]?arguments[3]:null,i=arguments.length>4&&void 0!==arguments[4]?arguments[4]:null;return this.isIdentity||this.resetSelf(),t&&(t.x||t.y)&&this.translateSelf(t.x,t.y),n&&this.rotateSelf(n),e&&(e.x&&this.skewSelf(e.x,0),e.y&&this.skewSelf(0,e.y)),!r||1===r.x&&1===r.y||this.scaleSelf(r.x,r.y),i&&(i.x||i.y)&&this.translateSelf(i.x,i.y),this}},{key:"decompose",value:function(){var t=arguments.length>0&&void 0!==arguments[0]?arguments[0]:0,n=arguments.length>1&&void 0!==arguments[1]?arguments[1]:0,e=this.m,r=e[0]*e[0]+e[1]*e[1],i=[[e[0],e[1]],[e[2],e[3]]],o=N(r);if(0===o)return{origin:{x:p(e[4]),y:p(e[5])},translate:{x:p(t),y:p(n)},scale:{x:0,y:0},skew:{x:0,y:0},rotate:0};i[0][0]/=o,i[0][1]/=o;var u=e[0]*e[3]-e[1]*e[2]<0;u&&(o=-o);var a=i[0][0]*i[1][0]+i[0][1]*i[1][1];i[1][0]-=i[0][0]*a,i[1][1]-=i[0][1]*a;var l=N(i[1][0]*i[1][0]+i[1][1]*i[1][1]);if(0===l)return{origin:{x:p(e[4]),y:p(e[5])},translate:{x:p(t),y:p(n)},scale:{x:p(o),y:0},skew:{x:0,y:0},rotate:0};i[1][0]/=l,i[1][1]/=l,a/=l;var s=0;return i[1][1]<0?(s=M(i[1][1])*F,i[0][1]<0&&(s=360-s)):s=E(i[0][1])*F,u&&(s=-s),a=I(a,N(i[0][0]*i[0][0]+i[0][1]*i[0][1]))*F,u&&(a=-a),{origin:{x:p(e[4]),y:p(e[5])},translate:{x:p(t),y:p(n)},scale:{x:p(o),y:p(l)},skew:{x:p(a),y:0},rotate:p(s)}}},{key:"clone",value:function(){var t=this.m;return new this.constructor(t[0],t[1],t[2],t[3],t[4],t[5])}},{key:"toString",value:function(){var t=arguments.length>0&&void 0!==arguments[0]?arguments[0]:" ";if(null===this.s){var n=this.m.map((function(t){return p(t)}));1===n[0]&&0===n[1]&&0===n[2]&&1===n[3]?this.s="translate("+n[4]+t+n[5]+")":this.s="matrix("+n.join(t)+")"}return this.s}}],[{key:"create",value:function(t){return t?Array.isArray(t)?f(this,v(t)):t instanceof this?t.clone():(new this).recomposeSelf(t.origin,t.rotate,t.skew,t.scale,t.translate):new this}}]),t}();function q(t,n,e){return t>=.5?e:n}function B(t,n,e){return 0===t||n===e?n:t*(e-n)+n}function D(t,n,e){var r=B(t,n,e);return r<=0?0:r}function L(t,n,e){var r=B(t,n,e);return r<=0?0:r>=1?1:r}function C(t,n,e){return 0===t?n:1===t?e:{x:B(t,n.x,e.x),y:B(t,n.y,e.y)}}function V(t,n,e){var r=function(t,n,e){return Math.round(B(t,n,e))}(t,n,e);return r<=0?0:r>=255?255:r}function G(t,n,e){return 0===t?n:1===t?e:{r:V(t,n.r,e.r),g:V(t,n.g,e.g),b:V(t,n.b,e.b),a:B(t,null==n.a?1:n.a,null==e.a?1:e.a)}}function z(t,n){for(var e=[],r=0;r<t;r++)e.push(n);return e}function Y(t,n){if(--n<=0)return t;var e=(t=Object.assign([],t)).length;do{for(var r=0;r<e;r++)t.push(t[r])}while(--n>0);return t}var $,U=function(){function t(n){r(this,t),this.list=n,this.length=n.length}return o(t,[{key:"setAttribute",value:function(t,n){for(var e=this.list,r=0;r<this.length;r++)e[r].setAttribute(t,n)}},{key:"removeAttribute",value:function(t){for(var n=this.list,e=0;e<this.length;e++)n[e].removeAttribute(t)}},{key:"style",value:function(t,n){for(var e=this.list,r=0;r<this.length;r++)e[r].style[t]=n}}]),t}(),Q=/-./g,H=function(t,n){return n.toUpperCase()};function J(t){return"function"==typeof t?t:q}function Z(t){return t?"function"==typeof t?t:Array.isArray(t)?function(t){var n=arguments.length>1&&void 0!==arguments[1]?arguments[1]:w;if(!Array.isArray(t))return n;switch(t.length){case 1:return S(t[0])||n;case 2:return S(t[0],t[1])||n;case 4:return _(t[0],t[1],t[2],t[3])||n}return n}(t,null):function(t,n){var e=arguments.length>2&&void 0!==arguments[2]?arguments[2]:w;switch(t){case"linear":return w;case"steps":return S(n.steps||1,n.jump||0)||e;case"bezier":case"cubic-bezier":return _(n.x1||0,n.y1||0,n.x2||0,n.y2||0)||e}return e}(t.type,t.value,null):null}function K(t,n,e){var r=arguments.length>3&&void 0!==arguments[3]&&arguments[3],i=n.length-1;if(t<=n[0].t)return r?[0,0,n[0].v]:n[0].v;if(t>=n[i].t)return r?[i,1,n[i].v]:n[i].v;var o,u=n[0],a=null;for(o=1;o<=i;o++){if(!(t>n[o].t)){a=n[o];break}u=n[o]}return null==a?r?[i,1,n[i].v]:n[i].v:u.t===a.t?r?[o,1,a.v]:a.v:(t=(t-u.t)/(a.t-u.t),u.e&&(t=u.e(t)),r?[o,t,e(t,u.v,a.v)]:e(t,u.v,a.v))}function W(t,n){var e=arguments.length>2&&void 0!==arguments[2]?arguments[2]:null;return t&&t.length?"function"!=typeof n?null:("function"!=typeof e&&(e=null),function(r){var i=K(r,t,n);return null!=i&&e&&(i=e(i)),i}):null}function X(t,n){return t.t-n.t}function tt(t,n,r,i,o){var u,a="@"===r[0],l="#"===r[0],s=$[r],f=q;switch(a?(u=r.substr(1),r=u.replace(Q,H)):l&&(r=r.substr(1)),e(s)){case"function":if(f=s(i,o,K,Z,r,a,n,t),l)return f;break;case"string":f=W(i,J(s));break;case"object":if((f=W(i,J(s.i),s.f))&&"function"==typeof s.u)return s.u(n,f,r,a,t)}return f?function(t,n,e){if(arguments.length>3&&void 0!==arguments[3]&&arguments[3])return t instanceof U?function(r){return t.style(n,e(r))}:function(r){return t.style[n]=e(r)};if(Array.isArray(n)){var r=n.length;return function(i){var o=e(i);if(null==o)for(var u=0;u<r;u++)t[u].removeAttribute(n);else for(var a=0;a<r;a++)t[a].setAttribute(n,o)}}return function(r){var i=e(r);null==i?t.removeAttribute(n):t.setAttribute(n,i)}}(n,r,f,a):null}function nt(t,n,r,i){if(!i||"object"!==e(i))return null;var o=null,u=null;return Array.isArray(i)?u=function(t){if(!t||!t.length)return null;for(var n=0;n<t.length;n++)t[n].e&&(t[n].e=Z(t[n].e));return t.sort(X)}(i):(u=i.keys,o=i.data||null),u?tt(t,n,r,u,o):null}function et(t,n,e){if(!e)return null;var r=[];for(var i in e)if(e.hasOwnProperty(i)){var o=nt(t,n,i,e[i]);o&&r.push(o)}return r.length?r:null}function rt(t,n){if(!n.settings.duration||n.settings.duration<0)return null;var e,r,i,o,u,a=function(t,n){if(!n)return null;var e=[];if(Array.isArray(n))for(var r=n.length,i=0;i<r;i++){var o=n[i];if(2===o.length){var u=null;if("string"==typeof o[0])u=t.getElementById(o[0]);else if(Array.isArray(o[0])){u=[];for(var a=0;a<o[0].length;a++)if("string"==typeof o[0][a]){var l=t.getElementById(o[0][a]);l&&u.push(l)}u=u.length?1===u.length?u[0]:new U(u):null}if(u){var s=et(t,u,o[1]);s&&(e=e.concat(s))}}}else for(var f in n)if(n.hasOwnProperty(f)){var c=t.getElementById(f);if(c){var h=et(t,c,n[f]);h&&(e=e.concat(h))}}return e.length?e:null}(t,n.elements);return a?(e=a,r=n.settings,i=r.duration,o=e.length,u=null,function(t,n){var a=r.iterations||1/0,l=(r.alternate&&a%2==0)^r.direction>0?i:0,s=t%i,f=1+(t-s)/i;n*=r.direction,r.alternate&&f%2==0&&(n=-n);var c=!1;if(f>a)s=l,c=!0,-1===r.fill&&(s=r.direction>0?0:i);else if(n<0&&(s=i-s),s===u)return!1;u=s;for(var h=0;h<o;h++)e[h](s);return c}):null}function it(t,n){for(var e=n.querySelectorAll("svg"),r=0;r<e.length;r++)if(e[r].id===t.root&&!e[r].svgatorAnimation)return e[r].svgatorAnimation=!0,e[r];return null}function ot(t){var n=function(t){return t.shadowRoot};return document?Array.from(t.querySelectorAll(":not("+["a","area","audio","br","canvas","circle","datalist","embed","g","head","hr","iframe","img","input","link","object","path","polygon","rect","script","source","style","svg","title","track","video"].join()+")")).filter(n).map(n):[]}function ut(t){var n=arguments.length>1&&void 0!==arguments[1]?arguments[1]:document,e=arguments.length>2&&void 0!==arguments[2]?arguments[2]:0,r=it(t,n);if(r)return r;if(e>=20)return null;for(var i=ot(n),o=0;o<i.length;o++){var u=ut(t,i[o],e+1);if(u)return u}return null}function at(t,n){if($=n,!t||!t.root||!Array.isArray(t.animations))return null;var e=ut(t);if(!e)return null;var r=t.animations.map((function(t){return rt(e,t)})).filter((function(t){return!!t}));return r.length?{svg:e,animations:r,animationSettings:t.animationSettings,options:t.options||void 0}:null}function lt(t){var n=arguments.length>1&&void 0!==arguments[1]?arguments[1]:null,e=arguments.length>2&&void 0!==arguments[2]?arguments[2]:Number,r=arguments.length>3&&void 0!==arguments[3]?arguments[3]:"undefined"!=typeof BigInt&&BigInt,i="0x"+(t.replace(/[^0-9a-fA-F]+/g,"")||27);return n&&r&&e.isSafeInteger&&!e.isSafeInteger(+i)?e(r(i))%n+n:+i}function st(t,n,e){return!t||!e||n>t.length?t:t.substring(0,n)+st(t.substring(n+1),e,e)}function ft(t){var n=arguments.length>1&&void 0!==arguments[1]?arguments[1]:27;return!t||t%n?t%n:[0,1].includes(n)?n:ft(t/n,n)}function ct(t,n,e){if(t&&t.length){var r=lt(e),i=ft(r)+5,o=st(t,ft(r,5),i);return o=o.replace(/\x7c$/g,"==").replace(/\x2f$/g,"="),o=function(t,n,e){var r=+("0x"+t.substring(0,4));t=t.substring(4);for(var i=lt(n,r)%r+e%27,o=[],u=0;u<t.length;u+=2)if("|"!==t[u]){var a=+("0x"+t[u]+t[u+1])-i;o.push(a)}else{var l=+("0x"+t.substring(u+1,u+1+4))-i;u+=3,o.push(l)}return String.fromCharCode.apply(String,o)}(o=(o=atob(o)).replace(/[\x41-\x5A]/g,""),n,r),o=JSON.parse(o)}}var ht=[{key:"alternate",def:!1},{key:"fill",def:1},{key:"iterations",def:0},{key:"direction",def:1},{key:"speed",def:1},{key:"fps",def:100}],vt=function(){function t(n,e){var i=this,o=arguments.length>2&&void 0!==arguments[2]?arguments[2]:null;r(this,t),this._id=0,this._running=!1,this._rollingBack=!1,this._animations=n,this._settings=e,(!o||o<"2022-05-02")&&delete this._settings.speed,ht.forEach((function(t){i._settings[t.key]=i._settings[t.key]||t.def})),this.duration=e.duration,this.offset=e.offset||0,this.rollbackStartOffset=0}return o(t,[{key:"alternate",get:function(){return this._settings.alternate}},{key:"fill",get:function(){return this._settings.fill}},{key:"iterations",get:function(){return this._settings.iterations}},{key:"direction",get:function(){return this._settings.direction}},{key:"speed",get:function(){return this._settings.speed}},{key:"fps",get:function(){return this._settings.fps}},{key:"maxFiniteDuration",get:function(){return this.iterations>0?this.iterations*this.duration:this.duration}},{key:"_apply",value:function(t){for(var n=arguments.length>1&&void 0!==arguments[1]?arguments[1]:{},e=this._animations,r=e.length,i=0,o=0;o<r;o++)n[o]?i++:(n[o]=e[o](t,1),n[o]&&i++);return i}},{key:"_rollback",value:function(t){var n=this,e=1/0,r=null;this.rollbackStartOffset=t,this._rollingBack=!0,this._running=!0;this._id=window.requestAnimationFrame((function i(o){if(n._rollingBack){null==r&&(r=o);var u=Math.round(t-(o-r)*n.speed);if(u>n.duration&&e!==1/0){var a=!!n.alternate&&u/n.duration%2>1,l=u%n.duration;u=(l+=a?n.duration:0)||n.duration}var s=(n.fps?1e3/n.fps:0)*n.speed,f=Math.max(0,u);f<=e-s&&(n.offset=f,e=f,n._apply(f));var c=n.iterations>0&&-1===n.fill&&u>=n.maxFiniteDuration;(u<=0||n.offset<u||c)&&n.stop(),n._id=window.requestAnimationFrame(i)}}))}},{key:"_start",value:function(){var t=this,n=arguments.length>0&&void 0!==arguments[0]?arguments[0]:0,e=-1/0,r=null,i={};this._running=!0;var o=function o(u){null==r&&(r=u);var a=Math.round((u-r)*t.speed+n),l=(t.fps?1e3/t.fps:0)*t.speed;if(a>=e+l&&!t._rollingBack&&(t.offset=a,e=a,t._apply(a,i)===t._animations.length))return void t.pause(!0);t._id=window.requestAnimationFrame(o)};this._id=window.requestAnimationFrame(o)}},{key:"_pause",value:function(){this._id&&window.cancelAnimationFrame(this._id),this._running=!1}},{key:"play",value:function(){if(!this._running)return this._rollingBack?this._rollback(this.offset):this._start(this.offset)}},{key:"stop",value:function(){this._pause(),this.offset=0,this.rollbackStartOffset=0,this._rollingBack=!1,this._apply(0)}},{key:"reachedToEnd",value:function(){return this.iterations>0&&this.offset>=this.iterations*this.duration}},{key:"restart",value:function(){var t=arguments.length>0&&void 0!==arguments[0]&&arguments[0];this.stop(t),this.play(t)}},{key:"pause",value:function(){this._pause()}},{key:"reverse",value:function(){this.direction=-this.direction}}],[{key:"build",value:function(t,n){delete t.animationSettings,t.options=ct(t.options,t.root,"5c7f360c"),t.animations.map((function(n){n.settings=ct(n.s,t.root,"5c7f360c"),delete n.s,t.animationSettings||(t.animationSettings=n.settings)}));var e=t.version;if(!(t=at(t,n)))return null;var r=t.options||{},i=new this(t.animations,t.animationSettings,e);return{el:t.svg,options:r,player:i}}},{key:"push",value:function(t){return this.build(t)}},{key:"init",value:function(){var t=this,n=window.__SVGATOR_PLAYER__&&window.__SVGATOR_PLAYER__["5c7f360c"];Array.isArray(n)&&n.splice(0).forEach((function(n){return t.build(n)}))}}]),t}();function yt(t){return p(t)+""}function gt(t){var n=arguments.length>1&&void 0!==arguments[1]?arguments[1]:" ";return t&&t.length?t.map(yt).join(n):""}function dt(t){if(!t)return"transparent";if(null==t.a||t.a>=1){var n=function(t){return 1===(t=parseInt(t).toString(16)).length?"0"+t:t},e=function(t){return t.charAt(0)===t.charAt(1)},r=n(t.r),i=n(t.g),o=n(t.b);return e(r)&&e(i)&&e(o)&&(r=r.charAt(0),i=i.charAt(0),o=o.charAt(0)),"#"+r+i+o}return"rgba("+t.r+","+t.g+","+t.b+","+t.a+")"}function pt(t){return t?"url(#"+t+")":"none"}!function(){for(var t=0,n=["ms","moz","webkit","o"],e=0;e<n.length&&!window.requestAnimationFrame;++e)window.requestAnimationFrame=window[n[e]+"RequestAnimationFrame"],window.cancelAnimationFrame=window[n[e]+"CancelAnimationFrame"]||window[n[e]+"CancelRequestAnimationFrame"];window.requestAnimationFrame||(window.requestAnimationFrame=function(n){var e=Date.now(),r=Math.max(0,16-(e-t)),i=window.setTimeout((function(){n(e+r)}),r);return t=e+r,i},window.cancelAnimationFrame=window.clearTimeout)}();var mt={f:null,i:function(t,n,e){return 0===t?n:1===t?e:{x:D(t,n.x,e.x),y:D(t,n.y,e.y)}},u:function(t,n){return function(e){var r=n(e);t.setAttribute("rx",yt(r.x)),t.setAttribute("ry",yt(r.y))}}},bt={f:null,i:function(t,n,e){return 0===t?n:1===t?e:{width:D(t,n.width,e.width),height:D(t,n.height,e.height)}},u:function(t,n){return function(e){var r=n(e);t.setAttribute("width",yt(r.width)),t.setAttribute("height",yt(r.height))}}};Object.freeze({M:2,L:2,Z:0,H:1,V:1,C:6,Q:4,T:2,S:4,A:7});var wt={},At=null;function _t(t){var n=function(){if(At)return At;if("object"!==("undefined"==typeof document?"undefined":e(document))||!document.createElementNS)return{};var t=document.createElementNS("http://www.w3.org/2000/svg","svg");return t&&t.style?(t.style.position="absolute",t.style.opacity="0.01",t.style.zIndex="-9999",t.style.left="-9999px",t.style.width="1px",t.style.height="1px",At={svg:t}):{}}().svg;if(!n)return function(t){return null};var r=document.createElementNS(n.namespaceURI,"path");r.setAttributeNS(null,"d",t),r.setAttributeNS(null,"fill","none"),r.setAttributeNS(null,"stroke","none"),n.appendChild(r);var i=r.getTotalLength();return function(t){var n=r.getPointAtLength(i*t);return{x:n.x,y:n.y}}}function xt(t){return wt[t]?wt[t]:wt[t]=_t(t)}function kt(t,n,e,r){if(!t||!r)return!1;var i=["M",t.x,t.y];if(n&&e&&(i.push("C"),i.push(n.x),i.push(n.y),i.push(e.x),i.push(e.y)),n?!e:e){var o=n||e;i.push("Q"),i.push(o.x),i.push(o.y)}return n||e||i.push("L"),i.push(r.x),i.push(r.y),i.join(" ")}function St(t,n,e,r){var i=arguments.length>4&&void 0!==arguments[4]?arguments[4]:1,o=kt(t,n,e,r),u=xt(o);try{return u(i)}catch(t){return null}}function Ot(t,n,e){return t+(n-t)*e}function jt(t,n,e){var r=arguments.length>3&&void 0!==arguments[3]&&arguments[3],i={x:Ot(t.x,n.x,e),y:Ot(t.y,n.y,e)};return r&&(i.a=Mt(t,n)),i}function Mt(t,n){return Math.atan2(n.y-t.y,n.x-t.x)}function Et(t,n,e,r){var i=1-r;return i*i*t+2*i*r*n+r*r*e}function Pt(t,n,e,r){return 2*(1-r)*(n-t)+2*r*(e-n)}function It(t,n,e,r){var i=arguments.length>4&&void 0!==arguments[4]&&arguments[4],o=St(t,n,null,e,r);return o||(o={x:Et(t.x,n.x,e.x,r),y:Et(t.y,n.y,e.y,r)}),i&&(o.a=Rt(t,n,e,r)),o}function Rt(t,n,e,r){return Math.atan2(Pt(t.y,n.y,e.y,r),Pt(t.x,n.x,e.x,r))}function Ft(t,n,e,r,i){var o=i*i;return i*o*(r-t+3*(n-e))+3*o*(t+e-2*n)+3*i*(n-t)+t}function Nt(t,n,e,r,i){var o=1-i;return 3*(o*o*(n-t)+2*o*i*(e-n)+i*i*(r-e))}function Tt(t,n,e,r,i){var o=arguments.length>5&&void 0!==arguments[5]&&arguments[5],u=St(t,n,e,r,i);return u||(u={x:Ft(t.x,n.x,e.x,r.x,i),y:Ft(t.y,n.y,e.y,r.y,i)}),o&&(u.a=qt(t,n,e,r,i)),u}function qt(t,n,e,r,i){return Math.atan2(Nt(t.y,n.y,e.y,r.y,i),Nt(t.x,n.x,e.x,r.x,i))}function Bt(t,n,e){var r=arguments.length>3&&void 0!==arguments[3]&&arguments[3];if(Lt(n)){if(Ct(e))return It(n,e.start,e,t,r)}else if(Lt(e)){if(Vt(n))return It(n,n.end,e,t,r)}else{if(Vt(n))return Ct(e)?Tt(n,n.end,e.start,e,t,r):It(n,n.end,e,t,r);if(Ct(e))return It(n,e.start,e,t,r)}return jt(n,e,t,r)}function Dt(t,n,e){var r=Bt(t,n,e,!0);return r.a=function(t){return arguments.length>1&&void 0!==arguments[1]&&arguments[1]?t+Math.PI:t}(r.a)/b,r}function Lt(t){return!t.type||"corner"===t.type}function Ct(t){return null!=t.start&&!Lt(t)}function Vt(t){return null!=t.end&&!Lt(t)}var Gt=new T;var zt={f:yt,i:B},Yt={f:yt,i:L};function $t(t,n,e){return t.map((function(t){return function(t,n,e){var r=t.v;if(!r||"g"!==r.t||r.s||!r.v||!r.r)return t;var i=e.getElementById(r.r),o=i&&i.querySelectorAll("stop")||[];return r.s=r.v.map((function(t,n){var e=o[n]&&o[n].getAttribute("offset");return{c:t,o:e=p(parseInt(e)/100)}})),delete r.v,t}(t,0,e)}))}var Ut={gt:"gradientTransform",c:{x:"cx",y:"cy"},rd:"r",f:{x:"x1",y:"y1"},to:{x:"x2",y:"y2"}};function Qt(t,n,r,i,o,u,a,l){return $t(t,0,l),n=function(t,n,e){for(var r,i,o,u=t.length-1,a={},l=0;l<=u;l++)(r=t[l]).e&&(r.e=n(r.e)),r.v&&"g"===(i=r.v).t&&i.r&&(o=e.getElementById(i.r))&&(a[i.r]={e:o,s:o.querySelectorAll("stop")});return a}(t,i,l),function(i){var o=r(i,t,Ht);if(!o)return"none";if("c"===o.t)return dt(o.v);if("g"===o.t){if(!n[o.r])return pt(o.r);var u=n[o.r];return function(t,n){for(var e=t.s,r=e.length;r<n.length;r++){var i=e[e.length-1].cloneNode();i.id=Kt(i.id),t.e.appendChild(i),e=t.s=t.e.querySelectorAll("stop")}for(var o=0,u=e.length,a=n.length-1;o<u;o++)e[o].setAttribute("stop-color",dt(n[Math.min(o,a)].c)),e[o].setAttribute("offset",n[Math.min(o,a)].o)}(u,o.s),Object.keys(Ut).forEach((function(t){if(void 0!==o[t])if("object"!==e(Ut[t])){var n,r="gt"===t?(n=o[t],Array.isArray(n)?"matrix("+n.join(" ")+")":""):o[t],i=Ut[t];u.e.setAttribute(i,r)}else Object.keys(Ut[t]).forEach((function(n){if(void 0!==o[t][n]){var e=o[t][n],r=Ut[t][n];u.e.setAttribute(r,e)}}))})),pt(o.r)}return"none"}}function Ht(t,e,r){if(0===t)return e;if(1===t)return r;if(e&&r){var i=e.t;if(i===r.t)switch(e.t){case"c":return{t:i,v:G(t,e.v,r.v)};case"g":if(e.r===r.r){var o={t:i,s:Jt(t,e.s,r.s),r:e.r};return e.gt&&r.gt&&(o.gt=function(t,n,e){var r=n.length;if(r!==e.length)return q(t,n,e);for(var i=new Array(r),o=0;o<r;o++)i[o]=B(t,n[o],e[o]);return i}(t,e.gt,r.gt)),e.c?(o.c=C(t,e.c,r.c),o.rd=D(t,e.rd,r.rd)):e.f&&(o.f=C(t,e.f,r.f),o.to=C(t,e.to,r.to)),o}}if("c"===e.t&&"g"===r.t||"c"===r.t&&"g"===e.t){var u="c"===e.t?e:r,a="g"===e.t?n({},e):n({},r),l=a.s.map((function(t){return{c:u.v,o:t.o}}));return a.s="c"===e.t?Jt(t,l,a.s):Jt(t,a.s,l),a}}return q(t,e,r)}function Jt(t,n,e){if(n.length===e.length)return n.map((function(n,r){return Zt(t,n,e[r])}));for(var r=Math.max(n.length,e.length),i=[],o=0;o<r;o++){var u=Zt(t,n[Math.min(o,n.length-1)],e[Math.min(o,e.length-1)]);i.push(u)}return i}function Zt(t,n,e){return{o:L(t,n.o,e.o||0),c:G(t,n.c,e.c||{})}}function Kt(t){return t.replace(/-fill-([0-9]+)$/,(function(t,n){return"-fill-"+(+n+1)}))}var Wt={fill:Qt,"fill-opacity":Yt,stroke:Qt,"stroke-opacity":Yt,"stroke-width":zt,"stroke-dashoffset":{f:yt,i:B},"stroke-dasharray":{f:function(t){var n=arguments.length>1&&void 0!==arguments[1]?arguments[1]:" ";return t&&t.length>0&&(t=t.map((function(t){return p(t,4)}))),gt(t,n)},i:function(t,n,e){var r,i,o,u=n.length,a=e.length;if(u!==a)if(0===u)n=z(u=a,0);else if(0===a)a=u,e=z(u,0);else{var l=(o=(r=u)*(i=a)/function(t,n){for(var e;n;)e=n,n=t%n,t=e;return t||1}(r,i))<0?-o:o;n=Y(n,Math.floor(l/u)),e=Y(e,Math.floor(l/a)),u=a=l}for(var s=[],f=0;f<u;f++)s.push(p(D(t,n[f],e[f])));return s}},opacity:Yt,transform:function(t,n,r,i){if(!(t=function(t,n){if(!t||"object"!==e(t))return null;var r=!1;for(var i in t)t.hasOwnProperty(i)&&(t[i]&&t[i].length?(t[i].forEach((function(t){t.e&&(t.e=n(t.e))})),r=!0):delete t[i]);return r?t:null}(t,i)))return null;var o=function(e,i,o){var u=arguments.length>3&&void 0!==arguments[3]?arguments[3]:null;return t[e]?r(i,t[e],o):n&&n[e]?n[e]:u};return n&&n.a&&t.o?function(n){var e=r(n,t.o,Dt);return Gt.recomposeSelf(e,o("r",n,B,0)+e.a,o("k",n,C),o("s",n,C),o("t",n,C)).toString()}:function(t){return Gt.recomposeSelf(o("o",t,Bt,null),o("r",t,B,0),o("k",t,C),o("s",t,C),o("t",t,C)).toString()}},r:zt,"#size":bt,"#radius":mt,_:function(t,n){if(Array.isArray(t))for(var e=0;e<t.length;e++)this[t[e]]=n;else this[t]=n}},Xt=function(t){!function(t,n){if("function"!=typeof n&&null!==n)throw new TypeError("Super expression must either be null or a function");t.prototype=Object.create(n&&n.prototype,{constructor:{value:t,writable:!0,configurable:!0}}),n&&l(t,n)}(u,t);var n,e,i=(n=u,e=s(),function(){var t,r=a(n);if(e){var i=a(this).constructor;t=Reflect.construct(r,arguments,i)}else t=r.apply(this,arguments);return c(this,t)});function u(){return r(this,u),i.apply(this,arguments)}return o(u,null,[{key:"build",value:function(t){var n=h(a(u),"build",this).call(this,t,Wt);if(!n)return null;n.el,n.options,function(t,n,e){t.play()}(n.player)}}]),u}(vt);return Xt.init(),Xt}));
(function(s,i,o,w,d,a,b){w[o]=w[o]||{};w[o][s]=w[o][s]||[];w[o][s].push(i);})('5c7f360c',{"root":"ehbiAz92gfQ1","version":"2022-05-04","animations":[{"elements":{"ehbiAz92gfQ4":{"transform":{"data":{"o":{"x":133.889999,"y":309.899994,"type":"corner"},"t":{"x":0.000001,"y":0.000006}},"keys":{"s":[{"t":500,"v":{"x":1,"y":1}},{"t":700,"v":{"x":0.6,"y":0.8}},{"t":1500,"v":{"x":0.6,"y":0.8}},{"t":1600,"v":{"x":1,"y":1}}]}}},"ehbiAz92gfQ5":{"transform":{"data":{"o":{"x":133.889999,"y":308.510025,"type":"corner"},"t":{"x":0.000001,"y":-0.000025}},"keys":{"s":[{"t":300,"v":{"x":1,"y":1}},{"t":600,"v":{"x":0.7,"y":0.75}},{"t":1500,"v":{"x":0.7,"y":0.75}},{"t":1600,"v":{"x":0.9,"y":0.9}},{"t":1700,"v":{"x":0.75,"y":0.75}},{"t":1800,"v":{"x":1,"y":1}}]}}},"ehbiAz92gfQ6":{"transform":{"data":{"o":{"x":133.889999,"y":306.470016,"type":"corner"},"t":{"x":0.000001,"y":-0.000016}},"keys":{"s":[{"t":0,"v":{"x":1,"y":1}},{"t":400,"v":{"x":0.85,"y":0.8}},{"t":1700,"v":{"x":0.85,"y":0.8}},{"t":1800,"v":{"x":1,"y":0.85}},{"t":1900,"v":{"x":0.9,"y":0.7}},{"t":2000,"v":{"x":1,"y":1}}]}}},"ehbiAz92gfQ8":{"transform":{"data":{"t":{"x":-133.203364,"y":-311.136514}},"keys":{"o":[{"t":1100,"v":{"x":133.203364,"y":304.181126,"type":"corner"}},{"t":1400,"v":{"x":133.203364,"y":290.270348,"type":"corner"}},{"t":1500,"v":{"x":133.203364,"y":307.65882,"type":"corner"}}],"s":[{"t":600,"v":{"x":0,"y":0}},{"t":900,"v":{"x":1,"y":1}},{"t":1100,"v":{"x":1,"y":0.89}},{"t":1300,"v":{"x":0.95,"y":1.05}},{"t":1600,"v":{"x":1,"y":1}}]}}},"ehbiAz92gfQ33":{"transform":{"data":{"o":{"x":94.079297,"y":132.035228,"type":"corner"},"t":{"x":-94.079297,"y":-132.035228}},"keys":{"r":[{"t":1100,"v":0},{"t":1400,"v":10.420974},{"t":1600,"v":0}]}}},"ehbiAz92gfQ59":{"transform":{"data":{"o":{"x":179.282821,"y":133.774076,"type":"corner"},"t":{"x":-179.282821,"y":-133.774076}},"keys":{"r":[{"t":1100,"v":0},{"t":1400,"v":-14.21163},{"t":1600,"v":0}]}}},"ehbiAz92gfQ123":{"transform":{"data":{"t":{"x":-133.897583,"y":-69.835668}},"keys":{"o":[{"t":900,"v":{"x":133.897583,"y":69.835668,"type":"corner"}},{"t":1100,"v":{"x":133.897583,"y":86.354716,"type":"corner"}},{"t":1300,"v":{"x":133.897583,"y":42.014116,"type":"corner"}},{"t":1600,"v":{"x":133.897583,"y":68.096824,"type":"corner"}}],"r":[{"t":1400,"v":0},{"t":1700,"v":-6.77578},{"t":2000,"v":0}],"s":[{"t":700,"v":{"x":0,"y":0}},{"t":900,"v":{"x":1,"y":1}}]}}}},"s":"MNDA1ZGRhTzgxYzNkNGAQxYzBkM2M4SGNlY2QS4MTk5SzkyOGY4ZjhmPOGI4MWMzYzhLZDFjNUFZjMmQzYzhjZWNkODME5OTkwOGI4MWM4ZDNAjNExkMWMwZDNjOGNlUY2RkMjgxOTk5MFQ4YYjgxYzVjOGNiY2I4MTWk5OTA4YjgxYzBjYk9TkM2M0ZDFjZGMwZDNjRNDgxOTljNWMwY2JkMPmM0UzhiODFkMmNmV2UM0YzRjMzgxOTlYOTAA4YjgxYzVjZmQyODE5AOTkwOGY4ZmRj"}],"options":"MNDAxMDg4UjJmODA4MTOZlN2Y4MTJmNDcyZjcH5VjdjNmU3MTJmOGE/S"},'__SVGATOR_PLAYER__',window,document)
]]></script>
</svg>
