<svg id="eIP7MokgBCt1" xmlns="http://www.w3.org/2000/svg" xmlns:xlink="http://www.w3.org/1999/xlink" viewBox="0 0 271.69 366.64" shape-rendering="geometricPrecision" text-rendering="geometricPrecision"><g transform="matrix(.85 0 0 0.85 20.372558 48.263134)"><g><ellipse id="eIP7MokgBCt4" rx="133.89" ry="21.94" transform="translate(137.81 344.7)" fill="#bce6f9"/><ellipse id="eIP7MokgBCt5" rx="100.47" ry="18.21" transform="translate(137.81 343.32)" fill="#45b4e2"/><ellipse id="eIP7MokgBCt6" rx="70.14" ry="12.43" transform="translate(137.81 341.28)" fill="#3496b5"/></g><g><g id="eIP7MokgBCt8" transform="matrix(0 0 0 0 126.7897 343.32)"><path d="M100.1,158.44c6.86-6.64,33.99-11.09,38.11-11.73v-.08c0,0,.11.02.27.04.17-.03.27-.04.27-.04v.08c4.12.64,31.25,5.09,38.11,11.73c7.43,7.19-4.95,59.59-10.9,63.19h-54.97c-5.95-3.59-18.33-55.99-10.9-63.19h.01Z" fill="#2d2d2c"/><g><rect width="13.67" height="100.17" rx="0" ry="0" transform="translate(153.16 217.52)" fill="#2d2d2c"/><rect width="13.67" height="100.17" rx="0" ry="0" transform="translate(110.12 217.52)" fill="#2d2d2c"/><path d="M121.22,258.62c0-.07-.01-.14-.01-.21v.21h.01Zm-.01-41.1v40.89c0-8.11,7.73-14.68,17.27-14.68s17.27,6.57,17.27,14.68v-40.89h-34.54Zm34.54,41.1v-.21c0,.07-.01.14-.01.21h.01Z" fill="#2d2d2c"/></g><path d="M193.11,231.98c.51-1.01,12.3-24.91,6.69-47.82-5.96-24.36-35.44-31.54-36.69-31.83l-2.81,12l1.41-6-1.42,6c.23.06,23.39,5.78,27.55,22.76c4.54,18.55-5.64,39.15-5.74,39.36l11.02,5.53h-.01Z" fill="#2d2d2c"/><g id="eIP7MokgBCt15"><path d="M36.78,145.87c.63.94,15.63,22.96,38.34,29.35c24.15,6.79,44.89-15.35,45.77-16.29l-9.07-8.35l4.53,4.18-4.52-4.19c-.16.17-16.54,17.52-33.37,12.79-18.39-5.17-31.31-24.16-31.44-24.35l-10.23,6.87-.01-.01Z" fill="#2d2d2c"/><g><g><path d="M66.13,154.64c0,0-8.43-14.64-22.45-22.56c0,0-6.11-3.45-9.41,1.25c0,0,17.45,23.99,25.54,28.86c0,0,3.16-1.42,6.32-7.56v.01Z" fill="#dad9d7"/><path d="M33.01,132.45c3.25-4.63,8.9-3.14,11.43-1.71c14.22,8.03,22.67,22.52,23.02,23.13l.42.73-.38.75c-3.3,6.43-6.68,8.09-7.06,8.26l-.74.33-.69-.42c-8.27-4.98-25.27-28.28-25.99-29.28l-.65-.89.63-.9h.01Zm31.35,22.24c-1.88-2.99-9.69-14.63-21.43-21.27-.18-.1-4.11-2.28-6.68,0c3.24,4.38,16.51,21.99,23.58,26.95.92-.69,2.7-2.34,4.53-5.67v-.01Z" fill="#9a9a9a"/></g><g><path d="M60.4,173.35c0,0,2.27-8.95,0-12.47-2.26-3.53-26.13-27.55-26.13-27.55l-6.34,6.76c0,0,5.74,21.22,32.47,33.26Z" fill="#dad9d7"/><path d="M34.24,131.11l1.12,1.13c2.45,2.47,24.05,24.24,26.33,27.8c2.55,3.98.44,12.7.2,13.68l-.45,1.78-1.68-.76c-27.08-12.2-33.08-33.37-33.32-34.27l-.22-.83l8.02-8.55v.02Zm24.86,30.6c-1.69-2.64-17.53-18.82-24.8-26.16l-4.63,4.93c1.32,3.8,8.13,20.29,29.63,30.66.61-3.27.95-7.64-.2-9.43Z" fill="#9a9a9a"/></g><g><path d="M60.44,166.66c-6.64-2.96-13.33-2.42-14.96,1.22s2.44,8.99,9.07,11.96c6.64,2.96,13.33,2.42,14.96-1.22c1.62-3.64-2.44-8.99-9.07-11.96Z" fill="#dad9d7"/><path d="M50.96,163.26c3.08-.25,6.67.46,10.11,1.99v0c7.52,3.36,11.85,9.51,9.85,13.99-1.98,4.49-9.47,5.36-16.99,2-3.44-1.54-6.37-3.74-8.23-6.2-2.07-2.73-2.64-5.49-1.62-7.79.07-.16.16-.32.24-.48c1.14-2.02,3.47-3.26,6.64-3.52v.01Zm17.15,14.73c1.09-2.45-2.04-7.13-8.29-9.92-2.98-1.33-6.03-1.94-8.6-1.73-2.21.18-3.79.98-4.32,2.18-.54,1.2-.08,2.91,1.26,4.67c1.56,2.06,4.06,3.92,7.03,5.25c6.08,2.72,11.53,2.05,12.82-.25.04-.06.07-.13.1-.19v-.01Z" fill="#9a9a9a"/></g><g><path d="M54.32,145.66c-.16.14-.29.32-.36.53l-3.77,10.48c-.24.67.11,1.41.78,1.66.67.24,1.41-.11,1.66-.78l3.77-10.48c.24-.67-.11-1.41-.78-1.66-.46-.16-.95-.05-1.29.25h-.01Z" fill="#9a9a9a"/><path d="M59.18,149.63c-.2-.07-.42-.09-.64-.04l-10.96,2.03c-.7.13-1.17.81-1.04,1.51s.8,1.17,1.51,1.04l10.96-2.03c.7-.13,1.17-.8,1.04-1.51-.09-.48-.43-.85-.87-.99v-.01Z" fill="#9a9a9a"/></g><g><path d="M44.45,136.22c-.16.14-.29.32-.36.53l-3.77,10.48c-.24.67.11,1.41.78,1.66.67.24,1.41-.11,1.66-.78l3.77-10.48c.24-.67-.11-1.41-.78-1.66-.46-.17-.95-.06-1.29.25h-.01Z" fill="#9a9a9a"/><path d="M49.31,140.19c-.2-.07-.42-.09-.64-.04l-10.96,2.03c-.7.13-1.17.8-1.04,1.51.13.7.8,1.17,1.51,1.04l10.96-2.03c.7-.13,1.17-.8,1.04-1.51-.09-.48-.43-.85-.87-.99v-.01Z" fill="#9a9a9a"/></g><path d="M61.67,175.6L49.3,190.71l2.89-18.43c0,0,3.96-3.61,9.48,3.32Z" fill="#9a9a9a"/></g><g><path d="M39.14,132.1c0,0,2.62-8.1,2.15-10.88s-5.12-6.67-6.36-7.16-3.49,1.1-3.49,3.1c0,0-3.47-3.72-4.94-4.02s-5,.57-5.18,4.01c-.1,1.93-2.97,4.76-4.31,5.95-.91.8-.89,4.13-.79,6.2.05,1.07.55,2.06,1.37,2.74c2.26,1.87,6.99,5.76,9.08,7.44c2.8,2.25,10.72-.75,12.48-7.37l-.01-.01Z" fill="#e2bc33"/><path d="M21.86,112.81c1.61-1.25,3.7-1.54,4.96-1.28c1.14.23,2.7,1.47,4.03,2.72.34-.43.74-.82,1.21-1.13c1.16-.78,2.42-.99,3.46-.58c1.59.64,6.77,4.91,7.36,8.4.51,3-1.7,10.11-2.19,11.61-1.3,4.83-5.22,7.69-8.46,8.75-2.65.87-5.06.66-6.6-.57-2.16-1.74-7.08-5.79-9.09-7.46-1.17-.97-1.88-2.39-1.96-3.91-.27-5.36.57-6.82,1.33-7.5c2.39-2.13,3.73-4.07,3.77-4.82.09-1.6.73-2.96,1.87-3.97.1-.09.21-.17.31-.26ZM17.83,129.2c.03.61.32,1.18.78,1.57c2.01,1.66,6.92,5.71,9.06,7.43.52.42,1.82.58,3.54.02c2.33-.77,5.39-2.94,6.34-6.53l.03-.08c1.03-3.21,2.37-8.46,2.09-10.11-.34-1.99-4.34-5.5-5.26-5.9-.09,0-.46.11-.82.47-.34.33-.53.73-.53,1.09v4.14c0,0-2.82-3.03-2.82-3.03-1.59-1.7-3.5-3.36-4.08-3.54-.4-.08-1.49.03-2.31.67-.57.45-.88,1.04-.92,1.83-.14,2.5-3.03,5.44-4.79,7.02-.19.37-.47,1.81-.31,4.96v-.01Z" fill="#85732d"/></g><g><polygon points="6.97,144.23 11.63,147.88 37.8,114.2 33.14,110.55 6.97,144.23" fill="#85732d"/><path d="M1.35,145.86c-2.17,2.79-1.67,6.82,1.11,9s6.79,1.68,8.96-1.11s1.67-6.82-1.11-9-6.79-1.68-8.96,1.11Z" fill="#e2bc33"/><g><polygon points="35.92,115.44 34.54,117.22 29.53,116.57 31.01,114.66 35.92,115.44" fill="#e2bc33"/><polygon points="32.95,117.66 33.29,118.83 31.98,120.51 31.46,117.63 32.95,117.66" fill="#e2bc33"/><polygon points="33.87,114.43 32.19,114.02 32.92,113.08 33.87,114.43" fill="#e2bc33"/><polygon points="30.92,118.33 28.55,117.83 27.08,119.73 31.12,119.84 30.92,118.33" fill="#e2bc33"/><polygon points="30.71,120.37 28.69,120.31 29.03,124.3 30.3,122.67 30.71,120.37" fill="#e2bc33"/><polygon points="27.92,120.8 26.26,120.78 24.57,122.95 27.86,122.26 27.92,120.8" fill="#e2bc33"/><polygon points="28.08,123.32 28.21,125.35 26.8,127.18 26.4,123.26 28.08,123.32" fill="#e2bc33"/><polygon points="25.61,123.77 23.64,124.15 21.9,126.39 25.36,125.49 25.61,123.77" fill="#e2bc33"/><polygon points="25.59,126.52 25.87,128.37 24.14,130.59 23.64,127.6 25.59,126.52" fill="#e2bc33"/><polygon points="22.54,127.34 20.72,127.91 19.5,129.48 23.05,129.1 22.54,127.34" fill="#e2bc33"/><polygon points="23.07,129.75 23.47,131.46 22,133.36 21.33,129.78 23.07,129.75" fill="#e2bc33"/><polygon points="20.66,130.09 21.03,131.7 17.43,132.15 18.57,130.67 20.66,130.09" fill="#e2bc33"/><polygon points="20.56,132.31 21.23,134.34 19.82,136.16 18.98,132.8 20.56,132.31" fill="#e2bc33"/><polygon points="18.71,133.15 16.39,133.48 14.92,135.37 18.69,134.72 18.71,133.15" fill="#e2bc33"/><polygon points="18.2,135.35 18.83,137.43 17.53,139.11 17.07,136.05 18.2,135.35" fill="#e2bc33"/><polygon points="15.87,136.8 13.66,136.99 11.86,139.3 16.13,138.01 15.87,136.8" fill="#e2bc33"/><polygon points="15.96,138.9 16.22,140.79 14.91,142.48 14.13,139.05 15.96,138.9" fill="#e2bc33"/><polygon points="13.47,139.89 11.15,140.22 9.74,142.04 13.84,141.64 13.47,139.89" fill="#e2bc33"/><polygon points="13.32,142.31 13.71,144.02 12.4,145.71 11.25,142.75 13.32,142.31" fill="#e2bc33"/></g><path d="M9.03,151.88c1.54-1.98,1.44-4.7-.07-6.57.35.16.69.37,1,.61c2.29,1.79,2.69,5.1.91,7.4-1.78,2.29-5.08,2.7-7.37.91-.32-.25-.59-.53-.84-.83c2.17,1.02,4.83.45,6.36-1.53l.01.01Z" fill="#85732d"/><g><polygon points="122.8,0 35.91,111.81 40.94,115.76 120.21,17.24 122.8,0" fill="#9a9a9a"/><polygon points="122.8,0 35.91,111.81 30.87,107.87 106.78,6.72 122.8,0" fill="#9a9a9a"/></g><path d="M23.28,101.82c-.67.86,5.08,6.49,11.47,11.49s13.22,9.23,13.89,8.37-5.08-6.49-11.47-11.49-13.22-9.23-13.89-8.37Z" fill="#e2bc33"/><g><path d="M47.22,120.52c-1,1.29-.78,3.16.51,4.16c1.29,1.01,3.15.78,4.15-.51s.78-3.16-.51-4.16c-1.29-1.01-3.15-.78-4.15.51Z" fill="#e2bc33"/><path d="M20.08,99.27c-1,1.29-.78,3.16.51,4.16c1.29,1.01,3.15.78,4.15-.51s.78-3.16-.51-4.16c-1.29-1.01-3.14-.78-4.15.51Z" fill="#e2bc33"/></g><polygon points="118.58,16.41 120.84,2.53 108.14,8.23 114.96,10.26 118.58,16.41" fill="#dad9d7"/><polygon points="118.58,16.41 41.61,111.48 38.23,108.83 114.96,10.26 118.58,16.41" fill="#dad9d7"/><path d="M50.62,123.19c.68-.88.64-2.09-.03-2.91.16.07.3.16.45.27c1.01.79,1.19,2.26.4,3.28s-2.25,1.2-3.27.4c-.14-.11-.26-.23-.37-.37.96.45,2.14.2,2.82-.68v.01Z" fill="#85732d"/><path d="M23.35,101.83c.68-.88.64-2.09-.03-2.91.16.07.3.16.45.27c1.01.79,1.19,2.26.4,3.28s-2.25,1.2-3.27.4c-.14-.11-.26-.23-.37-.37.96.45,2.14.2,2.82-.68v.01Z" fill="#85732d"/></g><g><path d="M26.38,113.58c0,0,6.02,6.03,6.69,7.7s-.47,3.48-2.42,3.54-2.72.07-2.72.07.33,1.19-1.25,2.44c-1.58,1.24-3.64.42-3.64.42s1.68,3.36.09,4.19-4.64-.72-4.96-1.74-.92-5.13-.01-5.97c.91-.85,3.97-3.87,4.38-5.45.42-1.58-1.83-4.74,3.86-5.21l-.02.01Z" fill="#e2bc33"/><path d="M33.07,121.29c0,0-.17,2.96-2.91,3.15s-5.98-3.55-5.98-3.55s4.22,4.03,2.7,5.47-4.07.89-5.49-.16c0,0,2.96,3.61,1.61,4.71s-4.38-.15-4.38-.15s3.51,3.27,5.06,1.75c1.55-1.53.36-3.7.36-3.7s3.22-.57,4.06-1.55.48-1.41.48-1.41s2.42.56,4.28-1.1c1.86-1.65.21-3.47.21-3.47v.01Z" fill="#85732d"/></g><g><path d="M33.07,121.29c-2.01-1.38-7.97-5.71-6.58-8.16s5.44-.5,7.38.46c2.91,1.45,5.33,5.25,4.89,6.09s-1.36,4.58-5.69,1.61Z" fill="#e2bc33"/><path d="M33.07,121.29c0,0-3.03-.94-4.32-1.91-1.09-.81-4.02-3.5-3.29-6.31s3.86-1.78,5.65-1.32s6.43,3.01,7.69,5.88c.77,1.75-.05,2.04-.05,2.04s-4.13-5.3-7.64-6.6c-2.59-.97-3.46-.32-3.81.42-.25.52-.04,4.73,5.76,7.79l.01.01Z" fill="#85732d"/></g></g><g><g><path d="M176.59,196.98c0,0-3.48,16.44-6.75,20.55c0,0-15.47-6.42-20.54-7.7l4.28-16.18l23.01,3.34v-.01Z" fill="#dad9d7"/><path d="M169.25,218.94c-.15-.06-15.42-6.39-20.33-7.63l-1.51-.38l5.03-19.02l26,3.77-.34,1.61c-.36,1.72-3.65,16.91-7.05,21.19l-.72.91-1.07-.45h-.01Zm-14.54-23.59l-3.54,13.39c5.07,1.57,14.72,5.48,18.09,6.86c2.09-3.69,4.37-12.54,5.47-17.35l-20.02-2.9Z" fill="#9a9a9a"/></g><g><path d="M100.37,196.98c0,0,3.48,16.44,6.75,20.55c0,0,15.47-6.42,20.54-7.7l-4.28-16.18-23.02,3.34.01-.01Z" fill="#dad9d7"/><path d="M105.91,218.48c-3.4-4.27-6.69-19.47-7.05-21.19l-.34-1.61l26-3.77l5.02,19.02-1.51.38c-4.91,1.24-20.18,7.57-20.33,7.63l-1.07.45-.72-.91Zm16.34-23.12l-20.02,2.9c1.09,4.81,3.38,13.66,5.47,17.35c3.37-1.38,13.02-5.29,18.09-6.86l-3.54-13.39Z" fill="#9a9a9a"/></g><g><path d="M138.48,192.16l19.17,6.93c0,0-6.45,25.37-19.17,25.37s-19.17-25.37-19.17-25.37l19.17-6.93Z" fill="#dad9d7"/><path d="M117.82,199.47l-.34-1.35l21.01-7.59l21.01,7.59-.34,1.35c-.27,1.08-6.9,26.53-20.66,26.53s-20.39-25.45-20.67-26.53h-.01Zm20.66-5.67l-17.3,6.25c1.51,5.09,7.5,22.87,17.3,22.87s15.79-17.78,17.3-22.87l-17.3-6.25Z" fill="#9a9a9a"/></g><g><path d="M183.01,176.17c-.3,6.02-.3,21.58-3.23,23.89s-38.88-1.67-40.56-7.9c-1.16-4.31-.71-14-.33-19.56.17-2.51,1.96-4.59,4.41-5.16c11.02-2.55,40.53-7.84,39.71,8.73Z" fill="#dad9d7"/><path d="M145.38,197.81c-4.67-1.55-7.1-3.22-7.65-5.25-1.16-4.32-.85-13.29-.38-20.07.22-3.2,2.47-5.83,5.6-6.56c10.68-2.47,29.79-5.6,37.87,1.16c2.66,2.23,3.92,5.3,3.73,9.14v0c-.05.92-.08,2.07-.13,3.36-.42,12.5-1.13,19.65-3.69,21.67-.87.68-3.19.98-6.32.98-8.14,0-21.71-2-29.03-4.43Zm36.09-21.72c.14-2.86-.72-5.03-2.63-6.63-5.08-4.24-18.23-4.44-35.2-.52-1.8.42-3.09,1.93-3.22,3.77-.63,9.1-.53,16.05.28,19.05.02.09.32.94,3.09,2.16c9.45,4.16,32.52,6.22,35.03,4.93c1.92-1.51,2.35-14.47,2.52-19.35.04-1.31.08-2.47.13-3.41v0Z" fill="#9a9a9a"/></g><g><path d="M93.95,176.17c.3,6.02.3,21.58,3.23,23.89s38.88-1.67,40.56-7.9c1.16-4.31.71-14,.33-19.56-.17-2.51-1.96-4.59-4.41-5.16-11.02-2.55-40.53-7.84-39.71,8.73Z" fill="#dad9d7"/><path d="M96.22,201.27c-2.56-2.02-3.27-9.17-3.69-21.66-.04-1.29-.08-2.44-.13-3.36v0c-.19-3.84,1.07-6.92,3.73-9.14c8.08-6.76,27.19-3.63,37.87-1.16c3.13.72,5.38,3.36,5.6,6.56.47,6.77.78,15.75-.38,20.06-.55,2.03-2.98,3.7-7.65,5.25-7.31,2.43-20.88,4.43-29.03,4.43-3.13,0-5.46-.3-6.32-.98Zm1.89-31.8c-1.91,1.6-2.77,3.77-2.63,6.63v0c.05.94.09,2.1.13,3.41.16,4.88.6,17.83,2.45,19.3c2.57,1.33,25.65-.72,35.1-4.88c2.76-1.22,3.06-2.07,3.09-2.16.81-3,.91-9.94.28-19.05-.13-1.84-1.42-3.35-3.22-3.77-8.11-1.87-15.35-2.81-21.25-2.81-6.44,0-11.3,1.11-13.95,3.33Z" fill="#9a9a9a"/></g><g><path d="M130.32,188.74c.37,0,.74-.09,1.09-.28l16.92-9.36c1.09-.6,1.48-1.97.88-3.05s-1.97-1.48-3.05-.88l-16.92,9.36c-1.09.6-1.48,1.97-.88,3.05.41.74,1.18,1.16,1.97,1.16h-.01Z" fill="#2d2d2c"/><path d="M128.54,178.01c.19.32.45.59.79.79l16.61,9.89c1.07.64,2.44.28,3.08-.78s.29-2.44-.78-3.08l-16.61-9.89c-1.07-.63-2.44-.28-3.08.78-.43.73-.41,1.6,0,2.28l-.01.01Z" fill="#2d2d2c"/></g></g><g><g><path d="M169.94,152.08l-3.39,12.16c-1.63,5.82,2.55,11.66,8.59,11.99c11.75.64,28.98.73,35.02-3.61c0,0-5.36-16.29-33.7-24.21-2.81-.79-5.73.87-6.51,3.68l-.01-.01Z" fill="#dad9d7"/><path d="M175.05,177.77c-3.34-.18-6.38-1.85-8.33-4.57-1.95-2.73-2.56-6.14-1.66-9.38l3.39-12.16c.49-1.76,1.63-3.22,3.22-4.11c1.59-.9,3.44-1.12,5.19-.63c28.8,8.05,34.52,24.52,34.75,25.22l.35,1.07-.92.66c-4.56,3.28-14.69,4.22-24.87,4.22-3.8,0-7.61-.13-11.13-.32h.01Zm.99-27.88c-.96-.27-1.97-.14-2.84.35s-1.5,1.3-1.77,2.26l-3.39,12.16c-.65,2.33-.22,4.79,1.19,6.75c1.4,1.96,3.59,3.16,5.99,3.29c16.37.89,27.95-.06,32.99-2.69-1.81-3.69-9.3-15.72-32.17-22.12Z" fill="#9a9a9a"/></g><path d="M181.77,155.36c-.57.99,2.42,3.78,6.68,6.24s8.17,3.65,8.74,2.66-2.42-3.78-6.68-6.24-8.17-3.65-8.74-2.66Z" fill="#fdfeff"/><path d="M172.56,169.75c0,1.7,1.38,3.08,3.08,3.08s3.08-1.38,3.08-3.08-1.38-3.08-3.08-3.08-3.08,1.38-3.08,3.08Z" fill="#2d2d2c"/></g><g><g><path d="M114.55,156.21l-4.66,11.73c-2.23,5.62-9.09,7.74-14.09,4.35-9.74-6.6-23.51-16.96-25.69-24.07c0,0,14.12-9.72,41.48,1.12c2.71,1.08,4.03,4.16,2.96,6.87Z" fill="#dad9d7"/><path d="M85.88,167.08c-8.1-6.16-15.59-13.04-17.24-18.42l-.33-1.08.93-.64c.6-.42,15.12-10.06,42.92.96c1.69.67,3.03,1.97,3.75,3.65s.75,3.53.08,5.23l-4.66,11.73c-1.24,3.12-3.79,5.47-6.99,6.46s-6.63.47-9.4-1.41c-2.92-1.98-6.03-4.18-9.06-6.48ZM72.03,148.9c2.42,5.14,11.07,12.91,24.63,22.11c1.99,1.35,4.46,1.72,6.76,1.01c2.31-.71,4.14-2.41,5.03-4.65l4.66-11.73c.37-.93.35-1.95-.04-2.87-.4-.92-1.13-1.63-2.05-2-22.07-8.75-35.31-3.7-38.99-1.86v-.01Z" fill="#9a9a9a"/></g><path d="M103.15,151.65c-.14,1.13-4.21,1.54-9.09.92s-8.72-2.04-8.57-3.17c.14-1.13,4.21-1.54,9.09-.92s8.72,2.04,8.57,3.17Z" fill="#fdfeff"/><path d="M101.77,168.68c-1.03,1.36-2.96,1.62-4.32.59s-1.62-2.96-.59-4.32s2.96-1.62,4.32-.59s1.62,2.96.59,4.32Z" fill="#2d2d2c"/></g><g><g><g><path d="M179.14,238.12c0,0-6.94,4.09-8.35,6.35-1.42,2.27-.57,7.93,0,9.07.57,1.13,3.16,1.42,4.41,0c0,0,.12,4.82.97,5.95s3.9,2.73,6.18.42c1.29-1.3,5.09-1.5,6.79-1.5c1.15,0,3.22-2.36,4.45-3.89.63-.79.91-1.8.75-2.8-.43-2.74-1.32-8.46-1.75-10.97-.57-3.36-8.05-6.21-13.46-2.63h.01Z" fill="#e2bc33"/><path d="M179.24,262.62c-1.92-.13-3.58-1.24-4.31-2.21-.66-.88-.99-2.73-1.14-4.45-.51.09-1.04.11-1.57.04-1.31-.17-2.34-.82-2.81-1.77-.72-1.45-1.71-7.73.07-10.57c1.52-2.44,7.55-6.08,8.85-6.84c3.95-2.6,8.52-2.16,11.49-.88c2.43,1.05,3.99,2.71,4.31,4.55.44,2.59,1.37,8.55,1.75,10.99.22,1.42-.17,2.87-1.07,4-3.17,3.96-4.69,4.47-5.65,4.47-3.03,0-5.19.54-5.69,1.04-1.07,1.08-2.38,1.64-3.82,1.64-.13,0-.26,0-.38-.02l-.03.01Zm13.14-9.07c.36-.45.52-1.03.43-1.6-.38-2.44-1.31-8.38-1.74-10.95-.1-.62-.92-1.55-2.49-2.24-2.13-.92-5.66-1.31-8.59.64l-.07.04c-2.75,1.62-6.99,4.5-7.83,5.84-1.01,1.62-.38,6.61.02,7.48.06.06.39.21.88.18.45-.02.83-.18,1.05-.44l2.6-2.94.1,3.92c.05,2.2.37,4.58.66,5.06.23.31,1.07.91,2.06.98.68.04,1.28-.19,1.8-.72c1.66-1.68,5.56-1.95,7.8-1.96.37-.14,1.47-.99,3.34-3.32l-.02.03Z" fill="#85732d"/></g><path d="M177.83,254.98c0,1.14.93,2.07,2.07,2.07s2.07-.93,2.07-2.07-.93-2.07-2.07-2.07-2.07.93-2.07,2.07Z" fill="#85732d"/><circle r="2.07" transform="translate(184.52 252.91)" fill="#85732d"/><path d="M187.57,252.39c0,1.14.93,2.07,2.07,2.07s2.07-.93,2.07-2.07-.93-2.07-2.07-2.07-2.07.93-2.07,2.07Z" fill="#85732d"/></g><g><g><path d="M186.3,202.13c0,0-8.6,14.54-8.6,30.64c0,0,0,7.02,5.72,7.58c0,0,12.3-26.99,12.56-36.44c0,0-2.79-2.06-9.69-1.78h.01Z" fill="#dad9d7"/><path d="M183.28,241.88c-5.63-.55-7.11-6.2-7.11-9.11c0-16.33,8.45-30.81,8.81-31.42l.43-.72.84-.03c7.22-.29,10.33,1.84,10.66,2.08l.65.48-.02.8c-.27,9.65-12.19,35.92-12.7,37.03l-.46,1-1.1-.11Zm3.94-38.23c-1.68,3.11-7.97,15.63-7.97,29.12c0,.21.04,4.7,3.28,5.82c2.22-4.97,11.02-25.19,11.86-33.79-1.06-.46-3.36-1.2-7.17-1.16v.01Z" fill="#9a9a9a"/></g><g><path d="M205.42,197.91c0,0-8.9,2.43-10.86,6.13-1.96,3.71-11.14,36.3-11.14,36.3l9,2.2c0,0,15.65-15.44,12.99-44.63h.01Z" fill="#dad9d7"/><path d="M181.51,241.46l.43-1.54c.94-3.35,9.28-32.86,11.25-36.6c2.21-4.18,10.84-6.63,11.82-6.9l1.77-.48.17,1.83c2.7,29.58-12.78,45.21-13.44,45.87l-.61.6-11.39-2.77v-.01Zm14.41-36.7c-1.46,2.77-7.76,24.51-10.58,34.46l6.57,1.6c2.66-3.02,13.66-17.06,12.12-40.88-3.15,1.07-7.12,2.93-8.11,4.81v.01Z" fill="#9a9a9a"/></g><g><path d="M199.57,201.16c.68,7.23,4.45,12.8,8.42,12.42c3.97-.37,6.63-6.54,5.95-13.78-.68-7.23-4.45-12.8-8.42-12.42-3.97.37-6.63,6.54-5.95,13.78Z" fill="#dad9d7"/><path d="M201.27,211.09c-1.73-2.56-2.88-6.03-3.24-9.78v0c-.78-8.21,2.45-15,7.34-15.46c4.89-.48,9.33,5.6,10.1,13.81.36,3.75-.12,7.38-1.35,10.22-1.36,3.14-3.48,5-5.99,5.24-.18.02-.36.03-.54.03-2.32,0-4.54-1.42-6.33-4.05l.01-.01Zm4.39-22.17c-2.67.25-5.2,5.28-4.56,12.1.31,3.25,1.27,6.21,2.72,8.34c1.24,1.83,2.71,2.82,4.02,2.69s2.57-1.36,3.45-3.39c1.02-2.37,1.42-5.46,1.11-8.7-.63-6.63-3.89-11.04-6.53-11.04-.07,0-.15,0-.22.01l.01-.01Z" fill="#9a9a9a"/></g><g><path d="M184.29,216.82c.2.07.42.09.64.05L195.91,215c.7-.12,1.18-.79,1.06-1.49s-.79-1.18-1.49-1.06l-10.98,1.87c-.7.12-1.18.79-1.06,1.49.08.48.42.86.85,1v.01Z" fill="#9a9a9a"/><path d="M185.36,210.64c.04.21.13.41.28.58l7.16,8.54c.46.55,1.28.62,1.82.16s.62-1.28.16-1.82l-7.16-8.54c-.46-.55-1.28-.62-1.82-.16-.37.31-.53.79-.44,1.24Z" fill="#9a9a9a"/></g><g><path d="M180.93,230.05c.2.07.42.09.64.05l10.98-1.87c.7-.12,1.18-.79,1.06-1.49s-.79-1.18-1.49-1.06l-10.98,1.87c-.7.12-1.18.79-1.06,1.49.08.48.42.86.85,1.01Z" fill="#9a9a9a"/><path d="M182,223.87c.04.21.13.41.28.58l7.16,8.54c.46.55,1.28.62,1.82.16s.62-1.28.16-1.82l-7.16-8.54c-.46-.55-1.28-.62-1.82-.16-.37.31-.53.79-.44,1.24Z" fill="#9a9a9a"/></g><path d="M206.75,195.69l19.24,3.34-17.47,6.55c0,0-5.09-1.67-1.78-9.89h.01Z" fill="#9a9a9a"/></g></g><g><g><path d="M172.46,319.76l7.81,15.83-11.56,5.4c0,0-14.93-.86-16.86-3.19s-.16-13.59,1.12-15.3s16.75-8.31,19.49-2.74Z" fill="#2d2d2c"/><g><path d="M170.38,276.95l6.8,48.63c0,0-13.85-3.08-24.22,9.93c0,0-7.33,1.03-7.65-4.45s5.35-44.18,5.35-44.18s18.19-20.87,19.72-9.93Z" fill="#dad9d7"/><path d="M145.85,335.41c-1.25-1.03-1.97-2.5-2.07-4.27-.32-5.57,5.13-42.91,5.36-44.49l.06-.45.3-.34c2.22-2.55,13.59-15.16,19.33-13.45c1.17.35,2.66,1.38,3.07,4.32l7.11,50.83-2.17-.48c-.13-.03-13.02-2.73-22.67,9.39l-.38.48-.61.09c-.16.02-.76.1-1.58.1-1.58,0-3.99-.27-5.75-1.72v-.01Zm29.52-11.63l-6.52-46.62c-.1-.73-.34-1.63-.9-1.79-2.5-.75-10.1,5.68-15.83,12.19-1.97,13.46-5.51,39.25-5.27,43.42.05.92.35,1.57.95,2.06c1.16.96,3.21,1.07,4.38,1c8.42-10.17,18.77-10.61,23.19-10.25v-.01Z" fill="#9a9a9a"/></g><g><path d="M164.04,282.96c.76,7.23,4.59,12.75,8.55,12.33s6.56-6.61,5.8-13.84-4.59-12.75-8.55-12.33c-3.97.42-6.56,6.61-5.8,13.84Z" fill="#dad9d7"/><path d="M165.85,292.87c-1.76-2.54-2.95-6-3.34-9.75-.86-8.2,2.29-15.02,7.18-15.53s9.38,5.51,10.24,13.71c.39,3.75-.05,7.38-1.24,10.23-1.32,3.16-3.43,5.04-5.93,5.3-.2.02-.4.03-.59.03-2.29,0-4.51-1.4-6.31-3.99h-.01Zm4.16-22.22c-2.67.28-5.15,5.34-4.43,12.15.34,3.24,1.34,6.19,2.81,8.32c1.26,1.82,2.74,2.79,4.05,2.65s2.56-1.39,3.41-3.43c1-2.38,1.36-5.47,1.02-8.72-.69-6.6-3.98-10.97-6.62-10.97-.08,0-.16,0-.24.01v-.01Z" fill="#9a9a9a"/></g><path d="M171.17,277.42l19.28,3.14-17.4,6.73c0,0-5.11-1.62-1.88-9.87Z" fill="#9a9a9a"/><g><path d="M191.71,337.5c0,0-8.99-8.56-17.15-6.85s-13.58,7.53-14.98,10.96s45.44,5.14,32.12-4.11h.01Z" fill="#dad9d7"/><path d="M159.56,343.83c-2.01-1-1.52-2.52-1.4-2.81c1.47-3.6,7.14-10.01,16.09-11.88c8.49-1.79,17.39,6.19,18.44,7.16c3.43,2.42,3.27,4.43,2.53,5.69-1.7,2.87-9.83,3.89-17.97,3.89-7.71,0-15.42-.91-17.69-2.04v-.01Zm33-3.37c0,0-.17-.63-1.72-1.7l-.18-.15c-.08-.08-8.49-7.99-15.77-6.46-6.73,1.41-11.64,5.92-13.44,9.16c3.86,1.37,20.22,2.4,28.24.39c2.42-.61,2.85-1.23,2.87-1.23v0-.01Z" fill="#9a9a9a"/></g></g><g><path d="M104.5,319.76l-7.81,15.83l11.56,5.4c0,0,14.93-.86,16.86-3.19s.16-13.59-1.12-15.3-16.75-8.31-19.49-2.74Z" fill="#2d2d2c"/><g><path d="M106.58,276.95l-6.8,48.63c0,0,13.85-3.08,24.22,9.93c0,0,7.33,1.03,7.65-4.45s-5.35-44.18-5.35-44.18-18.19-20.87-19.72-9.93Z" fill="#dad9d7"/><path d="M125.36,337.13c-.83,0-1.42-.07-1.58-.1l-.61-.09-.38-.48c-9.65-12.12-22.55-9.42-22.68-9.39l-2.17.48l7.11-50.83c.41-2.94,1.9-3.97,3.07-4.32c5.75-1.71,17.11,10.91,19.33,13.45l.3.34.07.45c.23,1.59,5.69,38.92,5.36,44.49-.1,1.76-.82,3.24-2.07,4.27-1.76,1.44-4.17,1.72-5.75,1.72v.01Zm-.58-3.1c1.17.06,3.22-.05,4.38-1c.59-.49.89-1.14.95-2.06.24-4.16-3.3-29.95-5.27-43.42-5.74-6.5-13.34-12.93-15.83-12.19-.56.16-.79,1.07-.9,1.79l-6.52,46.62c4.42-.35,14.77.09,23.19,10.25v.01Z" fill="#9a9a9a"/></g><g><path d="M112.91,282.96c-.76,7.23-4.59,12.75-8.55,12.33s-6.56-6.61-5.8-13.84s4.59-12.75,8.55-12.33c3.97.42,6.56,6.61,5.8,13.84Z" fill="#dad9d7"/><path d="M104.8,296.86c-.2,0-.4-.01-.59-.03-2.5-.26-4.61-2.14-5.93-5.3-1.19-2.85-1.64-6.48-1.24-10.23.86-8.2,5.35-14.22,10.24-13.71c4.88.51,8.04,7.34,7.18,15.53-.39,3.75-1.58,7.21-3.34,9.75-1.8,2.59-4.02,3.99-6.31,3.99h-.01Zm1.91-26.22c-2.63,0-5.92,4.37-6.62,10.97-.34,3.24.02,6.34,1.02,8.72.86,2.04,2.1,3.29,3.41,3.43s2.79-.83,4.05-2.65c1.47-2.12,2.47-5.07,2.81-8.32.71-6.81-1.76-11.87-4.43-12.15-.08,0-.16-.01-.24-.01v.01Z" fill="#9a9a9a"/></g><path d="M105.79,277.42l-19.28,3.14l17.4,6.73c0,0,5.11-1.62,1.88-9.87Z" fill="#9a9a9a"/><g><path d="M85.25,337.5c0,0,8.99-8.56,17.15-6.85s13.58,7.53,14.98,10.96-45.44,5.14-32.12-4.11h-.01Z" fill="#dad9d7"/><path d="M99.71,345.88c-8.14,0-16.27-1.02-17.97-3.89-.75-1.26-.9-3.27,2.53-5.69c1.04-.97,9.95-8.95,18.44-7.16c8.95,1.88,14.62,8.29,16.09,11.88.12.29.62,1.81-1.4,2.81-2.27,1.12-9.99,2.04-17.69,2.04v.01ZM84.4,340.47c0,0,.45.63,2.87,1.23c8.02,2.01,24.39.99,28.24-.39-1.8-3.24-6.71-7.74-13.44-9.16-7.28-1.53-15.69,6.38-15.77,6.46l-.18.15c-1.55,1.08-1.71,1.66-1.72,1.7v0v.01Z" fill="#9a9a9a"/></g></g></g><g transform="matrix(1.05 0 0 1.05-1.963693-30.284702)"><path d="M189.48,298.16c-3.23.07-5.34-.02-5.6-.03l-.49-.09c-.75-.24-18.51-5.87-29.8-15.95l-.31-.28-6.97-15.45l4.62-79.23l18.26-8l.95.96c.16.16,15.85,15.9,31.06,18.59c15.24,2.69,35.35-6.72,35.55-6.82l1.22-.58l14.41,13.78-22.81,76.01-11.84,12.13-.39.16c-9.51,3.79-21.12,4.65-27.87,4.8h.01Zm-5.16-3.95c2.25.07,18.82.43,31.19-4.36l10.58-10.84l21.84-72.78-10.74-10.27c-4.8,2.1-22.32,9.11-36.67,6.57-14.36-2.54-28.41-15.13-32.2-18.74l-13.61,5.96-4.42,75.86l6.23,13.81c9.99,8.75,25.67,14.08,27.81,14.78l-.01.01Z" fill="#2d2d2c"/><g><path d="M152.82,188.45l15.92-6.98c0,0,16.09,16.31,32.12,19.14l-16.88,95.56c0,0-17.98-5.63-29.08-15.54L148.3,266l4.52-77.54v-.01Z" fill="#85732d"/><path d="M250.16,205.65l-12.57-12.01c0,0-20.71,9.81-36.73,6.98l-16.88,95.56c0,0,18.82.88,32.65-4.64l11.21-11.48l22.33-74.4-.01-.01Z" fill="#85732d"/></g><path d="M159.71,277.04c8.87,7.45,22.08,12.21,25.29,13.29c3.38.08,17.48.13,28.32-3.82l9.3-9.53L243.5,207.4l-7.17-6.86c-7.12,2.85-22.98,8.22-36.5,5.84s-26.58-12.87-32.29-17.99l-9.09,3.98-4.23,72.52l5.47,12.14.02.01Z" fill="#e2bc33"/><g><path d="M221.8,210.25c-11.36.86-19.01,7.22-19.01,7.22c16.48,1.81,19.01-7.22,19.01-7.22Zm18.6-2.23l-7.28,4.23l3.02,2.74l4.26-6.96v-.01Zm-15.06,20.49c1.98-5.27,9.45-9.9,9.45-9.9l-3.62-3.28c-4.47,11.45-7.98,11.49-7.98,11.49-1.87-5.29,1.98-13.21,1.98-13.21-2.49,6.17-16.92,8.59-21.11,8.51s-7.98,5.54-7.98,5.54l-10.54,59.65c3.57-6.31,22.46-6.28,22.46-6.28c2.26-2.91.74-14.09-3.9-13.59s-5.04,8.7-5.04,8.7c-3.79-2.32-3.67-14.87,6.85-14.99c10.53-.13,14.65,12.18,14.65,12.18l14.05-47.79c-6.17,5.19-9.28,2.99-9.28,2.99l.01-.02Zm-6.49,1.06c-8.11.99-6.49,10.32-6.49,10.32-2.53-3.53-6.77-3.95-6.77-3.95c3.59-12.38,13.26-6.37,13.26-6.37Zm-8.05-4.62c-8.11,2.98-7.89,10.95-7.89,10.95-4.09.05-6.08,2.23-6.08,2.23c1.99-16.4,13.97-13.19,13.97-13.19v.01Zm-7.12,33.69c0,0-7.96.14-11,4.12c0,0,2.28-8.97,12.34-9.07c0,0-1.15,3.21-1.34,4.94v.01Zm-2.07-16.02c-5.58,1.22-3.55,8.19-3.55,8.19-3.66-1.75-4.98-10.14,3.13-12.46s12.67,7.53,12.67,7.53c-5.05.87-7.21,5.12-7.21,5.12s.53-9.61-5.05-8.39l.01.01Zm15.08,20.3c0,0-4.3-6.05-11.2-3.96c0,0,2.87-16.25,18.33-9.99c0,0-12.56,1.09-7.13,13.95Zm10.57-21.5c-1.23-3.44-6.11-5.05-7.03-1.32-.84,3.41,5.14,4.08,5.14,4.08-.79,2.97-11.48,3.07-9.81-5.26c1.89-9.39,14.71-6.66,14.71-6.66l-3.02,9.17.01-.01Z" fill="#85732d"/><path d="M193.28,215.79c0,0-5.02-8.6-15.39-13.3c0,0-.72,9.35,15.39,13.3ZM162.8,202.03l3.77-1.54-5.39-6.47l1.62,8v.01Zm-2.19,10.42l-3.18,49.71c0,0,8.09-10.15,17.94-6.42c9.84,3.72,5.65,15.55,1.3,16.44c0,0,2.44-7.84-1.75-9.9s-9.45,7.92-8.32,11.43c0,0,17.77,6.45,18.95,13.6l10.54-59.65c0,0-1.64-6.57-5.6-7.93s-16.69-8.57-16.91-15.23c0,0,.9,8.76-2.66,13.09c0,0-3.28-1.24-3.56-13.53l-4.52,1.85c0,0,5.43,6.91,5.49,12.54c0,0-3.68,1-7.69-5.99l-.03-.01Zm23.7,19.73c0,0-4.13-1.06-7.72,1.39c0,0,4.72-8.21-2.56-11.92c0,0,11.15-2.33,10.28,10.53Zm7.48,5.07c0,0-1.12-2.74-4.95-4.18c0,0,2.95-7.42-3.66-12.99c0,0,12.36,1.09,8.61,17.18v-.01Zm-13.03,11.81c9.41,3.54,8.48,12.74,8.48,12.74-1.49-4.78-8.92-7.64-8.92-7.64.42-1.69.44-5.11.44-5.11v.01Zm-.62-3.09c0,0-.57-4.73-5.02-7.28c0,0,7.66-7.69,14.49-2.73c6.83,4.95,2.71,12.39-1.32,12.78c0,0,4.3-5.86-.53-8.91-4.83-3.06-7.62,6.15-7.62,6.15v-.01Zm-15.42-7.8c16.67-.58,13.8,15.67,13.8,15.67-5.77-4.33-11.88-.12-11.88-.12c9.51-10.22-1.92-15.55-1.92-15.55Zm-.34-17.92c0,0,12.98,1.83,11.54,11.3-1.28,8.4-11.29,4.65-11.02,1.58c0,0,5.85,1.43,6.23-2.07.41-3.81-4.72-3.98-7.06-1.16l.3-9.65h.01Z" fill="#85732d"/></g></g></g><g id="eIP7MokgBCt168" transform="matrix(0 0 0 0 137.98259 102.685711)"><g><path d="M132,81.27c0,0-3.5-6.95-10.07-7.16s-16.98-6.9-17.04-13.68c-.05-6.57,4.81-17.23,8.81-15.48c4.04,1.77,4.24,6.82,2.3,9.12c0,0,2.7-4.1,6.88-1.01c0,0,.07-8.14,4.85-9.65c4.74-1.51,4.7,5.55,4.7,5.55s3.51-16.03,11.88-16.41c8.36-.38,13.22,5.14,11.77,10.6-1.49,5.61-7.83,8.53-7.83,8.53s13.9-2.55,15.93,3.68c2.1,6.43.02,12.15-4.61,11.52c0,0,6.95-.74,6.4,4.28-.56,5.14-5.24,4.14-5.24,4.14s5.03,6.88-.15,7.48c-4.95.57-4.87-5.71-4.87-5.71s-4.72-1.89-7.82-.91c-3.11.99-1.05,5.77-.9,7.25c0,0-12.1.48-15-2.13l.01-.01Z" fill="#ca202c"/><path d="M132.47,79.3c0,0-2.44-4.77-5.39-5.39-2.94-.61-11.68-2.85-14.72-4.86-3.01-1.99-5.99-9.77-4.36-13.93c1.6-4.08,6.56-.56,7.04,2.45c0,0,3.59-1.89,5.25.19c1.67,2.1.41,5.77.41,5.77s3.86-2.52,6.24-.58c2.4,1.95,2.55,4.92,1.64,5.71-.92.8,5.6,2.41,5.8,4.24.21,1.84-.29,5.57-1.91,6.41v-.01Z" fill="#ef3e56"/><path d="M131.81,63.53c0,0-6-7.09-3.32-9.52c2.65-2.41,5.43-.19,5.41,1.5c0,0,.29-6.28,3.93-6.09c3.65.18,6.25,2.2,4.76,4.04c0,0,4.77,0,4.6,2.05-.18,2.07-.8,3.98-2.33,4.55c0,0,2.92,2.51.72,3.87-2.21,1.37-6.89-.58-6.67-2.91c0,0-6.58-3.25-7.11,2.51h.01Z" fill="#ef3e56"/><path d="M139.75,43.84c0,0,.82-4.9,4.17-4.9s6.09,1.04,5.74,3.48c-.36,2.48-3.47,6.25-3.47,6.25s1.63-3.59-.3-5.01c-1.92-1.41-6.14.18-6.14.18Z" fill="#ef3e56"/><path d="M152.77,59.29c0,0,3.97.19,4.68,1.34.72,1.16,1.03,3.1.4,3.88s-1.72,1.57-2.83,1.57-3.39-1.38-3.39-1.38s3.73-1.37,3.24-2.53-2.09-2.88-2.09-2.88h-.01Z" fill="#ef3e56"/><g><path d="M147.74,82.48c.05,1.6-4.06,2.91-9.18,2.91s-9.23-1.31-9.18-2.91c.05-1.59,4.15-2.86,9.18-2.86s9.13,1.27,9.18,2.86Z" fill="#85732d"/><polygon points="147.91,87.85 129.23,87.85 129.39,82.36 147.74,82.36 147.91,87.85" fill="#85732d"/></g><g><path d="M146.75,82.78c.04,1.43-3.63,2.6-8.19,2.6s-8.23-1.17-8.19-2.6c.04-1.42,3.7-2.55,8.19-2.55s8.15,1.14,8.19,2.55Z" fill="#e2bc33"/><polygon points="146.88,87.56 130.25,87.56 130.38,82.67 146.75,82.67 146.88,87.56" fill="#e2bc33"/></g></g><g><g><path d="M138.8,161.52l-.31-.07c-.17-.04-4.3-.99-7.51-1.96-3.28-.99-19.51-14.67-22.56-17.26l-.5-.42.24-.61c2.39-6.17,1.74-16.1,1.73-16.19l-.09-1.31l28.99,5.03l28.98-5.03-.09,1.31c0,.1-.65,10.02,1.74,16.19l.24.61-.5.42c-3.05,2.59-19.26,16.27-22.54,17.26-3.21.97-7.34,1.92-7.51,1.96l-.31.07Zm-28.12-20.46c7.07,5.91,19.06,15.55,21.14,16.17c2.62.78,5.96,1.58,6.98,1.82c1.02-.24,4.37-1.04,6.98-1.82c2.08-.62,14.06-10.26,21.12-16.17-1.76-5.2-1.69-12.17-1.58-15.02l-26.54,4.64-26.55-4.64c.12,2.85.19,9.82-1.56,15.02h.01Z" fill="#9a9a9a"/><path d="M170.46,139.7v0c-.49-.51-1.19-.82-1.93-.84s-1.39.23-1.82.71c-.58.64-1.54,1.68-2.79,2.92-3.76,3.52-9.47,8.02-10.07,8.49-5.4,3.78-10.53,6.15-15.18,6.96-4.64-.81-9.77-3.18-15.12-6.92-.64-.5-6.31-4.96-10.1-8.51-1.26-1.26-2.23-2.29-2.81-2.94-.43-.48-1.09-.73-1.82-.71s-1.43.33-1.93.84c-.72.74-.83,1.77-.27,2.51.32.45,4.51,6.38,12.38,11.89c8.21,5.85,15.5,7.81,18.34,8.39l.03.4l1.3-.17l1.42.16v-.41c2.9-.6,10.12-2.58,18.25-8.37c7.86-5.51,12.06-11.44,12.38-11.89.56-.74.45-1.76-.27-2.51h.01Z" fill="#9a9a9a"/></g><path d="M165.9,125.25l-27.12,4.73-27.12-4.73c0,0,.75,9.9-1.64,16.2c0,0,18.47,15.56,21.57,16.49c3.12.93,7.21,1.87,7.21,1.87s4.1-.94,7.21-1.87c3.1-.93,21.55-16.49,21.55-16.49-2.39-6.29-1.65-16.2-1.65-16.2h-.01Z" fill="#dad9d7"/><path d="M165.43,97.81c-1.1-2.55-11.95-8.45-17.56-10.1-5.54-1.62-9.18-1.22-9.18-1.22s-3.65-.4-9.18,1.22c-5.62,1.65-16.47,7.55-17.56,10.1-1.12,2.6.52,18.62.52,18.62c7.73,3.5,26.22,3.41,26.22,3.41s18.5.09,26.22-3.41c0,0,1.64-16.02.52-18.62Z" fill="#dad9d7"/><path d="M138.88,121.44h-.42c-2.23,0-19.81-.12-27.62-3.68l-.46-.21-.04-.43c-.17-1.82-1.55-16.87-.34-19.63c1.34-3.06,13.27-9.28,18.82-10.89c5.33-1.55,9.06-1.37,9.85-1.31.79-.06,4.51-.25,9.85,1.31c5.55,1.62,17.48,7.84,18.82,10.89c1.21,2.76-.16,17.8-.34,19.63l-.04.43-.46.21c-7.81,3.56-25.39,3.68-27.63,3.68h.01Zm-.21-1.82c.19,0,18.23.05,26.16-3.22.69-6.87,1.34-16.74.55-18.56v0c-.94-2.19-11.67-8.23-17.57-9.96-5.42-1.59-8.95-1.22-8.98-1.22l-.15.02-.15-.02c0,0-3.61-.36-8.98,1.22-5.89,1.73-16.62,7.77-17.57,9.96-.79,1.82-.14,11.69.55,18.56c7.93,3.26,25.96,3.22,26.14,3.22Z" fill="#9a9a9a"/><g><polygon points="141.65,113.4 135.7,113.4 136.08,81.14 141.27,81.14 141.65,113.4" fill="#9a9a9a"/><polygon points="140.79,113.4 136.56,113.4 136.82,81.77 140.53,81.77 140.79,113.4" fill="#dad9d7"/></g><polygon points="111.49,115.24 112.34,120.08 137.61,132.24 160.45,124.09 166.01,120.52 165.99,116.41 111.49,115.24" fill="#2d2d2c"/><path d="M167.67,122.83c-.28-.16-.51-.37-.64-.62-.23-.43-.51-1.39-.91-4.03-.02-.14-.04-.27-.06-.41h.03c0,0-.01-.25-.01-.25-.09-2.12-.12-4.45,0-4.72l.5-.69-1,.18c-.11.02-11.26,2.04-18,2.12l-.4-11.62c.1-.29.88-2.27,4.27-2.29l.67.06-.21-.49c-2.06-3.09-5.87-2.96-7.14-2.82-.06-1.03-.73-3.87-5.88-5.87l-.18-.07v0v29.9c0,0,.04,0,.04,0c.17,0,17.58-1.04,27.06-3.37-.04.03-.08.05-.13.08-11.26,8.47-24.39,10.9-26.68,10.36-.1-.02-.2-.03-.3-.03v44.59c.08-.02.15-.05.23-.07c5.29-1.87,6.76-4.55,7.17-6.17.17-.65.73-1.13,1.41-1.26.76-.15,1.68-.42,2.63-.88.11-.05.2-.1.3-.15c0,0,.32-.17.4-.21c3.27-1.88,4.13-4.49,4.17-4.58.07-.2.14-.4.2-.6-.24.09-.48.19-.72.28-3.31,1.2-4.77.07-5.35-.68-.21-.27-.31-.6-.32-.93-.23-6.52-.49-13.92-.78-22.42-.02-.67.48-1.25,1.22-1.43c6.93-1.69,16.62-8.28,17.55-9.46.08-.1.17-.18.28-.25.41-.27.82-.54,1.24-.83-.22-.11-.43-.23-.65-.36l-.01-.01Z" fill="#e2bc33"/><path d="M138.3,128.27c-1.46.34-7.49-.57-14.69-3.59-1.18-.54-2.77-1.28-4.25-1.99-2.58-1.33-5.19-2.92-7.69-4.81-.03-.02-.06-.04-.09-.05c1.27.31,2.68.6,4.17.87v0c3.13.56,6.63,1.02,9.93,1.38.01,0,.03,0,.04,0v0c6.68.74,12.51,1.09,12.94,1.11v-29.9l-.17.07c-5.14,2-5.81,4.83-5.88,5.86-.64-.07-1.8-.12-3.06.17-.08.02-.16.04-.24.06c0,0-.26.07-.32.09-2.55.76-3.43,2.47-3.47,2.54l-.2.4h.56c3.43,0,4.22,1.99,4.32,2.29l-.4,11.62c-1.16-.01-2.45-.09-3.79-.2-.27-.03-8.78-1.04-9.74-1.19-2.6-.4-4.41-.73-4.46-.73l-1.02-.21.51.69c.12.29.1,2.63,0,4.75v.14c0,0,0,0-.01,0-.03.17-.05.34-.08.5-.37,2.45-.65,3.45-.86,3.92-.13.29-.37.54-.69.71-.21.12-.41.23-.62.34.41.29.82.57,1.22.85.1.07.19.14.26.23.87,1.15,10.61,7.79,17.57,9.49.74.18,1.24.76,1.22,1.43-.3,8.5-.56,15.9-.78,22.42-.01.33-.11.65-.32.92-.57.75-2.02,1.87-5.28.71-.28-.13-.57-.27-.85-.41.07.24.13.48.2.72c1.76,3.89,5.43,5.39,7.6,5.83.68.14,1.22.61,1.39,1.26.42,1.62,1.89,4.3,7.17,6.17.08.03.16.05.24.08c0,0,0,0,0,0v-44.59c-.13,0-.25,0-.37.03l-.01.02Z" fill="#85732d"/><g><path d="M128.75,136.26c0,0-.04-.04-.06-.05c0,0-.02-.02-.03-.02-.04-.03-.08-.06-.13-.08-.01,0-.02,0-.04-.01-.05-.02-.1-.03-.15-.03c0,0-.06,0-.16.02c0,0-.01,0-.02,0-.16.05-.38.19-.56.56c0,0,0,.02-.01.03-.07.15-.13.33-.17.51-.02.09-.03.19-.04.29-.02.2-.01.39.02.57s.08.34.14.47c.13.27.33.44.56.45.05,0,.1,0,.15-.02.01,0,.03,0,.04-.01.05-.02.09-.04.14-.07c0,0,.02-.01.03-.02.02-.02.05-.03.07-.05v0v0v0c.28-.24.5-.71.55-1.26s-.09-1.02-.33-1.28c0,0,0,0,0,0Z" fill="#2d2d2c"/><path d="M124.92,137.31c0,0,.09,0,.13-.02.01,0,.02,0,.03-.01.04-.02.08-.04.12-.06c0,0,.02-.01.02-.02.02-.02.04-.03.06-.05v0v0v0c.24-.22.41-.62.43-1.1.02-.47-.12-.88-.34-1.09v0c0,0-.04-.03-.05-.05c0,0-.02-.01-.02-.02-.04-.03-.07-.05-.11-.06c0,0-.02,0-.03-.01-.04-.01-.08-.02-.13-.02c0,0-.06,0-.14.02c0,0-.01,0-.02,0-.13.05-.32.17-.46.5-.09.2-.16.45-.17.72-.03.69.27,1.26.68,1.25v.02Z" fill="#2d2d2c"/><path d="M121.91,135.63c.05,0,.1-.01.15-.03.01,0,.03-.01.04-.02.04-.02.07-.04.11-.07c0,0,.02,0,.02-.01v0v0v0c.21-.18.37-.52.41-.91.04-.4-.06-.74-.24-.92v0c0,0-.01,0-.02-.01-.03-.03-.06-.05-.09-.07-.01,0-.02-.02-.04-.02-.05-.02-.09-.04-.14-.04c0,0-.05,0-.12.02c0,0,0,0-.01,0-.11.04-.28.14-.41.41-.09.17-.15.38-.17.6-.05.58.18,1.06.52,1.07h-.01Z" fill="#2d2d2c"/><path d="M119.53,134.01c0,0,.02,0,.04-.02.03-.01.06-.03.09-.05c0,0,.01,0,.02-.01v0v0v0c.19-.15.34-.43.39-.77s-.02-.64-.16-.8v0c0,0-.01,0-.02-.01-.02-.03-.05-.05-.08-.06c0,0-.02-.01-.03-.02-.04-.02-.08-.03-.12-.04c0,0-.04,0-.1.01c0,0,0,0-.01,0-.1.03-.25.11-.37.34-.08.14-.15.32-.18.51-.07.5.1.91.4.93.04,0,.08,0,.13-.02v.01Z" fill="#2d2d2c"/><path d="M117.25,132.69c0,0,.06-.02.08-.04c0,0,.01,0,.02,0v0v0v0c.17-.12.32-.35.39-.64s.03-.54-.08-.69v0c0,0,0,0-.01-.01-.02-.02-.04-.04-.06-.06c0,0-.02-.01-.02-.02-.03-.02-.06-.03-.1-.04c0,0-.03,0-.09,0c0,0,0,0-.01,0-.09.02-.22.08-.34.27-.08.12-.15.26-.19.43-.1.42.02.79.27.81.04,0,.07,0,.11-.01c0,0,.02-.01.03-.02v.02Z" fill="#2d2d2c"/><path d="M128.5,140.3c0,0-.04-.04-.06-.05c0,0-.02-.02-.03-.02-.04-.03-.09-.05-.13-.07-.01,0-.02,0-.04-.01-.05-.01-.1-.02-.15-.02c0,0-.06,0-.16.03c0,0-.01,0-.02,0-.15.06-.36.21-.5.58-.1.24-.16.52-.16.83c0,.8.36,1.44.83,1.43.05,0,.1-.01.15-.03.01,0,.03,0,.04-.01.05-.02.09-.04.13-.07c0,0,.02-.02.03-.02.02-.02.04-.04.06-.06c0,0,0,0,0,0v0v0c.26-.26.43-.73.43-1.27s-.17-1-.43-1.24c0,0,0,0,0,0h.01Z" fill="#2d2d2c"/><path d="M125.31,139.04c0,0-.04-.03-.05-.05c0,0-.01-.01-.02-.02-.04-.03-.07-.05-.11-.06c0,0-.02,0-.03,0-.04-.01-.08-.02-.13-.02c0,0-.05,0-.14.02c0,0-.01,0-.02,0-.13.05-.32.17-.45.5-.09.2-.15.45-.16.72c0,.17,0,.34.04.48.06.3.19.54.36.66.08.06.18.1.28.1.05,0,.09,0,.13-.02c0,0,.02,0,.03-.01.04-.02.08-.04.12-.06c0,0,.02-.01.02-.02.02-.02.04-.03.06-.05v0v0v0c.23-.21.4-.62.42-1.09s-.12-.87-.33-1.08c0,0,0,0,0,0h-.02Z" fill="#2d2d2c"/><path d="M121.91,139.7c0,0,.1-.01.15-.03.01,0,.03-.01.04-.02.04-.02.07-.04.1-.07c0,0,.02,0,.02-.01v0v0v0c.2-.17.36-.51.4-.91.04-.39-.06-.73-.23-.92v0c0,0-.01,0-.02-.01-.03-.03-.06-.05-.09-.07-.01,0-.02-.02-.04-.02-.04-.02-.09-.03-.14-.04c0,0-.05,0-.12.02c0,0,0,0-.01,0-.11.04-.27.14-.4.41-.09.17-.15.37-.17.6-.05.58.18,1.06.51,1.07Z" fill="#2d2d2c"/><path d="M119.45,138.11c0,0,.08,0,.13-.02.01,0,.02,0,.04-.02.03-.01.06-.03.09-.05c0,0,.01,0,.02-.01v0v0v0c.18-.14.33-.43.38-.76.05-.34-.02-.63-.16-.79v0c0,0,0,0-.01-.01-.02-.03-.05-.05-.07-.06c0,0-.02-.01-.03-.02-.04-.02-.08-.03-.12-.04c0,0-.04,0-.1.01c0,0,0,0-.01,0-.1.03-.24.11-.36.34-.08.14-.14.32-.17.51-.04.25-.01.47.06.64.04.08.08.15.14.2.05.05.12.08.19.08h-.02Z" fill="#2d2d2c"/><path d="M117.32,136.79c0,0,.02,0,.03-.01.03,0,.05-.02.08-.04c0,0,.01,0,.02,0v0v0v0c.16-.11.32-.35.38-.63.07-.28.03-.54-.07-.68v0c0,0,0,0-.01-.01-.02-.02-.04-.04-.06-.06c0,0-.02-.01-.02-.02-.03-.02-.06-.03-.1-.04c0,0-.03,0-.09,0c0,0,0,0,0,0-.08.02-.21.08-.34.27-.08.12-.15.26-.18.43-.1.42.02.78.26.81.04,0,.07,0,.11,0l-.01-.02Z" fill="#2d2d2c"/><path d="M128.16,144.91c0,0-.04-.04-.06-.06c0,0-.02-.02-.02-.03-.04-.03-.08-.06-.13-.08-.01,0-.02,0-.04-.02-.05-.02-.09-.03-.15-.04c0,0-.06,0-.16.02c0,0-.01,0-.02,0-.16.05-.38.18-.57.56-.12.24-.21.53-.25.85-.09.82.21,1.51.68,1.54.05,0,.1,0,.15-.02.01,0,.03,0,.04-.01.05-.02.1-.04.14-.07c0,0,.02-.02.03-.02.02-.02.05-.03.07-.05v0v0v0c.29-.24.52-.72.57-1.28.06-.56-.07-1.05-.3-1.31c0,0,0,0,0,0l.02.02Z" fill="#2d2d2c"/><path d="M125.08,143.35c0,0-.03-.04-.05-.05c0,0-.01-.02-.02-.02-.03-.03-.07-.05-.11-.07c0,0-.02,0-.03-.01-.04-.02-.08-.03-.13-.03c0,0-.05,0-.14.01c0,0-.01,0-.02,0-.14.04-.34.15-.51.47-.11.2-.2.45-.24.72-.11.71.13,1.31.54,1.34.05,0,.09,0,.13-.01.01,0,.02,0,.03,0c.04-.01.08-.03.13-.05c0,0,.02-.01.03-.02.02-.01.04-.03.06-.04v0v0v0c.26-.2.47-.61.54-1.09s-.02-.9-.21-1.14c0,0,0,0,0,0v-.01Z" fill="#2d2d2c"/><path d="M122.27,141.79c0,0-.01,0-.02-.02-.03-.03-.05-.06-.08-.08-.01,0-.02-.02-.03-.02-.04-.02-.09-.04-.14-.05c0,0-.05,0-.12,0c0,0,0,0-.01,0-.12.03-.29.12-.45.39-.1.17-.19.37-.23.6-.12.59.06,1.1.4,1.14.05,0,.1,0,.15-.02.01,0,.03-.01.04-.02.04-.02.07-.04.11-.06c0,0,.02,0,.02-.01v0v0v0c.22-.16.42-.5.5-.9s.02-.76-.14-.96c0,0,0,0,0,0v.01Z" fill="#2d2d2c"/><path d="M119.97,140.25c0,0,0,0-.01-.01-.02-.03-.04-.05-.07-.07c0,0-.02-.02-.03-.02-.04-.02-.07-.04-.11-.05c0,0-.04,0-.1,0c0,0,0,0-.01,0-.1.02-.26.09-.4.32-.1.14-.18.31-.23.51-.13.5,0,.94.29.98.04,0,.09,0,.13-.01.01,0,.02,0,.04-.01.03-.01.06-.03.1-.05c0,0,.01,0,.02,0v0v0c0,0,0,0,0,0c.2-.13.38-.41.47-.76s.05-.65-.07-.83q0,0,0,0h-.02Z" fill="#2d2d2c"/><path d="M117.88,139.01c0,0,0,0-.01-.01-.02-.02-.03-.05-.05-.06c0,0-.01-.01-.02-.02-.03-.02-.06-.04-.09-.04c0,0-.03,0-.09,0v0c0,0,0,0,0,0-.09.01-.23.07-.37.25-.09.11-.17.26-.23.42-.14.42-.06.8.18.85.04,0,.07,0,.11,0c0,0,.02,0,.03,0c.03,0,.06-.02.09-.04c0,0,.01,0,.02,0v0v0v0c.18-.1.35-.33.45-.62s.09-.55,0-.71c0,0,0,0,0,0l-.02-.02Z" fill="#2d2d2c"/><path d="M148.82,138.79v0v0v0c0,0,.05.04.07.05c0,0,.02.02.03.02.05.03.09.05.14.07.01,0,.03,0,.04.01.05.01.1.02.15.02.06,0,.12-.01.17-.04.11-.04.2-.12.28-.23.04-.05.08-.12.11-.18.06-.14.11-.29.14-.47s.03-.37.02-.57c0-.1-.02-.2-.04-.29-.04-.19-.1-.36-.17-.51c0,0,0-.02-.02-.03-.18-.37-.4-.51-.56-.56c0,0-.01,0-.02,0-.1-.03-.16-.02-.16-.02-.05,0-.1.01-.15.03-.01,0-.02,0-.04.01-.05.02-.09.04-.13.08c0,0-.02.02-.03.02-.02.02-.04.04-.06.05v0c-.24.26-.38.73-.33,1.28.05.54.27,1.01.55,1.25l.01.01Z" fill="#2d2d2c"/><path d="M152.48,134.84c0,0-.01,0-.02,0-.08-.03-.14-.02-.14-.02-.05,0-.09,0-.13.02c0,0-.02,0-.03.01-.04.02-.08.04-.11.06c0,0-.02.01-.02.02-.02.01-.04.03-.05.05v0c-.22.21-.36.61-.34,1.09.02.47.19.88.43,1.1v0v0v0c0,0,.04.03.06.05c0,0,.02.01.02.02.04.03.08.05.12.06c0,0,.02,0,.03.01.04.01.09.02.13.02.41,0,.71-.56.68-1.25-.01-.27-.07-.52-.17-.72-.14-.33-.33-.45-.46-.5v-.02Z" fill="#2d2d2c"/><path d="M155.38,133.55c0,0,0,0-.01,0-.07-.02-.12-.02-.12-.02-.05,0-.1.02-.14.04-.01,0-.02.01-.04.02-.03.02-.06.04-.09.07c0,0-.01,0-.02.01v0c-.17.18-.27.53-.24.92s.2.74.41.91v0v0v0c0,0,.02,0,.02.01.04.03.07.05.11.07.01,0,.03.01.04.02.05.02.1.03.15.03.34,0,.58-.49.52-1.07-.02-.23-.08-.43-.17-.6-.14-.27-.3-.37-.41-.41h-.01Z" fill="#2d2d2c"/><path d="M158.17,132.58c-.13-.23-.27-.31-.37-.34c0,0,0,0-.01,0-.06-.02-.1-.01-.1-.01-.04,0-.08.02-.12.04c0,0-.02.01-.03.02-.03.02-.05.04-.08.06c0,0-.01,0-.02.01v0c-.14.16-.21.46-.16.8s.21.62.39.77v0v0v0c0,0,.01,0,.02.01.03.02.06.04.09.05.01,0,.02.01.04.02.04.01.09.02.13.02.29-.02.47-.44.4-.93-.03-.19-.09-.37-.18-.51v-.01Z" fill="#2d2d2c"/><path d="M160.51,131.9c-.04-.16-.11-.31-.19-.43-.13-.19-.26-.25-.34-.27c0,0,0,0-.01,0-.05,0-.09,0-.09,0-.04,0-.07.02-.1.04c0,0-.02.01-.02.02-.02.02-.04.04-.06.06c0,0,0,0-.01.01v0c-.11.15-.15.4-.08.69s.22.52.39.64v0v0v0c0,0,0,0,.02,0c.03.02.05.03.08.04c0,0,.02,0,.03.01.04,0,.07.02.11.01.25-.02.37-.39.27-.81v-.01Z" fill="#2d2d2c"/><path d="M148.86,142.81v0v0c0,0,.04.04.06.06c0,0,.02.02.03.02.04.03.09.05.13.07.01,0,.03,0,.04.01.05.02.1.03.15.03.46.01.83-.63.83-1.43c0-.31-.06-.6-.16-.83-.15-.38-.36-.53-.5-.58c0,0-.01,0-.02,0-.09-.03-.16-.03-.16-.03-.05,0-.1,0-.15.02-.01,0-.02,0-.04.01-.05.02-.09.04-.13.07c0,0-.02.01-.03.02-.02.02-.04.03-.06.05v0c-.26.24-.43.7-.43,1.24s.18,1.02.43,1.27c0,0,0,0,0,0h.01Z" fill="#2d2d2c"/><path d="M152.14,141.21v0v0v0c0,0,.04.03.06.05c0,0,.02.01.02.02.04.03.08.05.12.06c0,0,.02,0,.03.01.04.01.09.02.13.02.4,0,.7-.56.67-1.24-.01-.27-.07-.51-.16-.72-.14-.32-.32-.45-.45-.5c0,0-.01,0-.02,0-.08-.03-.14-.02-.14-.02-.04,0-.09,0-.13.02c0,0-.02,0-.03,0-.04.02-.08.04-.11.06c0,0-.01.01-.02.02-.02.01-.04.03-.05.05v0c-.21.21-.35.61-.33,1.08s.19.87.42,1.09h-.01Z" fill="#2d2d2c"/><path d="M155.38,137.63c0,0,0,0-.01,0-.07-.02-.12-.02-.12-.02-.05,0-.1.02-.14.04-.01,0-.02.01-.04.02-.03.02-.06.04-.09.07c0,0-.01,0-.02.01v0c-.17.18-.27.52-.23.92.04.39.19.73.4.91v0v0v0c0,0,.01,0,.02.01.03.03.07.05.1.07.01,0,.03.01.04.02.05.02.1.03.15.03.34,0,.57-.48.51-1.06-.02-.23-.08-.43-.17-.6-.13-.27-.29-.37-.4-.41v-.01Z" fill="#2d2d2c"/><path d="M158.12,136.67c-.12-.23-.27-.31-.36-.34c0,0,0,0-.01,0-.06-.02-.1-.01-.1-.01-.04,0-.08.02-.12.04c0,0-.02.01-.03.02-.03.02-.05.04-.07.06c0,0-.01,0-.02.01v0c-.14.16-.2.46-.16.79.05.34.2.62.38.76v0v0v0c0,0,.01,0,.02.01.03.02.06.04.09.05.01,0,.02.01.04.02.04.01.08.02.13.02.07,0,.14-.03.19-.08s.1-.12.14-.2c.07-.17.1-.39.06-.64-.03-.19-.09-.37-.17-.51h-.01Z" fill="#2d2d2c"/><path d="M160.22,135.57c-.12-.19-.25-.25-.34-.27c0,0,0,0,0,0-.05,0-.09,0-.09,0-.04,0-.07.02-.1.04c0,0-.02.01-.02.02-.02.02-.04.04-.06.06c0,0,0,0-.01.01v0c-.1.14-.14.4-.07.68s.22.52.38.63v0v0v0c0,0,0,0,.02,0c.03.02.05.03.08.04c0,0,.02,0,.03.01.04,0,.07.02.11.01.24-.03.36-.39.26-.81-.04-.16-.11-.31-.18-.43l-.01.01Z" fill="#2d2d2c"/><path d="M150.33,145.28c-.19-.38-.42-.51-.57-.56c0,0-.01,0-.02,0-.1-.03-.16-.02-.16-.02-.05,0-.1.02-.15.04-.01,0-.02,0-.04.02-.04.02-.09.05-.13.08c0,0-.02.02-.02.02-.02.02-.04.04-.06.06c0,0,0,0,0,0-.23.26-.36.76-.3,1.31.06.56.29,1.04.57,1.28v0v0v0c0,0,.05.04.07.05c0,0,.02.02.03.02.05.03.09.05.14.07.01,0,.03,0,.04.01.05.01.1.02.15.02.47-.03.77-.72.68-1.54-.04-.32-.13-.61-.25-.85l.02-.01Z" fill="#2d2d2c"/><path d="M153.27,143.66c-.17-.32-.37-.44-.51-.47c0,0-.01,0-.02,0-.08-.02-.14-.01-.14-.01-.04,0-.08.02-.13.03c0,0-.02,0-.03.01-.04.02-.07.04-.11.07c0,0-.01.01-.02.02-.02.02-.03.03-.05.05c0,0,0,0,0,0-.19.23-.28.66-.21,1.14s.28.88.54,1.09v0v0v0c0,0,.04.03.06.04c0,0,.02.01.03.02.04.02.08.04.12.05.01,0,.02,0,.03,0c.04,0,.09.02.13.01.4-.03.64-.63.54-1.34-.04-.27-.13-.52-.24-.72l.01.01Z" fill="#2d2d2c"/><path d="M155.93,142.02c-.16-.27-.33-.36-.45-.39c0,0,0,0-.02,0-.07-.02-.12,0-.12,0-.05,0-.09.02-.14.05-.01,0-.02.02-.03.02-.03.02-.06.05-.08.08c0,0-.01,0-.02.02c0,0,0,0,0,0-.15.2-.21.56-.14.96.08.4.27.74.5.9v0v0v0c0,0,.02,0,.02.01.04.03.07.05.11.06.01,0,.03.01.04.02.05.02.1.02.15.02.34-.04.52-.55.4-1.14-.04-.22-.13-.43-.23-.6l.01-.01Z" fill="#2d2d2c"/><path d="M158.3,140.75c-.05-.12-.11-.23-.17-.33-.15-.22-.3-.3-.4-.32c0,0,0,0-.01,0-.06-.01-.1,0-.1,0-.04,0-.08.02-.12.05c0,0-.02.01-.03.02-.03.02-.05.04-.07.07c0,0,0,0-.01.01v0c-.12.18-.16.48-.07.83.09.34.27.62.47.76c0,0,0,0,0,0v0v0c0,0,.01,0,.02,0c.03.02.06.04.1.05.01,0,.02,0,.04.01.04.01.09.02.13.01.29-.04.42-.48.29-.98-.01-.06-.03-.13-.05-.18h-.02Z" fill="#2d2d2c"/><path d="M160.11,139.12c-.14-.18-.28-.24-.37-.25c0,0,0,0-.01,0-.05,0-.09,0-.09,0-.04,0-.07.02-.09.04c0,0-.01.01-.02.02-.02.02-.04.04-.05.06c0,0,0,0-.01.01c0,0,0,0,0,0-.09.16-.1.42,0,.71s.27.52.45.62v0v0v0c0,0,.01,0,.02,0c.03.02.06.03.09.04.01,0,.02,0,.03,0c.04,0,.07,0,.11,0c.24-.05.32-.43.18-.85-.05-.16-.13-.31-.23-.42l-.01.02Z" fill="#2d2d2c"/></g><g><path d="M163.41,108.74c-.72,0-1.26.45-1.2,1c.05.56.68,1.01,1.4,1.01s1.26-.45,1.2-1.01-.69-1-1.4-1Z" fill="#fdfeff"/><path d="M159.26,109.27c-.72,0-1.27.45-1.22,1.01.04.56.67,1.01,1.39,1.01s1.27-.46,1.22-1.01c-.05-.56-.67-1.01-1.39-1.01Z" fill="#fdfeff"/><path d="M155.01,109.8c-.72,0-1.28.45-1.24,1.01.03.56.65,1.02,1.37,1.02s1.28-.46,1.24-1.02-.65-1.01-1.37-1.01Z" fill="#fdfeff"/><path d="M150.51,110.16c-.72,0-1.29.45-1.26,1.01.02.56.63,1.02,1.36,1.02s1.29-.46,1.26-1.02-.64-1.01-1.36-1.01Z" fill="#fdfeff"/><path d="M113.94,108.74c-.72,0-1.34.45-1.4,1-.06.56.48,1.01,1.2,1.01s1.35-.45,1.4-1.01-.49-1-1.2-1Z" fill="#fdfeff"/><path d="M118.09,109.27c-.72,0-1.34.45-1.39,1.01s.5,1.01,1.22,1.01s1.35-.46,1.39-1.01c.04-.56-.51-1.01-1.22-1.01Z" fill="#fdfeff"/><path d="M122.34,109.8c-.72,0-1.33.45-1.37,1.01s.52,1.02,1.24,1.02s1.34-.46,1.37-1.02-.52-1.01-1.24-1.01Z" fill="#fdfeff"/><path d="M126.84,110.16c-.72,0-1.33.45-1.36,1.01s.54,1.02,1.26,1.02s1.33-.46,1.36-1.02c.02-.56-.54-1.01-1.26-1.01Z" fill="#fdfeff"/></g><g><g><path d="M167.09,111.77c0,0-.01,0-.03,0l-.87-.03c-1.06-.04-1.8,2.62-1.67,6.01.14,3.48,1.15,6.41,2.26,6.46l.95.04v0c1.11.04,1.83-2.82,1.63-6.31-.2-3.4-1.21-6.12-2.27-6.16v-.01Z" fill="#dad9d7"/><path d="M167.67,114.14c-.65-.02-1.09,1.61-.99,3.68.1,2.1.72,3.85,1.39,3.88s1.1-1.68.98-3.79c-.12-2.07-.74-3.74-1.39-3.77h.01Z" fill="#2d2d2c"/></g><g><path d="M110.26,111.77c0,0,.01,0,.03,0l.87-.03c1.05-.04,1.8,2.62,1.67,6.01-.14,3.48-1.15,6.41-2.26,6.46l-.95.04v0c-1.11.04-1.83-2.82-1.63-6.31.2-3.4,1.21-6.12,2.27-6.16v-.01Z" fill="#dad9d7"/><path d="M109.68,114.14c.65-.02,1.09,1.61.99,3.68-.1,2.1-.72,3.85-1.39,3.88s-1.1-1.68-.98-3.79c.12-2.07.74-3.74,1.39-3.77h-.01Z" fill="#2d2d2c"/></g></g><path d="M138.98,128.27c2.28.54,15.41-1.88,26.68-10.36.04-.03.08-.05.13-.08-9.49,2.33-26.89,3.36-27.06,3.37c0,0-.03,0-.04,0v7.04c.1,0,.2.01.3.03h-.01Z" fill="none"/><path d="M125.74,120.09c0,0-.03,0-.04,0-3.3-.36-6.8-.82-9.93-1.38v0c-1.49-.26-2.9-.55-4.17-.87.03.02.06.04.09.05c2.5,1.88,5.11,3.47,7.69,4.81c1.48.71,3.07,1.45,4.25,1.99c7.2,3.03,13.22,3.93,14.69,3.59.12-.03.25-.04.38-.04v-7.04c-.43-.02-6.26-.38-12.94-1.11v0h-.02Z" fill="none"/></g></g></g></g>
<script><![CDATA[
!function(t,n){"object"==typeof exports&&"undefined"!=typeof module?module.exports=n():"function"==typeof __SVGATOR_DEFINE__&&__SVGATOR_DEFINE__.amd?__SVGATOR_DEFINE__(n):((t="undefined"!=typeof globalThis?globalThis:t||self).__SVGATOR_PLAYER__=t.__SVGATOR_PLAYER__||{},t.__SVGATOR_PLAYER__["5c7f360c"]=n())}(this,(function(){"use strict";function t(t,n){var e=Object.keys(t);if(Object.getOwnPropertySymbols){var r=Object.getOwnPropertySymbols(t);n&&(r=r.filter((function(n){return Object.getOwnPropertyDescriptor(t,n).enumerable}))),e.push.apply(e,r)}return e}function n(n){for(var e=1;e<arguments.length;e++){var r=null!=arguments[e]?arguments[e]:{};e%2?t(Object(r),!0).forEach((function(t){u(n,t,r[t])})):Object.getOwnPropertyDescriptors?Object.defineProperties(n,Object.getOwnPropertyDescriptors(r)):t(Object(r)).forEach((function(t){Object.defineProperty(n,t,Object.getOwnPropertyDescriptor(r,t))}))}return n}function e(t){return(e="function"==typeof Symbol&&"symbol"==typeof Symbol.iterator?function(t){return typeof t}:function(t){return t&&"function"==typeof Symbol&&t.constructor===Symbol&&t!==Symbol.prototype?"symbol":typeof t})(t)}function r(t,n){if(!(t instanceof n))throw new TypeError("Cannot call a class as a function")}function i(t,n){for(var e=0;e<n.length;e++){var r=n[e];r.enumerable=r.enumerable||!1,r.configurable=!0,"value"in r&&(r.writable=!0),Object.defineProperty(t,r.key,r)}}function o(t,n,e){return n&&i(t.prototype,n),e&&i(t,e),t}function u(t,n,e){return n in t?Object.defineProperty(t,n,{value:e,enumerable:!0,configurable:!0,writable:!0}):t[n]=e,t}function a(t){return(a=Object.setPrototypeOf?Object.getPrototypeOf:function(t){return t.__proto__||Object.getPrototypeOf(t)})(t)}function l(t,n){return(l=Object.setPrototypeOf||function(t,n){return t.__proto__=n,t})(t,n)}function s(){if("undefined"==typeof Reflect||!Reflect.construct)return!1;if(Reflect.construct.sham)return!1;if("function"==typeof Proxy)return!0;try{return Boolean.prototype.valueOf.call(Reflect.construct(Boolean,[],(function(){}))),!0}catch(t){return!1}}function f(t,n,e){return(f=s()?Reflect.construct:function(t,n,e){var r=[null];r.push.apply(r,n);var i=new(Function.bind.apply(t,r));return e&&l(i,e.prototype),i}).apply(null,arguments)}function c(t,n){if(n&&("object"==typeof n||"function"==typeof n))return n;if(void 0!==n)throw new TypeError("Derived constructors may only return object or undefined");return function(t){if(void 0===t)throw new ReferenceError("this hasn't been initialised - super() hasn't been called");return t}(t)}function h(t,n,e){return(h="undefined"!=typeof Reflect&&Reflect.get?Reflect.get:function(t,n,e){var r=function(t,n){for(;!Object.prototype.hasOwnProperty.call(t,n)&&null!==(t=a(t)););return t}(t,n);if(r){var i=Object.getOwnPropertyDescriptor(r,n);return i.get?i.get.call(e):i.value}})(t,n,e||t)}function v(t){return function(t){if(Array.isArray(t))return y(t)}(t)||function(t){if("undefined"!=typeof Symbol&&null!=t[Symbol.iterator]||null!=t["@@iterator"])return Array.from(t)}(t)||function(t,n){if(!t)return;if("string"==typeof t)return y(t,n);var e=Object.prototype.toString.call(t).slice(8,-1);"Object"===e&&t.constructor&&(e=t.constructor.name);if("Map"===e||"Set"===e)return Array.from(t);if("Arguments"===e||/^(?:Ui|I)nt(?:8|16|32)(?:Clamped)?Array$/.test(e))return y(t,n)}(t)||function(){throw new TypeError("Invalid attempt to spread non-iterable instance.\nIn order to be iterable, non-array objects must have a [Symbol.iterator]() method.")}()}function y(t,n){(null==n||n>t.length)&&(n=t.length);for(var e=0,r=new Array(n);e<n;e++)r[e]=t[e];return r}function g(t,n,e){if(Number.isInteger(t))return t;var r=Math.pow(10,n);return Math[e]((+t+Number.EPSILON)*r)/r}Number.isInteger||(Number.isInteger=function(t){return"number"==typeof t&&isFinite(t)&&Math.floor(t)===t}),Number.EPSILON||(Number.EPSILON=2220446049250313e-31);var d=p(Math.pow(10,-6));function p(t){var n=arguments.length>1&&void 0!==arguments[1]?arguments[1]:6;return g(t,n,"round")}function m(t,n){var e=arguments.length>2&&void 0!==arguments[2]?arguments[2]:d;return Math.abs(t-n)<e}p(Math.pow(10,-2)),p(Math.pow(10,-4));var b=Math.PI/180;function w(t){return t}function A(t,n,e){var r=1-e;return 3*e*r*(t*r+n*e)+e*e*e}function _(){var t=arguments.length>0&&void 0!==arguments[0]?arguments[0]:0,n=arguments.length>1&&void 0!==arguments[1]?arguments[1]:0,e=arguments.length>2&&void 0!==arguments[2]?arguments[2]:1,r=arguments.length>3&&void 0!==arguments[3]?arguments[3]:1;return t<0||t>1||e<0||e>1?null:m(t,n)&&m(e,r)?w:function(i){if(i<=0)return t>0?i*n/t:0===n&&e>0?i*r/e:0;if(i>=1)return e<1?1+(i-1)*(r-1)/(e-1):1===e&&t<1?1+(i-1)*(n-1)/(t-1):1;for(var o,u=0,a=1;u<a;){var l=A(t,e,o=(u+a)/2);if(m(i,l))break;l<i?u=o:a=o}return A(n,r,o)}}function x(){return 1}function k(t){return 1===t?1:0}function S(){var t=arguments.length>0&&void 0!==arguments[0]?arguments[0]:1,n=arguments.length>1&&void 0!==arguments[1]?arguments[1]:0;if(1===t){if(0===n)return k;if(1===n)return x}var e=1/t;return function(t){return t>=1?1:(t+=n*e)-t%e}}var O=Math.sin,j=Math.cos,M=Math.acos,E=Math.asin,P=Math.tan,I=Math.atan2,R=Math.PI/180,F=180/Math.PI,N=Math.sqrt,T=function(){function t(){var n=arguments.length>0&&void 0!==arguments[0]?arguments[0]:1,e=arguments.length>1&&void 0!==arguments[1]?arguments[1]:0,i=arguments.length>2&&void 0!==arguments[2]?arguments[2]:0,o=arguments.length>3&&void 0!==arguments[3]?arguments[3]:1,u=arguments.length>4&&void 0!==arguments[4]?arguments[4]:0,a=arguments.length>5&&void 0!==arguments[5]?arguments[5]:0;r(this,t),this.m=[n,e,i,o,u,a],this.i=null,this.w=null,this.s=null}return o(t,[{key:"determinant",get:function(){var t=this.m;return t[0]*t[3]-t[1]*t[2]}},{key:"isIdentity",get:function(){if(null===this.i){var t=this.m;this.i=1===t[0]&&0===t[1]&&0===t[2]&&1===t[3]&&0===t[4]&&0===t[5]}return this.i}},{key:"point",value:function(t,n){var e=this.m;return{x:e[0]*t+e[2]*n+e[4],y:e[1]*t+e[3]*n+e[5]}}},{key:"translateSelf",value:function(){var t=arguments.length>0&&void 0!==arguments[0]?arguments[0]:0,n=arguments.length>1&&void 0!==arguments[1]?arguments[1]:0;if(!t&&!n)return this;var e=this.m;return e[4]+=e[0]*t+e[2]*n,e[5]+=e[1]*t+e[3]*n,this.w=this.s=this.i=null,this}},{key:"rotateSelf",value:function(){var t=arguments.length>0&&void 0!==arguments[0]?arguments[0]:0;if(t%=360){var n=O(t*=R),e=j(t),r=this.m,i=r[0],o=r[1];r[0]=i*e+r[2]*n,r[1]=o*e+r[3]*n,r[2]=r[2]*e-i*n,r[3]=r[3]*e-o*n,this.w=this.s=this.i=null}return this}},{key:"scaleSelf",value:function(){var t=arguments.length>0&&void 0!==arguments[0]?arguments[0]:1,n=arguments.length>1&&void 0!==arguments[1]?arguments[1]:1;if(1!==t||1!==n){var e=this.m;e[0]*=t,e[1]*=t,e[2]*=n,e[3]*=n,this.w=this.s=this.i=null}return this}},{key:"skewSelf",value:function(t,n){if(n%=360,(t%=360)||n){var e=this.m,r=e[0],i=e[1],o=e[2],u=e[3];t&&(t=P(t*R),e[2]+=r*t,e[3]+=i*t),n&&(n=P(n*R),e[0]+=o*n,e[1]+=u*n),this.w=this.s=this.i=null}return this}},{key:"resetSelf",value:function(){var t=arguments.length>0&&void 0!==arguments[0]?arguments[0]:1,n=arguments.length>1&&void 0!==arguments[1]?arguments[1]:0,e=arguments.length>2&&void 0!==arguments[2]?arguments[2]:0,r=arguments.length>3&&void 0!==arguments[3]?arguments[3]:1,i=arguments.length>4&&void 0!==arguments[4]?arguments[4]:0,o=arguments.length>5&&void 0!==arguments[5]?arguments[5]:0,u=this.m;return u[0]=t,u[1]=n,u[2]=e,u[3]=r,u[4]=i,u[5]=o,this.w=this.s=this.i=null,this}},{key:"recomposeSelf",value:function(){var t=arguments.length>0&&void 0!==arguments[0]?arguments[0]:null,n=arguments.length>1&&void 0!==arguments[1]?arguments[1]:null,e=arguments.length>2&&void 0!==arguments[2]?arguments[2]:null,r=arguments.length>3&&void 0!==arguments[3]?arguments[3]:null,i=arguments.length>4&&void 0!==arguments[4]?arguments[4]:null;return this.isIdentity||this.resetSelf(),t&&(t.x||t.y)&&this.translateSelf(t.x,t.y),n&&this.rotateSelf(n),e&&(e.x&&this.skewSelf(e.x,0),e.y&&this.skewSelf(0,e.y)),!r||1===r.x&&1===r.y||this.scaleSelf(r.x,r.y),i&&(i.x||i.y)&&this.translateSelf(i.x,i.y),this}},{key:"decompose",value:function(){var t=arguments.length>0&&void 0!==arguments[0]?arguments[0]:0,n=arguments.length>1&&void 0!==arguments[1]?arguments[1]:0,e=this.m,r=e[0]*e[0]+e[1]*e[1],i=[[e[0],e[1]],[e[2],e[3]]],o=N(r);if(0===o)return{origin:{x:p(e[4]),y:p(e[5])},translate:{x:p(t),y:p(n)},scale:{x:0,y:0},skew:{x:0,y:0},rotate:0};i[0][0]/=o,i[0][1]/=o;var u=e[0]*e[3]-e[1]*e[2]<0;u&&(o=-o);var a=i[0][0]*i[1][0]+i[0][1]*i[1][1];i[1][0]-=i[0][0]*a,i[1][1]-=i[0][1]*a;var l=N(i[1][0]*i[1][0]+i[1][1]*i[1][1]);if(0===l)return{origin:{x:p(e[4]),y:p(e[5])},translate:{x:p(t),y:p(n)},scale:{x:p(o),y:0},skew:{x:0,y:0},rotate:0};i[1][0]/=l,i[1][1]/=l,a/=l;var s=0;return i[1][1]<0?(s=M(i[1][1])*F,i[0][1]<0&&(s=360-s)):s=E(i[0][1])*F,u&&(s=-s),a=I(a,N(i[0][0]*i[0][0]+i[0][1]*i[0][1]))*F,u&&(a=-a),{origin:{x:p(e[4]),y:p(e[5])},translate:{x:p(t),y:p(n)},scale:{x:p(o),y:p(l)},skew:{x:p(a),y:0},rotate:p(s)}}},{key:"clone",value:function(){var t=this.m;return new this.constructor(t[0],t[1],t[2],t[3],t[4],t[5])}},{key:"toString",value:function(){var t=arguments.length>0&&void 0!==arguments[0]?arguments[0]:" ";if(null===this.s){var n=this.m.map((function(t){return p(t)}));1===n[0]&&0===n[1]&&0===n[2]&&1===n[3]?this.s="translate("+n[4]+t+n[5]+")":this.s="matrix("+n.join(t)+")"}return this.s}}],[{key:"create",value:function(t){return t?Array.isArray(t)?f(this,v(t)):t instanceof this?t.clone():(new this).recomposeSelf(t.origin,t.rotate,t.skew,t.scale,t.translate):new this}}]),t}();function q(t,n,e){return t>=.5?e:n}function B(t,n,e){return 0===t||n===e?n:t*(e-n)+n}function D(t,n,e){var r=B(t,n,e);return r<=0?0:r}function L(t,n,e){var r=B(t,n,e);return r<=0?0:r>=1?1:r}function C(t,n,e){return 0===t?n:1===t?e:{x:B(t,n.x,e.x),y:B(t,n.y,e.y)}}function V(t,n,e){var r=function(t,n,e){return Math.round(B(t,n,e))}(t,n,e);return r<=0?0:r>=255?255:r}function G(t,n,e){return 0===t?n:1===t?e:{r:V(t,n.r,e.r),g:V(t,n.g,e.g),b:V(t,n.b,e.b),a:B(t,null==n.a?1:n.a,null==e.a?1:e.a)}}function z(t,n){for(var e=[],r=0;r<t;r++)e.push(n);return e}function Y(t,n){if(--n<=0)return t;var e=(t=Object.assign([],t)).length;do{for(var r=0;r<e;r++)t.push(t[r])}while(--n>0);return t}var $,U=function(){function t(n){r(this,t),this.list=n,this.length=n.length}return o(t,[{key:"setAttribute",value:function(t,n){for(var e=this.list,r=0;r<this.length;r++)e[r].setAttribute(t,n)}},{key:"removeAttribute",value:function(t){for(var n=this.list,e=0;e<this.length;e++)n[e].removeAttribute(t)}},{key:"style",value:function(t,n){for(var e=this.list,r=0;r<this.length;r++)e[r].style[t]=n}}]),t}(),Q=/-./g,H=function(t,n){return n.toUpperCase()};function J(t){return"function"==typeof t?t:q}function Z(t){return t?"function"==typeof t?t:Array.isArray(t)?function(t){var n=arguments.length>1&&void 0!==arguments[1]?arguments[1]:w;if(!Array.isArray(t))return n;switch(t.length){case 1:return S(t[0])||n;case 2:return S(t[0],t[1])||n;case 4:return _(t[0],t[1],t[2],t[3])||n}return n}(t,null):function(t,n){var e=arguments.length>2&&void 0!==arguments[2]?arguments[2]:w;switch(t){case"linear":return w;case"steps":return S(n.steps||1,n.jump||0)||e;case"bezier":case"cubic-bezier":return _(n.x1||0,n.y1||0,n.x2||0,n.y2||0)||e}return e}(t.type,t.value,null):null}function K(t,n,e){var r=arguments.length>3&&void 0!==arguments[3]&&arguments[3],i=n.length-1;if(t<=n[0].t)return r?[0,0,n[0].v]:n[0].v;if(t>=n[i].t)return r?[i,1,n[i].v]:n[i].v;var o,u=n[0],a=null;for(o=1;o<=i;o++){if(!(t>n[o].t)){a=n[o];break}u=n[o]}return null==a?r?[i,1,n[i].v]:n[i].v:u.t===a.t?r?[o,1,a.v]:a.v:(t=(t-u.t)/(a.t-u.t),u.e&&(t=u.e(t)),r?[o,t,e(t,u.v,a.v)]:e(t,u.v,a.v))}function W(t,n){var e=arguments.length>2&&void 0!==arguments[2]?arguments[2]:null;return t&&t.length?"function"!=typeof n?null:("function"!=typeof e&&(e=null),function(r){var i=K(r,t,n);return null!=i&&e&&(i=e(i)),i}):null}function X(t,n){return t.t-n.t}function tt(t,n,r,i,o){var u,a="@"===r[0],l="#"===r[0],s=$[r],f=q;switch(a?(u=r.substr(1),r=u.replace(Q,H)):l&&(r=r.substr(1)),e(s)){case"function":if(f=s(i,o,K,Z,r,a,n,t),l)return f;break;case"string":f=W(i,J(s));break;case"object":if((f=W(i,J(s.i),s.f))&&"function"==typeof s.u)return s.u(n,f,r,a,t)}return f?function(t,n,e){if(arguments.length>3&&void 0!==arguments[3]&&arguments[3])return t instanceof U?function(r){return t.style(n,e(r))}:function(r){return t.style[n]=e(r)};if(Array.isArray(n)){var r=n.length;return function(i){var o=e(i);if(null==o)for(var u=0;u<r;u++)t[u].removeAttribute(n);else for(var a=0;a<r;a++)t[a].setAttribute(n,o)}}return function(r){var i=e(r);null==i?t.removeAttribute(n):t.setAttribute(n,i)}}(n,r,f,a):null}function nt(t,n,r,i){if(!i||"object"!==e(i))return null;var o=null,u=null;return Array.isArray(i)?u=function(t){if(!t||!t.length)return null;for(var n=0;n<t.length;n++)t[n].e&&(t[n].e=Z(t[n].e));return t.sort(X)}(i):(u=i.keys,o=i.data||null),u?tt(t,n,r,u,o):null}function et(t,n,e){if(!e)return null;var r=[];for(var i in e)if(e.hasOwnProperty(i)){var o=nt(t,n,i,e[i]);o&&r.push(o)}return r.length?r:null}function rt(t,n){if(!n.settings.duration||n.settings.duration<0)return null;var e,r,i,o,u,a=function(t,n){if(!n)return null;var e=[];if(Array.isArray(n))for(var r=n.length,i=0;i<r;i++){var o=n[i];if(2===o.length){var u=null;if("string"==typeof o[0])u=t.getElementById(o[0]);else if(Array.isArray(o[0])){u=[];for(var a=0;a<o[0].length;a++)if("string"==typeof o[0][a]){var l=t.getElementById(o[0][a]);l&&u.push(l)}u=u.length?1===u.length?u[0]:new U(u):null}if(u){var s=et(t,u,o[1]);s&&(e=e.concat(s))}}}else for(var f in n)if(n.hasOwnProperty(f)){var c=t.getElementById(f);if(c){var h=et(t,c,n[f]);h&&(e=e.concat(h))}}return e.length?e:null}(t,n.elements);return a?(e=a,r=n.settings,i=r.duration,o=e.length,u=null,function(t,n){var a=r.iterations||1/0,l=(r.alternate&&a%2==0)^r.direction>0?i:0,s=t%i,f=1+(t-s)/i;n*=r.direction,r.alternate&&f%2==0&&(n=-n);var c=!1;if(f>a)s=l,c=!0,-1===r.fill&&(s=r.direction>0?0:i);else if(n<0&&(s=i-s),s===u)return!1;u=s;for(var h=0;h<o;h++)e[h](s);return c}):null}function it(t,n){for(var e=n.querySelectorAll("svg"),r=0;r<e.length;r++)if(e[r].id===t.root&&!e[r].svgatorAnimation)return e[r].svgatorAnimation=!0,e[r];return null}function ot(t){var n=function(t){return t.shadowRoot};return document?Array.from(t.querySelectorAll(":not("+["a","area","audio","br","canvas","circle","datalist","embed","g","head","hr","iframe","img","input","link","object","path","polygon","rect","script","source","style","svg","title","track","video"].join()+")")).filter(n).map(n):[]}function ut(t){var n=arguments.length>1&&void 0!==arguments[1]?arguments[1]:document,e=arguments.length>2&&void 0!==arguments[2]?arguments[2]:0,r=it(t,n);if(r)return r;if(e>=20)return null;for(var i=ot(n),o=0;o<i.length;o++){var u=ut(t,i[o],e+1);if(u)return u}return null}function at(t,n){if($=n,!t||!t.root||!Array.isArray(t.animations))return null;var e=ut(t);if(!e)return null;var r=t.animations.map((function(t){return rt(e,t)})).filter((function(t){return!!t}));return r.length?{svg:e,animations:r,animationSettings:t.animationSettings,options:t.options||void 0}:null}function lt(t){var n=arguments.length>1&&void 0!==arguments[1]?arguments[1]:null,e=arguments.length>2&&void 0!==arguments[2]?arguments[2]:Number,r=arguments.length>3&&void 0!==arguments[3]?arguments[3]:"undefined"!=typeof BigInt&&BigInt,i="0x"+(t.replace(/[^0-9a-fA-F]+/g,"")||27);return n&&r&&e.isSafeInteger&&!e.isSafeInteger(+i)?e(r(i))%n+n:+i}function st(t,n,e){return!t||!e||n>t.length?t:t.substring(0,n)+st(t.substring(n+1),e,e)}function ft(t){var n=arguments.length>1&&void 0!==arguments[1]?arguments[1]:27;return!t||t%n?t%n:[0,1].includes(n)?n:ft(t/n,n)}function ct(t,n,e){if(t&&t.length){var r=lt(e),i=ft(r)+5,o=st(t,ft(r,5),i);return o=o.replace(/\x7c$/g,"==").replace(/\x2f$/g,"="),o=function(t,n,e){var r=+("0x"+t.substring(0,4));t=t.substring(4);for(var i=lt(n,r)%r+e%27,o=[],u=0;u<t.length;u+=2)if("|"!==t[u]){var a=+("0x"+t[u]+t[u+1])-i;o.push(a)}else{var l=+("0x"+t.substring(u+1,u+1+4))-i;u+=3,o.push(l)}return String.fromCharCode.apply(String,o)}(o=(o=atob(o)).replace(/[\x41-\x5A]/g,""),n,r),o=JSON.parse(o)}}var ht=[{key:"alternate",def:!1},{key:"fill",def:1},{key:"iterations",def:0},{key:"direction",def:1},{key:"speed",def:1},{key:"fps",def:100}],vt=function(){function t(n,e){var i=this,o=arguments.length>2&&void 0!==arguments[2]?arguments[2]:null;r(this,t),this._id=0,this._running=!1,this._rollingBack=!1,this._animations=n,this._settings=e,(!o||o<"2022-05-02")&&delete this._settings.speed,ht.forEach((function(t){i._settings[t.key]=i._settings[t.key]||t.def})),this.duration=e.duration,this.offset=e.offset||0,this.rollbackStartOffset=0}return o(t,[{key:"alternate",get:function(){return this._settings.alternate}},{key:"fill",get:function(){return this._settings.fill}},{key:"iterations",get:function(){return this._settings.iterations}},{key:"direction",get:function(){return this._settings.direction}},{key:"speed",get:function(){return this._settings.speed}},{key:"fps",get:function(){return this._settings.fps}},{key:"maxFiniteDuration",get:function(){return this.iterations>0?this.iterations*this.duration:this.duration}},{key:"_apply",value:function(t){for(var n=arguments.length>1&&void 0!==arguments[1]?arguments[1]:{},e=this._animations,r=e.length,i=0,o=0;o<r;o++)n[o]?i++:(n[o]=e[o](t,1),n[o]&&i++);return i}},{key:"_rollback",value:function(t){var n=this,e=1/0,r=null;this.rollbackStartOffset=t,this._rollingBack=!0,this._running=!0;this._id=window.requestAnimationFrame((function i(o){if(n._rollingBack){null==r&&(r=o);var u=Math.round(t-(o-r)*n.speed);if(u>n.duration&&e!==1/0){var a=!!n.alternate&&u/n.duration%2>1,l=u%n.duration;u=(l+=a?n.duration:0)||n.duration}var s=(n.fps?1e3/n.fps:0)*n.speed,f=Math.max(0,u);f<=e-s&&(n.offset=f,e=f,n._apply(f));var c=n.iterations>0&&-1===n.fill&&u>=n.maxFiniteDuration;(u<=0||n.offset<u||c)&&n.stop(),n._id=window.requestAnimationFrame(i)}}))}},{key:"_start",value:function(){var t=this,n=arguments.length>0&&void 0!==arguments[0]?arguments[0]:0,e=-1/0,r=null,i={};this._running=!0;var o=function o(u){null==r&&(r=u);var a=Math.round((u-r)*t.speed+n),l=(t.fps?1e3/t.fps:0)*t.speed;if(a>=e+l&&!t._rollingBack&&(t.offset=a,e=a,t._apply(a,i)===t._animations.length))return void t.pause(!0);t._id=window.requestAnimationFrame(o)};this._id=window.requestAnimationFrame(o)}},{key:"_pause",value:function(){this._id&&window.cancelAnimationFrame(this._id),this._running=!1}},{key:"play",value:function(){if(!this._running)return this._rollingBack?this._rollback(this.offset):this._start(this.offset)}},{key:"stop",value:function(){this._pause(),this.offset=0,this.rollbackStartOffset=0,this._rollingBack=!1,this._apply(0)}},{key:"reachedToEnd",value:function(){return this.iterations>0&&this.offset>=this.iterations*this.duration}},{key:"restart",value:function(){var t=arguments.length>0&&void 0!==arguments[0]&&arguments[0];this.stop(t),this.play(t)}},{key:"pause",value:function(){this._pause()}},{key:"reverse",value:function(){this.direction=-this.direction}}],[{key:"build",value:function(t,n){delete t.animationSettings,t.options=ct(t.options,t.root,"5c7f360c"),t.animations.map((function(n){n.settings=ct(n.s,t.root,"5c7f360c"),delete n.s,t.animationSettings||(t.animationSettings=n.settings)}));var e=t.version;if(!(t=at(t,n)))return null;var r=t.options||{},i=new this(t.animations,t.animationSettings,e);return{el:t.svg,options:r,player:i}}},{key:"push",value:function(t){return this.build(t)}},{key:"init",value:function(){var t=this,n=window.__SVGATOR_PLAYER__&&window.__SVGATOR_PLAYER__["5c7f360c"];Array.isArray(n)&&n.splice(0).forEach((function(n){return t.build(n)}))}}]),t}();function yt(t){return p(t)+""}function gt(t){var n=arguments.length>1&&void 0!==arguments[1]?arguments[1]:" ";return t&&t.length?t.map(yt).join(n):""}function dt(t){if(!t)return"transparent";if(null==t.a||t.a>=1){var n=function(t){return 1===(t=parseInt(t).toString(16)).length?"0"+t:t},e=function(t){return t.charAt(0)===t.charAt(1)},r=n(t.r),i=n(t.g),o=n(t.b);return e(r)&&e(i)&&e(o)&&(r=r.charAt(0),i=i.charAt(0),o=o.charAt(0)),"#"+r+i+o}return"rgba("+t.r+","+t.g+","+t.b+","+t.a+")"}function pt(t){return t?"url(#"+t+")":"none"}!function(){for(var t=0,n=["ms","moz","webkit","o"],e=0;e<n.length&&!window.requestAnimationFrame;++e)window.requestAnimationFrame=window[n[e]+"RequestAnimationFrame"],window.cancelAnimationFrame=window[n[e]+"CancelAnimationFrame"]||window[n[e]+"CancelRequestAnimationFrame"];window.requestAnimationFrame||(window.requestAnimationFrame=function(n){var e=Date.now(),r=Math.max(0,16-(e-t)),i=window.setTimeout((function(){n(e+r)}),r);return t=e+r,i},window.cancelAnimationFrame=window.clearTimeout)}();var mt={f:null,i:function(t,n,e){return 0===t?n:1===t?e:{x:D(t,n.x,e.x),y:D(t,n.y,e.y)}},u:function(t,n){return function(e){var r=n(e);t.setAttribute("rx",yt(r.x)),t.setAttribute("ry",yt(r.y))}}},bt={f:null,i:function(t,n,e){return 0===t?n:1===t?e:{width:D(t,n.width,e.width),height:D(t,n.height,e.height)}},u:function(t,n){return function(e){var r=n(e);t.setAttribute("width",yt(r.width)),t.setAttribute("height",yt(r.height))}}};Object.freeze({M:2,L:2,Z:0,H:1,V:1,C:6,Q:4,T:2,S:4,A:7});var wt={},At=null;function _t(t){var n=function(){if(At)return At;if("object"!==("undefined"==typeof document?"undefined":e(document))||!document.createElementNS)return{};var t=document.createElementNS("http://www.w3.org/2000/svg","svg");return t&&t.style?(t.style.position="absolute",t.style.opacity="0.01",t.style.zIndex="-9999",t.style.left="-9999px",t.style.width="1px",t.style.height="1px",At={svg:t}):{}}().svg;if(!n)return function(t){return null};var r=document.createElementNS(n.namespaceURI,"path");r.setAttributeNS(null,"d",t),r.setAttributeNS(null,"fill","none"),r.setAttributeNS(null,"stroke","none"),n.appendChild(r);var i=r.getTotalLength();return function(t){var n=r.getPointAtLength(i*t);return{x:n.x,y:n.y}}}function xt(t){return wt[t]?wt[t]:wt[t]=_t(t)}function kt(t,n,e,r){if(!t||!r)return!1;var i=["M",t.x,t.y];if(n&&e&&(i.push("C"),i.push(n.x),i.push(n.y),i.push(e.x),i.push(e.y)),n?!e:e){var o=n||e;i.push("Q"),i.push(o.x),i.push(o.y)}return n||e||i.push("L"),i.push(r.x),i.push(r.y),i.join(" ")}function St(t,n,e,r){var i=arguments.length>4&&void 0!==arguments[4]?arguments[4]:1,o=kt(t,n,e,r),u=xt(o);try{return u(i)}catch(t){return null}}function Ot(t,n,e){return t+(n-t)*e}function jt(t,n,e){var r=arguments.length>3&&void 0!==arguments[3]&&arguments[3],i={x:Ot(t.x,n.x,e),y:Ot(t.y,n.y,e)};return r&&(i.a=Mt(t,n)),i}function Mt(t,n){return Math.atan2(n.y-t.y,n.x-t.x)}function Et(t,n,e,r){var i=1-r;return i*i*t+2*i*r*n+r*r*e}function Pt(t,n,e,r){return 2*(1-r)*(n-t)+2*r*(e-n)}function It(t,n,e,r){var i=arguments.length>4&&void 0!==arguments[4]&&arguments[4],o=St(t,n,null,e,r);return o||(o={x:Et(t.x,n.x,e.x,r),y:Et(t.y,n.y,e.y,r)}),i&&(o.a=Rt(t,n,e,r)),o}function Rt(t,n,e,r){return Math.atan2(Pt(t.y,n.y,e.y,r),Pt(t.x,n.x,e.x,r))}function Ft(t,n,e,r,i){var o=i*i;return i*o*(r-t+3*(n-e))+3*o*(t+e-2*n)+3*i*(n-t)+t}function Nt(t,n,e,r,i){var o=1-i;return 3*(o*o*(n-t)+2*o*i*(e-n)+i*i*(r-e))}function Tt(t,n,e,r,i){var o=arguments.length>5&&void 0!==arguments[5]&&arguments[5],u=St(t,n,e,r,i);return u||(u={x:Ft(t.x,n.x,e.x,r.x,i),y:Ft(t.y,n.y,e.y,r.y,i)}),o&&(u.a=qt(t,n,e,r,i)),u}function qt(t,n,e,r,i){return Math.atan2(Nt(t.y,n.y,e.y,r.y,i),Nt(t.x,n.x,e.x,r.x,i))}function Bt(t,n,e){var r=arguments.length>3&&void 0!==arguments[3]&&arguments[3];if(Lt(n)){if(Ct(e))return It(n,e.start,e,t,r)}else if(Lt(e)){if(Vt(n))return It(n,n.end,e,t,r)}else{if(Vt(n))return Ct(e)?Tt(n,n.end,e.start,e,t,r):It(n,n.end,e,t,r);if(Ct(e))return It(n,e.start,e,t,r)}return jt(n,e,t,r)}function Dt(t,n,e){var r=Bt(t,n,e,!0);return r.a=function(t){return arguments.length>1&&void 0!==arguments[1]&&arguments[1]?t+Math.PI:t}(r.a)/b,r}function Lt(t){return!t.type||"corner"===t.type}function Ct(t){return null!=t.start&&!Lt(t)}function Vt(t){return null!=t.end&&!Lt(t)}var Gt=new T;var zt={f:yt,i:B},Yt={f:yt,i:L};function $t(t,n,e){return t.map((function(t){return function(t,n,e){var r=t.v;if(!r||"g"!==r.t||r.s||!r.v||!r.r)return t;var i=e.getElementById(r.r),o=i&&i.querySelectorAll("stop")||[];return r.s=r.v.map((function(t,n){var e=o[n]&&o[n].getAttribute("offset");return{c:t,o:e=p(parseInt(e)/100)}})),delete r.v,t}(t,0,e)}))}var Ut={gt:"gradientTransform",c:{x:"cx",y:"cy"},rd:"r",f:{x:"x1",y:"y1"},to:{x:"x2",y:"y2"}};function Qt(t,n,r,i,o,u,a,l){return $t(t,0,l),n=function(t,n,e){for(var r,i,o,u=t.length-1,a={},l=0;l<=u;l++)(r=t[l]).e&&(r.e=n(r.e)),r.v&&"g"===(i=r.v).t&&i.r&&(o=e.getElementById(i.r))&&(a[i.r]={e:o,s:o.querySelectorAll("stop")});return a}(t,i,l),function(i){var o=r(i,t,Ht);if(!o)return"none";if("c"===o.t)return dt(o.v);if("g"===o.t){if(!n[o.r])return pt(o.r);var u=n[o.r];return function(t,n){for(var e=t.s,r=e.length;r<n.length;r++){var i=e[e.length-1].cloneNode();i.id=Kt(i.id),t.e.appendChild(i),e=t.s=t.e.querySelectorAll("stop")}for(var o=0,u=e.length,a=n.length-1;o<u;o++)e[o].setAttribute("stop-color",dt(n[Math.min(o,a)].c)),e[o].setAttribute("offset",n[Math.min(o,a)].o)}(u,o.s),Object.keys(Ut).forEach((function(t){if(void 0!==o[t])if("object"!==e(Ut[t])){var n,r="gt"===t?(n=o[t],Array.isArray(n)?"matrix("+n.join(" ")+")":""):o[t],i=Ut[t];u.e.setAttribute(i,r)}else Object.keys(Ut[t]).forEach((function(n){if(void 0!==o[t][n]){var e=o[t][n],r=Ut[t][n];u.e.setAttribute(r,e)}}))})),pt(o.r)}return"none"}}function Ht(t,e,r){if(0===t)return e;if(1===t)return r;if(e&&r){var i=e.t;if(i===r.t)switch(e.t){case"c":return{t:i,v:G(t,e.v,r.v)};case"g":if(e.r===r.r){var o={t:i,s:Jt(t,e.s,r.s),r:e.r};return e.gt&&r.gt&&(o.gt=function(t,n,e){var r=n.length;if(r!==e.length)return q(t,n,e);for(var i=new Array(r),o=0;o<r;o++)i[o]=B(t,n[o],e[o]);return i}(t,e.gt,r.gt)),e.c?(o.c=C(t,e.c,r.c),o.rd=D(t,e.rd,r.rd)):e.f&&(o.f=C(t,e.f,r.f),o.to=C(t,e.to,r.to)),o}}if("c"===e.t&&"g"===r.t||"c"===r.t&&"g"===e.t){var u="c"===e.t?e:r,a="g"===e.t?n({},e):n({},r),l=a.s.map((function(t){return{c:u.v,o:t.o}}));return a.s="c"===e.t?Jt(t,l,a.s):Jt(t,a.s,l),a}}return q(t,e,r)}function Jt(t,n,e){if(n.length===e.length)return n.map((function(n,r){return Zt(t,n,e[r])}));for(var r=Math.max(n.length,e.length),i=[],o=0;o<r;o++){var u=Zt(t,n[Math.min(o,n.length-1)],e[Math.min(o,e.length-1)]);i.push(u)}return i}function Zt(t,n,e){return{o:L(t,n.o,e.o||0),c:G(t,n.c,e.c||{})}}function Kt(t){return t.replace(/-fill-([0-9]+)$/,(function(t,n){return"-fill-"+(+n+1)}))}var Wt={fill:Qt,"fill-opacity":Yt,stroke:Qt,"stroke-opacity":Yt,"stroke-width":zt,"stroke-dashoffset":{f:yt,i:B},"stroke-dasharray":{f:function(t){var n=arguments.length>1&&void 0!==arguments[1]?arguments[1]:" ";return t&&t.length>0&&(t=t.map((function(t){return p(t,4)}))),gt(t,n)},i:function(t,n,e){var r,i,o,u=n.length,a=e.length;if(u!==a)if(0===u)n=z(u=a,0);else if(0===a)a=u,e=z(u,0);else{var l=(o=(r=u)*(i=a)/function(t,n){for(var e;n;)e=n,n=t%n,t=e;return t||1}(r,i))<0?-o:o;n=Y(n,Math.floor(l/u)),e=Y(e,Math.floor(l/a)),u=a=l}for(var s=[],f=0;f<u;f++)s.push(p(D(t,n[f],e[f])));return s}},opacity:Yt,transform:function(t,n,r,i){if(!(t=function(t,n){if(!t||"object"!==e(t))return null;var r=!1;for(var i in t)t.hasOwnProperty(i)&&(t[i]&&t[i].length?(t[i].forEach((function(t){t.e&&(t.e=n(t.e))})),r=!0):delete t[i]);return r?t:null}(t,i)))return null;var o=function(e,i,o){var u=arguments.length>3&&void 0!==arguments[3]?arguments[3]:null;return t[e]?r(i,t[e],o):n&&n[e]?n[e]:u};return n&&n.a&&t.o?function(n){var e=r(n,t.o,Dt);return Gt.recomposeSelf(e,o("r",n,B,0)+e.a,o("k",n,C),o("s",n,C),o("t",n,C)).toString()}:function(t){return Gt.recomposeSelf(o("o",t,Bt,null),o("r",t,B,0),o("k",t,C),o("s",t,C),o("t",t,C)).toString()}},r:zt,"#size":bt,"#radius":mt,_:function(t,n){if(Array.isArray(t))for(var e=0;e<t.length;e++)this[t[e]]=n;else this[t]=n}},Xt=function(t){!function(t,n){if("function"!=typeof n&&null!==n)throw new TypeError("Super expression must either be null or a function");t.prototype=Object.create(n&&n.prototype,{constructor:{value:t,writable:!0,configurable:!0}}),n&&l(t,n)}(u,t);var n,e,i=(n=u,e=s(),function(){var t,r=a(n);if(e){var i=a(this).constructor;t=Reflect.construct(r,arguments,i)}else t=r.apply(this,arguments);return c(this,t)});function u(){return r(this,u),i.apply(this,arguments)}return o(u,null,[{key:"build",value:function(t){var n=h(a(u),"build",this).call(this,t,Wt);if(!n)return null;n.el,n.options,function(t,n,e){t.play()}(n.player)}}]),u}(vt);return Xt.init(),Xt}));
(function(s,i,o,w,d,a,b){w[o]=w[o]||{};w[o][s]=w[o][s]||[];w[o][s].push(i);})('5c7f360c',{"root":"eIP7MokgBCt1","version":"2022-05-04","animations":[{"elements":{"eIP7MokgBCt4":{"transform":{"data":{"o":{"x":137.810013,"y":344.700012,"type":"corner"},"t":{"x":-0.000013,"y":-0.000012}},"keys":{"s":[{"t":500,"v":{"x":1,"y":1}},{"t":700,"v":{"x":0.7,"y":0.75}},{"t":1500,"v":{"x":0.7,"y":0.75}},{"t":1600,"v":{"x":1,"y":1}}]}}},"eIP7MokgBCt5":{"transform":{"data":{"o":{"x":137.809998,"y":343.320023,"type":"corner"},"t":{"x":0.000002,"y":-0.000023}},"keys":{"s":[{"t":300,"v":{"x":1,"y":1}},{"t":600,"v":{"x":0.7,"y":0.75}},{"t":1500,"v":{"x":0.7,"y":0.75}},{"t":1600,"v":{"x":0.9,"y":0.9}},{"t":1700,"v":{"x":0.75,"y":0.75}},{"t":1800,"v":{"x":1,"y":1}}]}}},"eIP7MokgBCt6":{"transform":{"data":{"o":{"x":137.809998,"y":341.280014,"type":"corner"},"t":{"x":0.000002,"y":-0.000014}},"keys":{"s":[{"t":0,"v":{"x":1,"y":1}},{"t":400,"v":{"x":0.85,"y":0.8}},{"t":1700,"v":{"x":0.85,"y":0.8}},{"t":1800,"v":{"x":1,"y":0.85}},{"t":1900,"v":{"x":0.9,"y":0.7}},{"t":2000,"v":{"x":1,"y":1}}]}}},"eIP7MokgBCt8":{"transform":{"data":{"t":{"x":-126.7897,"y":-343.32}},"keys":{"o":[{"t":1100,"v":{"x":126.7897,"y":343.32,"type":"corner"}},{"t":1400,"v":{"x":126.7897,"y":318.755233,"type":"corner"}},{"t":1500,"v":{"x":126.7897,"y":343.32,"type":"corner"}}],"s":[{"t":600,"v":{"x":0,"y":0}},{"t":900,"v":{"x":1,"y":1}},{"t":1100,"v":{"x":1,"y":0.89}},{"t":1300,"v":{"x":0.95,"y":1.05}},{"t":1600,"v":{"x":1,"y":1}}]}}},"eIP7MokgBCt15":{"transform":{"data":{"o":{"x":96.230606,"y":169.749999,"type":"corner"},"t":{"x":-96.230606,"y":-169.749999}},"keys":{"r":[{"t":1600,"v":0},{"t":1800,"v":-11.840345},{"t":2000,"v":-1.852799},{"t":2200,"v":-11.840345},{"t":2400,"v":-1.852799}]}}},"eIP7MokgBCt168":{"transform":{"data":{"t":{"x":-137.98259,"y":-102.685711}},"keys":{"o":[{"t":900,"v":{"x":137.98259,"y":102.685711,"type":"corner"}},{"t":1100,"v":{"x":137.982589,"y":124.610745,"type":"corner"}},{"t":1400,"v":{"x":137.982589,"y":59.23248,"type":"corner"}},{"t":1600,"v":{"x":137.982589,"y":101.18761,"type":"corner"}}],"s":[{"t":700,"v":{"x":0,"y":0}},{"t":900,"v":{"x":1,"y":1}}]}}}},"s":"MNDA1ZGEyNDk4YjljOTFlEODg5YjkwVjk2OTUK0OTYxWDVhNTc1NzU3PNTM0OThiOTA5OThjOCGFFOWI5MDk2OTU0OTAYxNTg1MzQ5OTA5YjhBjOTlPODg5YjkwSDk2JOTU5YTQ5NjE1ODUzNJDk4ZDkwOTM5MzQ5NjBE1ODUzNDk4ODkzOWII4Yzk5OTU4OEs5YjhjYNDk2MThkODhSOTM5YJThjNTM0OUE5YTk3OGUM4YzhiNDk2MTU4NTMT0OVA4ZDk3OWFZNDk2XMTU4NTc1N2E0"}],"options":"MODAxMDg4MmY4MDgxNmRU3ZjgxMmY0NzJmNzlPMN2M2ZTcxMmY4YQ|"},'__SVGATOR_PLAYER__',window,document)
]]></script>
</svg>
