<svg id="eAIGOu2T8Rz1" xmlns="http://www.w3.org/2000/svg" xmlns:xlink="http://www.w3.org/1999/xlink" viewBox="0 0 271.7 366.6" shape-rendering="geometricPrecision" text-rendering="geometricPrecision"><g transform="matrix(.85 0 0 0.85 20.3726 48.2631)"><g><ellipse id="eAIGOu2T8Rz4" rx="133.9" ry="21.9" transform="translate(137.8 344.7)" fill="#bce6f9"/><ellipse id="eAIGOu2T8Rz5" rx="100.5" ry="18.2" transform="translate(137.8 343.3)" fill="#45b4e2"/><ellipse id="eAIGOu2T8Rz6" rx="70.1" ry="12.4" transform="translate(137.8 341.3)" fill="#3496b5"/></g><g><g id="eAIGOu2T8Rz8" transform="matrix(0 0 0 0 146.425853 346.706391)"><g><path d="M46,133.7c.6,1-.6,27.5,23.2,34.3c25.3,7.2,47.1-16,47.9-17.1l-9.5-8.8l4.7,4.3-4.7-4.3c-.2.2-17.3,18.3-34.9,13.4-19.3-5.3-14.8-26.7-14.8-26.9L46,133.7Z" fill="#2c2c2c"/><g><g><path d="M60.4,138.4c0,0,14.6-10.1,21.8-25.3c0,0,3.1-6.6-2.1-9.7c0,0-23.6,20.1-28.2,29c.1,0,1.7,3.3,8.5,6Z" fill="#d9d9d7"/><path d="M80.8,102c5.1,3.1,3.9,9,2.7,11.7-7.2,15.4-21.8,25.5-22.4,25.9l-.8.4-.8-.4c-7-2.9-9-6.4-9.3-6.8l-.4-.8.4-.8c4.5-9,27.5-28.8,28.6-29.6l.8-.8l1.2,1.2ZM60.2,136.5c2.9-2.3,14.6-11.3,20.6-24.1c0-.2,2.1-4.5-.6-7-4.3,3.7-21.6,19.1-26.3,26.7.8,1.1,2.6,2.8,6.3,4.4Z" fill="#9a9a9a"/></g><g><path d="M40.3,133.9c0,0,9.5,1.6,13-1c3.5-2.7,26.7-29.6,26.7-29.6l-7.6-6.2c.1.2-21.6,8-32.1,36.8Z" fill="#d9d9d7"/><path d="M82.4,103.2l-1,1.2c-2.5,2.7-23.4,27.1-26.9,29.8-3.9,3.1-13.2,1.4-14.2,1.2l-1.9-.4.6-1.9c10.5-29,32.3-37.1,33.1-37.5l.8-.2l9.5,7.8Zm-30,28.4c2.7-2.1,18.3-19.7,25.3-28l-5.6-4.5c-3.9,1.6-20.6,10.1-29.6,33.5c3.5.4,8,.4,9.9-1Z" fill="#9a9a9a"/></g><g><path d="M47.3,133.5c2.5-7.2,1.4-14.2-2.5-15.6s-9.3,3.3-11.7,10.5-1.4,14.2,2.5,15.6c3.8,1.4,9.2-3.4,11.7-10.5Z" fill="#d9d9d7"/><path d="M50.1,123.2c.4,3.3,0,7-1.2,10.7v0c-2.9,8.2-9,13.2-13.8,11.5-4.9-1.6-6.4-9.5-3.5-17.7c1.2-3.7,3.3-7,5.8-9c2.7-2.5,5.6-3.3,8-2.3.2,0,.4.2.6.2c2.1,1,3.5,3.3,4.1,6.6ZM36.2,142.3c2.7,1,7.2-2.7,9.7-9.5c1.2-3.3,1.6-6.4,1-9-.4-2.3-1.2-3.9-2.7-4.3-1.2-.4-3.1.2-4.7,1.6-2.1,1.9-3.7,4.5-4.9,7.8-2.3,6.6-1.2,12.1,1.2,13.4.2,0,.2,0,.4,0Z" fill="#9a9a9a"/></g><g><path d="M68.8,125.4c-.2-.2-.4-.2-.6-.4l-11.3-3.1c-.8-.2-1.4.2-1.6,1s.2,1.4,1,1.6l11.3,3.1c.8.2,1.4-.2,1.6-1c.1-.3-.2-1-.4-1.2Z" fill="#9a9a9a"/><path d="M64.9,130.8c0-.2,0-.4,0-.6l-3.1-11.3c-.2-.8-1-1.2-1.6-1-.8.2-1.2,1-1,1.6l3.1,11.3c.2.8,1,1.2,1.6,1s1-.6,1-1Z" fill="#9a9a9a"/></g><g><path d="M77.9,114.3c-.2-.2-.4-.2-.6-.4L66,110.8c-.8-.2-1.4.2-1.6,1s.2,1.4,1,1.6l11.3,3.1c.8.2,1.4-.2,1.6-1c0-.3-.2-1-.4-1.2Z" fill="#9a9a9a"/><path d="M74.2,119.7c0-.2,0-.4,0-.6l-3.1-11.3c-.2-.8-1-1.2-1.6-1-.8.2-1.2,1-1,1.6l3.1,11.3c.2.8,1,1.2,1.6,1c.4-.2.8-.6,1-1Z" fill="#9a9a9a"/></g><path d="M38,135.5L21.1,123.8l19.5,1.4c.3,0,4.2,3.9-2.6,10.3Z" fill="#9a9a9a"/></g><g><g><path d="M81.8,108.4c0,0,8.6,2.1,11.5,1.4c2.9-.6,6.6-6,7-7.2.4-1.4-1.4-3.5-3.5-3.5c0,0,3.7-3.9,3.7-5.6.2-1.6-1-5.1-4.5-5.1-2.1,0-5.1-2.7-6.6-4.1-.8-.8-4.3-.6-6.6-.4-1,.2-2.1.8-2.7,1.6-1.9,2.5-5.6,7.8-7,10.1-2.2,3.5,1.5,11.5,8.7,12.8Z" fill="#e3bc35"/><path d="M100.5,88.8c1.4,1.6,1.9,3.7,1.6,5.1-.2,1.2-1.2,2.9-2.5,4.5.4.4.8.6,1.2,1.2.8,1.2,1.2,2.5.8,3.5-.6,1.6-4.5,7.4-8.2,8.4-3.1.8-10.7-1-12.3-1.4-5.1-1-8.4-4.9-9.9-8.2-1-2.7-1-5.1,0-7c1.6-2.5,5.6-7.8,7-10.1.8-1.2,2.3-2.3,3.9-2.5c5.6-.6,7.2,0,8,.8c2.5,2.3,4.5,3.5,5.3,3.5c1.6,0,3.1.6,4.3,1.6.6.4.6.4.8.6ZM83,86c-.6,0-1.2.4-1.6,1-1.6,2.3-5.3,7.6-7,10.1-.4.6-.4,1.9.2,3.7c1,2.5,3.5,5.3,7.4,6.2v0c3.5.8,9,1.9,10.7,1.4c2.1-.4,5.3-4.9,5.8-6c0,0-.2-.4-.6-.8s-.8-.4-1.2-.4l-4.3.4l2.9-3.3c1.6-1.9,3.3-3.9,3.3-4.5c0-.4-.2-1.6-.8-2.5-.6-.6-1.2-.8-2.1-.8-2.7,0-6-2.7-7.8-4.5-.1-.2-1.6-.4-4.9,0Z" fill="#85722b"/></g><g><path d="M100.1,93.6c0,0-5.8,6.8-7.6,7.6-1.6.8-3.7-.2-3.9-2.3s-.2-2.9-.2-2.9-1.2.4-2.7-1-.8-3.7-.8-3.7-3.3,2.1-4.3.4.4-4.9,1.4-5.3s5.3-1.4,6.2-.4c.8,1,4.3,3.9,6,4.1c1.8.2,4.9-2.5,5.9,3.5Z" fill="#e3bc35"/><path d="M92.5,101.2c0,0-3.1,0-3.5-2.9s3.3-6.6,3.3-6.6-3.9,4.7-5.6,3.3c-1.6-1.4-1.2-4.1-.2-5.8c0,0-3.5,3.3-4.7,2.1s-.2-4.5-.2-4.5-3.1,3.9-1.4,5.3s3.9,0,3.9,0s.8,3.3,1.9,4.1c1,.8,1.4.4,1.4.4s-.4,2.7,1.4,4.3s3.7.3,3.7.3Z" fill="#85722b"/></g><g><path d="M92.7,101.4c1.2-2.3,5.3-8.8,8-7.6s1,5.6.2,7.8c-1.2,3.1-5.1,6-6,5.6-1-.5-4.9-1.1-2.2-5.8Z" transform="translate(0 0.000001)" fill="#e3bc35"/><path d="M92.7,101.4c0,0,.8-3.3,1.6-4.7.8-1.2,3.3-4.5,6.4-3.9s3.1,4.9,2.7,7-2.3,6.6-5.3,8c-1.9,1-4.3-.2-4.3-.2s6.2-5.1,7.2-9c.8-2.9,0-3.7-.8-3.9-.3-.3-4.8.3-7.5,6.7Z" fill="#85722b"/></g></g></g><g><path d="M226.5,177.4c-1,.4-17.1,21.8-39.7,11.9-24.1-10.5-26.3-42.1-26.3-43.6l13-.8-6.4.4l6.4-.4c0,.2,1.9,25.1,18.5,32.5c18.3,8,28.4-11.3,28.6-11.5l5.9,11.5Z" fill="#2c2c2c"/><g><g><path d="M214,169.6c0,0,10.1-14.6,25.3-21.8c0,0,6.6-3.1,9.7,2.1c0,0-20.1,23.6-29,28.2-.1,0-3.3-1.7-6-8.5Z" fill="#d9d9d7"/><path d="M251,150.1l-.8.8c-.8,1-20.6,23.8-29.6,28.4l-.8.4-.8-.4c-.4-.2-3.7-2.3-6.8-9.3l-.4-.8.4-.8c.4-.6,10.5-15,25.9-22.2c2.7-1.2,8.8-2.5,11.7,2.7l1.2,1.2Zm-30.9,26.1c7.8-4.5,23-22,26.7-26.3-2.5-2.7-6.8-.6-7-.6-12.7,6-22,17.5-24.1,20.6c1.8,3.6,3.4,5.5,4.4,6.3Z" fill="#9a9a9a"/></g><g><path d="M218.3,189.8c0,0-1.6-9.5,1-13c2.7-3.5,29.6-26.7,29.6-26.7l6.2,7.6c0-.2-7.8,21.6-36.8,32.1Z" fill="#d9d9d7"/><path d="M256.7,157.3l-.2.8c-.4.8-8.2,22.6-37.6,33.1l-1.9.6-.4-1.9c-.2-1-1.6-10.3,1.2-14.2c2.7-3.5,26.9-24.5,29.8-26.9l1.2-1l7.9,9.5Zm-37,30.2c23.2-9,31.7-25.7,33.5-29.6l-4.5-5.6c-8.2,7-26.1,22.6-28,25.3-1.4,1.9-1.4,6.4-1,9.9Z" fill="#9a9a9a"/></g><g><path d="M218.9,182.8c7.2-2.5,14.2-1.4,15.6,2.5s-3.3,9.3-10.5,11.7c-7.2,2.5-14.2,1.4-15.6-2.5s3.3-9.2,10.5-11.7Z" fill="#d9d9d7"/><path d="M235.8,184.2c0,.2.2.4.2.6.8,2.5,0,5.3-2.3,8-2.1,2.5-5.3,4.5-9,5.8-8.2,2.9-15.8,1.4-17.7-3.5-1.6-4.9,3.3-10.9,11.5-13.8v0c3.7-1.2,7.6-1.9,10.7-1.2c3.1.4,5.5,1.9,6.6,4.1Zm-25.7,9.9c1.2,2.5,6.8,3.7,13.4,1.2c3.3-1.2,6-2.9,7.8-4.9c1.6-1.6,2.1-3.5,1.6-4.7-.4-1.2-2.1-2.3-4.3-2.7-2.7-.4-6,0-9,1-6.8,2.5-10.5,7-9.5,9.7c0,.2,0,.4,0,.4Z" fill="#9a9a9a"/></g><g><path d="M226.9,161.2c.2.2.2.4.4.6l3.1,11.3c.2.8-.2,1.4-1,1.6s-1.4-.2-1.6-1l-3.1-11.3c-.2-.8.2-1.4,1-1.6.4,0,1,.2,1.2.4Z" fill="#9a9a9a"/><path d="M221.6,165.1c.2,0,.4,0,.6,0l11.3,3.1c.8.2,1.2,1,1,1.6s-1,1.2-1.6,1l-11.3-3.1c-.8-.2-1.2-1-1-1.6s.6-1,1-1Z" fill="#9a9a9a"/></g><g><path d="M238,152.2c.2.2.2.4.4.6l3.1,11.3c.2.8-.2,1.4-1,1.6s-1.4-.2-1.6-1l-3.1-11.3c-.2-.8.2-1.4,1-1.6.4-.1,1,.2,1.2.4Z" fill="#9a9a9a"/><path d="M232.7,156.1c.2,0,.4,0,.6,0l11.3,3.1c.8.2,1.2,1,1,1.6s-1,1.2-1.6,1l-11.3-3.1c-.8-.2-1.2-1-1-1.6s.6-1,1-1Z" fill="#9a9a9a"/></g><path d="M216.9,192l11.7,16.9-1.4-19.5c-.1-.2-4-4.1-10.3,2.6Z" fill="#9a9a9a"/></g><g><g><path d="M244,148.3c0,0-2.1-8.6-1.4-11.5s6-6.6,7.2-7c1.4-.4,3.5,1.4,3.3,3.5c0,0,3.9-3.7,5.6-3.7c1.6-.2,5.1,1,5.1,4.5c0,2.1,2.7,5.1,4.1,6.6.8.8.6,4.3.4,6.6-.2,1-.8,2.1-1.6,2.7-2.5,1.9-7.8,5.6-10.1,7-3.4,2.2-11.4-1.5-12.6-8.7Z" fill="#e3bc35"/><path d="M263.9,130c1,1.2,1.6,2.7,1.6,4.3c0,.8,1.2,2.9,3.5,5.3.8.8,1.4,2.5.8,8-.2,1.6-1,3.1-2.5,3.9-2.3,1.6-7.8,5.3-10.1,7-1.6,1.2-4.3,1.2-7,0-3.3-1.4-7.2-4.7-8.2-9.9-.4-1.6-2.1-9.3-1.4-12.3.8-3.7,6.6-7.6,8.4-8.2c1-.4,2.5,0,3.5.8.4.4.8.8,1.2,1.2c1.4-1.2,3.3-2.3,4.5-2.5s3.5.4,5.1,1.6c.4.6.4.6.6.8Zm2.7,11.9c-1.6-1.9-4.5-5.1-4.5-7.8c0-.8-.2-1.4-.8-2.1-.8-.8-1.9-1-2.3-.8-.6.2-2.7,1.6-4.5,3.3l-3.3,2.9.4-4.3c0-.4-.2-.8-.4-1.2-.4-.4-.8-.6-.8-.6-1,.4-5.6,3.7-6,5.8-.4,1.6.6,7.2,1.4,10.7v0c.6,3.9,3.7,6.4,6.2,7.4c1.9.8,3.1.6,3.7.2c2.5-1.6,7.8-5.6,10.1-7c.6-.4.8-1,1-1.6c0-3.1-.2-4.5-.2-4.9Z" fill="#85722b"/></g><g><path d="M258.8,130c0,0-6.8,5.8-7.6,7.4s.2,3.7,2.3,3.9s2.9.2,2.9.2-.4,1.2,1,2.7c1.6,1.4,3.7.8,3.7.8s-2.1,3.3-.4,4.3c1.6,1,4.9-.4,5.3-1.4s1.4-5.3.4-6.2c-.8-1-3.9-4.3-4.1-6-.2-1.6,2.5-4.7-3.5-5.7Z" fill="#e3bc35"/><path d="M251.2,137.6c0,0,0,3.1,2.9,3.5s6.6-3.3,6.6-3.3-4.7,3.9-3.3,5.6c1.4,1.6,4.1,1.2,5.8.2c0,0-3.3,3.5-2.1,4.7s4.5.2,4.5.2-3.9,3.1-5.3,1.4c-1.4-1.6,0-3.9,0-3.9s-3.3-.8-4.1-1.9-.4-1.4-.4-1.4-2.7.4-4.3-1.4c-2.2-2.1-.3-3.7-.3-3.7Z" fill="#85722b"/></g><g><path d="M251,137.4c2.3-1.2,8.8-5.3,7.6-8s-5.6-1-7.8-.2c-3.1,1.2-6,5.1-5.6,6s1.1,4.8,5.8,2.2Z" fill="#e3bc35"/><path d="M251,137.4c0,0,3.3-.8,4.7-1.6c1.2-.8,4.5-3.3,3.9-6.4s-4.9-3.1-7-2.7-6.6,2.3-8.2,5.1c-1,1.9.2,4.3.2,4.3s5.1-6.2,9-7.2c2.9-.8,3.7,0,3.9.8.5.5-.1,5-6.5,7.7Z" fill="#85722b"/></g></g></g><path d="M95.4,150.5c7.2-7,35.6-11.7,39.9-12.3v0h.2c.2,0,.2,0,.2,0v0c4.3.6,32.7,5.3,39.9,12.3c7.8,7.6-5.1,62.5-11.5,66.2h-57.6c-6-3.9-18.9-58.8-11.1-66.2Z" fill="#2c2c2c"/><path d="M153.5,212.4h-2.7-30.8-2.7-11.5v18.9L85.4,248.4l3.5,27.1l10.9-2.1-2.3-19.7c0,0,22.6-15.4,38-13.8c6.6.6,12.1,2.9,15.4,7.4v70.1h14.4v-105h-11.8v0Z" fill="#2c2c2c"/><g><g><path d="M175.5,190.8c0,0-3.7,17.3-7,21.6c0,0-16.2-6.8-21.6-8l4.5-16.9l24.1,3.3Z" fill="#d9d9d7"/><path d="M167.7,213.8c-.2,0-16.2-6.8-21.4-8l-1.6-.4l5.3-19.9l27.3,3.9-.3,1.6c-.4,1.9-3.9,17.7-7.4,22.2l-.8,1-1.1-.4Zm-15.2-24.6l-3.7,14c5.3,1.6,15.4,5.8,18.9,7.2c2.3-3.9,4.5-13.2,5.8-18.1l-21-3.1Z" fill="#9a9a9a"/></g><g><path d="M95.6,190.8c0,0,3.7,17.3,7,21.6c0,0,16.2-6.8,21.6-8l-4.5-16.9-24.1,3.3Z" fill="#d9d9d7"/><path d="M101.3,213.4c-3.5-4.5-7-20.4-7.4-22.2l-.4-1.6l27.3-3.9l5.3,19.9-1.6.4c-5.1,1.2-21.2,8-21.4,8l-1,.4-.8-1Zm17.3-24.2l-21,3.1c1.2,5.1,3.5,14.4,5.8,18.1c3.5-1.4,13.6-5.6,18.9-7.2l-3.7-14Z" fill="#9a9a9a"/></g><g><path d="M135.5,185.7l20.1,7.2c0,0-6.8,26.5-20.1,26.5-13.4,0-20.1-26.5-20.1-26.5l20.1-7.2Z" fill="#d9d9d7"/><path d="M113.9,193.5l-.4-1.4l22-8l22,8-.4,1.4c-.2,1.2-7.2,27.8-21.6,27.8-14.4-.1-21.2-26.8-21.6-27.8Zm21.6-6l-18.1,6.6c1.6,5.3,7.8,24.1,18.1,24.1s16.4-18.7,18.1-24.1l-18.1-6.6Z" fill="#9a9a9a"/></g><g><path d="M182.1,169c-.4,6.4-.4,22.6-3.3,25.1-3.1,2.5-40.7-1.9-42.6-8.2-1.2-4.5-.8-14.6-.4-20.6.2-2.7,2.1-4.7,4.5-5.3c11.8-2.9,42.8-8.5,41.8,9Z" fill="#d9d9d7"/><path d="M142.9,191.6c-4.9-1.6-7.4-3.3-8-5.6-1.2-4.5-.8-14-.4-21c.2-3.3,2.7-6.2,6-6.8c11.1-2.7,31.2-6,39.7,1.2c2.9,2.3,4.1,5.6,3.9,9.7v0c0,1,0,2.3-.2,3.5-.4,13.2-1.2,20.6-3.9,22.6-.8.6-3.3,1-6.6,1-8.8.2-22.9-1.9-30.5-4.6Zm37.8-22.8c.2-3.1-.8-5.3-2.7-7-5.3-4.5-19.1-4.7-36.8-.6-1.9.4-3.3,2.1-3.3,3.9-.6,9.5-.6,16.9.2,19.9c0,0,.4,1,3.3,2.3c9.9,4.3,34.1,6.6,36.8,5.1c2.1-1.6,2.5-15.2,2.7-20.4-.4-.9-.4-2.2-.2-3.2v0Z" fill="#9a9a9a"/></g><g><path d="M88.8,169c.4,6.4.4,22.6,3.3,25.1c3.1,2.5,40.7-1.9,42.6-8.2c1.2-4.5.8-14.6.4-20.6-.2-2.7-2.1-4.7-4.5-5.3-11.6-2.9-42.6-8.5-41.8,9Z" fill="#d9d9d7"/><path d="M91.3,195.3c-2.7-2.1-3.5-9.7-3.9-22.6c0-1.4,0-2.5-.2-3.5v0c-.2-4.1,1-7.2,3.9-9.7c8.4-7,28.6-3.7,39.7-1.2c3.3.8,5.6,3.5,6,6.8.4,7.2.8,16.4-.4,21-.6,2.1-3.1,3.9-8,5.6-7.6,2.5-21.8,4.7-30.4,4.7-3.5,0-5.9-.5-6.7-1.1Zm2-33.3c-2.1,1.6-2.9,3.9-2.7,7v0c0,1,0,2.3.2,3.5.2,5.1.6,18.7,2.5,20.1c2.7,1.4,26.9-.8,36.8-5.1c2.9-1.2,3.3-2.3,3.3-2.3.8-3.1,1-10.5.2-19.9-.2-1.9-1.4-3.5-3.3-3.9-8.4-2.1-16-2.9-22.2-2.9-7,0-12.1,1.1-14.8,3.5Z" fill="#9a9a9a"/></g><g><path d="M127,182.2c.4,0,.8,0,1.2-.2l17.7-9.9c1.2-.6,1.6-2.1.8-3.3s-2.1-1.6-3.3-.8l-17.7,9.9c-1.2.6-1.6,2.1-.8,3.3.5.6,1.3,1,2.1,1Z" fill="#2c2c2c"/><path d="M125.2,170.9c.2.4.4.6.8.8L143.5,182c1,.6,2.5.2,3.3-.8s.2-2.5-.8-3.3l-17.5-10.3c-1-.6-2.5-.2-3.3.8-.4.8-.4,1.9,0,2.5Z" fill="#2c2c2c"/></g></g><g><g><path d="M110.4,148l-4.9,12.3c-2.3,6-9.5,8-14.8,4.5-10.3-7-24.7-17.7-26.9-25.3c0,0,14.8-10.3,43.4,1.2c3,1.4,4.4,4.5,3.2,7.3Z" fill="#d9d9d7"/><path d="M80.4,159.6C72,153.2,64.2,146,62.3,140.3l-.4-1.2l1-.6c.6-.4,15.8-10.5,45,1c1.9.6,3.1,2.1,3.9,3.9.8,1.9.8,3.7,0,5.6l-4.9,12.3c-1.2,3.3-3.9,5.8-7.4,6.8-3.3,1-7,.4-9.9-1.4-2.7-2.6-6-4.9-9.2-7.1ZM66,140.4c2.5,5.3,11.5,13.6,25.9,23.2c2.1,1.4,4.7,1.9,7,1c2.5-.8,4.3-2.5,5.3-4.9l4.9-12.3c.4-1,.4-2.1,0-3.1s-1.2-1.6-2.1-2.1c-23.4-9-37.1-3.6-41-1.8Z" fill="#9a9a9a"/></g><path d="M98.4,143.3c-.2,1.2-4.3,1.6-9.5,1-5.1-.6-9-2.1-9-3.3.2-1.2,4.3-1.6,9.5-1c5.1.6,9.3,2.1,9,3.3Z" fill="#fcffff"/><path d="M97,161.2c-1,1.4-3.1,1.6-4.5.6s-1.6-3.1-.6-4.5s3.1-1.6,4.5-.6s1.8,3.1.6,4.5Z" fill="#2c2c2c"/></g><g><path d="M171.2,319.5l8.2,16.7-12.1,5.8c0,0-15.6-.8-17.7-3.3s-.2-14.2,1.2-16c1.3-2.2,17.5-9.2,20.4-3.2Z" fill="#2c2c2c"/><g><path d="M169,274.5l7.2,51c0,0-14.6-3.3-25.3,10.5c0,0-7.6,1-8-4.7-.4-5.8,5.6-46.3,5.6-46.3s18.8-21.8,20.5-10.5Z" fill="#d9d9d7"/><path d="M143.3,335.7c-1.2-1-2.1-2.7-2.3-4.5-.4-5.8,5.3-45,5.6-46.7v-.4l.4-.4c2.3-2.7,14.2-15.8,20.4-14.2c1.2.4,2.9,1.4,3.3,4.5l7.4,53.2-2.3-.4c-.2,0-13.6-2.9-23.8,9.9l-.4.4h-.6c-.2,0-.8.2-1.6.2-1.8.3-4.3.1-6.1-1.6Zm30.8-12.1l-6.8-48.9c-.2-.8-.4-1.6-1-1.9-2.7-.8-10.5,6-16.7,12.7-2.1,14.2-5.8,41.1-5.6,45.4c0,1,.4,1.6,1,2.3c1.2,1,3.3,1,4.5,1c9.2-10.4,20.1-11,24.6-10.6Z" fill="#9a9a9a"/></g><g><path d="M162.4,280.9c.8,7.6,4.7,13.4,9,13c4.1-.4,6.8-7,6.2-14.6-.8-7.6-4.7-13.4-9-13s-7,6.9-6.2,14.6Z" fill="#d9d9d7"/><path d="M164.2,291.3c-1.9-2.7-3.1-6.4-3.5-10.3-.8-8.6,2.5-15.8,7.6-16.2c5.1-.6,9.9,5.8,10.7,14.4.4,3.9,0,7.8-1.2,10.7-1.4,3.3-3.5,5.3-6.2,5.6-.2,0-.4,0-.6,0-2.7-.1-4.9-1.5-6.8-4.2Zm4.3-23.4c-2.9.2-5.3,5.6-4.7,12.7.4,3.5,1.4,6.6,2.9,8.6c1.2,1.9,2.9,2.9,4.3,2.7s2.7-1.4,3.5-3.5c1-2.5,1.4-5.8,1-9-.8-7-4.1-11.5-7-11.5.3,0,.3,0,0,0Z" fill="#9a9a9a"/></g><path d="M169.8,275.1l20.1,3.3-18.3,7c.2,0-5.1-1.7-1.8-10.3Z" fill="#9a9a9a"/><g><path d="M191.4,338c0,0-9.5-9-17.9-7.2-8.4,1.9-14.2,7.8-15.6,11.5-1.7,3.5,47.4,5.4,33.5-4.3Z" fill="#d9d9d7"/><path d="M157.7,344.6c-2.1-1-1.6-2.7-1.4-2.9c1.4-3.7,7.4-10.5,16.9-12.5c8.8-1.9,18.3,6.6,19.3,7.4c3.7,2.5,3.5,4.7,2.7,6-1.9,3.1-10.3,4.1-18.9,4.1-8.2.1-16.4-.9-18.6-2.1Zm34.5-3.5c0,0-.2-.6-1.9-1.9l-.2-.2c0,0-8.8-8.4-16.4-6.8-7,1.4-12.1,6.2-14.2,9.7c4.1,1.4,21.2,2.5,29.6.4c2.7-.6,3.1-1.2,3.1-1.2v0Z" fill="#9a9a9a"/></g></g><g><path d="M74.6,288.3L66.4,305l12.1,5.8c0,0,15.6-.8,17.7-3.3s.2-14.2-1.2-16c-1.3-2.2-17.5-9.2-20.4-3.2Z" fill="#2c2c2c"/><g><path d="M76.7,243.4l-7.2,51c0,0,14.6-3.3,25.3,10.5c0,0,7.6,1,8-4.7.4-5.8-5.6-46.3-5.6-46.3s-18.9-22-20.5-10.5Z" fill="#d9d9d7"/><path d="M96.4,306.3c-.8,0-1.4,0-1.6-.2h-.6l-.4-.4C83.7,293,70.2,295.8,70,295.8l-2.3.4L75,243c.4-3.1,2.1-4.1,3.3-4.5c6-1.9,17.9,11.5,20.4,14.2l.4.4v.4c.2,1.6,6,40.7,5.6,46.7-.2,1.9-.8,3.5-2.3,4.5-1.7,1.4-4.4,1.6-6,1.6Zm-.6-3c1.2,0,3.3,0,4.5-1c.6-.4,1-1.2,1-2.3.2-4.3-3.5-31.5-5.6-45.4-6-6.8-14-13.6-16.7-12.7-.6.2-.8,1-1,1.9l-6.8,48.9c5-.5,15.7-.1,24.6,10.6Z" fill="#9a9a9a"/></g><g><path d="M83.4,249.6c-.8,7.6-4.7,13.4-9,13-4.1-.4-6.8-7-6.2-14.6.8-7.6,4.7-13.4,9-13c4.2.6,7.1,7,6.2,14.6Z" fill="#d9d9d7"/><path d="M74.8,264.2c-.2,0-.4,0-.6,0-2.7-.2-4.7-2.3-6.2-5.6-1.2-3.1-1.6-6.8-1.2-10.7.8-8.6,5.6-14.8,10.7-14.4c5.1.6,8.4,7.6,7.6,16.2-.4,3.9-1.6,7.6-3.5,10.3-2.1,2.8-4.3,4.2-6.8,4.2Zm2.1-27.5c-2.7,0-6.2,4.5-7,11.5-.4,3.5,0,6.6,1,9c.8,2.1,2.3,3.5,3.5,3.5c1.4.2,2.9-.8,4.3-2.7c1.4-2.3,2.7-5.3,2.9-8.6.8-7.2-1.9-12.3-4.7-12.7.2.2.2,0,0,0Z" fill="#9a9a9a"/></g><path d="M75.8,243.8l-20.1,3.3l18.3,7c0,0,5.3-1.6,1.8-10.3Z" fill="#9a9a9a"/><g><path d="M54.5,306.8c0,0,9.5-9,17.9-7.2s14.2,7.8,15.6,11.5c1.6,3.7-47.5,5.3-33.5-4.3Z" fill="#d9d9d7"/><path d="M69.5,315.6c-8.4,0-17.1-1-18.9-4.1-.8-1.2-1-3.5,2.7-6c1-1,10.5-9.5,19.3-7.4c9.5,2.1,15.4,8.6,16.9,12.5.2.2.6,1.9-1.4,2.9-2.4,1.1-10.4,2.1-18.6,2.1Zm-16.1-5.8c0,0,.4.6,3.1,1.2c8.4,2.1,25.5,1,29.6-.4-1.9-3.3-7-8-14.2-9.7-7.6-1.6-16.4,6.8-16.4,6.8l-.2.2c-1.7,1.3-1.7,1.9-1.9,1.9v0Z" fill="#9a9a9a"/></g></g><g><g><path d="M161.6,147.6l2.3,13c1,6.2,7.6,9.9,13.6,7.4c11.3-4.7,27.8-12.3,31.5-19.3c0,0-12.3-13-42.8-7.6-3.2.6-5.1,3.5-4.6,6.5Z" fill="#d9d9d7"/><path d="M178,169.6c-3.3,1.4-6.8,1.2-9.9-.6-3.1-1.6-5.1-4.7-5.8-8L160,148c-.4-1.9,0-3.7,1.2-5.3c1-1.6,2.7-2.7,4.5-2.9c30.8-5.3,43.8,7.6,44.2,8l.8.8-.6,1c-2.9,5.1-11.9,10.7-21.6,15.2-3.5,1.8-7,3.4-10.5,4.8Zm-11.7-26.9c-1,.2-1.9.8-2.5,1.6s-.8,1.9-.6,2.9l2.3,13c.4,2.5,2.1,4.5,4.1,5.8c2.3,1.2,4.7,1.4,7.2.4c15.8-6.6,26.3-12.7,30-17.5-3.5-2.5-16-10.5-40.5-6.2Z" fill="#9a9a9a"/></g><path d="M174.3,145.4c0,1.2,3.9,2.5,9,2.9s9.5-.2,9.5-1.4-3.9-2.5-9-2.9c-5.2-.5-9.5.1-9.5,1.4Z" fill="#fcffff"/><path d="M172,163.1c.8,1.6,2.7,2.3,4.3,1.4c1.6-.8,2.3-2.7,1.4-4.3-.8-1.6-2.7-2.3-4.3-1.4-1.6.8-2.2,2.6-1.4,4.3Z" fill="#2c2c2c"/></g></g><g id="eAIGOu2T8Rz124" transform="matrix(0 0 0 0 152.734131 96.809517)"><g><g><path d="M156.6,73c0,0-.4-8.2-6.6-11.1s-13.4-13.8-10.5-20.4c2.7-6.4,11.9-14.6,15-11.1s1.2,8.2-1.6,9.7c0,0,4.3-2.9,7,1.9c0,0,3.5-7.8,8.6-7.2s2.3,7.4,2.3,7.4s10.1-14,18.3-10.7c8.2,3.1,10.5,10.5,6.8,15.2s-11.1,4.9-11.1,4.9s14.4,3.5,13.8,10.3c-.6,7-5.1,11.7-9.3,9c0,0,7,2.3,4.3,6.8-2.7,4.7-6.8,1.9-6.8,1.9s1.9,8.6-3.3,7.2c-4.9-1.4-2.3-7.6-2.3-7.6s-3.7-3.9-7.2-4.1c-3.5-.4-3.5,5.1-3.9,6.6.1-.5-11.8-5-13.5-8.7Z" fill="#ca152a"/></g><path d="M158.1,71.2c0,0-.4-5.6-2.9-7.4-2.5-1.9-10.1-7.6-12.1-10.9-2.1-3.1-1.6-11.9,1.6-15.2c3.3-3.3,6.6,2.3,5.8,5.3c0,0,4.3-.2,4.9,2.5s-2.1,5.8-2.1,5.8s4.7-.8,6.2,2.1c1.4,2.9.4,5.8-.8,6.2s4.3,4.7,3.7,6.6c-.4,1.5-2.5,5-4.3,5Z" fill="#fd3852"/><path d="M164,56c0,0-2.7-9.3.8-10.5s5.3,2.1,4.5,3.7c0,0,2.9-6,6.4-4.1c3.5,1.6,5.1,4.7,2.9,6c0,0,4.5,2.1,3.5,3.9-1,1.9-2.5,3.5-4.1,3.3c0,0,1.6,3.7-1,4.1-2.7.4-6.4-3.5-5.1-5.6-.1-.4-5-6.2-7.9-.8Z" fill="#fd3852"/><path d="M179.9,40.3c0,0,2.9-4.3,6-2.9c3.3,1.4,5.3,3.5,4.1,5.8-1.4,2.3-6,4.5-6,4.5s3.1-2.7,1.9-4.9c-1.3-2.3-6-2.5-6-2.5Z" fill="#fd3852"/><path d="M185.8,60.7c0,0,3.7,1.9,3.9,3.3s-.4,3.5-1.2,3.9c-1,.4-2.3.8-3.3.4s-2.7-2.7-2.7-2.7s4.1.2,4.1-1c0-1.7-.8-3.9-.8-3.9Z" fill="#fd3852"/><g><path d="M171.2,80.8c-.6,1.6-5.1,1-10.1-1-4.9-2.1-8.2-5.1-7.6-6.6.6-1.4,5.1-1,10.1,1c4.9,2.1,8.2,5,7.6,6.6Z" fill="#85722b"/><polygon points="169.2,86 151.3,78.2 153.7,72.8 171.2,80.6" fill="#85722b"/></g><g><path d="M170.2,80.6c-.6,1.4-4.5,1-9-1-4.5-2.1-7.4-4.5-6.8-6c.6-1.4,4.7-.8,8.8,1c4.5,1.9,7.6,4.6,7,6Z" fill="#e3bc35"/><polygon points="168.3,85.3 152.3,78.2 154.6,73.6 170.2,80.4" fill="#e3bc35"/></g></g><g><g><path d="M129.5,152.8l-.2-.2c-.2-.2-3.7-2.7-6.4-5.1-2.7-2.3-12.5-22.2-14.4-26.1l-.2-.6.4-.4c4.9-4.9,8.4-14.8,8.4-14.8l.4-1.2l25.7,17.1l30,7.4-.6,1.2c0,0-4.9,9.3-5.1,16.2v.6l-.6.2c-4.1,1.2-25.3,7.4-29,7-3.5-.4-7.8-1.2-8-1.2l-.4-.1ZM111,121.3c4.3,8.6,11.7,23,13.4,24.5c2.3,1.9,5.1,4.1,6,4.7c1,.2,4.5.8,7.4,1.2c2.3.2,17.9-3.9,27.1-6.6.4-5.8,3.5-12.3,4.7-15l-27.3-6.8-23.4-15.6c-1.1,2.7-4,9.3-7.9,13.6Z" fill="#9a9a9a"/><path d="M169,145.2v0c-.2-.6-.8-1.2-1.4-1.6s-1.4-.4-2.1,0c-.8.4-2.3,1-3.9,1.6-5.1,1.9-12.5,3.7-13.2,3.9-6.8,1.4-12.7,1.4-17.5.2-4.1-2.7-8-7.2-11.5-13-.4-.8-3.9-7.4-6.2-12.3-.6-1.6-1.2-3.1-1.4-3.9-.2-.6-.8-1.2-1.4-1.4s-1.4-.2-2.3,0c-1,.4-1.4,1.4-1.2,2.3.2.6,1.6,8,6.8,16.7c5.3,9,11.5,14,14,15.8l-.2.4l1.2.4l1.2.8.2-.4c3.1.6,10.9,1.9,21-.4c9.9-2.1,16.4-6,16.9-6.2c1-.9,1.4-1.9,1-2.9Z" fill="#9a9a9a"/></g><g><path d="M170.6,129.3l-28-7-24.1-16c0,0-3.5,9.9-8.4,14.8c0,0,11.1,22.6,13.8,24.9s6.2,4.9,6.2,4.9s4.3.8,7.6,1.2s27.5-6.8,27.5-6.8c.7-6.7,5.4-16,5.4-16Z" fill="#d9d9d7"/></g><path d="M181.7,102.8c0-2.9-7.8-13.2-12.5-17.1s-8.2-5.1-8.2-5.1-3.3-1.9-9.3-2.7c-6.2-.8-18.9.2-21.2,2.3s-7.4,18.1-7.4,18.1c6,6.6,23.6,14.4,23.6,14.4s17.7,7.8,26.5,7.8c.3,0,8.5-14.6,8.5-17.7Z" fill="#d9d9d7"/><path d="M146.3,114.3c-.2,0-.2,0-.4-.2-2.1-1-18.9-8.4-24.9-15.2l-.4-.4.2-.4c.6-1.9,5.6-16.9,8-18.9c2.7-2.5,16.7-3.3,22.6-2.5c5.8.8,9.3,2.5,10.1,2.9.8.2,4.5,1.6,8.8,5.3c4.7,3.9,13.4,14.8,13.6,18.3c0,3.1-7.6,17.1-8.6,18.7l-.2.4h-.6c-9,.3-25.9-6.9-28.2-8Zm.7-1.8c.2,0,17.5,7.8,26.5,8c3.5-6.4,8.4-15.4,8.4-17.5v0c0-2.5-7.8-12.7-12.7-16.9-4.5-3.9-8-4.9-8-4.9h-.2-.2c0,0-3.3-1.9-9-2.7-6.4-.8-19.1.4-21,2.1-1.4,1.4-5.1,11.1-7.2,18.1c5.9,6.2,23.2,13.8,23.4,13.8Z" fill="#9a9a9a"/><g><polygon points="152.3,107.8 146.8,105.3 160.7,74.5 165.7,76.7" fill="#9a9a9a"/><polygon points="151.5,107.6 147.6,105.7 161.1,75.5 164.6,76.9" fill="#d9d9d7"/></g><polygon points="122.7,96.9 121.5,101.8 140.6,124.2 165.9,126.1 172.9,125 174.5,120.9" fill="#2c2c2c"/><path d="M173.5,127.9c-.2-.2-.4-.6-.4-.8c0-.4,0-1.6.8-4.3c0-.2,0-.2.2-.4v0-.2c.8-2.1,1.9-4.3,2.1-4.5l.8-.4-1-.2c-.2,0-11.7-2.9-18.1-5.6l4.5-11.3c.2-.2,1.9-1.9,5.1-.4l.6.4v-.6c-.6-3.9-4.3-5.3-5.8-5.8.4-1,1-4.1-3.1-8l-.2-.2v0l-12.5,28.8v0c.2,0,17.3,6.4,27.3,8.2c0,0,0,0-.2,0-14.4,3.3-28,.2-30-1.2l-.2-.2L124.7,164h.2c5.8.4,8.4-1.4,9.5-2.9.4-.6,1.2-.8,1.9-.6.8.2,1.9.2,2.9.2.2,0,.2,0,.4,0h.4c3.9-.4,5.8-2.5,6-2.7s.2-.4.4-.4c-.2,0-.6,0-.8,0-3.7-.2-4.5-1.9-4.9-2.9c0-.4,0-.6,0-1c2.5-6.4,5.3-13.6,8.6-21.8.2-.6,1-1,1.9-.8c7.4,1.2,19.5-1,20.8-1.6.2,0,.2,0,.4-.2.4,0,1-.2,1.4-.2-.1-.8-.3-1-.3-1.2Z" fill="#e3bc35"/><path d="M142.9,120.7c-1.6-.2-7-3.7-12.5-9.7-.8-1-2.1-2.5-3.3-3.7-1.9-2.5-3.7-4.9-5.3-7.8v0c1,.8,2.3,1.6,3.7,2.7v0c2.7,1.9,6,3.7,9,5.6v0v0c6.2,3.5,11.5,6.4,11.9,6.6l12.5-28.8h-.2c-5.8-.2-7.6,2.3-8,3.1-.6-.4-1.6-.8-3.1-1h-.2c0,0-.2,0-.4,0-2.7-.4-4.3.8-4.3,1l-.4.2.6.2c3.3,1.4,3.3,3.7,3.1,4.1l-5.3,10.9c-1-.4-2.3-1-3.5-1.9-.2-.2-8-4.7-8.8-5.3-2.3-1.4-3.9-2.5-3.9-2.7l-.8-.6.2.8c0,.4-1,2.5-2.1,4.5v.2v0c0,.2-.2.2-.2.4-1.4,2.3-2.1,3.1-2.5,3.5-.2.2-.6.4-1,.4-.2,0-.4,0-.8,0c.2.4.6.8.8,1.2c0,.2.2.2.2.4.4,1.4,7,11.9,13,16.4.6.4.8,1.2.6,1.9-3.9,8-7.2,15-10.3,21.2-.2.4-.4.6-.6.8-.8.4-2.7,1-5.3-1.6-.2-.2-.4-.4-.6-.8c0,.2,0,.6-.2.8c0,4.5,2.9,7.4,4.9,8.8.6.4.8,1,.8,1.9-.2,1.6,0,4.9,4.3,8.8l.2.2v0l18.7-42.8c-.5.1-.7.1-.9.1Z" fill="#85722b"/><g><path d="M130.3,124.4c0-.2,0-.2,0,0c0-.2,0-.2,0,0c0-.2-.2-.2-.2-.2v0c0,0,0,0-.2,0c0,0,0,0-.2,0v0c-.2,0-.4,0-.8.2v0c-.2.2-.2.2-.4.4l-.2.2c0,.2-.2.4-.2.6s0,.4,0,.4c0,.4.2.6.4.6c0,0,0,0,.2,0v0h.2v0v0v0v0v0v0c.4-.2.8-.4,1-1c.6-.4.6-1,.4-1.2v0Z" fill="#2c2c2c"/><path d="M126.2,123.8c.2,0,.2,0,0,0c.2,0,.2,0,0,0c.2,0,.2,0,.4,0v0v0v0v0v0v0c.4-.2.6-.4.8-.8s.2-.8.2-1.2v0v0v0c0,0,0,0,0-.2v0c0,0,0,0-.2,0c0,0,0,0-.2,0v0c-.2,0-.4,0-.6.2s-.4.4-.4.6c-.4.6-.2,1.2,0,1.4Z" fill="#2c2c2c"/><path d="M124.1,120.9v0c.3,0,.3,0,0,0c.2,0,.2,0,.4,0v0v0v0v0v0c.2,0,.6-.4.8-.6.2-.4.2-.8.2-1v0v0c0,0,0,0,0-.2v0c0,0,0,0-.2,0c0,0,0,0-.2,0v0c-.2,0-.4,0-.6.2s-.2.2-.4.4c-.4.4-.4,1,0,1.2Z" fill="#2c2c2c"/><path d="M122.5,118.2v0c0,0,.2,0,0,0c.2,0,.2,0,0,0c.2,0,.2,0,0,0v0c.2,0,.2,0,0,0v0c.4,0,.6-.2.8-.6.2-.2.2-.6.2-.8v0v0v0v0v0v0v0c-.2,0-.2,0-.4.2-.2,0-.2.2-.4.4-.6.2-.6.6-.2.8v0Z" fill="#2c2c2c"/><path d="M120.9,116v0c.2,0,.2,0,0,0c.2,0,.2,0,0,0v0v0v0c.4,0,.6-.2.8-.4s.2-.4.2-.6v0v0v0v0v0v0v0c0,0-.2,0-.4.2-.2,0-.2.2-.4.4-.7,0-.7.4-.2.4v0v0Z" fill="#2c2c2c"/><path d="M128.5,128.1v0c0,0,0-.2,0,0c0-.2-.2-.2-.2-.2v0c0,0,0,0-.2,0c0,0,0,0-.2,0v0c-.2,0-.4,0-.8.4-.2.2-.4.4-.4.8-.4.8-.2,1.4.2,1.6c0,0,0,0,.2,0v0h.2v0v0v0v0v0v0c.4-.2.8-.6,1-1c.4-.8.4-1.2.2-1.6v0Z" fill="#2c2c2c"/><path d="M126,125.6c0-.2,0-.2,0,0-.2-.2-.2-.2,0,0-.2-.2-.2-.2,0,0-.2-.2-.2-.2-.2-.2s0,0-.2,0c0,0,0,0-.2,0v0c-.2,0-.4,0-.6.2s-.4.4-.4.6-.2.4-.2.4c0,.4,0,.6,0,.8l.2.2c0,0,0,0,.2,0v0c0,0,0,0,.2,0v0v0v0v0v0v0c.4-.2.6-.4.8-.8.2-.3.4-1,.4-1.2v0Z" fill="#2c2c2c"/><path d="M122.3,124.8c.2,0,.2,0,0,0c.2,0,.2,0,0,0c.2,0,.2,0,.4,0v0v0v0v0v0c.2,0,.6-.4.8-.6s.2-.8.2-1v0v0c0,0,0,0,0-.2v0c0,0,0,0-.2,0c0,0,0,0-.2,0v0c-.2,0-.4,0-.6.2s-.2.2-.4.4c-.2.4-.2,1,0,1.2Z" fill="#2c2c2c"/><path d="M120.6,122.1c0,0,.3,0,0,0c.3,0,.3,0,0,0c.2,0,.2,0,.2,0v0v0v0v0v0c.2,0,.4-.2.6-.6.2-.2.2-.6.2-.8v0v0v0v0v0v0v0c-.2,0-.2,0-.4.2-.2,0-.2.2-.4.4s-.2.4-.2.6c-.2,0-.2,0,0,.2v0Z" fill="#2c2c2c"/><path d="M119.2,120.1v0v0c.2,0,.2,0,0,0c.2,0,.2,0,0,0v0v0c.2,0,.2,0,0,0c.4,0,.6-.2.8-.4s.2-.4.2-.6v0v0v0v0v0v0v0c0,0-.2,0-.4.2-.2,0-.2.2-.4.4-.4-.2-.6.2-.2.4v0Z" fill="#2c2c2c"/><path d="M126.2,132.4c0,0,0-.2,0,0c0-.2,0-.2,0,0c0-.2,0-.2-.2-.2v0c0,0,0,0-.2,0c0,0,0,0-.2,0v0c-.2,0-.4,0-.8.2-.2.2-.4.4-.6.6-.4.8-.4,1.6,0,1.9c0,0,0,0,.2,0v0h.2v0v0v0v0v0v0c.4-.2.8-.4,1-1c.6-.7.6-1.3.6-1.5v0Z" fill="#2c2c2c"/><path d="M123.9,129.5v0v0c0-.2,0-.2-.2-.2v0c0,0,0,0-.2,0c0,0,0,0-.2,0v0c-.2,0-.4,0-.6.2s-.4.4-.6.6c-.4.6-.4,1.2,0,1.4c0,0,0,0,.2,0v0c0,0,0,0,.2,0v0v0v0v0v0v0c.4,0,.6-.4,1-.8.4-.3.4-.7.4-1.2v0Z" fill="#2c2c2c"/><path d="M121.9,126.9v0v0c0-.2,0-.2,0,0-.2-.2-.2-.2-.2-.2s0,0-.2,0v0c-.2,0-.4,0-.6.2s-.4.2-.4.4c-.4.6-.4,1,0,1.2c0,0,0,0,.2,0v0c0,0,0,0,.2,0v0v0v0v0v0c.2,0,.6-.2.8-.6s.2-.8.2-1v0Z" fill="#2c2c2c"/><path d="M120.2,124.4v0v0v0c0-.2-.2-.2-.2-.2v0v0c-.2,0-.2,0-.6.2-.2,0-.2.2-.4.4-.4.4-.4.8-.2,1c0,0,0,0,.2,0v0c0,0,0,0,.2,0v0v0v0v0v0c.2,0,.6-.2.8-.6.2-.2.2-.6.2-.8v0Z" fill="#2c2c2c"/><path d="M118.8,122.4v0v0v0c0-.2,0-.2-.2-.2v0v0v0c0,0-.2,0-.4,0s-.2.2-.4.4c-.4.4-.4.8-.2.8c0,0,0,0,.2,0v0v0v0v0v0v0v0c.2,0,.4-.2.6-.4.4-.2.4-.4.4-.6v0Z" fill="#2c2c2c"/><path d="M148.6,135.3v0v0v0v0v0v0c0,.2.2.2.2.2v0c0,0,0,0,.2,0h.2c.2,0,.2,0,.4-.2c0,0,.2,0,.2-.2.2-.2.2-.2.4-.4c0-.2.2-.4.2-.6v-.2c0-.2,0-.4,0-.6v0c0-.4-.2-.6-.2-.8v0h-.2c0,0,0,0-.2,0v0c0,0,0,0-.2,0v0v0v0c-.4.2-.6.6-.8,1-.4.8-.4,1.4-.2,1.8Z" fill="#2c2c2c"/><path d="M153.7,133v0c0-.2-.2-.2,0,0-.2-.2-.2-.2-.2-.2v0c0,0,0,0-.2,0v0v0v0c-.2.2-.6.4-.8.8s-.2.8,0,1.2v0v0v0v0v0v0c0,0,0,0,0,.2v0c0,0,0,0,.2,0c.4.2.8-.2,1.2-.8c0-.2.2-.6.2-.8-.1-.2-.1-.4-.4-.4Z" fill="#2c2c2c"/><path d="M157,133v0c0-.2,0-.2,0,0-.2,0-.2,0-.2,0v0c0,0,0,0-.2,0v0v0c-.2.2-.4.4-.6.8s-.2.8,0,1v0v0v0v0v0c0,0,0,0,0,.2v0c0,0,0,0,.2,0c.4.2.8-.2,1-.8c0-.2,0-.4,0-.6c0-.4,0-.6-.2-.6Z" fill="#2c2c2c"/><path d="M160.1,133.2c0-.2-.2-.4-.2-.4v0v0c0,0,0,0-.2,0v0v0v0v0c-.2,0-.4.4-.4.6c0,.4,0,.6,0,.8v0v0v0v0v0v0v0c0,0,0,0,.2,0c.2.2.6-.2.8-.8-.2.3-.2.1-.2-.2Z" fill="#2c2c2c"/><path d="M162.8,133.5c0-.2,0-.4,0-.4c0-.2-.2-.4-.2-.4v0v0c0,0,0,0-.2,0v0v0v0v0c-.2,0-.2.4-.4.6s0,.6.2.8v0v0v0v0v0v0v0v0c.2.2.4,0,.6-.6Z" fill="#2c2c2c"/><path d="M147,139v0v0v0c0,.2,0,.2,0,0c0,.2,0,.2,0,0c0,.2.2.2.2.2v0c0,0,0,0,.2,0c.4.2,1-.2,1.4-1c.2-.2.2-.6.2-.8c0-.4-.2-.6-.2-.8v0h-.2c0,0,0,0-.2,0v0c0,0,0,0-.2,0v0v0v0c-.4.2-.6.4-1,1s-.4,1.2-.2,1.4v0Z" fill="#2c2c2c"/><path d="M150.7,139v0v0v0v0c0,0,.2,0,0,0c.2,0,.2,0,0,0c.2,0,.2,0,0,0c.2.2.2.2.2.2s0,0,.2,0c.4.2.8-.2,1.2-.8c0-.2.2-.6.2-.8c0-.4-.2-.6-.2-.6v0h-.2c0,0,0,0-.2,0v0c0,0,0,0-.2,0v0v0v0c-.2.2-.6.4-.8.8s-.2.8-.2,1.2Z" fill="#2c2c2c"/><path d="M155.4,136.9v0c0-.2-.2-.2,0,0-.2,0-.2,0-.2,0v0c0,0,0,0-.2,0v0v0c-.2.2-.4.4-.6.8s-.2.8,0,1v0v0v0v0v0c0,0,0,0,0,.2v0c0,0,0,0,.2,0c.4.2.8-.2,1-.8c0-.2,0-.4,0-.6c0-.3-.2-.6-.2-.6Z" fill="#2c2c2c"/><path d="M158.5,137.2c0-.2-.2-.4-.2-.4v0v0c0,0,0,0-.2,0v0v0v0v0c-.2,0-.4.4-.4.6c0,.4,0,.6,0,.8v0v0v0v0v0v0v0c0,0,0,0,.2,0h.2c0,0,.2,0,.2-.2.2-.2.2-.4.4-.6-.2,0-.2,0-.2-.2Z" fill="#2c2c2c"/><path d="M160.9,136.9c0-.2-.2-.4-.2-.4v0v0c0,0,0,0-.2,0v0v0v0v0c-.2,0-.2.4-.4.6c0,.2,0,.6,0,.8v0v0v0v0v0v0v0v0c.2,0,.4-.2.6-.6.2-.1.2-.1.2-.4Z" fill="#2c2c2c"/><path d="M147.4,142.1c0-.4-.2-.6-.4-.8v0h-.2c0,0,0,0-.2,0v0c0,0,0,0-.2,0v0v0v0c-.4.2-.6.6-.8,1.2s-.2,1,0,1.4v0v0v0v0v0v0c0,0,0,0,.2.2v0c0,0,0,0,.2,0c.4.2,1-.4,1.2-1.2.2-.2.2-.6.2-.8Z" fill="#2c2c2c"/><path d="M150.9,141.7c0-.4-.2-.6-.2-.6v0h-.2c0,0,0,0-.2,0v0c0,0,0,0-.2,0v0v0v0c-.2.2-.6.4-.6,1s0,1,0,1.2v0v0v0v0v0v0c0,0,0,0,0,.2v0c0,0,0,0,.2,0c.4.2.8-.4,1-1c.2-.2.2-.4.2-.8Z" fill="#2c2c2c"/><path d="M154,141.3c0-.4-.2-.4-.2-.6v0h-.2c0,0,0,0-.2,0v0c0,0,0,0-.2,0v0v0c-.2.2-.4.4-.6.8c0,.4,0,.8,0,1v0v0v0v0v0c0,0,0,0,0,.2v0c0,0,0,0,.2,0c.4.2.8-.2.8-.8.6-.2.6-.4.4-.6Z" fill="#2c2c2c"/><path d="M156.8,141.1c0-.2,0-.2,0-.4s-.2-.4-.2-.4v0v0c0,0,0,0-.2,0v0v0v0v0c-.2.2-.4.4-.4.8s0,.6.2.8v0v0v0v0v0v0v0c0,0,0,0,.2,0c0,.2.4,0,.4-.8c0,.2,0,0,0,0Z" fill="#2c2c2c"/><path d="M159.3,140.2c0-.2-.2-.4-.2-.4v0v0c0,0,0,0-.2,0v0v0v0v0c-.2.2-.2.4-.2.6c0,.4,0,.6.2.8v0v0v0v0v0v0v0c0,0,0,0,.2,0s.4-.2.6-.8c-.4.2-.4,0-.4-.2Z" fill="#2c2c2c"/></g><g><path d="M175.3,112.5c-.6-.2-1.4,0-1.6.4-.2.6.2,1.2.8,1.6s1.4,0,1.6-.4c.3-.6-.1-1.2-.8-1.6Z" fill="#fcffff"/><path d="M171,111.3c-.6-.2-1.4,0-1.6.4-.2.6.2,1.2.8,1.6s1.4,0,1.6-.4c.2-.6-.2-1.2-.8-1.6Z" fill="#fcffff"/><path d="M166.7,110c-.6-.2-1.4-.2-1.6.4s.2,1.2.8,1.6c.6.2,1.4,0,1.6-.4.4-.6,0-1.4-.8-1.6Z" fill="#fcffff"/><path d="M162.2,108.4c-.6-.2-1.4-.2-1.6.4s.2,1.2.8,1.6c.6.2,1.4.2,1.6-.4.4-.6,0-1.2-.8-1.6Z" fill="#fcffff"/><path d="M127.8,91.7c-.6-.2-1.4-.2-1.9.4-.2.4,0,1.2.8,1.4s1.4.2,1.9-.4c.3-.4-.1-1.2-.8-1.4Z" fill="#fcffff"/><path d="M131.5,94c-.6-.2-1.4-.2-1.9.4-.2.6,0,1.2.8,1.4s1.4.2,1.9-.4c.3-.4-.1-1.2-.8-1.4Z" fill="#fcffff"/><path d="M135.5,96.2c-.6-.2-1.4-.2-1.6.4s0,1.2.8,1.4c.6.2,1.4.2,1.9-.4-.1-.3-.5-1.2-1.1-1.4Z" fill="#fcffff"/><path d="M139.6,98.5c-.6-.2-1.4-.2-1.6.4s0,1.2.8,1.4s1.4.2,1.6-.4c.2-.4-.2-1.2-.8-1.4Z" fill="#fcffff"/></g><g><g><path d="M177.6,117c0,0-.2,0,0,0l-.8-.4c-1-.4-2.9,1.9-4.1,5.1-1.2,3.5-1.6,6.6-.6,7.2l.8.4v0v0c1,.4,2.9-1.9,4.3-5.3c1.2-3.5,1.2-6.6.4-7Z" fill="#d9d9d7"/><path d="M177,119.5c-.6-.2-1.6,1-2.5,3.1-.8,2.1-1,3.9-.2,4.3s1.9-1.2,2.5-3.3c.8-1.9.8-3.7.2-4.1Z" fill="#2c2c2c"/></g><g><path d="M122.9,93v0l.8.4c1,.4.6,3.3-1,6.4-1.6,3.3-3.9,5.8-4.9,5.3l-1-.4v0v0c-1-.4-.6-3.5,1-6.8c2-3.1,4.1-5.4,5.1-4.9Z" fill="#d9d9d7"/><path d="M121.5,95c.6.2.4,2.1-.6,3.9-1,2.1-2.3,3.3-2.9,3.1s-.4-2.1.6-4.1c.8-1.7,2.3-3.1,2.9-2.9Z" fill="#2c2c2c"/></g></g><path d="M143.7,120.9c2.1,1.4,15.6,4.7,30,1.2c0,0,0,0,.2,0-10.1-1.9-27.1-8-27.3-8.2v0l-2.9,6.8c-.2.2-.2.2,0,.2Z" fill="none"/><path d="M134.2,107.6v0c-3.1-1.9-6.2-3.7-9-5.6v0c-1.2-.8-2.5-1.9-3.7-2.7v0c1.6,2.9,3.5,5.6,5.3,7.8c1,1.2,2.3,2.7,3.3,3.7c5.6,6,11.1,9.3,12.5,9.7.2,0,.2,0,.4.2l2.9-6.8c0,0-5.5-2.9-11.7-6.3v0Z" fill="none"/></g></g></g></g>
<script><![CDATA[
!function(t,n){"object"==typeof exports&&"undefined"!=typeof module?module.exports=n():"function"==typeof __SVGATOR_DEFINE__&&__SVGATOR_DEFINE__.amd?__SVGATOR_DEFINE__(n):((t="undefined"!=typeof globalThis?globalThis:t||self).__SVGATOR_PLAYER__=t.__SVGATOR_PLAYER__||{},t.__SVGATOR_PLAYER__["5c7f360c"]=n())}(this,(function(){"use strict";function t(t,n){var e=Object.keys(t);if(Object.getOwnPropertySymbols){var r=Object.getOwnPropertySymbols(t);n&&(r=r.filter((function(n){return Object.getOwnPropertyDescriptor(t,n).enumerable}))),e.push.apply(e,r)}return e}function n(n){for(var e=1;e<arguments.length;e++){var r=null!=arguments[e]?arguments[e]:{};e%2?t(Object(r),!0).forEach((function(t){u(n,t,r[t])})):Object.getOwnPropertyDescriptors?Object.defineProperties(n,Object.getOwnPropertyDescriptors(r)):t(Object(r)).forEach((function(t){Object.defineProperty(n,t,Object.getOwnPropertyDescriptor(r,t))}))}return n}function e(t){return(e="function"==typeof Symbol&&"symbol"==typeof Symbol.iterator?function(t){return typeof t}:function(t){return t&&"function"==typeof Symbol&&t.constructor===Symbol&&t!==Symbol.prototype?"symbol":typeof t})(t)}function r(t,n){if(!(t instanceof n))throw new TypeError("Cannot call a class as a function")}function i(t,n){for(var e=0;e<n.length;e++){var r=n[e];r.enumerable=r.enumerable||!1,r.configurable=!0,"value"in r&&(r.writable=!0),Object.defineProperty(t,r.key,r)}}function o(t,n,e){return n&&i(t.prototype,n),e&&i(t,e),t}function u(t,n,e){return n in t?Object.defineProperty(t,n,{value:e,enumerable:!0,configurable:!0,writable:!0}):t[n]=e,t}function a(t){return(a=Object.setPrototypeOf?Object.getPrototypeOf:function(t){return t.__proto__||Object.getPrototypeOf(t)})(t)}function l(t,n){return(l=Object.setPrototypeOf||function(t,n){return t.__proto__=n,t})(t,n)}function s(){if("undefined"==typeof Reflect||!Reflect.construct)return!1;if(Reflect.construct.sham)return!1;if("function"==typeof Proxy)return!0;try{return Boolean.prototype.valueOf.call(Reflect.construct(Boolean,[],(function(){}))),!0}catch(t){return!1}}function f(t,n,e){return(f=s()?Reflect.construct:function(t,n,e){var r=[null];r.push.apply(r,n);var i=new(Function.bind.apply(t,r));return e&&l(i,e.prototype),i}).apply(null,arguments)}function c(t,n){if(n&&("object"==typeof n||"function"==typeof n))return n;if(void 0!==n)throw new TypeError("Derived constructors may only return object or undefined");return function(t){if(void 0===t)throw new ReferenceError("this hasn't been initialised - super() hasn't been called");return t}(t)}function h(t,n,e){return(h="undefined"!=typeof Reflect&&Reflect.get?Reflect.get:function(t,n,e){var r=function(t,n){for(;!Object.prototype.hasOwnProperty.call(t,n)&&null!==(t=a(t)););return t}(t,n);if(r){var i=Object.getOwnPropertyDescriptor(r,n);return i.get?i.get.call(e):i.value}})(t,n,e||t)}function v(t){return function(t){if(Array.isArray(t))return y(t)}(t)||function(t){if("undefined"!=typeof Symbol&&null!=t[Symbol.iterator]||null!=t["@@iterator"])return Array.from(t)}(t)||function(t,n){if(!t)return;if("string"==typeof t)return y(t,n);var e=Object.prototype.toString.call(t).slice(8,-1);"Object"===e&&t.constructor&&(e=t.constructor.name);if("Map"===e||"Set"===e)return Array.from(t);if("Arguments"===e||/^(?:Ui|I)nt(?:8|16|32)(?:Clamped)?Array$/.test(e))return y(t,n)}(t)||function(){throw new TypeError("Invalid attempt to spread non-iterable instance.\nIn order to be iterable, non-array objects must have a [Symbol.iterator]() method.")}()}function y(t,n){(null==n||n>t.length)&&(n=t.length);for(var e=0,r=new Array(n);e<n;e++)r[e]=t[e];return r}function g(t,n,e){if(Number.isInteger(t))return t;var r=Math.pow(10,n);return Math[e]((+t+Number.EPSILON)*r)/r}Number.isInteger||(Number.isInteger=function(t){return"number"==typeof t&&isFinite(t)&&Math.floor(t)===t}),Number.EPSILON||(Number.EPSILON=2220446049250313e-31);var d=p(Math.pow(10,-6));function p(t){var n=arguments.length>1&&void 0!==arguments[1]?arguments[1]:6;return g(t,n,"round")}function m(t,n){var e=arguments.length>2&&void 0!==arguments[2]?arguments[2]:d;return Math.abs(t-n)<e}p(Math.pow(10,-2)),p(Math.pow(10,-4));var b=Math.PI/180;function w(t){return t}function A(t,n,e){var r=1-e;return 3*e*r*(t*r+n*e)+e*e*e}function _(){var t=arguments.length>0&&void 0!==arguments[0]?arguments[0]:0,n=arguments.length>1&&void 0!==arguments[1]?arguments[1]:0,e=arguments.length>2&&void 0!==arguments[2]?arguments[2]:1,r=arguments.length>3&&void 0!==arguments[3]?arguments[3]:1;return t<0||t>1||e<0||e>1?null:m(t,n)&&m(e,r)?w:function(i){if(i<=0)return t>0?i*n/t:0===n&&e>0?i*r/e:0;if(i>=1)return e<1?1+(i-1)*(r-1)/(e-1):1===e&&t<1?1+(i-1)*(n-1)/(t-1):1;for(var o,u=0,a=1;u<a;){var l=A(t,e,o=(u+a)/2);if(m(i,l))break;l<i?u=o:a=o}return A(n,r,o)}}function x(){return 1}function k(t){return 1===t?1:0}function S(){var t=arguments.length>0&&void 0!==arguments[0]?arguments[0]:1,n=arguments.length>1&&void 0!==arguments[1]?arguments[1]:0;if(1===t){if(0===n)return k;if(1===n)return x}var e=1/t;return function(t){return t>=1?1:(t+=n*e)-t%e}}var O=Math.sin,j=Math.cos,M=Math.acos,E=Math.asin,P=Math.tan,I=Math.atan2,R=Math.PI/180,F=180/Math.PI,N=Math.sqrt,T=function(){function t(){var n=arguments.length>0&&void 0!==arguments[0]?arguments[0]:1,e=arguments.length>1&&void 0!==arguments[1]?arguments[1]:0,i=arguments.length>2&&void 0!==arguments[2]?arguments[2]:0,o=arguments.length>3&&void 0!==arguments[3]?arguments[3]:1,u=arguments.length>4&&void 0!==arguments[4]?arguments[4]:0,a=arguments.length>5&&void 0!==arguments[5]?arguments[5]:0;r(this,t),this.m=[n,e,i,o,u,a],this.i=null,this.w=null,this.s=null}return o(t,[{key:"determinant",get:function(){var t=this.m;return t[0]*t[3]-t[1]*t[2]}},{key:"isIdentity",get:function(){if(null===this.i){var t=this.m;this.i=1===t[0]&&0===t[1]&&0===t[2]&&1===t[3]&&0===t[4]&&0===t[5]}return this.i}},{key:"point",value:function(t,n){var e=this.m;return{x:e[0]*t+e[2]*n+e[4],y:e[1]*t+e[3]*n+e[5]}}},{key:"translateSelf",value:function(){var t=arguments.length>0&&void 0!==arguments[0]?arguments[0]:0,n=arguments.length>1&&void 0!==arguments[1]?arguments[1]:0;if(!t&&!n)return this;var e=this.m;return e[4]+=e[0]*t+e[2]*n,e[5]+=e[1]*t+e[3]*n,this.w=this.s=this.i=null,this}},{key:"rotateSelf",value:function(){var t=arguments.length>0&&void 0!==arguments[0]?arguments[0]:0;if(t%=360){var n=O(t*=R),e=j(t),r=this.m,i=r[0],o=r[1];r[0]=i*e+r[2]*n,r[1]=o*e+r[3]*n,r[2]=r[2]*e-i*n,r[3]=r[3]*e-o*n,this.w=this.s=this.i=null}return this}},{key:"scaleSelf",value:function(){var t=arguments.length>0&&void 0!==arguments[0]?arguments[0]:1,n=arguments.length>1&&void 0!==arguments[1]?arguments[1]:1;if(1!==t||1!==n){var e=this.m;e[0]*=t,e[1]*=t,e[2]*=n,e[3]*=n,this.w=this.s=this.i=null}return this}},{key:"skewSelf",value:function(t,n){if(n%=360,(t%=360)||n){var e=this.m,r=e[0],i=e[1],o=e[2],u=e[3];t&&(t=P(t*R),e[2]+=r*t,e[3]+=i*t),n&&(n=P(n*R),e[0]+=o*n,e[1]+=u*n),this.w=this.s=this.i=null}return this}},{key:"resetSelf",value:function(){var t=arguments.length>0&&void 0!==arguments[0]?arguments[0]:1,n=arguments.length>1&&void 0!==arguments[1]?arguments[1]:0,e=arguments.length>2&&void 0!==arguments[2]?arguments[2]:0,r=arguments.length>3&&void 0!==arguments[3]?arguments[3]:1,i=arguments.length>4&&void 0!==arguments[4]?arguments[4]:0,o=arguments.length>5&&void 0!==arguments[5]?arguments[5]:0,u=this.m;return u[0]=t,u[1]=n,u[2]=e,u[3]=r,u[4]=i,u[5]=o,this.w=this.s=this.i=null,this}},{key:"recomposeSelf",value:function(){var t=arguments.length>0&&void 0!==arguments[0]?arguments[0]:null,n=arguments.length>1&&void 0!==arguments[1]?arguments[1]:null,e=arguments.length>2&&void 0!==arguments[2]?arguments[2]:null,r=arguments.length>3&&void 0!==arguments[3]?arguments[3]:null,i=arguments.length>4&&void 0!==arguments[4]?arguments[4]:null;return this.isIdentity||this.resetSelf(),t&&(t.x||t.y)&&this.translateSelf(t.x,t.y),n&&this.rotateSelf(n),e&&(e.x&&this.skewSelf(e.x,0),e.y&&this.skewSelf(0,e.y)),!r||1===r.x&&1===r.y||this.scaleSelf(r.x,r.y),i&&(i.x||i.y)&&this.translateSelf(i.x,i.y),this}},{key:"decompose",value:function(){var t=arguments.length>0&&void 0!==arguments[0]?arguments[0]:0,n=arguments.length>1&&void 0!==arguments[1]?arguments[1]:0,e=this.m,r=e[0]*e[0]+e[1]*e[1],i=[[e[0],e[1]],[e[2],e[3]]],o=N(r);if(0===o)return{origin:{x:p(e[4]),y:p(e[5])},translate:{x:p(t),y:p(n)},scale:{x:0,y:0},skew:{x:0,y:0},rotate:0};i[0][0]/=o,i[0][1]/=o;var u=e[0]*e[3]-e[1]*e[2]<0;u&&(o=-o);var a=i[0][0]*i[1][0]+i[0][1]*i[1][1];i[1][0]-=i[0][0]*a,i[1][1]-=i[0][1]*a;var l=N(i[1][0]*i[1][0]+i[1][1]*i[1][1]);if(0===l)return{origin:{x:p(e[4]),y:p(e[5])},translate:{x:p(t),y:p(n)},scale:{x:p(o),y:0},skew:{x:0,y:0},rotate:0};i[1][0]/=l,i[1][1]/=l,a/=l;var s=0;return i[1][1]<0?(s=M(i[1][1])*F,i[0][1]<0&&(s=360-s)):s=E(i[0][1])*F,u&&(s=-s),a=I(a,N(i[0][0]*i[0][0]+i[0][1]*i[0][1]))*F,u&&(a=-a),{origin:{x:p(e[4]),y:p(e[5])},translate:{x:p(t),y:p(n)},scale:{x:p(o),y:p(l)},skew:{x:p(a),y:0},rotate:p(s)}}},{key:"clone",value:function(){var t=this.m;return new this.constructor(t[0],t[1],t[2],t[3],t[4],t[5])}},{key:"toString",value:function(){var t=arguments.length>0&&void 0!==arguments[0]?arguments[0]:" ";if(null===this.s){var n=this.m.map((function(t){return p(t)}));1===n[0]&&0===n[1]&&0===n[2]&&1===n[3]?this.s="translate("+n[4]+t+n[5]+")":this.s="matrix("+n.join(t)+")"}return this.s}}],[{key:"create",value:function(t){return t?Array.isArray(t)?f(this,v(t)):t instanceof this?t.clone():(new this).recomposeSelf(t.origin,t.rotate,t.skew,t.scale,t.translate):new this}}]),t}();function q(t,n,e){return t>=.5?e:n}function B(t,n,e){return 0===t||n===e?n:t*(e-n)+n}function D(t,n,e){var r=B(t,n,e);return r<=0?0:r}function L(t,n,e){var r=B(t,n,e);return r<=0?0:r>=1?1:r}function C(t,n,e){return 0===t?n:1===t?e:{x:B(t,n.x,e.x),y:B(t,n.y,e.y)}}function V(t,n,e){var r=function(t,n,e){return Math.round(B(t,n,e))}(t,n,e);return r<=0?0:r>=255?255:r}function G(t,n,e){return 0===t?n:1===t?e:{r:V(t,n.r,e.r),g:V(t,n.g,e.g),b:V(t,n.b,e.b),a:B(t,null==n.a?1:n.a,null==e.a?1:e.a)}}function z(t,n){for(var e=[],r=0;r<t;r++)e.push(n);return e}function Y(t,n){if(--n<=0)return t;var e=(t=Object.assign([],t)).length;do{for(var r=0;r<e;r++)t.push(t[r])}while(--n>0);return t}var $,U=function(){function t(n){r(this,t),this.list=n,this.length=n.length}return o(t,[{key:"setAttribute",value:function(t,n){for(var e=this.list,r=0;r<this.length;r++)e[r].setAttribute(t,n)}},{key:"removeAttribute",value:function(t){for(var n=this.list,e=0;e<this.length;e++)n[e].removeAttribute(t)}},{key:"style",value:function(t,n){for(var e=this.list,r=0;r<this.length;r++)e[r].style[t]=n}}]),t}(),Q=/-./g,H=function(t,n){return n.toUpperCase()};function J(t){return"function"==typeof t?t:q}function Z(t){return t?"function"==typeof t?t:Array.isArray(t)?function(t){var n=arguments.length>1&&void 0!==arguments[1]?arguments[1]:w;if(!Array.isArray(t))return n;switch(t.length){case 1:return S(t[0])||n;case 2:return S(t[0],t[1])||n;case 4:return _(t[0],t[1],t[2],t[3])||n}return n}(t,null):function(t,n){var e=arguments.length>2&&void 0!==arguments[2]?arguments[2]:w;switch(t){case"linear":return w;case"steps":return S(n.steps||1,n.jump||0)||e;case"bezier":case"cubic-bezier":return _(n.x1||0,n.y1||0,n.x2||0,n.y2||0)||e}return e}(t.type,t.value,null):null}function K(t,n,e){var r=arguments.length>3&&void 0!==arguments[3]&&arguments[3],i=n.length-1;if(t<=n[0].t)return r?[0,0,n[0].v]:n[0].v;if(t>=n[i].t)return r?[i,1,n[i].v]:n[i].v;var o,u=n[0],a=null;for(o=1;o<=i;o++){if(!(t>n[o].t)){a=n[o];break}u=n[o]}return null==a?r?[i,1,n[i].v]:n[i].v:u.t===a.t?r?[o,1,a.v]:a.v:(t=(t-u.t)/(a.t-u.t),u.e&&(t=u.e(t)),r?[o,t,e(t,u.v,a.v)]:e(t,u.v,a.v))}function W(t,n){var e=arguments.length>2&&void 0!==arguments[2]?arguments[2]:null;return t&&t.length?"function"!=typeof n?null:("function"!=typeof e&&(e=null),function(r){var i=K(r,t,n);return null!=i&&e&&(i=e(i)),i}):null}function X(t,n){return t.t-n.t}function tt(t,n,r,i,o){var u,a="@"===r[0],l="#"===r[0],s=$[r],f=q;switch(a?(u=r.substr(1),r=u.replace(Q,H)):l&&(r=r.substr(1)),e(s)){case"function":if(f=s(i,o,K,Z,r,a,n,t),l)return f;break;case"string":f=W(i,J(s));break;case"object":if((f=W(i,J(s.i),s.f))&&"function"==typeof s.u)return s.u(n,f,r,a,t)}return f?function(t,n,e){if(arguments.length>3&&void 0!==arguments[3]&&arguments[3])return t instanceof U?function(r){return t.style(n,e(r))}:function(r){return t.style[n]=e(r)};if(Array.isArray(n)){var r=n.length;return function(i){var o=e(i);if(null==o)for(var u=0;u<r;u++)t[u].removeAttribute(n);else for(var a=0;a<r;a++)t[a].setAttribute(n,o)}}return function(r){var i=e(r);null==i?t.removeAttribute(n):t.setAttribute(n,i)}}(n,r,f,a):null}function nt(t,n,r,i){if(!i||"object"!==e(i))return null;var o=null,u=null;return Array.isArray(i)?u=function(t){if(!t||!t.length)return null;for(var n=0;n<t.length;n++)t[n].e&&(t[n].e=Z(t[n].e));return t.sort(X)}(i):(u=i.keys,o=i.data||null),u?tt(t,n,r,u,o):null}function et(t,n,e){if(!e)return null;var r=[];for(var i in e)if(e.hasOwnProperty(i)){var o=nt(t,n,i,e[i]);o&&r.push(o)}return r.length?r:null}function rt(t,n){if(!n.settings.duration||n.settings.duration<0)return null;var e,r,i,o,u,a=function(t,n){if(!n)return null;var e=[];if(Array.isArray(n))for(var r=n.length,i=0;i<r;i++){var o=n[i];if(2===o.length){var u=null;if("string"==typeof o[0])u=t.getElementById(o[0]);else if(Array.isArray(o[0])){u=[];for(var a=0;a<o[0].length;a++)if("string"==typeof o[0][a]){var l=t.getElementById(o[0][a]);l&&u.push(l)}u=u.length?1===u.length?u[0]:new U(u):null}if(u){var s=et(t,u,o[1]);s&&(e=e.concat(s))}}}else for(var f in n)if(n.hasOwnProperty(f)){var c=t.getElementById(f);if(c){var h=et(t,c,n[f]);h&&(e=e.concat(h))}}return e.length?e:null}(t,n.elements);return a?(e=a,r=n.settings,i=r.duration,o=e.length,u=null,function(t,n){var a=r.iterations||1/0,l=(r.alternate&&a%2==0)^r.direction>0?i:0,s=t%i,f=1+(t-s)/i;n*=r.direction,r.alternate&&f%2==0&&(n=-n);var c=!1;if(f>a)s=l,c=!0,-1===r.fill&&(s=r.direction>0?0:i);else if(n<0&&(s=i-s),s===u)return!1;u=s;for(var h=0;h<o;h++)e[h](s);return c}):null}function it(t,n){for(var e=n.querySelectorAll("svg"),r=0;r<e.length;r++)if(e[r].id===t.root&&!e[r].svgatorAnimation)return e[r].svgatorAnimation=!0,e[r];return null}function ot(t){var n=function(t){return t.shadowRoot};return document?Array.from(t.querySelectorAll(":not("+["a","area","audio","br","canvas","circle","datalist","embed","g","head","hr","iframe","img","input","link","object","path","polygon","rect","script","source","style","svg","title","track","video"].join()+")")).filter(n).map(n):[]}function ut(t){var n=arguments.length>1&&void 0!==arguments[1]?arguments[1]:document,e=arguments.length>2&&void 0!==arguments[2]?arguments[2]:0,r=it(t,n);if(r)return r;if(e>=20)return null;for(var i=ot(n),o=0;o<i.length;o++){var u=ut(t,i[o],e+1);if(u)return u}return null}function at(t,n){if($=n,!t||!t.root||!Array.isArray(t.animations))return null;var e=ut(t);if(!e)return null;var r=t.animations.map((function(t){return rt(e,t)})).filter((function(t){return!!t}));return r.length?{svg:e,animations:r,animationSettings:t.animationSettings,options:t.options||void 0}:null}function lt(t){var n=arguments.length>1&&void 0!==arguments[1]?arguments[1]:null,e=arguments.length>2&&void 0!==arguments[2]?arguments[2]:Number,r=arguments.length>3&&void 0!==arguments[3]?arguments[3]:"undefined"!=typeof BigInt&&BigInt,i="0x"+(t.replace(/[^0-9a-fA-F]+/g,"")||27);return n&&r&&e.isSafeInteger&&!e.isSafeInteger(+i)?e(r(i))%n+n:+i}function st(t,n,e){return!t||!e||n>t.length?t:t.substring(0,n)+st(t.substring(n+1),e,e)}function ft(t){var n=arguments.length>1&&void 0!==arguments[1]?arguments[1]:27;return!t||t%n?t%n:[0,1].includes(n)?n:ft(t/n,n)}function ct(t,n,e){if(t&&t.length){var r=lt(e),i=ft(r)+5,o=st(t,ft(r,5),i);return o=o.replace(/\x7c$/g,"==").replace(/\x2f$/g,"="),o=function(t,n,e){var r=+("0x"+t.substring(0,4));t=t.substring(4);for(var i=lt(n,r)%r+e%27,o=[],u=0;u<t.length;u+=2)if("|"!==t[u]){var a=+("0x"+t[u]+t[u+1])-i;o.push(a)}else{var l=+("0x"+t.substring(u+1,u+1+4))-i;u+=3,o.push(l)}return String.fromCharCode.apply(String,o)}(o=(o=atob(o)).replace(/[\x41-\x5A]/g,""),n,r),o=JSON.parse(o)}}var ht=[{key:"alternate",def:!1},{key:"fill",def:1},{key:"iterations",def:0},{key:"direction",def:1},{key:"speed",def:1},{key:"fps",def:100}],vt=function(){function t(n,e){var i=this,o=arguments.length>2&&void 0!==arguments[2]?arguments[2]:null;r(this,t),this._id=0,this._running=!1,this._rollingBack=!1,this._animations=n,this._settings=e,(!o||o<"2022-05-02")&&delete this._settings.speed,ht.forEach((function(t){i._settings[t.key]=i._settings[t.key]||t.def})),this.duration=e.duration,this.offset=e.offset||0,this.rollbackStartOffset=0}return o(t,[{key:"alternate",get:function(){return this._settings.alternate}},{key:"fill",get:function(){return this._settings.fill}},{key:"iterations",get:function(){return this._settings.iterations}},{key:"direction",get:function(){return this._settings.direction}},{key:"speed",get:function(){return this._settings.speed}},{key:"fps",get:function(){return this._settings.fps}},{key:"maxFiniteDuration",get:function(){return this.iterations>0?this.iterations*this.duration:this.duration}},{key:"_apply",value:function(t){for(var n=arguments.length>1&&void 0!==arguments[1]?arguments[1]:{},e=this._animations,r=e.length,i=0,o=0;o<r;o++)n[o]?i++:(n[o]=e[o](t,1),n[o]&&i++);return i}},{key:"_rollback",value:function(t){var n=this,e=1/0,r=null;this.rollbackStartOffset=t,this._rollingBack=!0,this._running=!0;this._id=window.requestAnimationFrame((function i(o){if(n._rollingBack){null==r&&(r=o);var u=Math.round(t-(o-r)*n.speed);if(u>n.duration&&e!==1/0){var a=!!n.alternate&&u/n.duration%2>1,l=u%n.duration;u=(l+=a?n.duration:0)||n.duration}var s=(n.fps?1e3/n.fps:0)*n.speed,f=Math.max(0,u);f<=e-s&&(n.offset=f,e=f,n._apply(f));var c=n.iterations>0&&-1===n.fill&&u>=n.maxFiniteDuration;(u<=0||n.offset<u||c)&&n.stop(),n._id=window.requestAnimationFrame(i)}}))}},{key:"_start",value:function(){var t=this,n=arguments.length>0&&void 0!==arguments[0]?arguments[0]:0,e=-1/0,r=null,i={};this._running=!0;var o=function o(u){null==r&&(r=u);var a=Math.round((u-r)*t.speed+n),l=(t.fps?1e3/t.fps:0)*t.speed;if(a>=e+l&&!t._rollingBack&&(t.offset=a,e=a,t._apply(a,i)===t._animations.length))return void t.pause(!0);t._id=window.requestAnimationFrame(o)};this._id=window.requestAnimationFrame(o)}},{key:"_pause",value:function(){this._id&&window.cancelAnimationFrame(this._id),this._running=!1}},{key:"play",value:function(){if(!this._running)return this._rollingBack?this._rollback(this.offset):this._start(this.offset)}},{key:"stop",value:function(){this._pause(),this.offset=0,this.rollbackStartOffset=0,this._rollingBack=!1,this._apply(0)}},{key:"reachedToEnd",value:function(){return this.iterations>0&&this.offset>=this.iterations*this.duration}},{key:"restart",value:function(){var t=arguments.length>0&&void 0!==arguments[0]&&arguments[0];this.stop(t),this.play(t)}},{key:"pause",value:function(){this._pause()}},{key:"reverse",value:function(){this.direction=-this.direction}}],[{key:"build",value:function(t,n){delete t.animationSettings,t.options=ct(t.options,t.root,"5c7f360c"),t.animations.map((function(n){n.settings=ct(n.s,t.root,"5c7f360c"),delete n.s,t.animationSettings||(t.animationSettings=n.settings)}));var e=t.version;if(!(t=at(t,n)))return null;var r=t.options||{},i=new this(t.animations,t.animationSettings,e);return{el:t.svg,options:r,player:i}}},{key:"push",value:function(t){return this.build(t)}},{key:"init",value:function(){var t=this,n=window.__SVGATOR_PLAYER__&&window.__SVGATOR_PLAYER__["5c7f360c"];Array.isArray(n)&&n.splice(0).forEach((function(n){return t.build(n)}))}}]),t}();function yt(t){return p(t)+""}function gt(t){var n=arguments.length>1&&void 0!==arguments[1]?arguments[1]:" ";return t&&t.length?t.map(yt).join(n):""}function dt(t){if(!t)return"transparent";if(null==t.a||t.a>=1){var n=function(t){return 1===(t=parseInt(t).toString(16)).length?"0"+t:t},e=function(t){return t.charAt(0)===t.charAt(1)},r=n(t.r),i=n(t.g),o=n(t.b);return e(r)&&e(i)&&e(o)&&(r=r.charAt(0),i=i.charAt(0),o=o.charAt(0)),"#"+r+i+o}return"rgba("+t.r+","+t.g+","+t.b+","+t.a+")"}function pt(t){return t?"url(#"+t+")":"none"}!function(){for(var t=0,n=["ms","moz","webkit","o"],e=0;e<n.length&&!window.requestAnimationFrame;++e)window.requestAnimationFrame=window[n[e]+"RequestAnimationFrame"],window.cancelAnimationFrame=window[n[e]+"CancelAnimationFrame"]||window[n[e]+"CancelRequestAnimationFrame"];window.requestAnimationFrame||(window.requestAnimationFrame=function(n){var e=Date.now(),r=Math.max(0,16-(e-t)),i=window.setTimeout((function(){n(e+r)}),r);return t=e+r,i},window.cancelAnimationFrame=window.clearTimeout)}();var mt={f:null,i:function(t,n,e){return 0===t?n:1===t?e:{x:D(t,n.x,e.x),y:D(t,n.y,e.y)}},u:function(t,n){return function(e){var r=n(e);t.setAttribute("rx",yt(r.x)),t.setAttribute("ry",yt(r.y))}}},bt={f:null,i:function(t,n,e){return 0===t?n:1===t?e:{width:D(t,n.width,e.width),height:D(t,n.height,e.height)}},u:function(t,n){return function(e){var r=n(e);t.setAttribute("width",yt(r.width)),t.setAttribute("height",yt(r.height))}}};Object.freeze({M:2,L:2,Z:0,H:1,V:1,C:6,Q:4,T:2,S:4,A:7});var wt={},At=null;function _t(t){var n=function(){if(At)return At;if("object"!==("undefined"==typeof document?"undefined":e(document))||!document.createElementNS)return{};var t=document.createElementNS("http://www.w3.org/2000/svg","svg");return t&&t.style?(t.style.position="absolute",t.style.opacity="0.01",t.style.zIndex="-9999",t.style.left="-9999px",t.style.width="1px",t.style.height="1px",At={svg:t}):{}}().svg;if(!n)return function(t){return null};var r=document.createElementNS(n.namespaceURI,"path");r.setAttributeNS(null,"d",t),r.setAttributeNS(null,"fill","none"),r.setAttributeNS(null,"stroke","none"),n.appendChild(r);var i=r.getTotalLength();return function(t){var n=r.getPointAtLength(i*t);return{x:n.x,y:n.y}}}function xt(t){return wt[t]?wt[t]:wt[t]=_t(t)}function kt(t,n,e,r){if(!t||!r)return!1;var i=["M",t.x,t.y];if(n&&e&&(i.push("C"),i.push(n.x),i.push(n.y),i.push(e.x),i.push(e.y)),n?!e:e){var o=n||e;i.push("Q"),i.push(o.x),i.push(o.y)}return n||e||i.push("L"),i.push(r.x),i.push(r.y),i.join(" ")}function St(t,n,e,r){var i=arguments.length>4&&void 0!==arguments[4]?arguments[4]:1,o=kt(t,n,e,r),u=xt(o);try{return u(i)}catch(t){return null}}function Ot(t,n,e){return t+(n-t)*e}function jt(t,n,e){var r=arguments.length>3&&void 0!==arguments[3]&&arguments[3],i={x:Ot(t.x,n.x,e),y:Ot(t.y,n.y,e)};return r&&(i.a=Mt(t,n)),i}function Mt(t,n){return Math.atan2(n.y-t.y,n.x-t.x)}function Et(t,n,e,r){var i=1-r;return i*i*t+2*i*r*n+r*r*e}function Pt(t,n,e,r){return 2*(1-r)*(n-t)+2*r*(e-n)}function It(t,n,e,r){var i=arguments.length>4&&void 0!==arguments[4]&&arguments[4],o=St(t,n,null,e,r);return o||(o={x:Et(t.x,n.x,e.x,r),y:Et(t.y,n.y,e.y,r)}),i&&(o.a=Rt(t,n,e,r)),o}function Rt(t,n,e,r){return Math.atan2(Pt(t.y,n.y,e.y,r),Pt(t.x,n.x,e.x,r))}function Ft(t,n,e,r,i){var o=i*i;return i*o*(r-t+3*(n-e))+3*o*(t+e-2*n)+3*i*(n-t)+t}function Nt(t,n,e,r,i){var o=1-i;return 3*(o*o*(n-t)+2*o*i*(e-n)+i*i*(r-e))}function Tt(t,n,e,r,i){var o=arguments.length>5&&void 0!==arguments[5]&&arguments[5],u=St(t,n,e,r,i);return u||(u={x:Ft(t.x,n.x,e.x,r.x,i),y:Ft(t.y,n.y,e.y,r.y,i)}),o&&(u.a=qt(t,n,e,r,i)),u}function qt(t,n,e,r,i){return Math.atan2(Nt(t.y,n.y,e.y,r.y,i),Nt(t.x,n.x,e.x,r.x,i))}function Bt(t,n,e){var r=arguments.length>3&&void 0!==arguments[3]&&arguments[3];if(Lt(n)){if(Ct(e))return It(n,e.start,e,t,r)}else if(Lt(e)){if(Vt(n))return It(n,n.end,e,t,r)}else{if(Vt(n))return Ct(e)?Tt(n,n.end,e.start,e,t,r):It(n,n.end,e,t,r);if(Ct(e))return It(n,e.start,e,t,r)}return jt(n,e,t,r)}function Dt(t,n,e){var r=Bt(t,n,e,!0);return r.a=function(t){return arguments.length>1&&void 0!==arguments[1]&&arguments[1]?t+Math.PI:t}(r.a)/b,r}function Lt(t){return!t.type||"corner"===t.type}function Ct(t){return null!=t.start&&!Lt(t)}function Vt(t){return null!=t.end&&!Lt(t)}var Gt=new T;var zt={f:yt,i:B},Yt={f:yt,i:L};function $t(t,n,e){return t.map((function(t){return function(t,n,e){var r=t.v;if(!r||"g"!==r.t||r.s||!r.v||!r.r)return t;var i=e.getElementById(r.r),o=i&&i.querySelectorAll("stop")||[];return r.s=r.v.map((function(t,n){var e=o[n]&&o[n].getAttribute("offset");return{c:t,o:e=p(parseInt(e)/100)}})),delete r.v,t}(t,0,e)}))}var Ut={gt:"gradientTransform",c:{x:"cx",y:"cy"},rd:"r",f:{x:"x1",y:"y1"},to:{x:"x2",y:"y2"}};function Qt(t,n,r,i,o,u,a,l){return $t(t,0,l),n=function(t,n,e){for(var r,i,o,u=t.length-1,a={},l=0;l<=u;l++)(r=t[l]).e&&(r.e=n(r.e)),r.v&&"g"===(i=r.v).t&&i.r&&(o=e.getElementById(i.r))&&(a[i.r]={e:o,s:o.querySelectorAll("stop")});return a}(t,i,l),function(i){var o=r(i,t,Ht);if(!o)return"none";if("c"===o.t)return dt(o.v);if("g"===o.t){if(!n[o.r])return pt(o.r);var u=n[o.r];return function(t,n){for(var e=t.s,r=e.length;r<n.length;r++){var i=e[e.length-1].cloneNode();i.id=Kt(i.id),t.e.appendChild(i),e=t.s=t.e.querySelectorAll("stop")}for(var o=0,u=e.length,a=n.length-1;o<u;o++)e[o].setAttribute("stop-color",dt(n[Math.min(o,a)].c)),e[o].setAttribute("offset",n[Math.min(o,a)].o)}(u,o.s),Object.keys(Ut).forEach((function(t){if(void 0!==o[t])if("object"!==e(Ut[t])){var n,r="gt"===t?(n=o[t],Array.isArray(n)?"matrix("+n.join(" ")+")":""):o[t],i=Ut[t];u.e.setAttribute(i,r)}else Object.keys(Ut[t]).forEach((function(n){if(void 0!==o[t][n]){var e=o[t][n],r=Ut[t][n];u.e.setAttribute(r,e)}}))})),pt(o.r)}return"none"}}function Ht(t,e,r){if(0===t)return e;if(1===t)return r;if(e&&r){var i=e.t;if(i===r.t)switch(e.t){case"c":return{t:i,v:G(t,e.v,r.v)};case"g":if(e.r===r.r){var o={t:i,s:Jt(t,e.s,r.s),r:e.r};return e.gt&&r.gt&&(o.gt=function(t,n,e){var r=n.length;if(r!==e.length)return q(t,n,e);for(var i=new Array(r),o=0;o<r;o++)i[o]=B(t,n[o],e[o]);return i}(t,e.gt,r.gt)),e.c?(o.c=C(t,e.c,r.c),o.rd=D(t,e.rd,r.rd)):e.f&&(o.f=C(t,e.f,r.f),o.to=C(t,e.to,r.to)),o}}if("c"===e.t&&"g"===r.t||"c"===r.t&&"g"===e.t){var u="c"===e.t?e:r,a="g"===e.t?n({},e):n({},r),l=a.s.map((function(t){return{c:u.v,o:t.o}}));return a.s="c"===e.t?Jt(t,l,a.s):Jt(t,a.s,l),a}}return q(t,e,r)}function Jt(t,n,e){if(n.length===e.length)return n.map((function(n,r){return Zt(t,n,e[r])}));for(var r=Math.max(n.length,e.length),i=[],o=0;o<r;o++){var u=Zt(t,n[Math.min(o,n.length-1)],e[Math.min(o,e.length-1)]);i.push(u)}return i}function Zt(t,n,e){return{o:L(t,n.o,e.o||0),c:G(t,n.c,e.c||{})}}function Kt(t){return t.replace(/-fill-([0-9]+)$/,(function(t,n){return"-fill-"+(+n+1)}))}var Wt={fill:Qt,"fill-opacity":Yt,stroke:Qt,"stroke-opacity":Yt,"stroke-width":zt,"stroke-dashoffset":{f:yt,i:B},"stroke-dasharray":{f:function(t){var n=arguments.length>1&&void 0!==arguments[1]?arguments[1]:" ";return t&&t.length>0&&(t=t.map((function(t){return p(t,4)}))),gt(t,n)},i:function(t,n,e){var r,i,o,u=n.length,a=e.length;if(u!==a)if(0===u)n=z(u=a,0);else if(0===a)a=u,e=z(u,0);else{var l=(o=(r=u)*(i=a)/function(t,n){for(var e;n;)e=n,n=t%n,t=e;return t||1}(r,i))<0?-o:o;n=Y(n,Math.floor(l/u)),e=Y(e,Math.floor(l/a)),u=a=l}for(var s=[],f=0;f<u;f++)s.push(p(D(t,n[f],e[f])));return s}},opacity:Yt,transform:function(t,n,r,i){if(!(t=function(t,n){if(!t||"object"!==e(t))return null;var r=!1;for(var i in t)t.hasOwnProperty(i)&&(t[i]&&t[i].length?(t[i].forEach((function(t){t.e&&(t.e=n(t.e))})),r=!0):delete t[i]);return r?t:null}(t,i)))return null;var o=function(e,i,o){var u=arguments.length>3&&void 0!==arguments[3]?arguments[3]:null;return t[e]?r(i,t[e],o):n&&n[e]?n[e]:u};return n&&n.a&&t.o?function(n){var e=r(n,t.o,Dt);return Gt.recomposeSelf(e,o("r",n,B,0)+e.a,o("k",n,C),o("s",n,C),o("t",n,C)).toString()}:function(t){return Gt.recomposeSelf(o("o",t,Bt,null),o("r",t,B,0),o("k",t,C),o("s",t,C),o("t",t,C)).toString()}},r:zt,"#size":bt,"#radius":mt,_:function(t,n){if(Array.isArray(t))for(var e=0;e<t.length;e++)this[t[e]]=n;else this[t]=n}},Xt=function(t){!function(t,n){if("function"!=typeof n&&null!==n)throw new TypeError("Super expression must either be null or a function");t.prototype=Object.create(n&&n.prototype,{constructor:{value:t,writable:!0,configurable:!0}}),n&&l(t,n)}(u,t);var n,e,i=(n=u,e=s(),function(){var t,r=a(n);if(e){var i=a(this).constructor;t=Reflect.construct(r,arguments,i)}else t=r.apply(this,arguments);return c(this,t)});function u(){return r(this,u),i.apply(this,arguments)}return o(u,null,[{key:"build",value:function(t){var n=h(a(u),"build",this).call(this,t,Wt);if(!n)return null;n.el,n.options,function(t,n,e){t.play()}(n.player)}}]),u}(vt);return Xt.init(),Xt}));
(function(s,i,o,w,d,a,b){w[o]=w[o]||{};w[o][s]=w[o][s]||[];w[o][s].push(i);})('5c7f360c',{"root":"eAIGOu2T8Rz1","version":"2022-05-04","animations":[{"elements":{"eAIGOu2T8Rz4":{"transform":{"data":{"o":{"x":137.800003,"y":344.700012,"type":"corner"},"t":{"x":-0.000003,"y":-0.000012}},"keys":{"s":[{"t":500,"v":{"x":1,"y":1}},{"t":700,"v":{"x":0.6,"y":0.8}},{"t":1500,"v":{"x":0.6,"y":0.8}},{"t":1600,"v":{"x":1,"y":1}}]}}},"eAIGOu2T8Rz5":{"transform":{"data":{"o":{"x":137.800003,"y":343.299973,"type":"corner"},"t":{"x":-0.000003,"y":0.000027}},"keys":{"s":[{"t":300,"v":{"x":1,"y":1}},{"t":600,"v":{"x":0.7,"y":0.75}},{"t":1500,"v":{"x":0.7,"y":0.75}},{"t":1600,"v":{"x":0.9,"y":0.9}},{"t":1700,"v":{"x":0.75,"y":0.75}},{"t":1800,"v":{"x":1,"y":1}}]}}},"eAIGOu2T8Rz6":{"transform":{"data":{"o":{"x":137.799995,"y":341.299988,"type":"corner"},"t":{"x":0.000005,"y":0.000012}},"keys":{"s":[{"t":0,"v":{"x":1,"y":1}},{"t":400,"v":{"x":0.85,"y":0.8}},{"t":1700,"v":{"x":0.85,"y":0.8}},{"t":1800,"v":{"x":1,"y":0.8}},{"t":1900,"v":{"x":0.9,"y":0.7}},{"t":2000,"v":{"x":1,"y":1}}]}}},"eAIGOu2T8Rz8":{"transform":{"data":{"t":{"x":-146.425853,"y":-346.706391}},"keys":{"o":[{"t":1100,"v":{"x":146.425853,"y":346.706391,"type":"corner"}},{"t":1400,"v":{"x":146.425853,"y":332,"type":"corner"}},{"t":1500,"v":{"x":146.425853,"y":349,"type":"corner"}}],"s":[{"t":600,"v":{"x":0,"y":0}},{"t":900,"v":{"x":1,"y":1}},{"t":1100,"v":{"x":1,"y":0.89}},{"t":1300,"v":{"x":0.95,"y":1.05}},{"t":1600,"v":{"x":1,"y":1}}]}}},"eAIGOu2T8Rz124":{"transform":{"data":{"t":{"x":-152.734131,"y":-96.809517}},"keys":{"o":[{"t":900,"v":{"x":152.734131,"y":96.809517,"type":"corner"}},{"t":1100,"v":{"x":152.734131,"y":109.81964,"type":"corner"}},{"t":1300,"v":{"x":152.734131,"y":87,"type":"corner"}},{"t":1600,"v":{"x":152.734131,"y":99,"type":"corner"}}],"s":[{"t":700,"v":{"x":0,"y":0}},{"t":900,"v":{"x":1,"y":1}}]}}}},"s":"MUDA1ZGUwODdjOWRhZDXdWYzZkOWNlZDRkMzgI3OWY5ODk1OTU5NTkxKODdjOWNlZDdjYWM4RGWQ5Y2VkNGQzODc5ZjNk2OTE4N2NlZDlFY2FYkN2M2ZDljZWQ0QmQzLZDg4NzlmOTY5MTg3YJ2JjZWQxSWQxODc5ZjIk2OTE4N0ljNmQxZDlUjYWQ3ZDNjNmQ5Y2E4DNzlmY2JjNmQxZDhDYH2E5MTg3ZDhkNWNhY2IFjOTg3OWY5NjkxODdDjYktkNWQ4ODc5Zjk2SOTU5NWUy"}],"options":"MLDAxMDg4MmY4MDgxNmNU3ZjgxMmZLNDcyZjcJ5N2M2ZTcxMmY4YQ|"},'__SVGATOR_PLAYER__',window,document)
]]></script>
</svg>
