<svg id="eKRyauxJhos1" xmlns="http://www.w3.org/2000/svg" xmlns:xlink="http://www.w3.org/1999/xlink" viewBox="0 0 271.7 366.6" shape-rendering="geometricPrecision" text-rendering="geometricPrecision"><g transform="matrix(.85 0 0 0.85 20.3726 48.2631)"><ellipse id="eKRyauxJhos3" rx="133.9" ry="21.9" transform="translate(137.8 344.7)" fill="#bce6f9"/><ellipse id="eKRyauxJhos4" rx="100.5" ry="18.2" transform="translate(137.8 343.3)" fill="#45b4e2"/><ellipse id="eKRyauxJhos5" rx="70.1" ry="12.4" transform="translate(137.8 341.3)" fill="#3496b5"/></g><g><g id="eKRyauxJhos7" transform="matrix(0 0 0 0 161.4 342.600006)"><g><polygon points="148.5,274.8 149.2,240.4 135.5,281 146.3,278.3" fill="#474746"/><path d="M123.1,326c-.2-4.6,5.1-35.2,5.5-36.5v-.3l.2-.3c1.4-1.5,7-7.5,11.8-9.8c1-2.7,2.9-4.6,5.1-4.8c3.6-.3,6.9,3.8,7.9,9.4l8.9,1.7-8.7,3.1c-.2,2.1-.5,4.1-1.2,5.7-.9,1.9-2.1,3.3-3.4,3.8l2.9,25.9-1.7-.5c0,0-.3,0-.7-.2l.7,1.5c6.2.2,12,5.7,12.7,6.5c2.7,2.1,2.6,3.8,1.9,4.8-1.5,2.4-8.2,2.9-14.9,2.7-6.3-.2-12.7-1-14.6-2.1-1.7-.9-1.2-2.1-1-2.4s.3-.5.5-.9c-2.6-.5-5-1.2-5.7-1.9-.2-.2-.2-.3-.3-.5-1.4,0-3.3-.3-4.6-1.5-.8-.7-1.3-1.9-1.3-3.4Z" fill="#474746"/></g><path d="M146.8,173l-1.2,7l10.6,9.1-7,51.3-11.7,36.4-10.6,9.4-1.9-32.6c0,0-8.2-12.2-11-19s2.7-27.1,2.7-27.1l1.5-27.1l12.9-16.3l15.7,8.9Z" fill="#2c2c2c"/><g><g><path d="M156.2,211.7c0,0-1,14.6-3.4,18.5c0,0-14.2-3.8-18.7-4.3l1.9-14.6l20.2.4Z" fill="#d9d9d7"/><path d="M152.5,231.6c-.2,0-14.1-3.8-18.5-4.3l-1.4-.2l2.1-17l23,.2-.2,1.4c-.2,1.5-1.2,15.1-3.6,19.2l-.5.9-.9-.2ZM137,212.8l-1.5,12c4.6.7,13.4,3.1,16.5,3.8c1.4-3.4,2.4-11.3,2.7-15.6l-17.7-.2Z" fill="#9a9a9a"/></g><g><path d="M147.7,193.7c0,0-17.8-17.7-24.2-17.7s-15.1,14.4-15.1,15.6s3.1,29.5,5.7,31.4s9.1,7.4,10.1,7.5c1.2.2,15.3-3.4,15.3-3.4s10.6-26.5,8.2-33.4Z" fill="#d9d9d7"/><path d="M113.5,223.7c-2.9-2.2-6-31.7-6-32.1c0-1.2,3.6-7,7.2-11c3.3-3.6,6.2-5.5,8.6-5.5c6.5-.2,23.7,17,24.7,17.8l.2.2v.2c2.6,7.2-7.7,33.1-8.2,34.3l-.2.5h-.5c-4.1.7-14.4,3.6-15.6,3.3v0c-1.4-.3-10.2-7.7-10.2-7.7ZM147,194.2c-6.3-5.3-18.7-17.3-23.5-17.3-5.7,0-13.9,13.2-14.2,14.8c0,2.4,3.3,29.2,5.3,30.7c3.4,2.6,8.9,7.2,9.8,7.4c1,.2,8.1-2.2,14.6-3.3c2.8-7.6,9.5-26.8,8-32.3Z" fill="#9a9a9a"/></g><g><path d="M133.1,196.5c1,5.1,2.7,18.7,5.7,20.2c2.9,1.5,23-4.6,23.7-10.1.5-3.9-1-12.2-2.1-17-.5-2.2-2.2-3.8-4.5-3.9-9.8-.9-25.4-3.5-22.8,10.8Z" fill="#d9d9d7"/><path d="M138.1,217.9c-2.4-1.4-3.9-7.5-5.7-18.4-.2-1-.3-2.1-.5-2.9v0c-.7-3.3.2-6.2,2.2-8.4c6.2-6.9,12.7-5,22.1-3.9c2.7.3,5,2.2,5.7,5c1.2,5.8,2.6,13.5,2.1,17.5-.2,1.9-2.2,3.6-6,5.5-6,2.9-7,4.8-14.1,5.8-2.9.3-5,.3-5.8-.2ZM136,190.1c-1.5,1.5-1.9,3.6-1.5,6v0c.2.9.3,1.9.5,2.9.7,4.3,2.6,15.4,4.5,16.5c2.4.9,11.7-2.2,19.4-6.9c2.2-1.4,2.4-2.2,2.4-2.2.3-2.7-.3-8.7-2.1-16.5-.3-1.5-1.5-2.7-3.3-2.9-7.2-.7-9.4-1.2-11.7-.9-5.6.8-6.1,1.8-8.2,4Z" fill="#9a9a9a"/></g><path d="M157.4,199.7l3.6-3.4-4.8-1.4c-.3-.2-.7-.3-.9-.5-.5-.5-.7-1.2-.5-1.9.3-1,1.4-1.7,2.4-1.4l4.8,1.4c1.4.3,2.4,1.5,2.7,2.7v0c.3,1.4,0,2.7-1.2,3.8l-3.6,3.4c-.2.2-.5.3-.9.5-.7.2-1.4,0-1.9-.5-.5-.8-.5-2,.3-2.7Z" fill="#2c2c2c"/></g><g><path d="M139.4,319.8l6.9,13.9-12.3,7.7-18.5-1.4c-1.7-2.1,5.8-16.3,7-17.8c1-1.6,14.5-7.2,16.9-2.4Z" fill="#2c2c2c"/><g><path d="M137.5,282.4l6,42.5c0,0-12.2-2.7-21.1,8.7c0,0-6.3.9-6.7-3.9-.3-4.8,4.6-38.6,4.6-38.6s15.9-18.3,17.2-8.7Z" fill="#d9d9d7"/><path d="M116.1,333.5c-1-.9-1.7-2.2-1.9-3.8-.3-4.8,4.5-37.6,4.6-38.9v-.3l.3-.3c1.9-2.2,11.8-13.2,17-11.8c1,.3,2.4,1.2,2.7,3.8l6.2,44.4-1.9-.3c-.2,0-11.3-2.4-19.9,8.2l-.3.3h-.5c-.2,0-.7,0-1.4,0-1.3.3-3.4-.1-4.9-1.3ZM142,323.2l-5.7-40.8c-.2-.7-.3-1.4-.9-1.5-2.2-.7-8.7,5-13.9,10.6-1.7,11.8-4.8,34.3-4.6,37.9c0,.9.3,1.4.9,1.7c1,.9,2.7.9,3.8.9c7.4-8.6,16.5-9,20.4-8.8Z" fill="#9a9a9a"/></g><g><path d="M132.1,287.5c.7,6.3,3.9,11.1,7.5,10.8c3.4-.3,5.7-5.8,5.1-12.2-.7-6.3-3.9-11.1-7.5-10.8-3.6.6-5.8,6.1-5.1,12.2Z" fill="#d9d9d7"/><path d="M133.6,296.3c-1.5-2.2-2.6-5.3-2.9-8.6-.7-7.2,2.1-13.2,6.3-13.5c4.3-.5,8.2,4.8,8.9,12c.3,3.3,0,6.5-1,8.9-1.2,2.7-2.9,4.5-5.1,4.6-.2,0-.3,0-.5,0-2.1,0-4.2-1.2-5.7-3.4Zm3.6-19.4c-2.4.2-4.5,4.6-3.9,10.6.3,2.9,1.2,5.5,2.4,7.2c1,1.5,2.4,2.4,3.6,2.2s2.2-1.2,2.9-2.9c.9-2.1,1.2-4.8.9-7.5-.8-5.8-3.5-9.6-5.9-9.6.2,0,.2,0,0,0Z" fill="#9a9a9a"/></g><path d="M138.2,282.7l16.8,2.7-15.3,5.8c.2.3-4.2-1.3-1.5-8.5Z" fill="#9a9a9a"/><g><path d="M156.2,335.2c0,0-7.9-7.5-14.9-6-7.2,1.5-11.8,6.5-13,9.6-1.4,3.1,39.6,4.7,27.9-3.6Z" fill="#d9d9d7"/><path d="M128.1,340.9c-1.7-.9-1.4-2.2-1.2-2.4c1.2-3.1,6.2-8.7,14.1-10.5c7.4-1.5,15.3,5.5,16.1,6.2c3.1,2.1,2.9,3.9,2.2,5-1.5,2.6-8.6,3.4-15.8,3.4-6.6,0-13.3-.9-15.4-1.7Zm28.8-2.9c0,0-.2-.5-1.5-1.5l-.2-.2c0,0-7.4-7-13.7-5.7-5.8,1.2-10.1,5.1-11.7,8.1c3.4,1.2,17.7,2.1,24.7.3c2.1-.5,2.4-1,2.4-1v0Z" fill="#9a9a9a"/></g></g><g id="eKRyauxJhos35" transform="translate(.000007 0.000002)"><g><path d="M112.7,257.4L228,224.5l1.7,5.8-150.1,43c-3.9,1.2-8.2-1.2-9.3-5.1v0c-1.2-3.9,1.2-8.2,5.1-9.3l7-2.1c2.2-.7,4.8-.7,7,.2v0c7.5,2.4,15.7,2.6,23.3.4Z" fill="#474746"/><path d="M181.1,238.1c-2.9-10.3-11.1-17.7-20.8-20.1c6.3-9.9,16.1-17.8,28.3-21.3c10.3-2.9,20.8-2.4,30.2.9-12.5,6-19,20.2-15.1,34c4.5,15.3,20.4,24.2,35.7,19.7c5.1-1.5,9.6-4.3,13-7.9.7,22.1-13.7,42.9-36,49.2-20.9,6-42.5-2.2-54.5-19c14.9-4.4,23.5-20.2,19.2-35.5Z" fill="#2c2c2c"/><polygon points="203.6,240.4 196,230.4 192.8,231.5 199.8,241.4" fill="#e3bc35"/><polygon points="197.1,239.3 195,236.8 192.3,242.8 194.8,242.1" fill="#2c2c2c"/><polygon points="200.1,234.4 198.3,231.6 200.8,230.3" fill="#85722b"/><polygon points="190.2,242.6 185.7,234.7 182.8,235.6 188,244" fill="#e3bc35"/><polygon points="189.2,238.5 189.5,233.5 187.3,234.7" fill="#85722b"/><path d="M248.7,253.1c0,0-25.9,13.9-41.2-5c0,0,.2,5.8-3.4,7.7c0,0,1.4-5.1-3.9-5.5-5.1-.3-11,.2-10.8,3.1s3.9,4.5,5.7,3.6c0,0-2.7,3.9-7.7,1.4c0,0-7.2,16-19.6,18.2c0,0,11.3,11.7,28.8,14.1l3.3-12.7-1.4,12.2l3.6.3l1.2-4.8.5,6.2c.1-.1,37.9-2.6,44.9-38.8Z" fill="#9a9a9a"/><path d="M198.4,222.4c0,0-.5-13.4,7.9-22.1c0,0-21.4-4.3-37.9,14.8c0,0,9.8,5.5,13,16.3c0,0,4.1-5.5.2-9.1c0,0,6.2,0,5.1,6.2l6.2-1.7c0,0-2.6-5.7,2.6-8.2c0,0-2.7,5.3,1.2,7.2c3.8,1.5,1.7-3.4,1.7-3.4Z" fill="#9a9a9a"/><polygon points="247.5,221.9 230.8,233.7 224.7,228.4 227.1,220.7" fill="#474746"/><path d="M244.4,258.2c0,0-4.1,16.1-17.2,22.8l-5-11.8l2.2,13.2c0,0-9.6,5.1-15.3,6l-3.4-11.1-.2,8.1-2.7-2.2-1.2,1.7-1-11.8-7.4,14.6c0,0-9.9-.5-19-9.1c0,0,12.5-6.9,14.6-15.4c0,0,4.8,3.1,7.9-.5s-1.9-8.6-1.9-8.6s7.4,1.2,7,5.7c0,0,4.1,12,8.9,9.9s3.1-9.8-.7-8.6c0,0,3.9-4.3,8.1,2.1c4.1,6.3,10.6,4.1,12.5.5.1-.2,9.7-.5,13.8-5.5Z" fill="#d9d9d7"/><path d="M196.2,210.9c0,0,1.5-6.9,5-8.9c0,0-13.9-1.2-29.2,12.3c0,0,2.4,1.2,5,4.3.2,0,10.1-7.9,19.2-7.7Z" fill="#d9d9d7"/></g><g><path d="M117.5,240.4c-.3-.9-10.3-22-5-41.8c5.7-21.3,24.4-24,25.6-24.4l2.2,10.5-1.2-5.3l1.2,5.3c-.2,0-13.4,1.7-17.3,16.5-4.3,16.1,4.3,34.3,4.3,34.5l-9.8,4.7Z" fill="#2c2c2c"/><g><g><path d="M139.1,170.9l2.7,10.6c1.4,5.1-2.4,10.1-7.7,10.3-10.3.3-25.4.2-30.5-3.8c0,0,5-14.1,29.8-20.6c2.6-.4,5,1.1,5.7,3.5Z" fill="#d9d9d7"/><path d="M124.5,193.4c-8.9-.2-17.7-1.2-21.6-4.1l-.9-.5.3-.9c.2-.7,5.5-14.9,30.9-21.4c1.5-.3,3.1-.2,4.5.7s2.4,2.1,2.7,3.6l2.7,10.6c.7,2.9.2,5.8-1.5,8.2s-4.5,3.8-7.4,3.8c-3,0-6.4.2-9.7,0Zm-19.2-5.7c4.3,2.4,14.4,3.4,28.8,2.9c2.1,0,4.1-1,5.3-2.7s1.7-3.8,1.2-5.8l-2.7-10.6c-.2-.9-.7-1.5-1.5-2.1-.7-.5-1.7-.5-2.4-.3-20.3,5.1-27,15.5-28.7,18.6Z" fill="#9a9a9a"/></g><path d="M128.8,173.7c.5.9-2.2,3.3-6,5.3-3.8,2.1-7.2,3.1-7.7,2.2s2.2-3.3,6-5.3c3.7-2.1,7.2-3.1,7.7-2.2Z" fill="#fcffff"/><path d="M136.5,186.3c0,1.5-1.2,2.7-2.7,2.6-1.5-.2-2.7-1.2-2.6-2.7c0-1.5,1.2-2.7,2.7-2.6c1.4,0,2.6,1.4,2.6,2.7Z" fill="#2c2c2c"/></g><g><g><g><path d="M128.6,244c0,0,7,.2,9.1,1.2s3.9,5.8,3.9,6.9-1.7,2.4-3.4,1.9c0,0,2.1,3.8,1.9,5s-1.7,3.8-4.5,3.1c-1.5-.3-4.5,1-5.8,1.9-.9.5-3.4-.3-5.1-1-.9-.3-1.5-1-1.7-1.7-.9-2.2-2.7-7-3.4-9.1-1.1-3.2,3.4-8.6,9-8.2Z" fill="#e3bc35"/><path d="M138.9,262.8c-1,.7-2.4.7-3.6.3-.5-.2-2.4.3-4.8,1.7-.7.3-2.1.7-6.2-.9-1.2-.5-2.1-1.4-2.6-2.6-.9-2.1-2.6-6.9-3.4-9.1-.5-1.5-.2-3.4,1.4-5.3c1.7-2.2,5-4.6,9.1-4.3c1.4,0,7.5.2,9.6,1.4c2.6,1.4,4.6,6.5,4.6,8.1c0,.9-.5,1.9-1.4,2.6-.3.3-.9.5-1.2.7.7,1.4,1.2,2.9,1,3.9s-.9,2.6-2.2,3.6c-.1-.2-.1-.2-.3-.1Zm-9.6-.3c1.7-1,4.8-2.4,6.7-1.9.7.2,1.2.2,1.7-.2.7-.5,1-1.4,1.2-1.7c0-.5-.9-2.4-1.7-4.1l-1.5-3.1l3.3,1c.3.2.7,0,1-.2s.5-.5.5-.5c0-.9-1.7-5-3.3-5.7-1.2-.7-5.7-1-8.4-1v0c-3.1-.2-5.7,1.5-6.9,3.3-.9,1.2-1,2.2-.9,2.7.9,2.1,2.7,7,3.4,9.1.2.5.5.9,1,1c2.4,1.1,3.6,1.3,3.9,1.3Z" fill="#85722b"/></g><path d="M137,256.2c.5.9.2,2.1-.7,2.4s-2.1.2-2.4-.7-.2-2.1.7-2.4s1.9-.2,2.4.7Z" fill="#85722b"/><path d="M132.6,256.7c.5.9.2,2.1-.7,2.4-.9.5-2.1.2-2.4-.7s-.2-2.1.7-2.4c.8-.5,1.9-.2,2.4.7Z" fill="#85722b"/><path d="M128.5,258.6c.5.9.2,2.1-.7,2.4-.9.5-2.1.2-2.4-.7-.5-.9-.2-2.1.7-2.4.8-.4,1.8-.4,2.4.7Z" fill="#85722b"/></g><g><g><path d="M124,214.5c0,0,7.2,12.9,7,26.9c0,0-.2,6.2-5.1,6.5c0,0-10.3-23.8-10.3-32.1-.2,0,2.4-1.7,8.4-1.3Z" fill="#d9d9d7"/><path d="M125,249.3l-.3-.9c-.3-1-10.5-24.2-10.5-32.6v-.7l.5-.3c.3-.2,3.1-2.1,9.4-1.7h.7l.3.7c.3.5,7.4,13.4,7.2,27.6c0,2.6-1.4,7.4-6.3,7.9h-1Zm-8.2-32.6c.5,7.5,7.9,25.4,9.8,29.7c2.9-.9,2.9-4.8,2.9-5c.2-11.8-5-22.8-6.5-25.6-3.1-.1-5.2.4-6.2.9Z" fill="#9a9a9a"/></g><g><path d="M107.4,210.4c0,0,7.7,2.2,9.4,5.5s9.1,31.9,9.1,31.9l-7.9,1.7c0,.1-13.6-13.6-10.6-39.1Z" fill="#d9d9d7"/><path d="M117.5,251.2l-.5-.5c-.5-.5-13.9-14.6-11-40.3l.2-1.5l1.5.5c.9.2,8.4,2.6,10.3,6.2c1.7,3.3,8.4,29.2,9.3,32.2l.3,1.4-10.1,2Zm-8.9-39c-1.7,20.8,7.5,33.3,9.9,35.8l5.8-1.4c-2.2-8.7-7.4-27.8-8.6-30.4-1-1.2-4.4-2.9-7.1-4Z" fill="#9a9a9a"/></g><g><path d="M112.3,213.4c-.7,6.3-4.1,11.1-7.5,10.6-3.4-.3-5.7-5.8-5-12.2.7-6.3,4.1-11.1,7.5-10.6c3.7.4,5.9,5.9,5,12.2Z" fill="#d9d9d7"/><path d="M105.1,225.5c-.2,0-.3,0-.5,0-2.2-.2-3.9-1.9-5.1-4.6-1-2.6-1.4-5.7-1-8.9.9-7.2,4.8-12.3,9.1-11.8s7,6.5,6.2,13.7v0c-.3,3.3-1.4,6.3-2.9,8.6-1.8,1.8-3.7,3-5.8,3Zm1.9-22.9c-2.2,0-5.1,3.8-5.8,9.6-.3,2.7,0,5.5.9,7.5.7,1.7,1.9,2.9,2.9,3.1c1.2.2,2.4-.7,3.6-2.2c1.4-1.9,2.2-4.5,2.6-7.2.7-6-1.4-10.5-3.8-10.6-.2-.2-.2-.2-.4-.2Z" fill="#9a9a9a"/></g><g><path d="M125.5,227.3c-.2,0-.3,0-.5,0l-9.6-1.9c-.7-.2-1-.7-.9-1.4.2-.7.7-1,1.4-.9l9.6,1.9c.7.2,1,.7.9,1.4-.2.4-.5.8-.9.9Z" fill="#9a9a9a"/><path d="M124.7,221.9c0,.2-.2.3-.2.5l-6.3,7.4c-.3.5-1.2.5-1.5.2-.5-.3-.5-1.2-.2-1.5l6.3-7.4c.3-.5,1.2-.5,1.5-.2.4.3.4.6.4,1Z" fill="#9a9a9a"/></g><g><path d="M128.1,239c-.2,0-.3,0-.5,0l-9.6-1.9c-.7-.2-1-.7-.9-1.4.2-.7.7-1,1.4-.9l9.6,1.9c.7.2,1,.7.9,1.4-.2.4-.4.7-.9.9Z" fill="#9a9a9a"/><path d="M127.4,233.5c0,.2-.2.3-.2.5l-6.3,7.4c-.3.5-1.2.5-1.5.2-.5-.3-.5-1.2-.2-1.5l6.3-7.4c.3-.5,1.2-.5,1.5-.2.3.2.4.7.4,1Z" fill="#9a9a9a"/></g><path d="M106.2,208.5L89.3,211l15.1,6c0,0,4.5-1.3,1.8-8.5Z" fill="#9a9a9a"/></g></g></g></g></g><g id="eKRyauxJhos82" transform="matrix(0 0 0 0 126.031879 128.479641)"><path d="M157.4,133.5l-.5-14.2c0,0-8.6-11.3-23.5-9.4-.2,0-.3,0-.5,0-10.8,1.5-21.8,9.8-23.2,19.9L108,148.3c-1.7,9.6,7,16.5,11.7,17.8c13,3.8,38.2,11.3,41.2,9.3.3,0-1.4-31.6-3.5-41.9Z" fill="#d9d9d7"/><path d="M159.2,176.2c-5.8,0-20.4-4.1-36.2-8.7l-3.1-.9c-5-1.4-13.7-8.4-12-18.4l1.7-18.4c1.4-10.8,13.2-18.9,23.5-20.4h.5c14.9-1.9,23.8,9.4,23.8,9.6v.2.2l.5,14.2c2.1,10.1,3.8,41.5,3.8,41.8v.2l-.2.2c-.5.3-1.1.4-2.3.4Zm-22.3-66c-1,0-2.1,0-3.3.2h-.5c-9.9,1.4-21.4,9.3-22.8,19.6l-1.7,18.4c-1.5,9.4,6.9,16,11.5,17.3l3.1.9c12,3.4,34.3,9.9,37.6,8.4-.2-3.1-1.9-31.9-3.8-41.5v0l-.5-14.2c-.8-.9-8-9.1-19.6-9.1Z" fill="#2c2c2c"/><path d="M161,174.2c0,0-29.5-4.1-38.4-8.2-8.9-4.3-7.2-7.9-7.2-7.9s-4.1,3.9-2.2,6c1.4,1.4,7.7,4.1,14.8,5.8c14.4,3.8,33.4,7.4,33.4,7.4l-.4-3.1Z" fill="#9a9a9a"/><g><g><path d="M122.6,104.9c0,0-1-6.7,3.6-10.1s8.6-13.5,5.3-18.4c-3.3-4.6-12.2-9.8-14.1-6.5-2.1,3.3.3,7,2.9,7.7c0,0-3.9-1.5-5.5,2.7c0,0-4.1-5.8-8.4-4.5-4.1,1.4-.5,6.3-.5,6.3s-10.6-9.6-16.8-5.7-6.9,10.3-3.1,13.5c3.9,3.3,9.9,2.1,9.9,2.1s-11.1,5.1-9.4,10.6c1.7,5.7,6.2,8.7,9.1,5.8c0,0-5.3,2.9-2.4,6.3s5.8.3,5.8.3-.2,7.4,3.9,5.3c3.8-2.1.5-6.5.5-6.5s2.4-3.8,5.1-4.6s3.6,3.6,4.3,4.8c.2,0,9.1-5.9,9.8-9.1Z" fill="#ca152a"/></g><path d="M121.4,103.7c0,0-.7-4.6,1.2-6.5c1.7-1.9,6.9-7.9,8.1-11c1.2-2.9-.7-9.9-3.9-12.2-3.3-2.1-5,2.9-3.8,5.3c0,0-3.6.5-3.6,2.7-.2,2.4,2.6,4.3,2.6,4.3s-3.9.2-4.8,2.7c-.7,2.6.7,4.8,1.7,5s-2.7,4.6-2.1,6c.7,1.6,2.9,4,4.6,3.7Z" fill="#fd3852"/><path d="M113.9,92.2c0,0,.7-8.1-2.4-8.4s-3.9,2.6-3.1,3.8c0,0-3.4-4.3-5.8-2.4-2.6,2.1-3.4,4.8-1.4,5.3c0,0-3.4,2.4-2.2,3.8s2.6,2.4,3.9,2.1c0,0-.9,3.3,1.4,3.1c2.2-.2,4.6-3.9,3.3-5.5-.1-.1,3-5.8,6.3-1.8Z" fill="#fd3852"/><path d="M98.3,82.1c0,0-3.1-3.1-5.5-1.4s-3.8,3.8-2.4,5.3c1.5,1.5,5.7,2.7,5.7,2.7s-3-1.7-2.5-3.7c.9-1.9,4.7-2.9,4.7-2.9Z" transform="translate(0 0.000001)" fill="#fd3852"/><path d="M96.7,99.7c0,0-2.7,2.1-2.6,3.3c0,1.2.9,2.7,1.7,2.9.9.2,2.1.2,2.7-.3.9-.5,1.7-2.7,1.7-2.7s-3.4.9-3.6-.2c-.1-.9.1-3,.1-3Z" fill="#fd3852"/><g><path d="M112.2,113.8c.9,1.2,4.3,0,8.1-2.6c3.6-2.6,6-5.7,5.1-6.7s-4.5,0-8.1,2.6c-3.8,2.4-6,5.5-5.1,6.7Z" fill="#85722b"/><polygon points="118.7,124.3 132.1,114.7 125.2,104.4 112,113.6" fill="#85722b"/></g><g><path d="M113,113.5c.7,1,3.9,0,7.2-2.2s5.3-5,4.5-6c-.7-1-3.9,0-7.2,2.4-3.3,2.3-5.2,4.7-4.5,5.8Z" fill="#e3bc35"/><polygon points="119.2,123.4 131,115 124.5,105 112.8,113.3" fill="#e3bc35"/></g></g><path d="M156.4,140.4l-.9-16.8c0,0-6.2-11.1-20.1-9.4-.2,0-2.4.2-2.6.3-10.1,1.4-19,11.5-19.4,21.8l-.9,15.3c-1.5,9.6,5.1,12.9,9.6,14.2c12.3,3.9,36,11.7,38.6,9.4.5.2-2.2-24.5-4.3-34.8Z" fill="#d9d9d7"/><g><path d="M155.6,159.4v0v0v0v0v0v0c-.2.2-.2.2-.3.2v0h-.3-.2c-.2,0-.3-.2-.3-.2l-.2-.2c-.2-.2-.2-.2-.2-.3s0-.3,0-.5s0-.2,0-.2c0-.2.2-.3.2-.5v0c.2-.3.5-.5.7-.5v0c.2,0,.2,0,.2,0h.2v0h.2v0v0v0c.3.2.5.7.5,1c0,.5-.2.9-.5,1.2Z" fill="#2c2c2c"/><path d="M150.9,156.2v0c.2,0,.2,0,.2,0h.2v0h.2v0v0v0c.3.2.5.5.5.9c0,.3-.2.9-.5,1v0v0v0v0v0v0h-.2v0h-.2c-.5,0-.9-.5-.9-1c0-.2,0-.5.2-.7c0-.1.3-.2.5-.2Z" fill="#2c2c2c"/><path d="M147.3,155.3v0v0c.2,0,.3,0,.3,0v0c0,0,0,0,.2,0v0v0c.2.2.3.5.3.9c0,.3-.2.7-.5.9v0v0v0v0v0c0,0,0,0-.2,0v0h-.2c-.3,0-.7-.3-.7-.9c0-.2,0-.3.2-.5.3-.2.4-.4.6-.4Z" fill="#2c2c2c"/><path d="M143.7,154.6c.2-.2.3-.3.5-.3v0h.2.2v0c0,0,0,0,.2,0v0v0c.2.2.3.3.2.7s-.2.5-.5.7v0v0v0v0v0c0,0,0,0-.2,0v0h-.2c-.3,0-.7-.3-.5-.9-.1.2.1,0,.1-.2Z" fill="#2c2c2c"/><path d="M140.8,154.3c0-.2.2-.3.2-.3.2-.2.3-.2.3-.3v0h.2.2v0v0v0v0c.2.2.2.3.2.5s-.2.5-.5.5v0v0v0v0v0c0,0,0,0-.2,0v0h-.2c0,.3-.2-.1-.2-.4Z" fill="#2c2c2c"/><path d="M155.7,162.9v0v0v0v0c0,.1,0,.1,0,0-.2.2-.2.2-.3.2v0h-.2c-.5,0-1-.5-1-1.2c0-.3,0-.5.2-.7.2-.3.3-.5.5-.5v0c.2,0,.2,0,.2,0h.2v0h.2v0v0v0c.3.2.5.5.5,1c.2.5.1,1-.3,1.2v0Z" fill="#2c2c2c"/><path d="M151.6,161.6v0v0v0v0c0,.2,0,.2,0,0c0,.2,0,.2,0,0-.2.2-.2.2-.2.2v0h-.2c-.5,0-.9-.5-.9-1c0-.2,0-.5.2-.7.2-.3.3-.3.5-.5v0c.2,0,.2,0,.2,0h.2v0h.2v0v0v0c.3.2.5.5.5.9c0,.6-.2,1-.5,1.1Z" fill="#2c2c2c"/><path d="M147.5,158.9v0c0,0,.2-.2,0,0c.2,0,.3,0,.3,0v0c0,0,0,0,.2,0v0v0c.2.2.3.5.3.9s-.2.7-.5.9v0v0v0v0v0c0,0,0,0-.2,0v0h-.2c-.3,0-.7-.3-.7-.9c0-.2,0-.3.2-.5.2-.4.4-.4.6-.4Z" fill="#2c2c2c"/><path d="M144.1,158.2c.2-.2.3-.3.5-.3v0h.2.2v0c0,0,0,0,.2,0v0v0c.2.2.3.3.2.7-.2.3-.2.5-.5.7v0v0v0v0v0c0,0,0,0-.2,0v0h-.2c-.2,0-.2,0-.2,0l-.2-.2c-.2-.2-.2-.3-.2-.5c0,0,0-.2.2-.4Z" fill="#2c2c2c"/><path d="M141.3,157.4c.2-.2.3-.2.3-.3v0h.2c0,0,0,0,.2,0v0v0v0v0c.2.2.2.3.2.5s-.2.5-.5.5v0v0v0v0v0c0,0,0,0-.2,0v0h-.2c-.3,0-.5-.3-.3-.7.1.3.3.1.3,0Z" fill="#2c2c2c"/><path d="M154,165.1c.2-.3.5-.5.7-.5v0c.2,0,.2,0,.2,0h.2v0h.2v0v0v0c.3.2.5.7.5,1.2s-.3.9-.7,1.2v0v0v0v0v0v0h-.2v0h-.2c-.5,0-1-.5-.9-1.4c0,0,0-.2.2-.5Z" fill="#2c2c2c"/><path d="M150.4,163.9c.2-.3.5-.3.7-.5v0c.2,0,.2,0,.2,0h.2v0h.2v0v0v0c.2.2.3.5.3,1c0,.3-.3.9-.7,1v0v0v0v0v0v0h-.2v0h-.2c-.5,0-.9-.5-.7-1.2-.1.2,0-.1.2-.3Z" fill="#2c2c2c"/><path d="M147,162.7c.2-.2.3-.3.5-.3v0c.2,0,.2,0,.2,0h.2v0c0,0,0,0,.2,0v0v0c.2.2.3.5.2.9s-.3.7-.5.9v0v0v0v0v0h-.2v0h-.2c-.3,0-.7-.5-.5-1-.1-.2-.1-.3.1-.5Z" fill="#2c2c2c"/><path d="M144.1,161.8c0-.2.2-.2.2-.3.2-.2.3-.3.5-.3v0h.2.2v0c0,0,0,0,.2,0v0v0c.2.2.2.3.2.7c0,.3-.3.5-.5.7v0v0v0v0v0c0,0,0,0-.2,0v0h-.2c-.6.3-.8-.3-.6-.8v0Z" fill="#2c2c2c"/><path d="M141.7,160.4c.2-.2.3-.2.5-.2v0h.2c0,0,0,0,.2,0v0v0v0v0c.2.2.2.3,0,.7-.2.3-.3.5-.5.5v0v0v0v0v0c0,0,0,0-.2,0v0h-.2c-.3,0-.3-.3-.3-.7.1.1.3-.1.3-.3Z" fill="#2c2c2c"/></g><path d="M160.7,140.7l.9,11.3c0,0-23.7-3.1-25-7-1.4-3.9.5-5.1.5-5.1l23.6.8Z" fill="#2c2c2c"/><g><path d="M140.1,134.4c.7,0,1.2.3,1.2.9c0,.5-.5,1-1,1.2-.7,0-1.2-.3-1.2-.9-.2-.7.3-1.2,1-1.2Z" fill="#fcffff"/><path d="M143.7,134.4c.7,0,1.2.3,1.2.9c0,.5-.5,1-1,1.2-.7,0-1.2-.3-1.2-.9c0-.5.5-1,1-1.2Z" fill="#fcffff"/><path d="M147.5,134.6c.7,0,1.2.3,1.2.9s-.5,1-1,1.2c-.7,0-1.2-.3-1.2-.9c0-.7.3-1.2,1-1.2Z" fill="#fcffff"/><path d="M151.4,134.6c.7,0,1.2.3,1.2.9s-.5,1-1,1.2c-.7,0-1.2-.3-1.2-.9c0-.7.5-1.2,1-1.2Z" fill="#fcffff"/></g><path d="M137.9,146.9c.2-.2.3-.3.5-.5.2-.3.3-1.2.3-3.6c0-.2,0-.2,0-.3v0-.2c-.2-1.9-.3-3.9-.5-4.1l-.5-.5h.9c.2,0,9.9.7,15.8.2l-.7-10.1c-.2-.2-1-1.9-3.9-1.5l-.5.2.2-.5c1.5-2.9,4.8-3.1,6-3.1c0-.9.3-3.4,4.6-5.7h.2v0l2.9,25.9v0c-.2,0-15.4.9-23.8-.3c0,0,0,0,.2,0c10.6,6.3,22.3,7.2,24.2,6.5c0,0,.2,0,.3,0l4.3,38.8h-.2c-4.8-1.2-6.3-3.3-6.9-4.6-.2-.5-.7-.9-1.4-1-.7,0-1.5-.2-2.4-.5-.2,0-.2,0-.3-.2l-.3-.2c-3.1-1.4-3.9-3.4-4.1-3.6c0-.2-.2-.3-.2-.5.2,0,.5.2.7.2c2.9.7,4.1-.3,4.6-1c.2-.2.2-.5.2-.9-.3-5.7-.9-12.2-1.5-19.6c0-.5-.5-1-1.2-1.2-6.2-.9-15.3-5.7-16.1-6.5c0,0-.2-.2-.3-.2-.3-.2-.7-.3-1.2-.7-.3-.4-.1-.5.1-.7Z" fill="#e3bc35"/><g><path d="M134.8,148.8h-1.9c-1.2,0-2.2-.5-3.1-1.4-1.2-1.2-1.9-3.1-1.9-5.1c0-3.4,2.2-6.2,4.8-6.2v.9-.9h1.7c2.7,0,4.8,2.7,5,6.2c0,2.1-.5,3.8-1.7,5.1-.7.9-1.7,1.2-2.6,1.4-.1,0-.3,0-.3,0ZM132.7,138v0c-1.7,0-3.1,2.1-3.1,4.5c0,1.5.5,2.9,1.4,3.8.3.3,1,.9,1.7.9h1.9c.9,0,1.4-.5,1.7-.9.9-.9,1.4-2.2,1.4-3.8c0-2.4-1.5-4.5-3.1-4.5h-1.9v-.9.9Z" fill="#9a9a9a"/><path d="M132.7,137.1v0h1.9c2.2,0,3.9,2.4,4.1,5.3c0,3.1-1.7,5.5-3.9,5.5h-1.9v0v0c-2.2,0-4.1-2.6-3.9-5.5-.2-2.9,1.7-5.3,3.7-5.3Z" fill="#d9d9d7"/><path d="M131.9,139.2c1.4,0,2.4,1.4,2.4,3.3s-1,3.3-2.4,3.3-2.4-1.5-2.4-3.3s1-3.3,2.4-3.3Z" fill="#2c2c2c"/></g></g></g>
<script><![CDATA[
!function(t,n){"object"==typeof exports&&"undefined"!=typeof module?module.exports=n():"function"==typeof __SVGATOR_DEFINE__&&__SVGATOR_DEFINE__.amd?__SVGATOR_DEFINE__(n):((t="undefined"!=typeof globalThis?globalThis:t||self).__SVGATOR_PLAYER__=t.__SVGATOR_PLAYER__||{},t.__SVGATOR_PLAYER__["5c7f360c"]=n())}(this,(function(){"use strict";function t(t,n){var e=Object.keys(t);if(Object.getOwnPropertySymbols){var r=Object.getOwnPropertySymbols(t);n&&(r=r.filter((function(n){return Object.getOwnPropertyDescriptor(t,n).enumerable}))),e.push.apply(e,r)}return e}function n(n){for(var e=1;e<arguments.length;e++){var r=null!=arguments[e]?arguments[e]:{};e%2?t(Object(r),!0).forEach((function(t){u(n,t,r[t])})):Object.getOwnPropertyDescriptors?Object.defineProperties(n,Object.getOwnPropertyDescriptors(r)):t(Object(r)).forEach((function(t){Object.defineProperty(n,t,Object.getOwnPropertyDescriptor(r,t))}))}return n}function e(t){return(e="function"==typeof Symbol&&"symbol"==typeof Symbol.iterator?function(t){return typeof t}:function(t){return t&&"function"==typeof Symbol&&t.constructor===Symbol&&t!==Symbol.prototype?"symbol":typeof t})(t)}function r(t,n){if(!(t instanceof n))throw new TypeError("Cannot call a class as a function")}function i(t,n){for(var e=0;e<n.length;e++){var r=n[e];r.enumerable=r.enumerable||!1,r.configurable=!0,"value"in r&&(r.writable=!0),Object.defineProperty(t,r.key,r)}}function o(t,n,e){return n&&i(t.prototype,n),e&&i(t,e),t}function u(t,n,e){return n in t?Object.defineProperty(t,n,{value:e,enumerable:!0,configurable:!0,writable:!0}):t[n]=e,t}function a(t){return(a=Object.setPrototypeOf?Object.getPrototypeOf:function(t){return t.__proto__||Object.getPrototypeOf(t)})(t)}function l(t,n){return(l=Object.setPrototypeOf||function(t,n){return t.__proto__=n,t})(t,n)}function s(){if("undefined"==typeof Reflect||!Reflect.construct)return!1;if(Reflect.construct.sham)return!1;if("function"==typeof Proxy)return!0;try{return Boolean.prototype.valueOf.call(Reflect.construct(Boolean,[],(function(){}))),!0}catch(t){return!1}}function f(t,n,e){return(f=s()?Reflect.construct:function(t,n,e){var r=[null];r.push.apply(r,n);var i=new(Function.bind.apply(t,r));return e&&l(i,e.prototype),i}).apply(null,arguments)}function c(t,n){if(n&&("object"==typeof n||"function"==typeof n))return n;if(void 0!==n)throw new TypeError("Derived constructors may only return object or undefined");return function(t){if(void 0===t)throw new ReferenceError("this hasn't been initialised - super() hasn't been called");return t}(t)}function h(t,n,e){return(h="undefined"!=typeof Reflect&&Reflect.get?Reflect.get:function(t,n,e){var r=function(t,n){for(;!Object.prototype.hasOwnProperty.call(t,n)&&null!==(t=a(t)););return t}(t,n);if(r){var i=Object.getOwnPropertyDescriptor(r,n);return i.get?i.get.call(e):i.value}})(t,n,e||t)}function v(t){return function(t){if(Array.isArray(t))return y(t)}(t)||function(t){if("undefined"!=typeof Symbol&&null!=t[Symbol.iterator]||null!=t["@@iterator"])return Array.from(t)}(t)||function(t,n){if(!t)return;if("string"==typeof t)return y(t,n);var e=Object.prototype.toString.call(t).slice(8,-1);"Object"===e&&t.constructor&&(e=t.constructor.name);if("Map"===e||"Set"===e)return Array.from(t);if("Arguments"===e||/^(?:Ui|I)nt(?:8|16|32)(?:Clamped)?Array$/.test(e))return y(t,n)}(t)||function(){throw new TypeError("Invalid attempt to spread non-iterable instance.\nIn order to be iterable, non-array objects must have a [Symbol.iterator]() method.")}()}function y(t,n){(null==n||n>t.length)&&(n=t.length);for(var e=0,r=new Array(n);e<n;e++)r[e]=t[e];return r}function g(t,n,e){if(Number.isInteger(t))return t;var r=Math.pow(10,n);return Math[e]((+t+Number.EPSILON)*r)/r}Number.isInteger||(Number.isInteger=function(t){return"number"==typeof t&&isFinite(t)&&Math.floor(t)===t}),Number.EPSILON||(Number.EPSILON=2220446049250313e-31);var d=p(Math.pow(10,-6));function p(t){var n=arguments.length>1&&void 0!==arguments[1]?arguments[1]:6;return g(t,n,"round")}function m(t,n){var e=arguments.length>2&&void 0!==arguments[2]?arguments[2]:d;return Math.abs(t-n)<e}p(Math.pow(10,-2)),p(Math.pow(10,-4));var b=Math.PI/180;function w(t){return t}function A(t,n,e){var r=1-e;return 3*e*r*(t*r+n*e)+e*e*e}function _(){var t=arguments.length>0&&void 0!==arguments[0]?arguments[0]:0,n=arguments.length>1&&void 0!==arguments[1]?arguments[1]:0,e=arguments.length>2&&void 0!==arguments[2]?arguments[2]:1,r=arguments.length>3&&void 0!==arguments[3]?arguments[3]:1;return t<0||t>1||e<0||e>1?null:m(t,n)&&m(e,r)?w:function(i){if(i<=0)return t>0?i*n/t:0===n&&e>0?i*r/e:0;if(i>=1)return e<1?1+(i-1)*(r-1)/(e-1):1===e&&t<1?1+(i-1)*(n-1)/(t-1):1;for(var o,u=0,a=1;u<a;){var l=A(t,e,o=(u+a)/2);if(m(i,l))break;l<i?u=o:a=o}return A(n,r,o)}}function x(){return 1}function k(t){return 1===t?1:0}function S(){var t=arguments.length>0&&void 0!==arguments[0]?arguments[0]:1,n=arguments.length>1&&void 0!==arguments[1]?arguments[1]:0;if(1===t){if(0===n)return k;if(1===n)return x}var e=1/t;return function(t){return t>=1?1:(t+=n*e)-t%e}}var O=Math.sin,j=Math.cos,M=Math.acos,E=Math.asin,P=Math.tan,I=Math.atan2,R=Math.PI/180,F=180/Math.PI,N=Math.sqrt,T=function(){function t(){var n=arguments.length>0&&void 0!==arguments[0]?arguments[0]:1,e=arguments.length>1&&void 0!==arguments[1]?arguments[1]:0,i=arguments.length>2&&void 0!==arguments[2]?arguments[2]:0,o=arguments.length>3&&void 0!==arguments[3]?arguments[3]:1,u=arguments.length>4&&void 0!==arguments[4]?arguments[4]:0,a=arguments.length>5&&void 0!==arguments[5]?arguments[5]:0;r(this,t),this.m=[n,e,i,o,u,a],this.i=null,this.w=null,this.s=null}return o(t,[{key:"determinant",get:function(){var t=this.m;return t[0]*t[3]-t[1]*t[2]}},{key:"isIdentity",get:function(){if(null===this.i){var t=this.m;this.i=1===t[0]&&0===t[1]&&0===t[2]&&1===t[3]&&0===t[4]&&0===t[5]}return this.i}},{key:"point",value:function(t,n){var e=this.m;return{x:e[0]*t+e[2]*n+e[4],y:e[1]*t+e[3]*n+e[5]}}},{key:"translateSelf",value:function(){var t=arguments.length>0&&void 0!==arguments[0]?arguments[0]:0,n=arguments.length>1&&void 0!==arguments[1]?arguments[1]:0;if(!t&&!n)return this;var e=this.m;return e[4]+=e[0]*t+e[2]*n,e[5]+=e[1]*t+e[3]*n,this.w=this.s=this.i=null,this}},{key:"rotateSelf",value:function(){var t=arguments.length>0&&void 0!==arguments[0]?arguments[0]:0;if(t%=360){var n=O(t*=R),e=j(t),r=this.m,i=r[0],o=r[1];r[0]=i*e+r[2]*n,r[1]=o*e+r[3]*n,r[2]=r[2]*e-i*n,r[3]=r[3]*e-o*n,this.w=this.s=this.i=null}return this}},{key:"scaleSelf",value:function(){var t=arguments.length>0&&void 0!==arguments[0]?arguments[0]:1,n=arguments.length>1&&void 0!==arguments[1]?arguments[1]:1;if(1!==t||1!==n){var e=this.m;e[0]*=t,e[1]*=t,e[2]*=n,e[3]*=n,this.w=this.s=this.i=null}return this}},{key:"skewSelf",value:function(t,n){if(n%=360,(t%=360)||n){var e=this.m,r=e[0],i=e[1],o=e[2],u=e[3];t&&(t=P(t*R),e[2]+=r*t,e[3]+=i*t),n&&(n=P(n*R),e[0]+=o*n,e[1]+=u*n),this.w=this.s=this.i=null}return this}},{key:"resetSelf",value:function(){var t=arguments.length>0&&void 0!==arguments[0]?arguments[0]:1,n=arguments.length>1&&void 0!==arguments[1]?arguments[1]:0,e=arguments.length>2&&void 0!==arguments[2]?arguments[2]:0,r=arguments.length>3&&void 0!==arguments[3]?arguments[3]:1,i=arguments.length>4&&void 0!==arguments[4]?arguments[4]:0,o=arguments.length>5&&void 0!==arguments[5]?arguments[5]:0,u=this.m;return u[0]=t,u[1]=n,u[2]=e,u[3]=r,u[4]=i,u[5]=o,this.w=this.s=this.i=null,this}},{key:"recomposeSelf",value:function(){var t=arguments.length>0&&void 0!==arguments[0]?arguments[0]:null,n=arguments.length>1&&void 0!==arguments[1]?arguments[1]:null,e=arguments.length>2&&void 0!==arguments[2]?arguments[2]:null,r=arguments.length>3&&void 0!==arguments[3]?arguments[3]:null,i=arguments.length>4&&void 0!==arguments[4]?arguments[4]:null;return this.isIdentity||this.resetSelf(),t&&(t.x||t.y)&&this.translateSelf(t.x,t.y),n&&this.rotateSelf(n),e&&(e.x&&this.skewSelf(e.x,0),e.y&&this.skewSelf(0,e.y)),!r||1===r.x&&1===r.y||this.scaleSelf(r.x,r.y),i&&(i.x||i.y)&&this.translateSelf(i.x,i.y),this}},{key:"decompose",value:function(){var t=arguments.length>0&&void 0!==arguments[0]?arguments[0]:0,n=arguments.length>1&&void 0!==arguments[1]?arguments[1]:0,e=this.m,r=e[0]*e[0]+e[1]*e[1],i=[[e[0],e[1]],[e[2],e[3]]],o=N(r);if(0===o)return{origin:{x:p(e[4]),y:p(e[5])},translate:{x:p(t),y:p(n)},scale:{x:0,y:0},skew:{x:0,y:0},rotate:0};i[0][0]/=o,i[0][1]/=o;var u=e[0]*e[3]-e[1]*e[2]<0;u&&(o=-o);var a=i[0][0]*i[1][0]+i[0][1]*i[1][1];i[1][0]-=i[0][0]*a,i[1][1]-=i[0][1]*a;var l=N(i[1][0]*i[1][0]+i[1][1]*i[1][1]);if(0===l)return{origin:{x:p(e[4]),y:p(e[5])},translate:{x:p(t),y:p(n)},scale:{x:p(o),y:0},skew:{x:0,y:0},rotate:0};i[1][0]/=l,i[1][1]/=l,a/=l;var s=0;return i[1][1]<0?(s=M(i[1][1])*F,i[0][1]<0&&(s=360-s)):s=E(i[0][1])*F,u&&(s=-s),a=I(a,N(i[0][0]*i[0][0]+i[0][1]*i[0][1]))*F,u&&(a=-a),{origin:{x:p(e[4]),y:p(e[5])},translate:{x:p(t),y:p(n)},scale:{x:p(o),y:p(l)},skew:{x:p(a),y:0},rotate:p(s)}}},{key:"clone",value:function(){var t=this.m;return new this.constructor(t[0],t[1],t[2],t[3],t[4],t[5])}},{key:"toString",value:function(){var t=arguments.length>0&&void 0!==arguments[0]?arguments[0]:" ";if(null===this.s){var n=this.m.map((function(t){return p(t)}));1===n[0]&&0===n[1]&&0===n[2]&&1===n[3]?this.s="translate("+n[4]+t+n[5]+")":this.s="matrix("+n.join(t)+")"}return this.s}}],[{key:"create",value:function(t){return t?Array.isArray(t)?f(this,v(t)):t instanceof this?t.clone():(new this).recomposeSelf(t.origin,t.rotate,t.skew,t.scale,t.translate):new this}}]),t}();function q(t,n,e){return t>=.5?e:n}function B(t,n,e){return 0===t||n===e?n:t*(e-n)+n}function D(t,n,e){var r=B(t,n,e);return r<=0?0:r}function L(t,n,e){var r=B(t,n,e);return r<=0?0:r>=1?1:r}function C(t,n,e){return 0===t?n:1===t?e:{x:B(t,n.x,e.x),y:B(t,n.y,e.y)}}function V(t,n,e){var r=function(t,n,e){return Math.round(B(t,n,e))}(t,n,e);return r<=0?0:r>=255?255:r}function G(t,n,e){return 0===t?n:1===t?e:{r:V(t,n.r,e.r),g:V(t,n.g,e.g),b:V(t,n.b,e.b),a:B(t,null==n.a?1:n.a,null==e.a?1:e.a)}}function z(t,n){for(var e=[],r=0;r<t;r++)e.push(n);return e}function Y(t,n){if(--n<=0)return t;var e=(t=Object.assign([],t)).length;do{for(var r=0;r<e;r++)t.push(t[r])}while(--n>0);return t}var $,U=function(){function t(n){r(this,t),this.list=n,this.length=n.length}return o(t,[{key:"setAttribute",value:function(t,n){for(var e=this.list,r=0;r<this.length;r++)e[r].setAttribute(t,n)}},{key:"removeAttribute",value:function(t){for(var n=this.list,e=0;e<this.length;e++)n[e].removeAttribute(t)}},{key:"style",value:function(t,n){for(var e=this.list,r=0;r<this.length;r++)e[r].style[t]=n}}]),t}(),Q=/-./g,H=function(t,n){return n.toUpperCase()};function J(t){return"function"==typeof t?t:q}function Z(t){return t?"function"==typeof t?t:Array.isArray(t)?function(t){var n=arguments.length>1&&void 0!==arguments[1]?arguments[1]:w;if(!Array.isArray(t))return n;switch(t.length){case 1:return S(t[0])||n;case 2:return S(t[0],t[1])||n;case 4:return _(t[0],t[1],t[2],t[3])||n}return n}(t,null):function(t,n){var e=arguments.length>2&&void 0!==arguments[2]?arguments[2]:w;switch(t){case"linear":return w;case"steps":return S(n.steps||1,n.jump||0)||e;case"bezier":case"cubic-bezier":return _(n.x1||0,n.y1||0,n.x2||0,n.y2||0)||e}return e}(t.type,t.value,null):null}function K(t,n,e){var r=arguments.length>3&&void 0!==arguments[3]&&arguments[3],i=n.length-1;if(t<=n[0].t)return r?[0,0,n[0].v]:n[0].v;if(t>=n[i].t)return r?[i,1,n[i].v]:n[i].v;var o,u=n[0],a=null;for(o=1;o<=i;o++){if(!(t>n[o].t)){a=n[o];break}u=n[o]}return null==a?r?[i,1,n[i].v]:n[i].v:u.t===a.t?r?[o,1,a.v]:a.v:(t=(t-u.t)/(a.t-u.t),u.e&&(t=u.e(t)),r?[o,t,e(t,u.v,a.v)]:e(t,u.v,a.v))}function W(t,n){var e=arguments.length>2&&void 0!==arguments[2]?arguments[2]:null;return t&&t.length?"function"!=typeof n?null:("function"!=typeof e&&(e=null),function(r){var i=K(r,t,n);return null!=i&&e&&(i=e(i)),i}):null}function X(t,n){return t.t-n.t}function tt(t,n,r,i,o){var u,a="@"===r[0],l="#"===r[0],s=$[r],f=q;switch(a?(u=r.substr(1),r=u.replace(Q,H)):l&&(r=r.substr(1)),e(s)){case"function":if(f=s(i,o,K,Z,r,a,n,t),l)return f;break;case"string":f=W(i,J(s));break;case"object":if((f=W(i,J(s.i),s.f))&&"function"==typeof s.u)return s.u(n,f,r,a,t)}return f?function(t,n,e){if(arguments.length>3&&void 0!==arguments[3]&&arguments[3])return t instanceof U?function(r){return t.style(n,e(r))}:function(r){return t.style[n]=e(r)};if(Array.isArray(n)){var r=n.length;return function(i){var o=e(i);if(null==o)for(var u=0;u<r;u++)t[u].removeAttribute(n);else for(var a=0;a<r;a++)t[a].setAttribute(n,o)}}return function(r){var i=e(r);null==i?t.removeAttribute(n):t.setAttribute(n,i)}}(n,r,f,a):null}function nt(t,n,r,i){if(!i||"object"!==e(i))return null;var o=null,u=null;return Array.isArray(i)?u=function(t){if(!t||!t.length)return null;for(var n=0;n<t.length;n++)t[n].e&&(t[n].e=Z(t[n].e));return t.sort(X)}(i):(u=i.keys,o=i.data||null),u?tt(t,n,r,u,o):null}function et(t,n,e){if(!e)return null;var r=[];for(var i in e)if(e.hasOwnProperty(i)){var o=nt(t,n,i,e[i]);o&&r.push(o)}return r.length?r:null}function rt(t,n){if(!n.settings.duration||n.settings.duration<0)return null;var e,r,i,o,u,a=function(t,n){if(!n)return null;var e=[];if(Array.isArray(n))for(var r=n.length,i=0;i<r;i++){var o=n[i];if(2===o.length){var u=null;if("string"==typeof o[0])u=t.getElementById(o[0]);else if(Array.isArray(o[0])){u=[];for(var a=0;a<o[0].length;a++)if("string"==typeof o[0][a]){var l=t.getElementById(o[0][a]);l&&u.push(l)}u=u.length?1===u.length?u[0]:new U(u):null}if(u){var s=et(t,u,o[1]);s&&(e=e.concat(s))}}}else for(var f in n)if(n.hasOwnProperty(f)){var c=t.getElementById(f);if(c){var h=et(t,c,n[f]);h&&(e=e.concat(h))}}return e.length?e:null}(t,n.elements);return a?(e=a,r=n.settings,i=r.duration,o=e.length,u=null,function(t,n){var a=r.iterations||1/0,l=(r.alternate&&a%2==0)^r.direction>0?i:0,s=t%i,f=1+(t-s)/i;n*=r.direction,r.alternate&&f%2==0&&(n=-n);var c=!1;if(f>a)s=l,c=!0,-1===r.fill&&(s=r.direction>0?0:i);else if(n<0&&(s=i-s),s===u)return!1;u=s;for(var h=0;h<o;h++)e[h](s);return c}):null}function it(t,n){for(var e=n.querySelectorAll("svg"),r=0;r<e.length;r++)if(e[r].id===t.root&&!e[r].svgatorAnimation)return e[r].svgatorAnimation=!0,e[r];return null}function ot(t){var n=function(t){return t.shadowRoot};return document?Array.from(t.querySelectorAll(":not("+["a","area","audio","br","canvas","circle","datalist","embed","g","head","hr","iframe","img","input","link","object","path","polygon","rect","script","source","style","svg","title","track","video"].join()+")")).filter(n).map(n):[]}function ut(t){var n=arguments.length>1&&void 0!==arguments[1]?arguments[1]:document,e=arguments.length>2&&void 0!==arguments[2]?arguments[2]:0,r=it(t,n);if(r)return r;if(e>=20)return null;for(var i=ot(n),o=0;o<i.length;o++){var u=ut(t,i[o],e+1);if(u)return u}return null}function at(t,n){if($=n,!t||!t.root||!Array.isArray(t.animations))return null;var e=ut(t);if(!e)return null;var r=t.animations.map((function(t){return rt(e,t)})).filter((function(t){return!!t}));return r.length?{svg:e,animations:r,animationSettings:t.animationSettings,options:t.options||void 0}:null}function lt(t){var n=arguments.length>1&&void 0!==arguments[1]?arguments[1]:null,e=arguments.length>2&&void 0!==arguments[2]?arguments[2]:Number,r=arguments.length>3&&void 0!==arguments[3]?arguments[3]:"undefined"!=typeof BigInt&&BigInt,i="0x"+(t.replace(/[^0-9a-fA-F]+/g,"")||27);return n&&r&&e.isSafeInteger&&!e.isSafeInteger(+i)?e(r(i))%n+n:+i}function st(t,n,e){return!t||!e||n>t.length?t:t.substring(0,n)+st(t.substring(n+1),e,e)}function ft(t){var n=arguments.length>1&&void 0!==arguments[1]?arguments[1]:27;return!t||t%n?t%n:[0,1].includes(n)?n:ft(t/n,n)}function ct(t,n,e){if(t&&t.length){var r=lt(e),i=ft(r)+5,o=st(t,ft(r,5),i);return o=o.replace(/\x7c$/g,"==").replace(/\x2f$/g,"="),o=function(t,n,e){var r=+("0x"+t.substring(0,4));t=t.substring(4);for(var i=lt(n,r)%r+e%27,o=[],u=0;u<t.length;u+=2)if("|"!==t[u]){var a=+("0x"+t[u]+t[u+1])-i;o.push(a)}else{var l=+("0x"+t.substring(u+1,u+1+4))-i;u+=3,o.push(l)}return String.fromCharCode.apply(String,o)}(o=(o=atob(o)).replace(/[\x41-\x5A]/g,""),n,r),o=JSON.parse(o)}}var ht=[{key:"alternate",def:!1},{key:"fill",def:1},{key:"iterations",def:0},{key:"direction",def:1},{key:"speed",def:1},{key:"fps",def:100}],vt=function(){function t(n,e){var i=this,o=arguments.length>2&&void 0!==arguments[2]?arguments[2]:null;r(this,t),this._id=0,this._running=!1,this._rollingBack=!1,this._animations=n,this._settings=e,(!o||o<"2022-05-02")&&delete this._settings.speed,ht.forEach((function(t){i._settings[t.key]=i._settings[t.key]||t.def})),this.duration=e.duration,this.offset=e.offset||0,this.rollbackStartOffset=0}return o(t,[{key:"alternate",get:function(){return this._settings.alternate}},{key:"fill",get:function(){return this._settings.fill}},{key:"iterations",get:function(){return this._settings.iterations}},{key:"direction",get:function(){return this._settings.direction}},{key:"speed",get:function(){return this._settings.speed}},{key:"fps",get:function(){return this._settings.fps}},{key:"maxFiniteDuration",get:function(){return this.iterations>0?this.iterations*this.duration:this.duration}},{key:"_apply",value:function(t){for(var n=arguments.length>1&&void 0!==arguments[1]?arguments[1]:{},e=this._animations,r=e.length,i=0,o=0;o<r;o++)n[o]?i++:(n[o]=e[o](t,1),n[o]&&i++);return i}},{key:"_rollback",value:function(t){var n=this,e=1/0,r=null;this.rollbackStartOffset=t,this._rollingBack=!0,this._running=!0;this._id=window.requestAnimationFrame((function i(o){if(n._rollingBack){null==r&&(r=o);var u=Math.round(t-(o-r)*n.speed);if(u>n.duration&&e!==1/0){var a=!!n.alternate&&u/n.duration%2>1,l=u%n.duration;u=(l+=a?n.duration:0)||n.duration}var s=(n.fps?1e3/n.fps:0)*n.speed,f=Math.max(0,u);f<=e-s&&(n.offset=f,e=f,n._apply(f));var c=n.iterations>0&&-1===n.fill&&u>=n.maxFiniteDuration;(u<=0||n.offset<u||c)&&n.stop(),n._id=window.requestAnimationFrame(i)}}))}},{key:"_start",value:function(){var t=this,n=arguments.length>0&&void 0!==arguments[0]?arguments[0]:0,e=-1/0,r=null,i={};this._running=!0;var o=function o(u){null==r&&(r=u);var a=Math.round((u-r)*t.speed+n),l=(t.fps?1e3/t.fps:0)*t.speed;if(a>=e+l&&!t._rollingBack&&(t.offset=a,e=a,t._apply(a,i)===t._animations.length))return void t.pause(!0);t._id=window.requestAnimationFrame(o)};this._id=window.requestAnimationFrame(o)}},{key:"_pause",value:function(){this._id&&window.cancelAnimationFrame(this._id),this._running=!1}},{key:"play",value:function(){if(!this._running)return this._rollingBack?this._rollback(this.offset):this._start(this.offset)}},{key:"stop",value:function(){this._pause(),this.offset=0,this.rollbackStartOffset=0,this._rollingBack=!1,this._apply(0)}},{key:"reachedToEnd",value:function(){return this.iterations>0&&this.offset>=this.iterations*this.duration}},{key:"restart",value:function(){var t=arguments.length>0&&void 0!==arguments[0]&&arguments[0];this.stop(t),this.play(t)}},{key:"pause",value:function(){this._pause()}},{key:"reverse",value:function(){this.direction=-this.direction}}],[{key:"build",value:function(t,n){delete t.animationSettings,t.options=ct(t.options,t.root,"5c7f360c"),t.animations.map((function(n){n.settings=ct(n.s,t.root,"5c7f360c"),delete n.s,t.animationSettings||(t.animationSettings=n.settings)}));var e=t.version;if(!(t=at(t,n)))return null;var r=t.options||{},i=new this(t.animations,t.animationSettings,e);return{el:t.svg,options:r,player:i}}},{key:"push",value:function(t){return this.build(t)}},{key:"init",value:function(){var t=this,n=window.__SVGATOR_PLAYER__&&window.__SVGATOR_PLAYER__["5c7f360c"];Array.isArray(n)&&n.splice(0).forEach((function(n){return t.build(n)}))}}]),t}();function yt(t){return p(t)+""}function gt(t){var n=arguments.length>1&&void 0!==arguments[1]?arguments[1]:" ";return t&&t.length?t.map(yt).join(n):""}function dt(t){if(!t)return"transparent";if(null==t.a||t.a>=1){var n=function(t){return 1===(t=parseInt(t).toString(16)).length?"0"+t:t},e=function(t){return t.charAt(0)===t.charAt(1)},r=n(t.r),i=n(t.g),o=n(t.b);return e(r)&&e(i)&&e(o)&&(r=r.charAt(0),i=i.charAt(0),o=o.charAt(0)),"#"+r+i+o}return"rgba("+t.r+","+t.g+","+t.b+","+t.a+")"}function pt(t){return t?"url(#"+t+")":"none"}!function(){for(var t=0,n=["ms","moz","webkit","o"],e=0;e<n.length&&!window.requestAnimationFrame;++e)window.requestAnimationFrame=window[n[e]+"RequestAnimationFrame"],window.cancelAnimationFrame=window[n[e]+"CancelAnimationFrame"]||window[n[e]+"CancelRequestAnimationFrame"];window.requestAnimationFrame||(window.requestAnimationFrame=function(n){var e=Date.now(),r=Math.max(0,16-(e-t)),i=window.setTimeout((function(){n(e+r)}),r);return t=e+r,i},window.cancelAnimationFrame=window.clearTimeout)}();var mt={f:null,i:function(t,n,e){return 0===t?n:1===t?e:{x:D(t,n.x,e.x),y:D(t,n.y,e.y)}},u:function(t,n){return function(e){var r=n(e);t.setAttribute("rx",yt(r.x)),t.setAttribute("ry",yt(r.y))}}},bt={f:null,i:function(t,n,e){return 0===t?n:1===t?e:{width:D(t,n.width,e.width),height:D(t,n.height,e.height)}},u:function(t,n){return function(e){var r=n(e);t.setAttribute("width",yt(r.width)),t.setAttribute("height",yt(r.height))}}};Object.freeze({M:2,L:2,Z:0,H:1,V:1,C:6,Q:4,T:2,S:4,A:7});var wt={},At=null;function _t(t){var n=function(){if(At)return At;if("object"!==("undefined"==typeof document?"undefined":e(document))||!document.createElementNS)return{};var t=document.createElementNS("http://www.w3.org/2000/svg","svg");return t&&t.style?(t.style.position="absolute",t.style.opacity="0.01",t.style.zIndex="-9999",t.style.left="-9999px",t.style.width="1px",t.style.height="1px",At={svg:t}):{}}().svg;if(!n)return function(t){return null};var r=document.createElementNS(n.namespaceURI,"path");r.setAttributeNS(null,"d",t),r.setAttributeNS(null,"fill","none"),r.setAttributeNS(null,"stroke","none"),n.appendChild(r);var i=r.getTotalLength();return function(t){var n=r.getPointAtLength(i*t);return{x:n.x,y:n.y}}}function xt(t){return wt[t]?wt[t]:wt[t]=_t(t)}function kt(t,n,e,r){if(!t||!r)return!1;var i=["M",t.x,t.y];if(n&&e&&(i.push("C"),i.push(n.x),i.push(n.y),i.push(e.x),i.push(e.y)),n?!e:e){var o=n||e;i.push("Q"),i.push(o.x),i.push(o.y)}return n||e||i.push("L"),i.push(r.x),i.push(r.y),i.join(" ")}function St(t,n,e,r){var i=arguments.length>4&&void 0!==arguments[4]?arguments[4]:1,o=kt(t,n,e,r),u=xt(o);try{return u(i)}catch(t){return null}}function Ot(t,n,e){return t+(n-t)*e}function jt(t,n,e){var r=arguments.length>3&&void 0!==arguments[3]&&arguments[3],i={x:Ot(t.x,n.x,e),y:Ot(t.y,n.y,e)};return r&&(i.a=Mt(t,n)),i}function Mt(t,n){return Math.atan2(n.y-t.y,n.x-t.x)}function Et(t,n,e,r){var i=1-r;return i*i*t+2*i*r*n+r*r*e}function Pt(t,n,e,r){return 2*(1-r)*(n-t)+2*r*(e-n)}function It(t,n,e,r){var i=arguments.length>4&&void 0!==arguments[4]&&arguments[4],o=St(t,n,null,e,r);return o||(o={x:Et(t.x,n.x,e.x,r),y:Et(t.y,n.y,e.y,r)}),i&&(o.a=Rt(t,n,e,r)),o}function Rt(t,n,e,r){return Math.atan2(Pt(t.y,n.y,e.y,r),Pt(t.x,n.x,e.x,r))}function Ft(t,n,e,r,i){var o=i*i;return i*o*(r-t+3*(n-e))+3*o*(t+e-2*n)+3*i*(n-t)+t}function Nt(t,n,e,r,i){var o=1-i;return 3*(o*o*(n-t)+2*o*i*(e-n)+i*i*(r-e))}function Tt(t,n,e,r,i){var o=arguments.length>5&&void 0!==arguments[5]&&arguments[5],u=St(t,n,e,r,i);return u||(u={x:Ft(t.x,n.x,e.x,r.x,i),y:Ft(t.y,n.y,e.y,r.y,i)}),o&&(u.a=qt(t,n,e,r,i)),u}function qt(t,n,e,r,i){return Math.atan2(Nt(t.y,n.y,e.y,r.y,i),Nt(t.x,n.x,e.x,r.x,i))}function Bt(t,n,e){var r=arguments.length>3&&void 0!==arguments[3]&&arguments[3];if(Lt(n)){if(Ct(e))return It(n,e.start,e,t,r)}else if(Lt(e)){if(Vt(n))return It(n,n.end,e,t,r)}else{if(Vt(n))return Ct(e)?Tt(n,n.end,e.start,e,t,r):It(n,n.end,e,t,r);if(Ct(e))return It(n,e.start,e,t,r)}return jt(n,e,t,r)}function Dt(t,n,e){var r=Bt(t,n,e,!0);return r.a=function(t){return arguments.length>1&&void 0!==arguments[1]&&arguments[1]?t+Math.PI:t}(r.a)/b,r}function Lt(t){return!t.type||"corner"===t.type}function Ct(t){return null!=t.start&&!Lt(t)}function Vt(t){return null!=t.end&&!Lt(t)}var Gt=new T;var zt={f:yt,i:B},Yt={f:yt,i:L};function $t(t,n,e){return t.map((function(t){return function(t,n,e){var r=t.v;if(!r||"g"!==r.t||r.s||!r.v||!r.r)return t;var i=e.getElementById(r.r),o=i&&i.querySelectorAll("stop")||[];return r.s=r.v.map((function(t,n){var e=o[n]&&o[n].getAttribute("offset");return{c:t,o:e=p(parseInt(e)/100)}})),delete r.v,t}(t,0,e)}))}var Ut={gt:"gradientTransform",c:{x:"cx",y:"cy"},rd:"r",f:{x:"x1",y:"y1"},to:{x:"x2",y:"y2"}};function Qt(t,n,r,i,o,u,a,l){return $t(t,0,l),n=function(t,n,e){for(var r,i,o,u=t.length-1,a={},l=0;l<=u;l++)(r=t[l]).e&&(r.e=n(r.e)),r.v&&"g"===(i=r.v).t&&i.r&&(o=e.getElementById(i.r))&&(a[i.r]={e:o,s:o.querySelectorAll("stop")});return a}(t,i,l),function(i){var o=r(i,t,Ht);if(!o)return"none";if("c"===o.t)return dt(o.v);if("g"===o.t){if(!n[o.r])return pt(o.r);var u=n[o.r];return function(t,n){for(var e=t.s,r=e.length;r<n.length;r++){var i=e[e.length-1].cloneNode();i.id=Kt(i.id),t.e.appendChild(i),e=t.s=t.e.querySelectorAll("stop")}for(var o=0,u=e.length,a=n.length-1;o<u;o++)e[o].setAttribute("stop-color",dt(n[Math.min(o,a)].c)),e[o].setAttribute("offset",n[Math.min(o,a)].o)}(u,o.s),Object.keys(Ut).forEach((function(t){if(void 0!==o[t])if("object"!==e(Ut[t])){var n,r="gt"===t?(n=o[t],Array.isArray(n)?"matrix("+n.join(" ")+")":""):o[t],i=Ut[t];u.e.setAttribute(i,r)}else Object.keys(Ut[t]).forEach((function(n){if(void 0!==o[t][n]){var e=o[t][n],r=Ut[t][n];u.e.setAttribute(r,e)}}))})),pt(o.r)}return"none"}}function Ht(t,e,r){if(0===t)return e;if(1===t)return r;if(e&&r){var i=e.t;if(i===r.t)switch(e.t){case"c":return{t:i,v:G(t,e.v,r.v)};case"g":if(e.r===r.r){var o={t:i,s:Jt(t,e.s,r.s),r:e.r};return e.gt&&r.gt&&(o.gt=function(t,n,e){var r=n.length;if(r!==e.length)return q(t,n,e);for(var i=new Array(r),o=0;o<r;o++)i[o]=B(t,n[o],e[o]);return i}(t,e.gt,r.gt)),e.c?(o.c=C(t,e.c,r.c),o.rd=D(t,e.rd,r.rd)):e.f&&(o.f=C(t,e.f,r.f),o.to=C(t,e.to,r.to)),o}}if("c"===e.t&&"g"===r.t||"c"===r.t&&"g"===e.t){var u="c"===e.t?e:r,a="g"===e.t?n({},e):n({},r),l=a.s.map((function(t){return{c:u.v,o:t.o}}));return a.s="c"===e.t?Jt(t,l,a.s):Jt(t,a.s,l),a}}return q(t,e,r)}function Jt(t,n,e){if(n.length===e.length)return n.map((function(n,r){return Zt(t,n,e[r])}));for(var r=Math.max(n.length,e.length),i=[],o=0;o<r;o++){var u=Zt(t,n[Math.min(o,n.length-1)],e[Math.min(o,e.length-1)]);i.push(u)}return i}function Zt(t,n,e){return{o:L(t,n.o,e.o||0),c:G(t,n.c,e.c||{})}}function Kt(t){return t.replace(/-fill-([0-9]+)$/,(function(t,n){return"-fill-"+(+n+1)}))}var Wt={fill:Qt,"fill-opacity":Yt,stroke:Qt,"stroke-opacity":Yt,"stroke-width":zt,"stroke-dashoffset":{f:yt,i:B},"stroke-dasharray":{f:function(t){var n=arguments.length>1&&void 0!==arguments[1]?arguments[1]:" ";return t&&t.length>0&&(t=t.map((function(t){return p(t,4)}))),gt(t,n)},i:function(t,n,e){var r,i,o,u=n.length,a=e.length;if(u!==a)if(0===u)n=z(u=a,0);else if(0===a)a=u,e=z(u,0);else{var l=(o=(r=u)*(i=a)/function(t,n){for(var e;n;)e=n,n=t%n,t=e;return t||1}(r,i))<0?-o:o;n=Y(n,Math.floor(l/u)),e=Y(e,Math.floor(l/a)),u=a=l}for(var s=[],f=0;f<u;f++)s.push(p(D(t,n[f],e[f])));return s}},opacity:Yt,transform:function(t,n,r,i){if(!(t=function(t,n){if(!t||"object"!==e(t))return null;var r=!1;for(var i in t)t.hasOwnProperty(i)&&(t[i]&&t[i].length?(t[i].forEach((function(t){t.e&&(t.e=n(t.e))})),r=!0):delete t[i]);return r?t:null}(t,i)))return null;var o=function(e,i,o){var u=arguments.length>3&&void 0!==arguments[3]?arguments[3]:null;return t[e]?r(i,t[e],o):n&&n[e]?n[e]:u};return n&&n.a&&t.o?function(n){var e=r(n,t.o,Dt);return Gt.recomposeSelf(e,o("r",n,B,0)+e.a,o("k",n,C),o("s",n,C),o("t",n,C)).toString()}:function(t){return Gt.recomposeSelf(o("o",t,Bt,null),o("r",t,B,0),o("k",t,C),o("s",t,C),o("t",t,C)).toString()}},r:zt,"#size":bt,"#radius":mt,_:function(t,n){if(Array.isArray(t))for(var e=0;e<t.length;e++)this[t[e]]=n;else this[t]=n}},Xt=function(t){!function(t,n){if("function"!=typeof n&&null!==n)throw new TypeError("Super expression must either be null or a function");t.prototype=Object.create(n&&n.prototype,{constructor:{value:t,writable:!0,configurable:!0}}),n&&l(t,n)}(u,t);var n,e,i=(n=u,e=s(),function(){var t,r=a(n);if(e){var i=a(this).constructor;t=Reflect.construct(r,arguments,i)}else t=r.apply(this,arguments);return c(this,t)});function u(){return r(this,u),i.apply(this,arguments)}return o(u,null,[{key:"build",value:function(t){var n=h(a(u),"build",this).call(this,t,Wt);if(!n)return null;n.el,n.options,function(t,n,e){t.play()}(n.player)}}]),u}(vt);return Xt.init(),Xt}));
(function(s,i,o,w,d,a,b){w[o]=w[o]||{};w[o][s]=w[o][s]||[];w[o][s].push(i);})('5c7f360c',{"root":"eKRyauxJhos1","version":"2022-05-04","animations":[{"elements":{"eKRyauxJhos3":{"transform":{"data":{"o":{"x":137.800003,"y":344.700012,"type":"corner"},"t":{"x":-0.000003,"y":-0.000012}},"keys":{"s":[{"t":500,"v":{"x":1,"y":1}},{"t":700,"v":{"x":0.6,"y":0.8}},{"t":1500,"v":{"x":0.6,"y":0.8}},{"t":1600,"v":{"x":1,"y":1}}]}}},"eKRyauxJhos4":{"transform":{"data":{"o":{"x":137.800003,"y":343.299973,"type":"corner"},"t":{"x":-0.000003,"y":0.000027}},"keys":{"s":[{"t":300,"v":{"x":1,"y":1}},{"t":600,"v":{"x":0.7,"y":0.75}},{"t":1500,"v":{"x":0.7,"y":0.75}},{"t":1600,"v":{"x":0.9,"y":0.9}},{"t":1700,"v":{"x":0.75,"y":0.75}},{"t":1800,"v":{"x":1,"y":1}}]}}},"eKRyauxJhos5":{"transform":{"data":{"o":{"x":137.799995,"y":341.299988,"type":"corner"},"t":{"x":0.000005,"y":0.000012}},"keys":{"s":[{"t":0,"v":{"x":1,"y":1}},{"t":400,"v":{"x":0.85,"y":0.8}},{"t":1700,"v":{"x":0.85,"y":0.8}},{"t":1800,"v":{"x":1,"y":0.8}},{"t":1900,"v":{"x":0.9,"y":0.7}},{"t":2000,"v":{"x":1,"y":1}}]}}},"eKRyauxJhos7":{"transform":{"data":{"t":{"x":-161.399986,"y":-342.600003}},"keys":{"o":[{"t":1100,"v":{"x":161.4,"y":342.600006,"type":"corner"}},{"t":1400,"v":{"x":161.4,"y":328,"type":"corner"}},{"t":1500,"v":{"x":161.4,"y":345,"type":"corner"}}],"s":[{"t":600,"v":{"x":0,"y":0}},{"t":900,"v":{"x":1,"y":1}},{"t":1100,"v":{"x":1,"y":0.89}},{"t":1300,"v":{"x":0.95,"y":1.05}},{"t":1600,"v":{"x":1,"y":1}}]}}},"eKRyauxJhos35":{"transform":{"data":{"o":{"x":121.899986,"y":191.029968,"type":"corner"},"t":{"x":-121.899979,"y":-191.029966}},"keys":{"r":[{"t":1900,"v":0},{"t":2700,"v":-50},{"t":2800,"v":0}]}}},"eKRyauxJhos82":{"transform":{"data":{"t":{"x":-126.031879,"y":-128.479641}},"keys":{"o":[{"t":900,"v":{"x":126.031879,"y":128.479641,"type":"corner"}},{"t":1100,"v":{"x":126.031879,"y":146.191752,"type":"corner"}},{"t":1300,"v":{"x":126.031879,"y":111.867334,"type":"corner"}},{"t":1600,"v":{"x":126.031879,"y":132,"type":"corner"}}],"s":[{"t":700,"v":{"x":0,"y":0}},{"t":900,"v":{"x":1,"y":1}}]}}}},"s":"MKDA1ZGEwNDc4OTlhOTXc4Njk5OGU5NDkzNDcY1ZjU4NTU1NTU1NTE0SNzg5OGU5NzhhODg5OBThlOTQ5MzQ3NWY1NkBM1MTQ3OGU5OThhOTcF4Njk5OGVPVTk0OTM5VODQ3NWY1NjUxNDdQOJGI4ZUs5MTkxNDc1ZkPs1Nlc1MTQ3ODY5MTkG5OGE5NzkzODY5OThhDUTQ3NWY4Yjg2OTE5OADhhNTFCNDc5ODk1OGIE4YTg5NDdKNWY1NjUXxNDc4Yjk1OTg0NzVmBQTU2NTU1NWEy"}],"options":"MPDAxMDg4MmY4MDgxNmVU3ZjgxMmY0NzJmNzlCSN2NJNmU3MTJmOGE/I"},'__SVGATOR_PLAYER__',window,document)
]]></script>
</svg>
