<?xml version="1.0" encoding="UTF-8"?>
<svg id="Layer_1" data-name="Layer 1" xmlns="http://www.w3.org/2000/svg" viewBox="0 0 1920 1080" width="1920px" height="1080px">
  <defs>
    <style>
      .cls-1 {
        fill: #fff;
      }
    </style>
  </defs>
  <circle class="cls-1" cx="105.7" cy="327.64" r="3.38"/>
  <circle class="cls-1" cx="1183.72" cy="542.43" r="3.38"/>
  <circle class="cls-1" cx="998.53" cy="589.75" r="3.38"/>
  <circle class="cls-1" cx="761.44" cy="87.48" r="3.38"/>
  <circle class="cls-1" cx="1336.75" cy="896.02" r="3.38"/>
  <circle class="cls-1" cx="1196.16" cy="766.52" r="3.38"/>
  <circle class="cls-1" cx="1698.01" cy="18.97" r="3.38"/>
  <circle class="cls-1" cx="1649.44" cy="65.15" r="3.38"/>
  <circle class="cls-1" cx="1622.01" cy="328.88" r="3.38"/>
  <circle class="cls-1" cx="1826.54" cy="211.27" r="3.38"/>
  <circle class="cls-1" cx="1829.88" cy="92.2" r="3.38"/>
  <circle class="cls-1" cx="1579.82" cy="588.14" r="3.38"/>
  <circle class="cls-1" cx="1668.76" cy="806.66" r="3.38"/>
  <circle class="cls-1" cx="1811.55" cy="948.38" r="3.38"/>
  <circle class="cls-1" cx="1797.6" cy="1013.07" r="3.38"/>
  <circle class="cls-1" cx="1819.38" cy="985.15" r="3.38"/>
  <circle class="cls-1" cx="1549.72" cy="1019.62" r="3.38"/>
  <circle class="cls-1" cx="1173.27" cy="812.76" r="3.38"/>
  <circle class="cls-1" cx="733.71" cy="978.33" r="3.38"/>
  <circle class="cls-1" cx="898.09" cy="880.8" r="3.38"/>
  <circle class="cls-1" cx="72.94" cy="961.99" r="3.38"/>
  <circle class="cls-1" cx="237.32" cy="864.46" r="3.38"/>
  <circle class="cls-1" cx="196.52" cy="856.8" r="3.38"/>
  <circle class="cls-1" cx="154.6" cy="631.1" r="3.38"/>
  <circle class="cls-1" cx="3.38" cy="3.38" r="3.38"/>
  <circle class="cls-1" cx="52.29" cy="306.84" r="3.38"/>
  <circle class="cls-1" cx="94.79" cy="18.26" r="3.38"/>
  <circle class="cls-1" cx="572.87" cy="255.96" r="3.38"/>
  <circle class="cls-1" cx="134.75" cy="149.49" r="3.38"/>
  <circle class="cls-1" cx="485.55" cy="63.45" r="3.38"/>
  <circle class="cls-1" cx="759.55" cy="457.35" r="3.38"/>
  <circle class="cls-1" cx="771.14" cy="497.22" r="3.38"/>
  <circle class="cls-1" cx="588.63" cy="636.47" r="3.38"/>
  <circle class="cls-1" cx="1271.33" cy="130.55" r="3.38"/>
  <circle class="cls-1" cx="1215.31" cy="93.76" r="3.38"/>
  <circle class="cls-1" cx="1113.32" cy="299.45" r="3.38"/>
  <circle class="cls-1" cx="1832.49" cy="423.96" r="3.38"/>
  <circle class="cls-1" cx="1806.19" cy="480.64" r="3.38"/>
</svg>