<svg id="eHGqdnUibp81" xmlns="http://www.w3.org/2000/svg" xmlns:xlink="http://www.w3.org/1999/xlink" viewBox="0 0 450 450" shape-rendering="geometricPrecision" text-rendering="geometricPrecision"><ellipse id="eHGqdnUibp82" rx="180.620537" ry="7.202659" transform="matrix(.8 0 0 1 225 405.011081)" fill="#d2dbed" stroke-width="0"/><g id="eHGqdnUibp83"><g id="eHGqdnUibp84" transform="matrix(.939693-.34202 0.34202 0.939693-43.579063 92.306787)"><path d="M358.725,356.216c-5.602.437-10.043-.909-13.504-3.335-.029-.034-.068-.069-.094-.087-12.724-8.916-12.869-31.981-12.869-31.981s-.893,4.082-1.578,8.369v.035c0,0-.249,1.157-.439,2.991-.227,1.664-.347,3.173-.347,4.339-6.014-4.407-9.98-11.052-12.56-18.16-.03-.06-.03-.128-.03-.188-.069-.068-.095-.12-.095-.214-.601-1.578-1.07-3.19-1.513-4.785l-.094-.351c-3.803-14.199-3.018-28.234-3.018-28.234s-1.137,5.762-2.079,11.866v.034c-.472,3.077-.884,6.259-1.068,8.84-7.402-2.924-11.493-10.169-13.761-17.971-.029-.12-.09-.249-.12-.404-.223-.831-.445-1.638-.63-2.46-.034-.06-.034-.12-.034-.215-2.646-11.592-1.732-23.295-1.732-23.295s-1.509,4.595-2.769,9.534c-1.039,4.063-1.917,8.308-1.693,10.417-3.812-2.135-6.208-5.762-7.747-9.663-.125-.343-.249-.721-.378-1.132-.123-.248-.185-.531-.278-.779-.249-.729-.445-1.458-.635-2.204-1.797-7.365-1.196-14.551-1.196-14.551s-2.858,4.725-3.143,7.34c-3.939-2.273-6.584-6.011-8.342-10.135l-.035-.034c-3.931-9.226-3.429-20.26-3.429-20.26s-1.295,3.138-2.358,9.439c-5.256-.138-8.248-6.328-9.886-12.244-.03-.095-.09-.231-.09-.352-.125-.438-.223-.918-.352-1.355v-.094c-1.157-4.716-1.475-8.771-1.475-8.771-.506.274-1.037.369-1.548.309-4.784-.566-9.659-15.544-9.188-40.161c0,0-8.402-1.32-5.251-9.44c1.787-4.605,7.579-.754,13.624-7.082c17.307-18.091,14.164-66.089,43.81-66.089c29.653,0,59.803,51.136,59.803,113.675c0,62.565-1.04,137.313,8.121,148.838Z" fill="#64beb4"/><path d="M285.035,165.819c.871,6.216,1.813,12.424,3.108,18.554c1.328,6.105,2.773,12.201,4.891,18.04c1.06,2.907,2.264,5.779,3.855,8.325.772,1.252,1.701,2.47,2.708,3.181c1.132.694,1.416.575,2.166-.438.651-1.02,1.045-2.486,1.299-3.926.266-1.458.391-2.976.463-4.501.129-3.052-.008-6.148-.257-9.234l-1.142-14.233l3.962,13.736c1.475,5.101,3.026,10.177,4.737,15.193c1.741,4.99,3.545,9.98,5.749,14.696c1.119,2.334,2.354,4.709,3.897,6.422.377.421.797.755,1.089.892.325.069.132.111.325-.009.438-.342.913-1.646,1.14-2.795.498-2.426.601-5.05.618-7.656c0-2.615-.138-5.256-.33-7.888l-.811-10.649l3.392,10.109c1.5,4.458,3.022,8.934,4.857,13.222.935,2.109,1.917,4.33,3.241,5.934.296.386.751.607.673.565-.116.111.249-.171.412-.643.377-.936.569-2.102.72-3.225.506-4.605.52-9.363.455-14.079-.091-4.724-.287-9.456-.468-14.19.579,4.699,1.067,9.414,1.41,14.148.305,4.732.674,9.474.274,14.302-.12,1.208-.249,2.418-.707,3.703-.279.575-.531,1.553-1.882,1.844-1.308.043-1.821-.677-2.315-1.105-.922-1.004-1.543-2.049-2.151-3.121-.604-1.063-1.141-2.143-1.66-3.225-2.027-4.355-3.738-8.797-5.375-13.255l2.584-.549c.237,2.684.404,5.376.442,8.086.008,2.717-.048,5.444-.583,8.257-.365,1.405-.519,2.872-2.036,4.406-.407.36-1,.704-1.668.764-.66.077-1.257-.069-1.724-.274-.926-.421-1.522-.978-2.063-1.534-2.045-2.247-3.262-4.683-4.496-7.127-2.38-4.895-4.249-9.945-5.917-15.056-1.671-5.093-3.181-10.229-4.603-15.382l2.825-.497c.214,3.172.325,6.362.149,9.586-.09,1.612-.244,3.224-.553,4.852-.334,1.629-.711,3.276-1.758,4.913-.519.789-1.381,1.689-2.696,1.929-1.32.206-2.414-.369-3.155-.926-1.505-1.184-2.414-2.598-3.255-4.021-1.629-2.847-2.756-5.848-3.75-8.875-1.934-6.061-3.25-12.244-4.172-18.486-.928-6.233-1.576-12.492-1.914-18.76Z" fill="#009696"/><path d="M290.802,93.703c-12.84,0-20.458,25.422-25.714,49.558-5.226,24.119-14.945,30.155-26.469,33.053c0,0-8.402-1.32-5.251-9.44c1.787-4.605,7.579-.754,13.624-7.082c17.307-18.092,14.164-66.089,43.81-66.089Z" fill="#009696"/><path d="M345.127,352.794c-12.724-8.916-12.869-31.981-12.869-31.981s-.893,4.082-1.578,8.369c-2.825-11.283-.434-74.766,1.093-97.873c0,0,2.405,4.835,2.5,2.992c2.618,20.423-3.315,103.695,10.854,118.493Z" fill="#009696"/><path d="M317.334,318.387l-.125-.402-1.513-4.785-.094-.351c-3.803-14.199-3.018-28.234-3.018-28.234s-1.137,5.762-2.079,11.866c-3.425-12.115-2.242-54.669,2.268-76.139-.056,3.404,2.041.815,2.006,4.656-.257,30.07-1.83,77.365,2.525,93.201c0,.06,0,.127.03.188Z" fill="#009696"/><path d="M294.892,284.305c-2.646-11.592-1.732-23.295-1.732-23.295s-1.509,4.595-2.769,9.534c.951-20.802,2.893-40.273,7.926-56.076-.278,2.443,1.998-1.886,1.672,1.038-2.23,19.944-7.653,56.221-5.097,68.799Z" fill="#009696"/><path d="M263.515,229.543c0,0-1.295,3.138-2.358,9.439-2.075-14.165.575-19.532,2.543-42.948c1.53,20.664-.88,44.672,3.244,53.769-3.931-9.226-3.429-20.26-3.429-20.26Z" fill="#009696"/><path d="M280.572,270.166c-.123-.248-.185-.531-.278-.779-.249-.729-.445-1.458-.635-2.204-1.797-7.365-1.196-14.551-1.196-14.551s-2.858,4.725-3.143,7.34c-2.236-13.977,3.19-23.314,5.647-40.522-.788,16.128-2.752,42.253-.395,50.716Z" fill="#009696"/><path d="M250.829,224.938c-1.157-4.716-1.475-8.771-1.475-8.771-.506.274-1.037.369-1.548.309-1.063-10.803,1.324-39.758,1.012-44.25-.322-4.501,2.452-1.766,2.452-1.766s-2.421,43.279-.441,54.478Z" fill="#009696"/><path d="M251.181,226.387c0,.12.059.257.09.352l-.159-.507c-.001.061.03.12.069.155Z" fill="#009696"/><path d="M321.367,137.533c.957,5.907.125,10.794-1.453,10.966-1.608.18-3.361-4.373-4.273-10.031-.472-2.838-1.175-11.79-3.284-19.747-1.016-3.969-2.434-7.647-3.853-10.194-.713-1.277-1.372-2.28-1.934-2.915-.523-.669-.815-1.046-.815-1.046s.36.326,1,.874c.682.531,1.539,1.415,2.498,2.581c1.917,2.307,4.078,5.822,5.845,9.723c3.587,7.803,5.791,16.874,6.269,19.789Z" opacity="0.7" fill="#78c6be"/><path d="M331.339,137.722c.704,3.198.249,5.933-.565,5.976-.909.068-1.836-2.323-2.483-5.273-.351-1.475-1.141-6.199-2.684-10.409-1.422-4.227-3.292-7.922-3.292-7.922s2.533,3.267,4.72,7.288c2.303,3.961,3.932,8.762,4.304,10.34Z" opacity="0.7" fill="#78c6be"/><path d="M347.137,318.318c.404,5.333.815,10.108.991,13.599.219,3.447.266,5.693-.477,5.95-.655.24-2.023-1.706-3.245-5.205-1.165-3.473-2.207-8.419-2.62-13.89-.578-5.479-.672-22.43.203-37.915.775-15.475,2.126-29.537,2.126-29.537s-.005,14.121.557,29.563c.475,15.46,1.908,32.128,2.465,37.435Z" opacity="0.7" fill="#78c6be"/><path d="M325.089,295.537c.527,8.737-.034,15.939-1.238,16.102-1.205.153-2.62-6.997-3.16-15.957-.115-2.246.061-6.808.206-12.415.09-2.787.185-5.848.286-9.003.203-3.138.404-6.37.605-9.543.386-6.336.822-12.373,1.328-16.832.446-4.457.734-7.321.734-7.321s-.018,2.881-.048,7.365c-.09,4.458.022,10.512.185,16.84.068,3.155.137,6.388.201,9.525.15,3.13.291,6.173.42,8.952.215,5.573.4,10.092.481,12.287Z" opacity="0.7" fill="#78c6be"/><path d="M304.31,272.575c-.018,4.185-.051,7.923-.18,10.632-.12,2.719-.12,4.33-.699,4.57-.502.206-1.599-1.44-2.242-4.253-.644-2.796-1.08-6.68-1.058-10.94-.069-4.27.797-17.431,2.236-29.417.695-5.985,1.483-11.713,2.157-15.914.669-4.219,1.23-6.912,1.23-6.912s-.295,2.735-.582,6.98c-.279,4.236-.55,9.989-.721,15.999-.399,12.038-.206,25.089-.141,29.255Z" opacity="0.7" fill="#78c6be"/><path d="M298.454,187.683c1.427,6.422,1.474,11.85.166,12.082-1.324.222-3.479-4.673-4.865-10.941-.377-1.587-1.02-4.888-1.754-8.926-.663-4.073-1.213-8.951-1.814-13.581-.462-9.295-.892-17.817-.892-17.817s1.565,8.334,3.28,17.439c1.192,4.484,2.307,9.14,3.4,13.058c1.18,3.91,2.106,7.108,2.479,8.686Z" opacity="0.7" fill="#78c6be"/><path d="M317.574,204.608c.998,4.047.896,7.657-.24,7.889-1.119.223-2.796-2.804-3.815-6.911-.506-2.032-1.561-8.54-2.157-14.576-.33-3.01-.445-5.916-.497-8.051.064-2.126.103-3.507.103-3.507s.219,1.354.545,3.447c.439,2.075,1.065,4.853,1.899,7.734c1.611,5.753,3.656,11.926,4.162,13.975Z" opacity="0.7" fill="#78c6be"/><path d="M333.243,210.688c.558,3.575.322,6.593-.669,6.782-.97.18-2.328-2.589-2.893-6.199-.15-.909-.334-2.769-.541-5.076-.106-2.272-.239-5.016-.368-7.648-.201-2.598.086-5.17.103-6.997.087-1.826.134-3.009.134-3.009s.166,1.183.437,3.009c.318,1.826.467,4.252,1.12,6.79.548,2.555,1.113,5.196,1.59,7.409.534,2.22.937,4.038,1.087,4.939Z" opacity="0.7" fill="#78c6be"/><path d="M306.033,130.451c-.197,3.481-1.633,6.13-3.001,5.977-1.393-.163-2.208-2.958-2.018-6.233.051-1.638.917-6.713.912-11.446.039-2.375-.214-4.63-.492-6.293-.399-1.664-.656-2.744-.656-2.744s.553.978,1.398,2.479c.745,1.569,1.646,3.807,2.237,6.233c1.304,4.842,1.685,10.295,1.62,12.027Z" opacity="0.7" fill="#78c6be"/></g><g id="eHGqdnUibp824" transform="matrix(.939693 0.34202-.34202 0.939693 70.583734-60.844289)"><path d="M91.275,356.216c5.603.437,10.043-.909,13.504-3.335.029-.034.068-.069.094-.087c12.724-8.916,12.87-31.981,12.87-31.981s.893,4.082,1.578,8.369v.035c0,0,.248,1.157.438,2.991.227,1.664.347,3.173.347,4.339c6.014-4.407,9.98-11.052,12.561-18.16.03-.06.03-.128.03-.188.069-.068.094-.12.094-.214.601-1.578,1.071-3.19,1.513-4.785l.095-.351c3.803-14.199,3.018-28.234,3.018-28.234s1.136,5.762,2.079,11.866v.034c.472,3.077.884,6.259,1.069,8.84c7.403-2.924,11.493-10.169,13.761-17.971.029-.12.09-.249.12-.404.222-.831.445-1.638.629-2.46.034-.06.034-.12.034-.215c2.645-11.592,1.732-23.295,1.732-23.295s1.509,4.595,2.77,9.534c1.038,4.063,1.917,8.308,1.693,10.417c3.812-2.135,6.208-5.762,7.748-9.663.125-.343.249-.721.377-1.132.124-.248.185-.531.279-.779.249-.729.445-1.458.634-2.204c1.796-7.365,1.196-14.551,1.196-14.551s2.859,4.725,3.143,7.34c3.94-2.273,6.584-6.011,8.342-10.135l.035-.034c3.931-9.226,3.429-20.26,3.429-20.26s1.294,3.138,2.358,9.439c5.256-.138,8.248-6.328,9.886-12.244.03-.095.09-.231.09-.352.125-.438.223-.918.352-1.355v-.094c1.157-4.716,1.475-8.771,1.475-8.771.506.274,1.037.369,1.547.309c4.784-.566,9.659-15.544,9.188-40.161c0,0,8.402-1.32,5.251-9.44-1.787-4.605-7.579-.754-13.624-7.082-17.307-18.091-14.163-66.089-43.809-66.089-29.653,0-59.803,51.136-59.803,113.675-.003,62.565,1.038,137.313-8.123,148.838Z" fill="#64beb4"/><path d="M164.965,165.819c-.871,6.216-1.813,12.424-3.109,18.554-1.328,6.105-2.773,12.201-4.891,18.04-1.059,2.907-2.263,5.779-3.855,8.325-.771,1.252-1.702,2.47-2.708,3.181-1.132.694-1.416.575-2.165-.438-.651-1.02-1.045-2.486-1.299-3.926-.266-1.458-.391-2.976-.463-4.501-.128-3.052.009-6.148.257-9.234l1.142-14.233-3.962,13.736c-1.475,5.101-3.026,10.177-4.738,15.193-1.741,4.99-3.544,9.98-5.748,14.696-1.12,2.334-2.354,4.709-3.897,6.422-.377.421-.797.755-1.089.892-.325.069-.132.111-.325-.009-.438-.342-.913-1.646-1.14-2.795-.497-2.426-.6-5.05-.617-7.656c0-2.615.137-5.256.33-7.888l.81-10.649-3.392,10.109c-1.501,4.458-3.021,8.934-4.856,13.222-.936,2.109-1.917,4.33-3.241,5.934-.296.386-.751.607-.673.565.117.111-.248-.171-.411-.643-.377-.936-.57-2.102-.721-3.225-.505-4.605-.519-9.363-.455-14.079.091-4.724.288-9.456.468-14.19-.58,4.699-1.067,9.414-1.411,14.148-.305,4.732-.673,9.474-.274,14.302.12,1.208.249,2.418.707,3.703.279.575.532,1.553,1.881,1.844c1.308.043,1.822-.677,2.316-1.105.922-1.004,1.543-2.049,2.152-3.121.604-1.063,1.14-2.143,1.659-3.225c2.028-4.355,3.738-8.797,5.376-13.255l-2.585-.549c-.236,2.684-.404,5.376-.441,8.086-.009,2.717.047,5.444.582,8.257.365,1.405.519,2.872,2.037,4.406.408.36.999.704,1.668.764.66.077,1.257-.069,1.724-.274.925-.421,1.521-.978,2.062-1.534c2.045-2.247,3.262-4.683,4.497-7.127c2.38-4.895,4.249-9.945,5.917-15.056c1.671-5.093,3.18-10.229,4.603-15.382l-2.825-.497c-.214,3.172-.325,6.362-.149,9.586.09,1.612.244,3.224.553,4.852.333,1.629.71,3.276,1.757,4.913.518.789,1.38,1.689,2.697,1.929c1.319.206,2.414-.369,3.155-.926c1.505-1.184,2.414-2.598,3.254-4.021c1.629-2.847,2.756-5.848,3.751-8.875c1.934-6.061,3.249-12.244,4.171-18.486.928-6.233,1.575-12.492,1.914-18.76Z" fill="#009696"/><path d="M159.198,93.703c12.839,0,20.458,25.422,25.714,49.558c5.226,24.119,14.945,30.155,26.469,33.053c0,0,8.402-1.32,5.251-9.44-1.787-4.605-7.579-.754-13.624-7.082-17.307-18.092-14.164-66.089-43.81-66.089Z" fill="#009696"/><path d="M104.873,352.794c12.724-8.916,12.87-31.981,12.87-31.981s.893,4.082,1.578,8.369c2.825-11.283.433-74.766-1.093-97.873c0,0-2.405,4.835-2.5,2.992-2.619,20.423,3.313,103.695-10.855,118.493Z" fill="#009696"/><path d="M132.666,318.387l.124-.402l1.513-4.785.095-.351c3.803-14.199,3.018-28.234,3.018-28.234s1.136,5.762,2.079,11.866c3.426-12.115,2.243-54.669-2.267-76.139.056,3.404-2.042.815-2.006,4.656.257,30.07,1.83,77.365-2.525,93.201-.001.06-.001.127-.031.188Z" fill="#009696"/><path d="M155.108,284.305c2.645-11.592,1.732-23.295,1.732-23.295s1.509,4.595,2.77,9.534c-.951-20.802-2.893-40.273-7.926-56.076.278,2.443-1.999-1.886-1.673,1.038c2.23,19.944,7.653,56.221,5.097,68.799Z" fill="#009696"/><path d="M186.485,229.543c0,0,1.294,3.138,2.358,9.439c2.075-14.165-.575-19.532-2.542-42.948-1.531,20.664.879,44.672-3.245,53.769c3.932-9.226,3.429-20.26,3.429-20.26Z" fill="#009696"/><path d="M169.427,270.166c.124-.248.185-.531.279-.779.249-.729.445-1.458.634-2.204c1.796-7.365,1.196-14.551,1.196-14.551s2.859,4.725,3.143,7.34c2.237-13.977-3.19-23.314-5.646-40.522.789,16.128,2.753,42.253.394,50.716Z" fill="#009696"/><path d="M199.171,224.938c1.157-4.716,1.475-8.771,1.475-8.771.506.274,1.037.369,1.547.309c1.063-10.803-1.324-39.758-1.011-44.25.321-4.501-2.453-1.766-2.453-1.766s2.423,43.279.442,54.478Z" fill="#009696"/><path d="M198.819,226.387c0,.12-.059.257-.09.352l.159-.507c0,.061-.03.12-.069.155Z" fill="#009696"/><path d="M128.633,137.533c-.957,5.907-.125,10.794,1.453,10.966c1.607.18,3.361-4.373,4.273-10.031.472-2.838,1.176-11.79,3.285-19.747c1.015-3.969,2.434-7.647,3.854-10.194.712-1.277,1.372-2.28,1.934-2.915.522-.669.815-1.046.815-1.046s-.36.326-.999.874c-.682.531-1.539,1.415-2.499,2.581-1.917,2.307-4.078,5.822-5.844,9.723-3.589,7.803-5.793,16.874-6.272,19.789Z" opacity="0.7" fill="#78c6be"/><path d="M118.661,137.722c-.704,3.198-.249,5.933.565,5.976.909.068,1.835-2.323,2.483-5.273.351-1.475,1.14-6.199,2.683-10.409c1.423-4.227,3.292-7.922,3.292-7.922s-2.533,3.267-4.72,7.288c-2.302,3.961-3.931,8.762-4.303,10.34Z" opacity="0.7" fill="#78c6be"/><path d="M102.863,318.318c-.404,5.333-.815,10.108-.991,13.599-.218,3.447-.266,5.693.476,5.95.655.24,2.024-1.706,3.245-5.205c1.165-3.473,2.207-8.419,2.62-13.89.579-5.479.672-22.43-.203-37.915-.775-15.475-2.126-29.537-2.126-29.537s.005,14.121-.557,29.563c-.475,15.46-1.907,32.128-2.464,37.435Z" opacity="0.7" fill="#78c6be"/><path d="M124.911,295.537c-.527,8.737.034,15.939,1.239,16.102c1.204.153,2.62-6.997,3.16-15.957.115-2.246-.061-6.808-.206-12.415-.09-2.787-.185-5.848-.287-9.003-.203-3.138-.404-6.37-.605-9.543-.386-6.336-.823-12.373-1.329-16.832-.446-4.457-.733-7.321-.733-7.321s.017,2.881.047,7.365c.09,4.458-.021,10.512-.184,16.84-.068,3.155-.137,6.388-.202,9.525-.15,3.13-.291,6.173-.419,8.952-.215,5.573-.399,10.092-.481,12.287Z" opacity="0.7" fill="#78c6be"/><path d="M145.691,272.575c.017,4.185.051,7.923.179,10.632.12,2.719.12,4.33.699,4.57.502.206,1.599-1.44,2.243-4.253.643-2.796,1.08-6.68,1.058-10.94.069-4.27-.797-17.431-2.237-29.417-.695-5.985-1.483-11.713-2.157-15.914-.669-4.219-1.23-6.912-1.23-6.912s.295,2.735.582,6.98c.279,4.236.55,9.989.721,15.999.399,12.038.206,25.089.142,29.255Z" opacity="0.7" fill="#78c6be"/><path d="M151.546,187.683c-1.427,6.422-1.474,11.85-.167,12.082c1.325.222,3.48-4.673,4.865-10.941.378-1.587,1.02-4.888,1.754-8.926.663-4.073,1.213-8.951,1.813-13.581.462-9.295.892-17.817.892-17.817s-1.564,8.334-3.28,17.439c-1.192,4.484-2.307,9.14-3.4,13.058-1.178,3.91-2.104,7.108-2.477,8.686Z" opacity="0.7" fill="#78c6be"/><path d="M132.426,204.608c-.999,4.047-.895,7.657.24,7.889c1.119.223,2.796-2.804,3.816-6.911.506-2.032,1.56-8.54,2.157-14.576.33-3.01.445-5.916.497-8.051-.064-2.126-.103-3.507-.103-3.507s-.218,1.354-.544,3.447c-.438,2.075-1.064,4.853-1.9,7.734-1.612,5.753-3.657,11.926-4.163,13.975Z" opacity="0.7" fill="#78c6be"/><path d="M116.756,210.688c-.557,3.575-.321,6.593.67,6.782.969.18,2.328-2.589,2.893-6.199.15-.909.335-2.769.541-5.076.107-2.272.24-5.016.369-7.648.202-2.598-.086-5.17-.103-6.997-.086-1.826-.133-3.009-.133-3.009s-.166,1.183-.437,3.009c-.318,1.826-.467,4.252-1.12,6.79-.548,2.555-1.114,5.196-1.59,7.409-.536,2.22-.939,4.038-1.09,4.939Z" opacity="0.7" fill="#78c6be"/><path d="M143.967,130.451c.196,3.481,1.632,6.13,3,5.977c1.393-.163,2.208-2.958,2.019-6.233-.051-1.638-.917-6.713-.912-11.446-.039-2.375.213-4.63.493-6.293.399-1.664.656-2.744.656-2.744s-.553.978-1.397,2.479c-.746,1.569-1.648,3.807-2.238,6.233-1.304,4.842-1.685,10.295-1.621,12.027Z" opacity="0.7" fill="#78c6be"/></g></g>
<script><![CDATA[
!function(t,n){"object"==typeof exports&&"undefined"!=typeof module?module.exports=n():"function"==typeof __SVGATOR_DEFINE__&&__SVGATOR_DEFINE__.amd?__SVGATOR_DEFINE__(n):((t="undefined"!=typeof globalThis?globalThis:t||self).__SVGATOR_PLAYER__=t.__SVGATOR_PLAYER__||{},t.__SVGATOR_PLAYER__["5c7f360c"]=n())}(this,(function(){"use strict";function t(t,n){var e=Object.keys(t);if(Object.getOwnPropertySymbols){var r=Object.getOwnPropertySymbols(t);n&&(r=r.filter((function(n){return Object.getOwnPropertyDescriptor(t,n).enumerable}))),e.push.apply(e,r)}return e}function n(n){for(var e=1;e<arguments.length;e++){var r=null!=arguments[e]?arguments[e]:{};e%2?t(Object(r),!0).forEach((function(t){u(n,t,r[t])})):Object.getOwnPropertyDescriptors?Object.defineProperties(n,Object.getOwnPropertyDescriptors(r)):t(Object(r)).forEach((function(t){Object.defineProperty(n,t,Object.getOwnPropertyDescriptor(r,t))}))}return n}function e(t){return(e="function"==typeof Symbol&&"symbol"==typeof Symbol.iterator?function(t){return typeof t}:function(t){return t&&"function"==typeof Symbol&&t.constructor===Symbol&&t!==Symbol.prototype?"symbol":typeof t})(t)}function r(t,n){if(!(t instanceof n))throw new TypeError("Cannot call a class as a function")}function i(t,n){for(var e=0;e<n.length;e++){var r=n[e];r.enumerable=r.enumerable||!1,r.configurable=!0,"value"in r&&(r.writable=!0),Object.defineProperty(t,r.key,r)}}function o(t,n,e){return n&&i(t.prototype,n),e&&i(t,e),t}function u(t,n,e){return n in t?Object.defineProperty(t,n,{value:e,enumerable:!0,configurable:!0,writable:!0}):t[n]=e,t}function a(t){return(a=Object.setPrototypeOf?Object.getPrototypeOf:function(t){return t.__proto__||Object.getPrototypeOf(t)})(t)}function l(t,n){return(l=Object.setPrototypeOf||function(t,n){return t.__proto__=n,t})(t,n)}function s(){if("undefined"==typeof Reflect||!Reflect.construct)return!1;if(Reflect.construct.sham)return!1;if("function"==typeof Proxy)return!0;try{return Boolean.prototype.valueOf.call(Reflect.construct(Boolean,[],(function(){}))),!0}catch(t){return!1}}function f(t,n,e){return(f=s()?Reflect.construct:function(t,n,e){var r=[null];r.push.apply(r,n);var i=new(Function.bind.apply(t,r));return e&&l(i,e.prototype),i}).apply(null,arguments)}function c(t,n){if(n&&("object"==typeof n||"function"==typeof n))return n;if(void 0!==n)throw new TypeError("Derived constructors may only return object or undefined");return function(t){if(void 0===t)throw new ReferenceError("this hasn't been initialised - super() hasn't been called");return t}(t)}function h(t,n,e){return(h="undefined"!=typeof Reflect&&Reflect.get?Reflect.get:function(t,n,e){var r=function(t,n){for(;!Object.prototype.hasOwnProperty.call(t,n)&&null!==(t=a(t)););return t}(t,n);if(r){var i=Object.getOwnPropertyDescriptor(r,n);return i.get?i.get.call(e):i.value}})(t,n,e||t)}function v(t){return function(t){if(Array.isArray(t))return y(t)}(t)||function(t){if("undefined"!=typeof Symbol&&null!=t[Symbol.iterator]||null!=t["@@iterator"])return Array.from(t)}(t)||function(t,n){if(!t)return;if("string"==typeof t)return y(t,n);var e=Object.prototype.toString.call(t).slice(8,-1);"Object"===e&&t.constructor&&(e=t.constructor.name);if("Map"===e||"Set"===e)return Array.from(t);if("Arguments"===e||/^(?:Ui|I)nt(?:8|16|32)(?:Clamped)?Array$/.test(e))return y(t,n)}(t)||function(){throw new TypeError("Invalid attempt to spread non-iterable instance.\nIn order to be iterable, non-array objects must have a [Symbol.iterator]() method.")}()}function y(t,n){(null==n||n>t.length)&&(n=t.length);for(var e=0,r=new Array(n);e<n;e++)r[e]=t[e];return r}function g(t,n,e){if(Number.isInteger(t))return t;var r=Math.pow(10,n);return Math[e]((+t+Number.EPSILON)*r)/r}Number.isInteger||(Number.isInteger=function(t){return"number"==typeof t&&isFinite(t)&&Math.floor(t)===t}),Number.EPSILON||(Number.EPSILON=2220446049250313e-31);var d=p(Math.pow(10,-6));function p(t){var n=arguments.length>1&&void 0!==arguments[1]?arguments[1]:6;return g(t,n,"round")}function m(t,n){var e=arguments.length>2&&void 0!==arguments[2]?arguments[2]:d;return Math.abs(t-n)<e}p(Math.pow(10,-2)),p(Math.pow(10,-4));var b=Math.PI/180;function w(t){return t}function A(t,n,e){var r=1-e;return 3*e*r*(t*r+n*e)+e*e*e}function _(){var t=arguments.length>0&&void 0!==arguments[0]?arguments[0]:0,n=arguments.length>1&&void 0!==arguments[1]?arguments[1]:0,e=arguments.length>2&&void 0!==arguments[2]?arguments[2]:1,r=arguments.length>3&&void 0!==arguments[3]?arguments[3]:1;return t<0||t>1||e<0||e>1?null:m(t,n)&&m(e,r)?w:function(i){if(i<=0)return t>0?i*n/t:0===n&&e>0?i*r/e:0;if(i>=1)return e<1?1+(i-1)*(r-1)/(e-1):1===e&&t<1?1+(i-1)*(n-1)/(t-1):1;for(var o,u=0,a=1;u<a;){var l=A(t,e,o=(u+a)/2);if(m(i,l))break;l<i?u=o:a=o}return A(n,r,o)}}function x(){return 1}function k(t){return 1===t?1:0}function S(){var t=arguments.length>0&&void 0!==arguments[0]?arguments[0]:1,n=arguments.length>1&&void 0!==arguments[1]?arguments[1]:0;if(1===t){if(0===n)return k;if(1===n)return x}var e=1/t;return function(t){return t>=1?1:(t+=n*e)-t%e}}var O=Math.sin,j=Math.cos,M=Math.acos,E=Math.asin,P=Math.tan,I=Math.atan2,R=Math.PI/180,F=180/Math.PI,N=Math.sqrt,T=function(){function t(){var n=arguments.length>0&&void 0!==arguments[0]?arguments[0]:1,e=arguments.length>1&&void 0!==arguments[1]?arguments[1]:0,i=arguments.length>2&&void 0!==arguments[2]?arguments[2]:0,o=arguments.length>3&&void 0!==arguments[3]?arguments[3]:1,u=arguments.length>4&&void 0!==arguments[4]?arguments[4]:0,a=arguments.length>5&&void 0!==arguments[5]?arguments[5]:0;r(this,t),this.m=[n,e,i,o,u,a],this.i=null,this.w=null,this.s=null}return o(t,[{key:"determinant",get:function(){var t=this.m;return t[0]*t[3]-t[1]*t[2]}},{key:"isIdentity",get:function(){if(null===this.i){var t=this.m;this.i=1===t[0]&&0===t[1]&&0===t[2]&&1===t[3]&&0===t[4]&&0===t[5]}return this.i}},{key:"point",value:function(t,n){var e=this.m;return{x:e[0]*t+e[2]*n+e[4],y:e[1]*t+e[3]*n+e[5]}}},{key:"translateSelf",value:function(){var t=arguments.length>0&&void 0!==arguments[0]?arguments[0]:0,n=arguments.length>1&&void 0!==arguments[1]?arguments[1]:0;if(!t&&!n)return this;var e=this.m;return e[4]+=e[0]*t+e[2]*n,e[5]+=e[1]*t+e[3]*n,this.w=this.s=this.i=null,this}},{key:"rotateSelf",value:function(){var t=arguments.length>0&&void 0!==arguments[0]?arguments[0]:0;if(t%=360){var n=O(t*=R),e=j(t),r=this.m,i=r[0],o=r[1];r[0]=i*e+r[2]*n,r[1]=o*e+r[3]*n,r[2]=r[2]*e-i*n,r[3]=r[3]*e-o*n,this.w=this.s=this.i=null}return this}},{key:"scaleSelf",value:function(){var t=arguments.length>0&&void 0!==arguments[0]?arguments[0]:1,n=arguments.length>1&&void 0!==arguments[1]?arguments[1]:1;if(1!==t||1!==n){var e=this.m;e[0]*=t,e[1]*=t,e[2]*=n,e[3]*=n,this.w=this.s=this.i=null}return this}},{key:"skewSelf",value:function(t,n){if(n%=360,(t%=360)||n){var e=this.m,r=e[0],i=e[1],o=e[2],u=e[3];t&&(t=P(t*R),e[2]+=r*t,e[3]+=i*t),n&&(n=P(n*R),e[0]+=o*n,e[1]+=u*n),this.w=this.s=this.i=null}return this}},{key:"resetSelf",value:function(){var t=arguments.length>0&&void 0!==arguments[0]?arguments[0]:1,n=arguments.length>1&&void 0!==arguments[1]?arguments[1]:0,e=arguments.length>2&&void 0!==arguments[2]?arguments[2]:0,r=arguments.length>3&&void 0!==arguments[3]?arguments[3]:1,i=arguments.length>4&&void 0!==arguments[4]?arguments[4]:0,o=arguments.length>5&&void 0!==arguments[5]?arguments[5]:0,u=this.m;return u[0]=t,u[1]=n,u[2]=e,u[3]=r,u[4]=i,u[5]=o,this.w=this.s=this.i=null,this}},{key:"recomposeSelf",value:function(){var t=arguments.length>0&&void 0!==arguments[0]?arguments[0]:null,n=arguments.length>1&&void 0!==arguments[1]?arguments[1]:null,e=arguments.length>2&&void 0!==arguments[2]?arguments[2]:null,r=arguments.length>3&&void 0!==arguments[3]?arguments[3]:null,i=arguments.length>4&&void 0!==arguments[4]?arguments[4]:null;return this.isIdentity||this.resetSelf(),t&&(t.x||t.y)&&this.translateSelf(t.x,t.y),n&&this.rotateSelf(n),e&&(e.x&&this.skewSelf(e.x,0),e.y&&this.skewSelf(0,e.y)),!r||1===r.x&&1===r.y||this.scaleSelf(r.x,r.y),i&&(i.x||i.y)&&this.translateSelf(i.x,i.y),this}},{key:"decompose",value:function(){var t=arguments.length>0&&void 0!==arguments[0]?arguments[0]:0,n=arguments.length>1&&void 0!==arguments[1]?arguments[1]:0,e=this.m,r=e[0]*e[0]+e[1]*e[1],i=[[e[0],e[1]],[e[2],e[3]]],o=N(r);if(0===o)return{origin:{x:p(e[4]),y:p(e[5])},translate:{x:p(t),y:p(n)},scale:{x:0,y:0},skew:{x:0,y:0},rotate:0};i[0][0]/=o,i[0][1]/=o;var u=e[0]*e[3]-e[1]*e[2]<0;u&&(o=-o);var a=i[0][0]*i[1][0]+i[0][1]*i[1][1];i[1][0]-=i[0][0]*a,i[1][1]-=i[0][1]*a;var l=N(i[1][0]*i[1][0]+i[1][1]*i[1][1]);if(0===l)return{origin:{x:p(e[4]),y:p(e[5])},translate:{x:p(t),y:p(n)},scale:{x:p(o),y:0},skew:{x:0,y:0},rotate:0};i[1][0]/=l,i[1][1]/=l,a/=l;var s=0;return i[1][1]<0?(s=M(i[1][1])*F,i[0][1]<0&&(s=360-s)):s=E(i[0][1])*F,u&&(s=-s),a=I(a,N(i[0][0]*i[0][0]+i[0][1]*i[0][1]))*F,u&&(a=-a),{origin:{x:p(e[4]),y:p(e[5])},translate:{x:p(t),y:p(n)},scale:{x:p(o),y:p(l)},skew:{x:p(a),y:0},rotate:p(s)}}},{key:"clone",value:function(){var t=this.m;return new this.constructor(t[0],t[1],t[2],t[3],t[4],t[5])}},{key:"toString",value:function(){var t=arguments.length>0&&void 0!==arguments[0]?arguments[0]:" ";if(null===this.s){var n=this.m.map((function(t){return p(t)}));1===n[0]&&0===n[1]&&0===n[2]&&1===n[3]?this.s="translate("+n[4]+t+n[5]+")":this.s="matrix("+n.join(t)+")"}return this.s}}],[{key:"create",value:function(t){return t?Array.isArray(t)?f(this,v(t)):t instanceof this?t.clone():(new this).recomposeSelf(t.origin,t.rotate,t.skew,t.scale,t.translate):new this}}]),t}();function q(t,n,e){return t>=.5?e:n}function B(t,n,e){return 0===t||n===e?n:t*(e-n)+n}function D(t,n,e){var r=B(t,n,e);return r<=0?0:r}function L(t,n,e){var r=B(t,n,e);return r<=0?0:r>=1?1:r}function C(t,n,e){return 0===t?n:1===t?e:{x:B(t,n.x,e.x),y:B(t,n.y,e.y)}}function V(t,n,e){var r=function(t,n,e){return Math.round(B(t,n,e))}(t,n,e);return r<=0?0:r>=255?255:r}function G(t,n,e){return 0===t?n:1===t?e:{r:V(t,n.r,e.r),g:V(t,n.g,e.g),b:V(t,n.b,e.b),a:B(t,null==n.a?1:n.a,null==e.a?1:e.a)}}function z(t,n){for(var e=[],r=0;r<t;r++)e.push(n);return e}function Y(t,n){if(--n<=0)return t;var e=(t=Object.assign([],t)).length;do{for(var r=0;r<e;r++)t.push(t[r])}while(--n>0);return t}var $,U=function(){function t(n){r(this,t),this.list=n,this.length=n.length}return o(t,[{key:"setAttribute",value:function(t,n){for(var e=this.list,r=0;r<this.length;r++)e[r].setAttribute(t,n)}},{key:"removeAttribute",value:function(t){for(var n=this.list,e=0;e<this.length;e++)n[e].removeAttribute(t)}},{key:"style",value:function(t,n){for(var e=this.list,r=0;r<this.length;r++)e[r].style[t]=n}}]),t}(),Q=/-./g,H=function(t,n){return n.toUpperCase()};function J(t){return"function"==typeof t?t:q}function Z(t){return t?"function"==typeof t?t:Array.isArray(t)?function(t){var n=arguments.length>1&&void 0!==arguments[1]?arguments[1]:w;if(!Array.isArray(t))return n;switch(t.length){case 1:return S(t[0])||n;case 2:return S(t[0],t[1])||n;case 4:return _(t[0],t[1],t[2],t[3])||n}return n}(t,null):function(t,n){var e=arguments.length>2&&void 0!==arguments[2]?arguments[2]:w;switch(t){case"linear":return w;case"steps":return S(n.steps||1,n.jump||0)||e;case"bezier":case"cubic-bezier":return _(n.x1||0,n.y1||0,n.x2||0,n.y2||0)||e}return e}(t.type,t.value,null):null}function K(t,n,e){var r=arguments.length>3&&void 0!==arguments[3]&&arguments[3],i=n.length-1;if(t<=n[0].t)return r?[0,0,n[0].v]:n[0].v;if(t>=n[i].t)return r?[i,1,n[i].v]:n[i].v;var o,u=n[0],a=null;for(o=1;o<=i;o++){if(!(t>n[o].t)){a=n[o];break}u=n[o]}return null==a?r?[i,1,n[i].v]:n[i].v:u.t===a.t?r?[o,1,a.v]:a.v:(t=(t-u.t)/(a.t-u.t),u.e&&(t=u.e(t)),r?[o,t,e(t,u.v,a.v)]:e(t,u.v,a.v))}function W(t,n){var e=arguments.length>2&&void 0!==arguments[2]?arguments[2]:null;return t&&t.length?"function"!=typeof n?null:("function"!=typeof e&&(e=null),function(r){var i=K(r,t,n);return null!=i&&e&&(i=e(i)),i}):null}function X(t,n){return t.t-n.t}function tt(t,n,r,i,o){var u,a="@"===r[0],l="#"===r[0],s=$[r],f=q;switch(a?(u=r.substr(1),r=u.replace(Q,H)):l&&(r=r.substr(1)),e(s)){case"function":if(f=s(i,o,K,Z,r,a,n,t),l)return f;break;case"string":f=W(i,J(s));break;case"object":if((f=W(i,J(s.i),s.f))&&"function"==typeof s.u)return s.u(n,f,r,a,t)}return f?function(t,n,e){if(arguments.length>3&&void 0!==arguments[3]&&arguments[3])return t instanceof U?function(r){return t.style(n,e(r))}:function(r){return t.style[n]=e(r)};if(Array.isArray(n)){var r=n.length;return function(i){var o=e(i);if(null==o)for(var u=0;u<r;u++)t[u].removeAttribute(n);else for(var a=0;a<r;a++)t[a].setAttribute(n,o)}}return function(r){var i=e(r);null==i?t.removeAttribute(n):t.setAttribute(n,i)}}(n,r,f,a):null}function nt(t,n,r,i){if(!i||"object"!==e(i))return null;var o=null,u=null;return Array.isArray(i)?u=function(t){if(!t||!t.length)return null;for(var n=0;n<t.length;n++)t[n].e&&(t[n].e=Z(t[n].e));return t.sort(X)}(i):(u=i.keys,o=i.data||null),u?tt(t,n,r,u,o):null}function et(t,n,e){if(!e)return null;var r=[];for(var i in e)if(e.hasOwnProperty(i)){var o=nt(t,n,i,e[i]);o&&r.push(o)}return r.length?r:null}function rt(t,n){if(!n.settings.duration||n.settings.duration<0)return null;var e,r,i,o,u,a=function(t,n){if(!n)return null;var e=[];if(Array.isArray(n))for(var r=n.length,i=0;i<r;i++){var o=n[i];if(2===o.length){var u=null;if("string"==typeof o[0])u=t.getElementById(o[0]);else if(Array.isArray(o[0])){u=[];for(var a=0;a<o[0].length;a++)if("string"==typeof o[0][a]){var l=t.getElementById(o[0][a]);l&&u.push(l)}u=u.length?1===u.length?u[0]:new U(u):null}if(u){var s=et(t,u,o[1]);s&&(e=e.concat(s))}}}else for(var f in n)if(n.hasOwnProperty(f)){var c=t.getElementById(f);if(c){var h=et(t,c,n[f]);h&&(e=e.concat(h))}}return e.length?e:null}(t,n.elements);return a?(e=a,r=n.settings,i=r.duration,o=e.length,u=null,function(t,n){var a=r.iterations||1/0,l=(r.alternate&&a%2==0)^r.direction>0?i:0,s=t%i,f=1+(t-s)/i;n*=r.direction,r.alternate&&f%2==0&&(n=-n);var c=!1;if(f>a)s=l,c=!0,-1===r.fill&&(s=r.direction>0?0:i);else if(n<0&&(s=i-s),s===u)return!1;u=s;for(var h=0;h<o;h++)e[h](s);return c}):null}function it(t,n){for(var e=n.querySelectorAll("svg"),r=0;r<e.length;r++)if(e[r].id===t.root&&!e[r].svgatorAnimation)return e[r].svgatorAnimation=!0,e[r];return null}function ot(t){var n=function(t){return t.shadowRoot};return document?Array.from(t.querySelectorAll(":not("+["a","area","audio","br","canvas","circle","datalist","embed","g","head","hr","iframe","img","input","link","object","path","polygon","rect","script","source","style","svg","title","track","video"].join()+")")).filter(n).map(n):[]}function ut(t){var n=arguments.length>1&&void 0!==arguments[1]?arguments[1]:document,e=arguments.length>2&&void 0!==arguments[2]?arguments[2]:0,r=it(t,n);if(r)return r;if(e>=20)return null;for(var i=ot(n),o=0;o<i.length;o++){var u=ut(t,i[o],e+1);if(u)return u}return null}function at(t,n){if($=n,!t||!t.root||!Array.isArray(t.animations))return null;var e=ut(t);if(!e)return null;var r=t.animations.map((function(t){return rt(e,t)})).filter((function(t){return!!t}));return r.length?{svg:e,animations:r,animationSettings:t.animationSettings,options:t.options||void 0}:null}function lt(t){var n=arguments.length>1&&void 0!==arguments[1]?arguments[1]:null,e=arguments.length>2&&void 0!==arguments[2]?arguments[2]:Number,r=arguments.length>3&&void 0!==arguments[3]?arguments[3]:"undefined"!=typeof BigInt&&BigInt,i="0x"+(t.replace(/[^0-9a-fA-F]+/g,"")||27);return n&&r&&e.isSafeInteger&&!e.isSafeInteger(+i)?e(r(i))%n+n:+i}function st(t,n,e){return!t||!e||n>t.length?t:t.substring(0,n)+st(t.substring(n+1),e,e)}function ft(t){var n=arguments.length>1&&void 0!==arguments[1]?arguments[1]:27;return!t||t%n?t%n:[0,1].includes(n)?n:ft(t/n,n)}function ct(t,n,e){if(t&&t.length){var r=lt(e),i=ft(r)+5,o=st(t,ft(r,5),i);return o=o.replace(/\x7c$/g,"==").replace(/\x2f$/g,"="),o=function(t,n,e){var r=+("0x"+t.substring(0,4));t=t.substring(4);for(var i=lt(n,r)%r+e%27,o=[],u=0;u<t.length;u+=2)if("|"!==t[u]){var a=+("0x"+t[u]+t[u+1])-i;o.push(a)}else{var l=+("0x"+t.substring(u+1,u+1+4))-i;u+=3,o.push(l)}return String.fromCharCode.apply(String,o)}(o=(o=atob(o)).replace(/[\x41-\x5A]/g,""),n,r),o=JSON.parse(o)}}var ht=[{key:"alternate",def:!1},{key:"fill",def:1},{key:"iterations",def:0},{key:"direction",def:1},{key:"speed",def:1},{key:"fps",def:100}],vt=function(){function t(n,e){var i=this,o=arguments.length>2&&void 0!==arguments[2]?arguments[2]:null;r(this,t),this._id=0,this._running=!1,this._rollingBack=!1,this._animations=n,this._settings=e,(!o||o<"2022-05-02")&&delete this._settings.speed,ht.forEach((function(t){i._settings[t.key]=i._settings[t.key]||t.def})),this.duration=e.duration,this.offset=e.offset||0,this.rollbackStartOffset=0}return o(t,[{key:"alternate",get:function(){return this._settings.alternate}},{key:"fill",get:function(){return this._settings.fill}},{key:"iterations",get:function(){return this._settings.iterations}},{key:"direction",get:function(){return this._settings.direction}},{key:"speed",get:function(){return this._settings.speed}},{key:"fps",get:function(){return this._settings.fps}},{key:"maxFiniteDuration",get:function(){return this.iterations>0?this.iterations*this.duration:this.duration}},{key:"_apply",value:function(t){for(var n=arguments.length>1&&void 0!==arguments[1]?arguments[1]:{},e=this._animations,r=e.length,i=0,o=0;o<r;o++)n[o]?i++:(n[o]=e[o](t,1),n[o]&&i++);return i}},{key:"_rollback",value:function(t){var n=this,e=1/0,r=null;this.rollbackStartOffset=t,this._rollingBack=!0,this._running=!0;this._id=window.requestAnimationFrame((function i(o){if(n._rollingBack){null==r&&(r=o);var u=Math.round(t-(o-r)*n.speed);if(u>n.duration&&e!==1/0){var a=!!n.alternate&&u/n.duration%2>1,l=u%n.duration;u=(l+=a?n.duration:0)||n.duration}var s=(n.fps?1e3/n.fps:0)*n.speed,f=Math.max(0,u);f<=e-s&&(n.offset=f,e=f,n._apply(f));var c=n.iterations>0&&-1===n.fill&&u>=n.maxFiniteDuration;(u<=0||n.offset<u||c)&&n.stop(),n._id=window.requestAnimationFrame(i)}}))}},{key:"_start",value:function(){var t=this,n=arguments.length>0&&void 0!==arguments[0]?arguments[0]:0,e=-1/0,r=null,i={};this._running=!0;var o=function o(u){null==r&&(r=u);var a=Math.round((u-r)*t.speed+n),l=(t.fps?1e3/t.fps:0)*t.speed;if(a>=e+l&&!t._rollingBack&&(t.offset=a,e=a,t._apply(a,i)===t._animations.length))return void t.pause(!0);t._id=window.requestAnimationFrame(o)};this._id=window.requestAnimationFrame(o)}},{key:"_pause",value:function(){this._id&&window.cancelAnimationFrame(this._id),this._running=!1}},{key:"play",value:function(){if(!this._running)return this._rollingBack?this._rollback(this.offset):this._start(this.offset)}},{key:"stop",value:function(){this._pause(),this.offset=0,this.rollbackStartOffset=0,this._rollingBack=!1,this._apply(0)}},{key:"reachedToEnd",value:function(){return this.iterations>0&&this.offset>=this.iterations*this.duration}},{key:"restart",value:function(){var t=arguments.length>0&&void 0!==arguments[0]&&arguments[0];this.stop(t),this.play(t)}},{key:"pause",value:function(){this._pause()}},{key:"reverse",value:function(){this.direction=-this.direction}}],[{key:"build",value:function(t,n){delete t.animationSettings,t.options=ct(t.options,t.root,"5c7f360c"),t.animations.map((function(n){n.settings=ct(n.s,t.root,"5c7f360c"),delete n.s,t.animationSettings||(t.animationSettings=n.settings)}));var e=t.version;if(!(t=at(t,n)))return null;var r=t.options||{},i=new this(t.animations,t.animationSettings,e);return{el:t.svg,options:r,player:i}}},{key:"push",value:function(t){return this.build(t)}},{key:"init",value:function(){var t=this,n=window.__SVGATOR_PLAYER__&&window.__SVGATOR_PLAYER__["5c7f360c"];Array.isArray(n)&&n.splice(0).forEach((function(n){return t.build(n)}))}}]),t}();function yt(t){return p(t)+""}function gt(t){var n=arguments.length>1&&void 0!==arguments[1]?arguments[1]:" ";return t&&t.length?t.map(yt).join(n):""}function dt(t){if(!t)return"transparent";if(null==t.a||t.a>=1){var n=function(t){return 1===(t=parseInt(t).toString(16)).length?"0"+t:t},e=function(t){return t.charAt(0)===t.charAt(1)},r=n(t.r),i=n(t.g),o=n(t.b);return e(r)&&e(i)&&e(o)&&(r=r.charAt(0),i=i.charAt(0),o=o.charAt(0)),"#"+r+i+o}return"rgba("+t.r+","+t.g+","+t.b+","+t.a+")"}function pt(t){return t?"url(#"+t+")":"none"}!function(){for(var t=0,n=["ms","moz","webkit","o"],e=0;e<n.length&&!window.requestAnimationFrame;++e)window.requestAnimationFrame=window[n[e]+"RequestAnimationFrame"],window.cancelAnimationFrame=window[n[e]+"CancelAnimationFrame"]||window[n[e]+"CancelRequestAnimationFrame"];window.requestAnimationFrame||(window.requestAnimationFrame=function(n){var e=Date.now(),r=Math.max(0,16-(e-t)),i=window.setTimeout((function(){n(e+r)}),r);return t=e+r,i},window.cancelAnimationFrame=window.clearTimeout)}();var mt={f:null,i:function(t,n,e){return 0===t?n:1===t?e:{x:D(t,n.x,e.x),y:D(t,n.y,e.y)}},u:function(t,n){return function(e){var r=n(e);t.setAttribute("rx",yt(r.x)),t.setAttribute("ry",yt(r.y))}}},bt={f:null,i:function(t,n,e){return 0===t?n:1===t?e:{width:D(t,n.width,e.width),height:D(t,n.height,e.height)}},u:function(t,n){return function(e){var r=n(e);t.setAttribute("width",yt(r.width)),t.setAttribute("height",yt(r.height))}}};Object.freeze({M:2,L:2,Z:0,H:1,V:1,C:6,Q:4,T:2,S:4,A:7});var wt={},At=null;function _t(t){var n=function(){if(At)return At;if("object"!==("undefined"==typeof document?"undefined":e(document))||!document.createElementNS)return{};var t=document.createElementNS("http://www.w3.org/2000/svg","svg");return t&&t.style?(t.style.position="absolute",t.style.opacity="0.01",t.style.zIndex="-9999",t.style.left="-9999px",t.style.width="1px",t.style.height="1px",At={svg:t}):{}}().svg;if(!n)return function(t){return null};var r=document.createElementNS(n.namespaceURI,"path");r.setAttributeNS(null,"d",t),r.setAttributeNS(null,"fill","none"),r.setAttributeNS(null,"stroke","none"),n.appendChild(r);var i=r.getTotalLength();return function(t){var n=r.getPointAtLength(i*t);return{x:n.x,y:n.y}}}function xt(t){return wt[t]?wt[t]:wt[t]=_t(t)}function kt(t,n,e,r){if(!t||!r)return!1;var i=["M",t.x,t.y];if(n&&e&&(i.push("C"),i.push(n.x),i.push(n.y),i.push(e.x),i.push(e.y)),n?!e:e){var o=n||e;i.push("Q"),i.push(o.x),i.push(o.y)}return n||e||i.push("L"),i.push(r.x),i.push(r.y),i.join(" ")}function St(t,n,e,r){var i=arguments.length>4&&void 0!==arguments[4]?arguments[4]:1,o=kt(t,n,e,r),u=xt(o);try{return u(i)}catch(t){return null}}function Ot(t,n,e){return t+(n-t)*e}function jt(t,n,e){var r=arguments.length>3&&void 0!==arguments[3]&&arguments[3],i={x:Ot(t.x,n.x,e),y:Ot(t.y,n.y,e)};return r&&(i.a=Mt(t,n)),i}function Mt(t,n){return Math.atan2(n.y-t.y,n.x-t.x)}function Et(t,n,e,r){var i=1-r;return i*i*t+2*i*r*n+r*r*e}function Pt(t,n,e,r){return 2*(1-r)*(n-t)+2*r*(e-n)}function It(t,n,e,r){var i=arguments.length>4&&void 0!==arguments[4]&&arguments[4],o=St(t,n,null,e,r);return o||(o={x:Et(t.x,n.x,e.x,r),y:Et(t.y,n.y,e.y,r)}),i&&(o.a=Rt(t,n,e,r)),o}function Rt(t,n,e,r){return Math.atan2(Pt(t.y,n.y,e.y,r),Pt(t.x,n.x,e.x,r))}function Ft(t,n,e,r,i){var o=i*i;return i*o*(r-t+3*(n-e))+3*o*(t+e-2*n)+3*i*(n-t)+t}function Nt(t,n,e,r,i){var o=1-i;return 3*(o*o*(n-t)+2*o*i*(e-n)+i*i*(r-e))}function Tt(t,n,e,r,i){var o=arguments.length>5&&void 0!==arguments[5]&&arguments[5],u=St(t,n,e,r,i);return u||(u={x:Ft(t.x,n.x,e.x,r.x,i),y:Ft(t.y,n.y,e.y,r.y,i)}),o&&(u.a=qt(t,n,e,r,i)),u}function qt(t,n,e,r,i){return Math.atan2(Nt(t.y,n.y,e.y,r.y,i),Nt(t.x,n.x,e.x,r.x,i))}function Bt(t,n,e){var r=arguments.length>3&&void 0!==arguments[3]&&arguments[3];if(Lt(n)){if(Ct(e))return It(n,e.start,e,t,r)}else if(Lt(e)){if(Vt(n))return It(n,n.end,e,t,r)}else{if(Vt(n))return Ct(e)?Tt(n,n.end,e.start,e,t,r):It(n,n.end,e,t,r);if(Ct(e))return It(n,e.start,e,t,r)}return jt(n,e,t,r)}function Dt(t,n,e){var r=Bt(t,n,e,!0);return r.a=function(t){return arguments.length>1&&void 0!==arguments[1]&&arguments[1]?t+Math.PI:t}(r.a)/b,r}function Lt(t){return!t.type||"corner"===t.type}function Ct(t){return null!=t.start&&!Lt(t)}function Vt(t){return null!=t.end&&!Lt(t)}var Gt=new T;var zt={f:yt,i:B},Yt={f:yt,i:L};function $t(t,n,e){return t.map((function(t){return function(t,n,e){var r=t.v;if(!r||"g"!==r.t||r.s||!r.v||!r.r)return t;var i=e.getElementById(r.r),o=i&&i.querySelectorAll("stop")||[];return r.s=r.v.map((function(t,n){var e=o[n]&&o[n].getAttribute("offset");return{c:t,o:e=p(parseInt(e)/100)}})),delete r.v,t}(t,0,e)}))}var Ut={gt:"gradientTransform",c:{x:"cx",y:"cy"},rd:"r",f:{x:"x1",y:"y1"},to:{x:"x2",y:"y2"}};function Qt(t,n,r,i,o,u,a,l){return $t(t,0,l),n=function(t,n,e){for(var r,i,o,u=t.length-1,a={},l=0;l<=u;l++)(r=t[l]).e&&(r.e=n(r.e)),r.v&&"g"===(i=r.v).t&&i.r&&(o=e.getElementById(i.r))&&(a[i.r]={e:o,s:o.querySelectorAll("stop")});return a}(t,i,l),function(i){var o=r(i,t,Ht);if(!o)return"none";if("c"===o.t)return dt(o.v);if("g"===o.t){if(!n[o.r])return pt(o.r);var u=n[o.r];return function(t,n){for(var e=t.s,r=e.length;r<n.length;r++){var i=e[e.length-1].cloneNode();i.id=Kt(i.id),t.e.appendChild(i),e=t.s=t.e.querySelectorAll("stop")}for(var o=0,u=e.length,a=n.length-1;o<u;o++)e[o].setAttribute("stop-color",dt(n[Math.min(o,a)].c)),e[o].setAttribute("offset",n[Math.min(o,a)].o)}(u,o.s),Object.keys(Ut).forEach((function(t){if(void 0!==o[t])if("object"!==e(Ut[t])){var n,r="gt"===t?(n=o[t],Array.isArray(n)?"matrix("+n.join(" ")+")":""):o[t],i=Ut[t];u.e.setAttribute(i,r)}else Object.keys(Ut[t]).forEach((function(n){if(void 0!==o[t][n]){var e=o[t][n],r=Ut[t][n];u.e.setAttribute(r,e)}}))})),pt(o.r)}return"none"}}function Ht(t,e,r){if(0===t)return e;if(1===t)return r;if(e&&r){var i=e.t;if(i===r.t)switch(e.t){case"c":return{t:i,v:G(t,e.v,r.v)};case"g":if(e.r===r.r){var o={t:i,s:Jt(t,e.s,r.s),r:e.r};return e.gt&&r.gt&&(o.gt=function(t,n,e){var r=n.length;if(r!==e.length)return q(t,n,e);for(var i=new Array(r),o=0;o<r;o++)i[o]=B(t,n[o],e[o]);return i}(t,e.gt,r.gt)),e.c?(o.c=C(t,e.c,r.c),o.rd=D(t,e.rd,r.rd)):e.f&&(o.f=C(t,e.f,r.f),o.to=C(t,e.to,r.to)),o}}if("c"===e.t&&"g"===r.t||"c"===r.t&&"g"===e.t){var u="c"===e.t?e:r,a="g"===e.t?n({},e):n({},r),l=a.s.map((function(t){return{c:u.v,o:t.o}}));return a.s="c"===e.t?Jt(t,l,a.s):Jt(t,a.s,l),a}}return q(t,e,r)}function Jt(t,n,e){if(n.length===e.length)return n.map((function(n,r){return Zt(t,n,e[r])}));for(var r=Math.max(n.length,e.length),i=[],o=0;o<r;o++){var u=Zt(t,n[Math.min(o,n.length-1)],e[Math.min(o,e.length-1)]);i.push(u)}return i}function Zt(t,n,e){return{o:L(t,n.o,e.o||0),c:G(t,n.c,e.c||{})}}function Kt(t){return t.replace(/-fill-([0-9]+)$/,(function(t,n){return"-fill-"+(+n+1)}))}var Wt={fill:Qt,"fill-opacity":Yt,stroke:Qt,"stroke-opacity":Yt,"stroke-width":zt,"stroke-dashoffset":{f:yt,i:B},"stroke-dasharray":{f:function(t){var n=arguments.length>1&&void 0!==arguments[1]?arguments[1]:" ";return t&&t.length>0&&(t=t.map((function(t){return p(t,4)}))),gt(t,n)},i:function(t,n,e){var r,i,o,u=n.length,a=e.length;if(u!==a)if(0===u)n=z(u=a,0);else if(0===a)a=u,e=z(u,0);else{var l=(o=(r=u)*(i=a)/function(t,n){for(var e;n;)e=n,n=t%n,t=e;return t||1}(r,i))<0?-o:o;n=Y(n,Math.floor(l/u)),e=Y(e,Math.floor(l/a)),u=a=l}for(var s=[],f=0;f<u;f++)s.push(p(D(t,n[f],e[f])));return s}},opacity:Yt,transform:function(t,n,r,i){if(!(t=function(t,n){if(!t||"object"!==e(t))return null;var r=!1;for(var i in t)t.hasOwnProperty(i)&&(t[i]&&t[i].length?(t[i].forEach((function(t){t.e&&(t.e=n(t.e))})),r=!0):delete t[i]);return r?t:null}(t,i)))return null;var o=function(e,i,o){var u=arguments.length>3&&void 0!==arguments[3]?arguments[3]:null;return t[e]?r(i,t[e],o):n&&n[e]?n[e]:u};return n&&n.a&&t.o?function(n){var e=r(n,t.o,Dt);return Gt.recomposeSelf(e,o("r",n,B,0)+e.a,o("k",n,C),o("s",n,C),o("t",n,C)).toString()}:function(t){return Gt.recomposeSelf(o("o",t,Bt,null),o("r",t,B,0),o("k",t,C),o("s",t,C),o("t",t,C)).toString()}},r:zt,"#size":bt,"#radius":mt,_:function(t,n){if(Array.isArray(t))for(var e=0;e<t.length;e++)this[t[e]]=n;else this[t]=n}},Xt=function(t){!function(t,n){if("function"!=typeof n&&null!==n)throw new TypeError("Super expression must either be null or a function");t.prototype=Object.create(n&&n.prototype,{constructor:{value:t,writable:!0,configurable:!0}}),n&&l(t,n)}(u,t);var n,e,i=(n=u,e=s(),function(){var t,r=a(n);if(e){var i=a(this).constructor;t=Reflect.construct(r,arguments,i)}else t=r.apply(this,arguments);return c(this,t)});function u(){return r(this,u),i.apply(this,arguments)}return o(u,null,[{key:"build",value:function(t){var n=h(a(u),"build",this).call(this,t,Wt);if(!n)return null;n.el,n.options,function(t,n,e){t.play()}(n.player)}}]),u}(vt);return Xt.init(),Xt}));
(function(s,i,o,w,d,a,b){w[o]=w[o]||{};w[o][s]=w[o][s]||[];w[o][s].push(i);})('5c7f360c',{"root":"eHGqdnUibp81","version":"2022-05-04","animations":[{"elements":{"eHGqdnUibp82":{"transform":{"data":{"o":{"x":225,"y":405.011081,"type":"corner"}},"keys":{"s":[{"t":0,"v":{"x":0.8,"y":1},"e":[0.42,0,0.58,1]},{"t":700,"v":{"x":0.9,"y":1},"e":[0.42,0,0.58,1]},{"t":1500,"v":{"x":0.8,"y":1}}]}}},"eHGqdnUibp83":{"transform":{"data":{"t":{"x":-225.000008,"y":-225.00032}},"keys":{"o":[{"t":0,"v":{"x":225.000008,"y":225.00032,"type":"corner"},"e":[0.42,0,0.58,1]},{"t":700,"v":{"x":225,"y":251.595652,"type":"corner"},"e":[0.42,0,0.58,1]},{"t":1500,"v":{"x":225.000008,"y":225.00032,"type":"corner"}}]}}},"eHGqdnUibp84":{"transform":{"data":{"o":{"x":239.95937,"y":169.727966,"type":"corner"},"t":{"x":-239.95937,"y":-169.727966}},"keys":{"r":[{"t":300,"v":-20,"e":[0.42,0,0.58,1]},{"t":1000,"v":-10,"e":[0.42,0,0.58,1]},{"t":1500,"v":-20}]}}},"eHGqdnUibp824":{"transform":{"data":{"o":{"x":207.824427,"y":169.727966,"type":"corner"},"t":{"x":-207.824422,"y":-169.727965}},"keys":{"r":[{"t":300,"v":20,"e":[0.42,0,0.58,1]},{"t":1000,"v":10,"e":[0.42,0,0.58,1]},{"t":1500,"v":20}]}}}},"s":"MGDA1ZGQ3N2VjMGQxQWANlYmRkMGM1Y2JjYTdIlTjk2OGQ5MThjOGM4MODdlYzBjNWNlYzFiZNmQwYzVjYmNhN2VJOTOY4ZDg4N2VjNWQwYzFUjZWJkZDBLYzVjYktjRYWNmWDdlOTY4Yzg4NI2VBYzJjNWM4Yzg3ZTTk2OGQ4ODdlYmRjOGQEwYzFjZWNhYmRkMEVjTMTdlOTZjMmJkYzhjZPmMxODg3ZWNmY2NjMWJMxYzA3ZTk2OGQ4OFEL3ZWMyY2NjZjdlOTY4NZDhjOGNkOQ|"}],"options":"MUDAxMDg4SDJmODA4MTIZlN2Y4MTJmNDcyZjcR5N2M2ZTcxMmY4YQ|"},'__SVGATOR_PLAYER__',window,document)
]]></script>
</svg>
