<?xml version="1.0" encoding="UTF-8"?>
<svg id="Layer_1" data-name="Layer 1" xmlns="http://www.w3.org/2000/svg" xmlns:xlink="http://www.w3.org/1999/xlink" viewBox="0 0 928.85 1029.95">
  <defs>
    <style>
      .cls-1 {
        fill: #282827;
      }

      .cls-2 {
        fill: #152633;
      }

      .cls-3 {
        fill: #282828;
      }

      .cls-4 {
        clip-path: url(#clippath);
      }

      .cls-5 {
        fill: none;
      }

      .cls-6 {
        clip-path: url(#clippath-8);
      }
    </style>
    <clipPath id="clippath">
      <rect class="cls-5" x="7.66" y="108.77" width="921.19" height="921.19"/>
    </clipPath>
    <clipPath id="clippath-8">
      <rect class="cls-5" width="921.19" height="921.19"/>
    </clipPath>
  </defs>
  <g class="cls-4">
    <g>
      <polygon class="cls-2" points="394.67 365.51 380.14 365.51 394.67 371.05 394.67 365.51"/>
      <rect class="cls-2" x="393.87" y="364.12" width="1.6" height="39.4"/>
      <polygon class="cls-2" points="314.81 380.27 300.28 380.27 314.81 385.8 314.81 380.27"/>
      <rect class="cls-2" x="314.01" y="378.87" width="1.6" height="39.4"/>
      <polygon class="cls-2" points="174.84 381.68 166.45 381.68 174.84 384.88 174.84 381.68"/>
      <rect class="cls-2" x="174.04" y="380.87" width="1.6" height="22.75"/>
      <path class="cls-1" d="m551.65,678.19c-.54-3.57-1.8-4.57-3.9-7.29-1.91-2.48-3.03-5.27-3.83-8.54-1.06-4.34.27-5.4-2.6-8.63-2.84-3.2-4.54-6.25-6.8-9.94-4.41-7.22-10.94-11.57-15.92-17.85-3.02-3.81-9.67-10.85-8.84-16.22.34-.07.62-.03.95-.11,1.41-3.35-.59-4.63-2.78-5.45-.84-.31-1.08.79-2.48-.07-1.26-.77-1.7-2.5-1.78-3.88-1.15.33-1.09-.17-1.87.81-.04-.07-.47-.81-.26-.82-.81-.99-2.4-2.02-3.92-2.27v-7.91h-3.82v-4.8h-4v3.73h-3.73v-3.73h-3.47v3.47h-2.4v-3.47h-3.47v3.47h-3.47v-3.47h-2.4v3.73h-3.2v-3.73h-2.93v3.73h-3.73v-3.73h-2.93v3.73h-2.67v-5.06h-3.47l-9.87-9.33h-10.67v8.8h-1.6v-160.25l4.27-6.13v-15.2s-.65-.17-1.87-.43v4.83h-1.73v-5.2c-1.8-.37-4.22-.83-7.2-1.3v5.3h-2.8v-5.73c-3.31-.48-7.11-.94-11.33-1.31v5.71h-4.27v-6.03c-4-.27-8.29-.43-12.8-.45v6.48h-5.2v-6.42c-4.47.11-9.11.39-13.87.88v4.35h-4.4v-3.84c-2.99.39-6.02.86-9.07,1.44v6.13h-3.2v-5.47c-1.55.33-3.11.69-4.66,1.07v17.87l4,6.67v109.85h-6.13v-83.72l4.27-8.26v-9.87h-4v2.93h-3.2v-4h-6.4v3.47h-4.27v-5.6h-5.33v4.53h-3.73v-5.87h-2.4l-9.6-16-12.53,17.07h-5.87v5.6h-2.93v-4.53h-7.47v5.6h-2.93v-3.47l-6.93.53v4.27h-2.93l.53-3.73h-5.6v10.66l5.06,9.33v70.39h-6.13v4.8h-2.93v-4.8h-5.87v4.8h-2.67v-4.8h-6.4v5.33h-2.13v-4.53h-7.47v5.07h-2.13v-4.27h-5.87v5.07h-2.67v-5.07h-6.93v6.13h-1.87v-5.87h-6.93v6.13h-1.87v-5.33h-6.4v6.13h-1.87v-4.8h-8v-50.39l4.53-8.27v-10.4l-9.33-7.47-12-21.06v-18.93h1.33l-5.07-15.82-5.78,15.73h1.46s.05,14.4.05,14.4h-11.55l-18.49,27.02-9.95,6.04h2.84v11.73l3.91,7.47v59.02h-30.21v14.22l-16.71,16.35v12.8h-7.47l-24.53,18.13-17.06,6.4-1.07,7.11c1.39,4.75-4.24,10.67-5.97,15.37-1.67,4.54.15,14.88-6.42,15.62-2.23,6.08,1.43,10.07,1.72,15.61.11,2.11-.1,5.06-.8,7.36-.81,2.67-3.04,4.26-3.11,7.2-.05,2.25,1.06,5.67,1.41,8.17.52,3.7,1.93,4.42.79,7.99-1.25,3.92.22,6.45-.07,10.49-.19,2.52-2.35,4.09-2.85,6.03-.73,2.81.27,3.8-1.5,6.06-1.25,1.6-3.35,3-5.18,3.71-.5,5,3.34,7.28,5.01,11.48,1.21,3.05-1.2,3.61-1.1,5.78.17,3.75,3.71,4.91.25,8.91,1.49,1.57,4,1.73,5.03,3.54.36.63-.31,1.84-.01,2.5.8,1.75,1.98,2.42,3.57,3.64,3.36,2.59,6.41,7.45,10.27,8.87-1.16.97-3.61.75-5.25,1.77-.14.33-.44,1.61-.45,1.68,2.14,3.53,4.15,3.77,8.12,3.95,4.33.2,6.4-2.4,10.1-2.24,3.96.18,8.18,2.13,12.14,2.69,3.68.52,7.49.12,11.24.24,12.45.39,25.32.51,37.72,1.52,3.92.32,7.79,1.45,11.71,1.96,6.47.85,12.96.5,19.24,2.48,8.82,2.79,15.96,4.39,25.2,4.8,10,.44,20.04,1.23,30.06,1.36,6.76.09,14,.93,20.31-1.77,4.37-1.87,7.06-3.64,11.84-4.01,4.87-.38,9.75-.88,14.62-1.34,7.64-.73,15.6-.06,23.37-.36,3.06-.12,3.25-.67,5.8-2.06,6.16-3.34,14.13-2.57,20.89-2.57,7.1,0,17.57,1.76,24.26-1.42,2.56-1.22,4.09-2.14,6.99-2.93,2.58-.7,2.84-1.14,4.72-2.84.36-.33.76-1.23,1.32-1.71.28-.23,2.75-.79,3.23-.97,1.88-.7,2.69-1.55,4.88-1.35,3.63.33,6.67,3.17,10.16,4.04,1.84.46,3.98-.1,5.88.14,3.47.45,6.21,2.09,9.84,1.64,6.52-.8,12.44-2.04,18.4.55,5.22,2.27,10.67,2.47,16.31,1.65,3.78-.55,6.84-3.03,10.66-3.68,7.42-1.26,15.12.73,22.48,1.53,11.84,1.3,23.74,3.33,35.58,3.93,5.63.29,10.86-.12,16.36,1.06,2.77.6,4.6.65,7.38.25,3.25-.47,7.23-.95,10.31-2.3,4.78-2.1,1.8-3.35,1.39-7.29-.64-6.14,3.4-4.79,7.06-7.1,2.93-1.84,3.89-6.08,5.04-8.82,3.36-8,16.73-7.05,17.69-16.01.59-5.48-2.34-5.94-6.25-9.13-2.21-1.8-5.03-4.96-2.55-7.91,1.56-1.86,2.76-.32,4.8-1.07,1.73-.64,2.12-1.55,3.4-3.21,1.16-1.51,2.6-2.37,3.82-3.65,1.7-1.79,1.53-2.54,2.54-4.88,1.72-4,5.94-6.05,7.78-9.6,1.45-2.8.87-7.76.41-10.76Zm-356.14-217.09l1.47.27v3.73h-1.47v-4Zm-54.99,2h-2.8v-4h2.8v4Zm8.67,0h-2.8v-4h2.8v4Zm9.2,0h-3.2v-4h3.2v4Zm8.53,0h-3.6v-4h3.6v4Zm8.4,0h-3.6v-4h3.6v4Zm9.47,0h-1.47v-4l1.47.27v3.73Zm4.2.87h-1.47v-4l1.47.27v3.73Zm4,.47h-1.47v-4l1.47.27v3.73Zm137.38,61.59h-1.6v-5.06h1.6v5.06Zm0-6.67h-1.6v-3.47h1.6v3.47Zm0-40.53h-1.6v-5.07h1.6v5.07Zm0-6.67h-1.6v-3.47h1.6v3.47Zm3.47,53.86h-1.87v-5.06h1.87v5.06Zm0-6.67h-1.87v-3.47h1.87v3.47Zm0-40.53h-1.87v-5.07h1.87v5.07Zm0-6.67h-1.87v-3.47h1.87v3.47Zm85.19,77.86h-2.8v-8h2.8v8Zm0-9.47h-2.8v-4.13h2.8v4.13Zm0-61.99h-2.8v-8h2.8v8Zm0-9.46h-2.8v-4.13h2.8v4.13Zm0-28.26h-2.8v-4h2.8v4Zm0-5.47h-2.8v-4.13h2.8v4.13Zm4.53,114.65h-2.67v-8h2.67v8Zm0-9.47h-2.67v-4.13h2.67v4.13Zm0-61.99h-2.67v-8h2.67v8Zm0-9.46h-2.67v-4.13h2.67v4.13Zm0-28.26h-2.67v-4h2.67v4Zm0-5.47h-2.67v-4.13h2.67v4.13Z"/>
    </g>
  </g>
  <g class="cls-6">
    <g>
      <path class="cls-3" d="m234.89,128.53c1.29,1.84,2.97.49,2.97.49l1.25.73c3.74,1.63,5.7.32,5.7.32.6-4.91-5.17-13.52-5.17-13.52-.57-3.09,1.66-5.74,1.66-5.74l-7.96-18.04-4.39-1.27-1.23,8.06c-20.84-20.3-44.24-10.24-50.28-8.33-6.04,1.91-21.34.41-28.48-2.75-7.13-3.16,3.01-19.25,3.01-19.25-6.28,1.47-27.32-1.69-27.32-1.69-39.46-7.76-70.44,15.84-84.27,37.08-13.83,21.24,6.92,36.76,6.92,36.76-4.08-21.31,16.9-16.69,16.9-16.69,3.57-13.6,17.54-6.26,17.54-6.26,11.02-16.57,25.75-4.26,25.75-4.26,12.94-13.09,28.73-1.93,28.73-1.93-11.37,7.68-14.43,28.39-14.43,28.39-24.9-5.01-22.27,18.8-22.27,18.8.53,15.88-10.26,35.08-10.26,35.08-8.44,11.09-4.3,15.22-4.3,15.22.59-4.59,3.93-4.72,3.93-4.72,2.93,3.78,4,2.62,4,2.62-2.39-6.91,3.91-13.5,3.91-13.5,3.34-2.69,8.68,2.88,8.68,2.88-.28-4.11-7.12-8.28-7.12-8.28,0,0,11.13-22.02,10.67-28.01-.46-5.99,17.33-.47,17.33-.47,1.62,34.86,34.09,68.04,37.35,104.84,3.25,36.8-39.91,44.36-39.91,44.36,17.26-2.76,34.08-6.53,50.54-31.77,16.46-25.24-21.93-94.89-21.93-94.89,0,0,9.43-17.39,8.52-20.59-.91-3.19-10.28-1.15-10.28-1.15-2.62-9.91,13.73-18.35,13.73-18.35,22.44,16.01,13.98,49.05,13.98,49.05,18.71,6.15,13.18,29.06,13.18,29.06,32.83.35,31.83,25.31,31.83,25.31,15.86-6.76,17.58,11.31,17.58,11.31,20.41-9.83,18.76-64.82,18.76-64.82-6.55-5.19-18.82-31.06-18.82-31.06-51.35-18.52-48.68-56.83-48.68-56.83,22.82-13.09,37.14,15.8,39.54,20.16,0,0,1.85,1.82,3.15,3.65Z"/>
      <path class="cls-3" d="m228.54,94.23c.82-5.34-2.22-22.69-2.22-22.69,6.31,11.71,7.02,21.24,7.02,21.24l-4.8,1.45Z"/>
      <path class="cls-3" d="m231.45,100.32c1.71-5.12,1.67-22.74,1.67-22.74,4.22,12.61,3.31,22.13,3.31,22.13l-4.98.61Z"/>
      <path class="cls-3" d="m136.57,191.23l-5.14-11.64c-2.78,6.75-5.1,8.13-10.92,6.44s-6.27,3.67-6.27,3.67c.77-2.66,4.03-2.54,5.18-1.77,1.15.77,1.34,2.01.07,6.86-1.27,4.84-7.45,2.51-7.45,2.51,1.17,1.16,2.33,5.2,2.33,5.2,1.22,3.38,6.24,1.67,9.23-1.99,2.98-3.66,11.44-8.05,11.44-8.05l1.53-1.22Z"/>
    </g>
  </g>
</svg>