<?xml version="1.0" encoding="UTF-8"?>
<svg id="Layer_2" data-name="Layer 2" xmlns="http://www.w3.org/2000/svg" xmlns:xlink="http://www.w3.org/1999/xlink" viewBox="0 0 1268.9 694.56">
  <defs>
    <style>
      .cls-1 {
        fill: #e9e9e9;
      }

      .cls-2 {
        fill: #fff;
      }

      .cls-3 {
        fill: url(#radial-gradient);
      }
    </style>
    <radialGradient id="radial-gradient" cx="92.59" cy="8.89" fx="-63.29" fy="8.89" r="1807.66" gradientUnits="userSpaceOnUse">
      <stop offset=".46" stop-color="#282828"/>
      <stop offset=".58" stop-color="#171717"/>
      <stop offset=".77" stop-color="#000"/>
    </radialGradient>
  </defs>
  <path class="cls-1" d="m1250.96,1.3s-160.72,47.74-241.66,58.19c-97.78,12.62-327.69-32.56-392.94-33.62-47.49-.77,52.09,136.34-40.6,137.87-88.07,1.46-21.45-101.11-72-100.34-100.4,1.52,101.87,469.53-22.21,469.53s41.36-391.4-88.09-386.81c-84.97,3.02,29.11,187.66-42.13,192.26-83.32,5.38-17.62-136.34-65.11-134.04-93.79,4.54,62.84,491.89-50.55,490.21-103.4-1.53,74.3-378.38-56.43-376.6-46.74.64,31.91,155.74-22.21,155.74-69.7,0,13.53-137.62-51.57-137.87-28.77-.11,6.92,86.49-22.98,87.83-39.83,1.79,9.19-90.89-41.36-89.87-24.08.49-21.32,23.14-18.13,42.38,7.15,43.15,95.54,196.74,12,199.15C-1.17,576.36,0,544.06,0,544.06V0h1250.96v1.3Z"/>
  <path d="m1268.9.02s-161.17,46.47-253.6,52.47c-98.39,6.39-327.69-32.56-392.94-33.62-47.49-.77,52.09,136.34-40.6,137.87-88.07,1.46-21.45-101.11-72-100.34-100.4,1.52,101.87,469.53-22.21,469.53s41.36-391.4-88.09-386.81c-84.97,3.02,29.11,187.66-42.13,192.26-83.32,5.38-17.62-136.34-65.11-134.04-93.79,4.54,62.84,491.89-50.55,490.21-103.4-1.53,74.3-378.38-56.43-376.6-46.74.64,31.91,155.74-22.21,155.74-69.7,0,13.53-137.62-51.57-137.87-28.77-.11,6.92,86.49-22.98,87.83-39.83,1.79,9.19-90.89-41.36-89.87-24.08.49-21.32,23.14-18.13,42.38,7.15,43.15,95.54,196.74,12,199.15C4.83,569.36,0,537.43,0,537.43V0l1251.35.02h17.54Z"/>
  <path class="cls-3" d="m1242.79,2.45s-131.22,36.04-227.49,42.04c-98.4,6.13-327.69-32.56-392.94-33.62-47.49-.77,52.09,136.34-40.6,137.87-88.07,1.46-21.45-101.11-72-100.34-100.4,1.52,101.87,469.53-22.21,469.53-121.04,0,41.36-391.4-88.09-386.81-84.97,3.02,29.11,187.66-42.13,192.26-83.32,5.38-17.62-136.34-65.11-134.04-93.79,4.54,62.84,491.89-50.55,490.21-103.4-1.53,74.3-378.38-56.43-376.6-46.74.64,31.91,155.74-22.21,155.74-69.7,0,13.53-137.62-51.57-137.87-28.77-.11,6.92,86.49-22.98,87.83-39.83,1.79,9.19-90.89-41.36-89.87-24.08.49-21.32,23.14-18.13,42.38,7.15,43.15,95.54,196.74,12,199.15C4.83,561.36,0,529.43,0,529.43V0s1251.38,0,1251.38,0l-8.6,2.45Z"/>
  <path class="cls-2" d="m42.58,446.85c-.31-1.25,1.43-1.89,2.02-.75,8.09,15.92,24.58,50.81,21.77,65.36-1.9,9.87-21.74,27.97-30.06,35.19-.87.76-2.17-.19-1.7-1.25,4.54-10.32,15.53-36.21,16.44-46.96s-5.06-37.63-8.47-51.59Z"/>
  <path class="cls-2" d="m167.69,375.18c0-1.29,1.83-1.51,2.14-.26,4.18,17.36,12.15,55.12,6.05,68.63-4.14,9.16-22.23,7.39-31.47,2.11-1-.57-.44-3.41.71-3.24,10.98,1.56,19.78,4.41,23.15-5.84,3.46-10.52-.48-47.01-.57-61.39Z"/>
  <path class="cls-2" d="m93.98,360.41c.04-.77.89-.97.98-.23,1.25,10.25,3.46,32.58.2,40.9-2.21,5.64-10.34,5.25-14.33,2.43-.43-.31-.07-2.03.44-1.97,4.91.53,8.79,1.91,10.7-4.36s1.52-28.16,2.01-36.77Z"/>
  <path class="cls-2" d="m272.25,516.34c.31-2.59,3.23-3.07,3.39-.56,2.23,34.84,5.34,110.62-7.49,137.9-8.7,18.5-36.45,15.31-49.55,4.87-1.42-1.13.16-6.84,1.9-6.54,16.72,2.93,29.73,8.47,37.5-12.21,7.99-21.23,10.83-94.55,14.24-123.47Z"/>
  <path class="cls-2" d="m498.9,342.44c-.28-2.06,1.34-3.11,1.88-1.23,7.53,26.18,22.89,83.56,20.27,107.48-1.77,16.23-20.24,45.99-27.99,57.87-.81,1.25-2.02-.32-1.58-2.06,4.23-16.97,14.46-59.55,15.31-77.23.87-18.15-4.71-61.87-7.89-84.84Z"/>
  <path class="cls-2" d="m359.71,231.84c-.08-1.33,2.2-1.47,2.64-.16,6.09,18.18,17.95,57.66,11.09,71.31-4.66,9.26-27.21,6.49-38.96.54-1.28-.65-.72-3.55.71-3.32,13.71,2.19,24.78,5.59,28.43-4.83,3.75-10.71-3.05-48.66-3.91-63.54Z"/>
  <path class="cls-2" d="m603.49,50.54c.18-1.49,3.15-.78,3.44.82,4.12,22.21,11.28,69.93-.43,82.31-7.94,8.4-36.54-3.11-50.5-14.04-1.52-1.19-.2-4.16,1.6-3.37,17.28,7.55,30.89,15.44,37.78,5.38,7.07-10.32,6.13-54.48,8.11-71.11Z"/>
</svg>