<?xml version="1.0" encoding="UTF-8"?>
<svg id="Layer_1" data-name="Layer 1" xmlns="http://www.w3.org/2000/svg" viewBox="0 0 443.65 510.81">
  <defs>
    <style>
      .cls-1 {
        fill: #fff;
      }

      .cls-2 {
        fill: #8e8e8e;
      }
    </style>
  </defs>
  <path class="cls-2" d="m172,9.44c-51.99,13.72,67.4,173.62,20.43,219.57-11.68,11.43-57.53-15.26-69.45-4.09-9.34,8.76,6.04,43.23-4.09,51.06-22.15,17.13-95.1-45.21-104.17-18.72-12.6,36.77,98.53,22.84,110.64,49.7,3.8,8.43-33.39,28.86-29.96,37.45s31.1,2.74,33.7,11.23c13.85,45.27-148.7,116.47-115.4,150.13,37.06,37.47,120.11-147.49,168.51-126.64,41.87,18.04-21.09,97.7,4.09,106.21,23.53,7.96,28.26-74.89,63.32-76.6,49.69-2.41,40.17,92.6,74.55,83.74,31.68-8.16-28.94-90.21-2.04-116.43,32.26-31.44,95.64,50.05,109.28,25.53,14.56-26.19-80.34-38.13-84.77-84.77-6.3-66.37,108.96-57.16,96-86.81-12.63-28.89-83.74,51.06-117.45,3.06-24.42-34.78,64.34-77.62,23.49-96-41.7-18.77-29.62,89.87-85.79,76.6C193.67,197.34,227.66-5.24,172,9.44Z"/>
  <path class="cls-1" d="m162.8.76c-51.99,13.72,67.4,173.62,20.43,219.57-11.68,11.43-57.53-15.26-69.45-4.09-9.34,8.76,6.04,43.23-4.09,51.06-22.15,17.13-95.1-45.21-104.17-18.72-12.6,36.77,98.53,22.84,110.64,49.7,3.8,8.43-33.39,28.86-29.96,37.45,3.3,8.25,31.1,2.74,33.7,11.23,13.85,45.27-148.7,116.47-115.4,150.13,37.06,37.47,120.11-147.49,168.51-126.64,41.87,18.04-21.09,97.7,4.09,106.21,23.53,7.96,28.26-74.89,63.32-76.6,49.69-2.41,40.17,92.6,74.55,83.74,31.68-8.16-28.94-90.21-2.04-116.43,32.26-31.44,95.64,50.05,109.28,25.53,14.56-26.19-80.34-38.13-84.77-84.77-6.3-66.37,108.96-57.16,96-86.81-12.63-28.89-83.74,51.06-117.45,3.06-24.42-34.78,64.34-77.62,23.49-96-41.7-18.77-29.62,89.87-85.79,76.6C184.48,188.66,218.46-13.92,162.8.76Z"/>
</svg>