<?xml version="1.0" encoding="utf-8"?>
<!-- Generator: Adobe Illustrator 27.3.1, SVG Export Plug-In . SVG Version: 6.00 Build 0)  -->
<svg version="1.1" id="Layer_1" xmlns="http://www.w3.org/2000/svg" xmlns:xlink="http://www.w3.org/1999/xlink" x="0px" y="0px"
	 viewBox="0 0 1920 1080" style="enable-background:new 0 0 1920 1080;" xml:space="preserve">
<style type="text/css">
	.st0{fill:#8E8E8E;}
	.st1{fill:#FFFFFF;}
</style>
<path class="st0" d="M1320.6,409c-52,13.7,67.4,173.6,20.4,219.6c-11.7,11.4-57.5-15.3-69.4-4.1c-9.3,8.8,6,43.2-4.1,51.1
	c-22.1,17.1-95.1-45.2-104.2-18.7c-12.6,36.8,98.5,22.8,110.6,49.7c3.8,8.4-33.4,28.9-30,37.4c3.3,8.2,31.1,2.7,33.7,11.2
	c13.8,45.3-148.7,116.5-115.4,150.1c37.1,37.5,120.1-147.5,168.5-126.6c41.9,18-21.1,97.7,4.1,106.2c23.5,8,28.3-74.9,63.3-76.6
	c49.7-2.4,40.2,92.6,74.6,83.7c31.7-8.2-28.9-90.2-2-116.4c32.3-31.4,95.6,50.1,109.3,25.5c14.6-26.2-80.3-38.1-84.8-84.8
	c-6.3-66.4,109-57.2,96-86.8c-12.6-28.9-83.7,51.1-117.4,3.1c-24.4-34.8,64.3-77.6,23.5-96c-41.7-18.8-29.6,89.9-85.8,76.6
	C1342.3,596.9,1376.3,394.4,1320.6,409z"/>
<path class="st1" d="M1311.4,400.4c-52,13.7,67.4,173.6,20.4,219.6c-11.7,11.4-57.5-15.3-69.4-4.1c-9.3,8.8,6,43.2-4.1,51.1
	c-22.1,17.1-95.1-45.2-104.2-18.7c-12.6,36.8,98.5,22.8,110.6,49.7c3.8,8.4-33.4,28.9-30,37.4c3.3,8.2,31.1,2.7,33.7,11.2
	c13.8,45.3-148.7,116.5-115.4,150.1c37.1,37.5,120.1-147.5,168.5-126.6c41.9,18-21.1,97.7,4.1,106.2c23.5,8,28.3-74.9,63.3-76.6
	c49.7-2.4,40.2,92.6,74.6,83.7c31.7-8.2-28.9-90.2-2-116.4c32.3-31.4,95.6,50.1,109.3,25.5c14.6-26.2-80.3-38.1-84.8-84.8
	c-6.3-66.4,109-57.2,96-86.8c-12.6-28.9-83.7,51.1-117.4,3.1c-24.4-34.8,64.3-77.6,23.5-96c-41.7-18.8-29.6,89.9-85.8,76.6
	C1333.1,588.2,1367.1,385.7,1311.4,400.4z"/>
<path class="st0" d="M459.8,269.4c-42.4,33.2,86.8,93.4,56.2,136.3c-11.7,16.4-74.3-15.1-80.7,4.1c-6.6,19.9,53.9,39.1,49,54.6
	c-14.8,47.5-172.4-13.5-170.6,28.1c2,44.9,159.7-21.3,178.7,19.4c24.5,52.6-136.2,129.2-101.6,163.4
	c38,37.6,105.3-134.5,158.8-133.8c15.3,0.2,32.8,36.2,48,37.8c9.7,1,7.9-24.9,15.3-25.5c37.2-3.1,64.5,144.3,103.7,117.4
	c42.4-29.1-96.8-117.2-79.1-155.2c5.1-11,41.4-1.5,47-12.3c3.8-7.2-14.9-23.4-11.2-30.6c12.2-24.2,104.3-3.5,104.2-30.6
	c-0.1-29.7-95.5,1-114.4-32.7c-19-33.9,54.6-63.8,22.5-86.3c-38.4-26.8-47.5,74-77.6,58.7c-38-19.3,44.4-163.9,8.7-168.5
	c-41.3-5.3-9.2,152.7-37.3,161.4c-5.3,1.7-7.1-18.4-16.3-15.3c-5.7,1.9,0.1,20-5.1,20.4C507.8,384.3,512.1,228.4,459.8,269.4z"/>
<path class="st1" d="M467.4,263.3c-42.4,33.2,86.8,93.4,56.2,136.3c-11.7,16.4-74.3-15.1-80.7,4.1c-6.6,19.9,53.9,39.1,49,54.6
	c-14.8,47.5-172.4-13.5-170.6,28.1c2,44.9,159.7-21.3,178.7,19.4c24.5,52.6-136.2,129.2-101.6,163.4
	c38,37.6,105.3-134.5,158.8-133.8c15.3,0.2,32.8,36.2,48,37.8c9.7,1,7.9-24.9,15.3-25.5c37.2-3.1,64.5,144.3,103.7,117.4
	c42.4-29.1-96.8-117.2-79.1-155.2c5.1-11,41.4-1.5,47-12.3c3.8-7.2-14.9-23.4-11.2-30.6c12.2-24.2,104.3-3.5,104.2-30.6
	c-0.1-29.7-95.5,1-114.4-32.7c-19-33.9,54.6-63.8,22.5-86.3c-38.4-26.8-47.5,74-77.6,58.7c-38-19.3,44.4-163.9,8.7-168.5
	c-41.3-5.3-9.2,152.7-37.3,161.4c-5.3,1.7-7.1-18.4-16.3-15.3c-5.7,1.9,0.1,20-5.1,20.4C515.4,378.2,519.7,222.4,467.4,263.3z"/>
</svg>
