<?xml version="1.0" encoding="UTF-8"?>
<svg id="Layer_1" data-name="Layer 1" xmlns="http://www.w3.org/2000/svg" viewBox="0 0 307.37 99.99">
  <defs>
    <style>
      .cls-1 {
        fill: #516c35;
      }

      .cls-2 {
        fill: #3a5024;
      }

      .cls-3 {
        fill: #425c2a;
      }

      .cls-4 {
        fill: #41552d;
      }

      .cls-5 {
        fill: #314223;
      }

      .cls-6 {
        fill: #61823c;
      }
    </style>
  </defs>
  <g>
    <g>
      <path class="cls-2" d="m24.56,50.99s-2.94-5.14-2.67-9.92c2.94-.89,4.46-1.4,4.46-1.4l-4.39-.07,2.43-7.03,4.95.12-3.65-1.72,7.76-8.75,2.21,1.18-.25-2.45s5.97-5.91,15.23-7.1c-3.87,3.41-6.02,4.91-6.02,4.91l3.19-.14-3.52,9.01-4.54.22,3.19,1.45-2.98,6.08-6.24.68,4.33,1.31s-7.76,12.77-13.51,13.64Z"/>
      <path class="cls-2" d="m25.01,50.89c.5-3.72,2.78-11.01,10.53-22.8,6.68-10.16,12.17-13.25,14.53-14.17.19-.03.38-.06.58-.08-3.87,3.41-6.02,4.91-6.02,4.91l3.19-.14-3.52,9.01-4.54.22,3.19,1.45-2.98,6.08-6.24.68,4.33,1.31s-7.36,12.11-13.05,13.55Z"/>
    </g>
    <g>
      <path class="cls-2" d="m22.34,37.6s4.08-2.89,5.57-6.65c-1.94-1.73-2.92-2.66-2.92-2.66l3.39,1.5.64-6.25-3.83-1.67,3.41-.02-2.83-9.46-2.11.11,1.06-1.79S22.26,4.21,15.59,0c1.75,3.99,2.84,5.76,2.84,5.76l-2.4-1.24-.51,8.15,3.4,1.78-2.96-.02.12,5.71,4.54,2.74-3.78-.53s1.4,12.54,5.5,15.26Z"/>
      <path class="cls-2" d="m22.03,37.37c.93-3.03,1.79-9.43.04-21.21C20.56,5.99,17.48,1.81,16,.27c-.14-.09-.27-.18-.41-.27,1.75,3.99,2.84,5.76,2.84,5.76l-2.4-1.24-.51,8.15,3.4,1.78-2.96-.02.12,5.71,4.54,2.74-3.78-.53s1.33,11.9,5.19,15.02Z"/>
    </g>
    <path class="cls-2" d="m26.35,57.26s4.76-11.03-6.71-28.97C11.54,15.63,0,8.92,0,8.92v9l7.05,3.72-5.58,1.09,2.17,4.2,9.5,2.08h-7.96s2.52,4.97,2.52,4.97l9.89.7-8.37,1.43s5.93,15.11,17.11,21.15Z"/>
    <path class="cls-2" d="m13.71,63.91s.32-12.01,18.28-23.46c12.67-8.08,27.46-4.31,27.46-4.31l-4.69,5.44-8.55-1.87,4.6,3.33-3.74,2.9-9.5-2.12,7.22,3.35-4.37,3.45-9.27-3.53,6.99,4.81s-11.73,11.21-24.42,11.98Z"/>
  </g>
  <path class="cls-5" d="m0,54.29s19.36,12.28,58.88,22.93c37.45,10.1,60.32,3.16,66.24,2.48,5.92-.68,9.89,6.94,18.88,7.4,8.99.46,37.53,5.94,55.15-.77,15.57-5.92,43.22-7.96,59.49-5.36s41.43,9.44,46.21,13.53,1.28,5.43,1.28,5.43H0v-45.64Z"/>
  <g>
    <g>
      <path class="cls-2" d="m72.21,45.35s6.59.73,10.08-3.93,3.2-11.28,6.11-14.13c2.9-2.85,8.19-5.48,7.4-9.33s1-8.85,1-8.85l1.01-1.47s-1.52,4.39-.92,7.95,1.09,6.1-1.75,8.21c-2.83,2.11,2.44,4.07,5.99,1.75s5.75-6.04,6.93-6.5,3.26-1.56,3.65-1.85l.62.48s-3.85,1.71-4.59,2.94-3.34,4.67-6.22,6.65-7.23.95-9.69.33c-2.81,2.53-2.8,4.96-2.87,7.71-.07,2.75-1.22,7.72-5.21,10.92s-10.27,5.65-11.74,5,.21-5.89.21-5.89Z"/>
      <path class="cls-2" d="m101,26.53s3.3,4.07,6.95,1.64,7.01-2.11,7.01-2.11l.13.33s-3.29.3-6.47,2.12-4.25,1.56-5.88.6-2.23-1.64-2.23-1.64l.49-.95Z"/>
      <path class="cls-2" d="m84.97,24.94l-.99.28c-.13.44-.27.88-.43,1.32-1.61,4.37-1.05,6.23.49,8.08,1.55,1.84,2.5,1.89,2.5,1.89l1.09-.81s-5.79-3.3-3.51-8.38c.37-.82.64-1.61.86-2.37Z"/>
    </g>
    <g>
      <path class="cls-5" d="m86.68,91.02s-2.39-11.1-8.56-14.59c-6.16-3.49-6.16-6.58-6.16-12.12s-2.47-3.29-1.85-8.42c.62-5.14,11.1-16.64,10.89-18.29-1.03-3.7-24.86-17.55-31.44-18.23-6.78,9.39-12.18,21.65-16.49,24.32-4.31,2.67-24.28,5.07-30.04,15.76-5.75,10.68,4.41,14.52,4.41,14.52l10.89,2.47s10.07-11.1,20.75-5.34c10.68,5.75,10.89,4.25,21.58,10.24,10.68,5.99,26.02,9.69,26.02,9.69Z"/>
      <path class="cls-4" d="m81.09,36.35s-3.07-4.78-14.79-11.49c-11.72-6.71-15.77-6.25-16.73-5.49-.96.77-.16,4.46,4.96,7.54,5.12,3.07,9.2,3.19,10.63,7.68s2.8,6.54,4.73,5.75c1.93-.8.4-1.59,3.98-.51s9.16.06,7.23-3.47Z"/>
    </g>
  </g>
  <g>
    <g>
      <path class="cls-3" d="m77.01,74.53s5.85,1.62,12.07,4.78c3.37,1.3,3.83-1.45.51-3.03-3.32-1.58-11.54-2.69-11.54-2.69,0,0,6.21-1.8,12.66.51,6.46,2.31,7.37-1.75,5.09-2.67-2.28-.92-14.36-1.23-17.13.5,9.81-5.09,16.64-3.2,18.64-4.03,2.01-.83,1.21-4.69-3.57-3.91-4.79.78-14.47,5.42-15.84,7.23,6.69-6.92,11.28-7.11,12.66-8.75,1.37-1.64.45-3.09-3.19-2.03s-10.47,10.21-10.47,10.21c1.29-4.48,4.74-8.35,5.78-9.81,1.03-1.46.7-4.51-1.99-2.05-2.7,2.45-4.93,11.07-5.05,12.03-1.15-2.93,1.12-7.87.94-9.82-.17-1.95-2.68-2.21-3.58,1.27s1.3,8.86,1.55,9.23c-2.19-1.64-2.53-4.35-3.21-6.03-.68-1.68-2.74-2.16-2.96.63-.22,2.78,5.93,7.16,5.93,7.16-2.93-.8-4.73-1.49-6.23-2.97-1.5-1.48-3.11-.21-2.71,1.51.4,1.72,5.86,3.64,8.42,3.08-3.02,1.88-6.01-.4-7.01,1.16s.64,2.94,2.56,2.83,4.91-3.01,5.25-3.36c-1.87,6.07-.32,8.17,1.61,9.09s2.21-.9,1.19-2.49c-1.03-1.59-2.05-4.97-1.83-6.14,2.16,5.1,5.7,7.47,9.13,7.75,3.43.28,4.86-2.18,1.66-2.95-3.2-.76-9.33-3.94-9.34-6.23Z"/>
      <path class="cls-3" d="m65.89,99.99c-.29-6.69,9.67-26.49,9.71-26.54l.52.45s-9.48,19.23-9.54,26.02l-.69.07Z"/>
    </g>
    <g>
      <path class="cls-3" d="m39.34,75.27s-5.99,1.01-12.5,3.52c-3.49.95-3.66-1.84-.2-3.07s11.75-1.49,11.75-1.49c0,0-5.99-2.43-12.65-.79-6.66,1.64-7.15-2.5-4.79-3.18s14.41.25,16.99,2.26c-9.24-6.07-16.22-4.89-18.13-5.92-1.91-1.03-.73-4.79,3.96-3.52,4.68,1.26,13.84,6.88,15.01,8.82-5.94-7.57-10.49-8.23-11.69-10s-.13-3.12,3.39-1.69c3.52,1.43,9.36,11.23,9.36,11.23-.82-4.59-3.86-8.8-4.74-10.36-.88-1.56-.24-4.55,2.19-1.84,2.43,2.72,3.77,11.51,3.79,12.48,1.45-2.79-.3-7.95.07-9.87s2.9-1.92,3.43,1.63c.53,3.55-2.2,8.68-2.49,9.02,2.35-1.4,2.97-4.06,3.81-5.67.84-1.6,2.95-1.86,2.88.93s-6.64,6.51-6.64,6.51c3-.5,4.85-.99,6.5-2.31,1.65-1.32,3.12.11,2.54,1.78s-6.2,3.02-8.69,2.19c2.81,2.17,6.02.22,6.85,1.88s-.94,2.86-2.83,2.55c-1.9-.3-4.58-3.5-4.88-3.88,1.24,6.23-.52,8.16-2.54,8.88s-2.11-1.12-.92-2.6c1.18-1.48,2.55-4.73,2.45-5.92-2.67,4.85-6.43,6.84-9.88,6.77-3.44-.08-4.61-2.67-1.35-3.1,3.26-.43,9.69-2.96,9.93-5.24Z"/>
      <path class="cls-3" d="m47.23,99.92c1.29-2.77-6.34-25.54-6.37-25.58l-.56.4s7.27,22.89,6.24,25.19h.69Z"/>
    </g>
    <g>
      <path class="cls-6" d="m23.97,87.96s-5.85,1.62-12.07,4.78c-3.37,1.3-3.83-1.45-.51-3.03,3.32-1.58,11.54-2.69,11.54-2.69,0,0-6.21-1.8-12.66.51-6.46,2.31-7.37-1.75-5.09-2.67,2.28-.92,14.36-1.23,17.13.5-9.81-5.09-16.64-3.2-18.64-4.03-2.01-.83-1.21-4.69,3.57-3.91,4.79.78,14.47,5.42,15.84,7.23-6.69-6.92-11.28-7.11-12.66-8.75-1.37-1.64-.45-3.09,3.19-2.03,3.65,1.06,10.47,10.21,10.47,10.21-1.29-4.48-4.74-8.35-5.78-9.81-1.03-1.46-.7-4.51,1.99-2.05,2.7,2.45,4.93,11.07,5.05,12.03,1.15-2.93-1.12-7.87-.94-9.82s2.68-2.21,3.58,1.27-1.3,8.86-1.55,9.23c2.19-1.64,2.53-4.35,3.21-6.03.68-1.68,2.74-2.16,2.96.63.22,2.78-5.93,7.16-5.93,7.16,2.93-.8,4.73-1.49,6.23-2.97,1.5-1.48,3.11-.21,2.71,1.51-.4,1.72-5.86,3.64-8.42,3.08,3.02,1.88,6.01-.4,7.01,1.16s-.64,2.94-2.56,2.83-4.91-3.01-5.25-3.36c1.87,6.07.32,8.17-1.61,9.09s-2.21-.9-1.19-2.49c1.03-1.59,2.05-4.97,1.83-6.14-2.16,5.1-5.7,7.47-9.13,7.75-3.43.28-4.86-2.18-1.66-2.95,3.2-.76,9.33-3.93,9.34-6.23Z"/>
      <path class="cls-6" d="m34.9,99.93c1.28-13.31-9.48-13-9.52-13.05l-.52.45s10.61-.62,9.35,12.53l.69.07Z"/>
    </g>
    <g>
      <path class="cls-1" d="m56.13,99.92h-.55c0-.12,7.95-46.76,19.51-61.25l.53.43c-11.47,14.38-19.49,60.7-19.49,60.82Z"/>
      <path class="cls-1" d="m74.01,40.63s4.2-8.99,10.06-10.64c2.39-.91.85,1.82-2.11,3.75-2.96,1.93-7.96,6.89-7.96,6.89Z"/>
      <path class="cls-1" d="m72.62,42.57s7.47-6.66,14.18-6.38c2.62.4.57,3.19-3.13,3.41-3.7.23-11.05,2.96-11.05,2.96Z"/>
      <path class="cls-1" d="m70.47,45.84s6.72-4.98,13.09-4.47,3.53,2.96.68,2.5c-2.84-.45-9.34.23-13.77,1.97Z"/>
      <path class="cls-1" d="m68.02,49.76s6.72-4.98,13.09-4.47c6.37.51,3.53,2.96.68,2.5-2.84-.45-9.34.23-13.77,1.97Z"/>
      <path class="cls-1" d="m72.13,43.13s2.84-9.6-.27-15.55c-1.47-2.2-3.12.84-1.76,4.28,1.37,3.44,2.03,11.26,2.03,11.26Z"/>
      <path class="cls-1" d="m70.09,46.47s1.64-8.2-1.53-13.75-4.18-1.93-2.56.45c1.62,2.38,3.77,8.55,4.09,13.3Z"/>
      <path class="cls-1" d="m67.58,50.35s1.64-8.2-1.53-13.75c-3.18-5.55-4.18-1.93-2.56.45,1.62,2.38,3.77,8.55,4.09,13.3Z"/>
      <path class="cls-1" d="m65.89,53.98s1.12-9.95-2.99-15.26c-1.84-1.91-2.93,1.38-.98,4.53,1.95,3.15,3.97,10.74,3.97,10.74Z"/>
      <path class="cls-1" d="m64.46,57.63s.19-8.36-3.91-13.27c-4.1-4.91-4.45-1.17-2.44.89,2.01,2.06,5.21,7.76,6.35,12.38Z"/>
      <path class="cls-1" d="m62.67,61.89s.19-8.36-3.91-13.27c-4.1-4.91-4.45-1.17-2.44.89,2.01,2.06,5.21,7.76,6.35,12.38Z"/>
      <path class="cls-1" d="m61.26,65.87s.57-9.99-3.83-15.07c-1.94-1.8-2.85,1.54-.73,4.57,2.12,3.04,4.56,10.5,4.56,10.5Z"/>
      <path class="cls-1" d="m60.04,69.59s-.28-8.36-4.65-13.03c-4.36-4.67-4.51-.92-2.38,1.02,2.13,1.94,5.63,7.46,7.03,12.01Z"/>
      <path class="cls-1" d="m58.49,73.94s-.28-8.36-4.65-13.03-4.51-.92-2.38,1.02c2.13,1.94,5.63,7.46,7.03,12.01Z"/>
      <path class="cls-1" d="m57.77,76.69s-.56-8.46-4.75-12.57c-1.81-1.44-2.22,1.41-.14,3.89s4.89,8.68,4.89,8.68Z"/>
      <path class="cls-1" d="m57.14,79.88s-1.1-7.05-5.22-10.82c-4.13-3.77-3.86-.6-1.89.96,1.98,1.56,5.47,6.07,7.11,9.86Z"/>
      <path class="cls-1" d="m56.29,83.62s-1.1-7.05-5.22-10.82c-4.13-3.77-3.86-.6-1.89.96,1.98,1.56,5.47,6.07,7.11,9.86Z"/>
      <path class="cls-1" d="m55.43,87.85s-1.44-8.36-6.05-12c-1.95-1.24-2.06,1.64.28,3.88,2.34,2.25,5.78,8.12,5.78,8.12Z"/>
      <path class="cls-1" d="m55.13,91.09s-1.83-6.89-6.33-10.21c-4.5-3.31-3.9-.19-1.77,1.15,2.13,1.34,6.08,5.46,8.11,9.05Z"/>
      <path class="cls-1" d="m54.68,94.9s-1.83-6.89-6.33-10.2c-4.5-3.31-3.9-.19-1.77,1.15,2.13,1.34,6.08,5.46,8.11,9.05Z"/>
      <path class="cls-1" d="m66.03,54.03s6.72-4.98,13.09-4.47,3.53,2.96.68,2.5c-2.84-.45-9.34.23-13.77,1.97Z"/>
      <path class="cls-1" d="m64.26,57.77s6.29-5.52,12.68-5.53,3.76,2.66.89,2.44c-2.87-.22-9.29,1-13.57,3.09Z"/>
      <path class="cls-1" d="m62.18,62.67s6.29-5.52,12.68-5.53,3.76,2.66.89,2.44c-2.87-.22-9.29,1-13.57,3.09Z"/>
      <path class="cls-1" d="m61.29,65.31s7.15-4.34,13.45-3.24c6.3,1.1,3.24,3.27.45,2.56-2.79-.72-9.32-.63-13.9.69Z"/>
      <path class="cls-1" d="m59.92,69.18s6-4.45,11.2-3.45c5.2,1,2.63,3.21.33,2.54-2.3-.67-7.72-.48-11.53.91Z"/>
      <path class="cls-1" d="m58.73,73.14s4.92-5.62,10.21-5.75c5.3-.13,3.26,2.58.86,2.42-2.39-.17-7.64,1.17-11.07,3.33Z"/>
      <path class="cls-1" d="m57.77,77.35s4.91-5.62,10.21-5.75c5.3-.13,3.26,2.58.86,2.42-2.39-.17-7.64,1.17-11.07,3.33Z"/>
      <path class="cls-1" d="m57.2,80.13s4.12-5.52,8.66-5.56c4.54-.04,2.84,2.63.78,2.43-2.06-.21-6.54,1.03-9.45,3.13Z"/>
      <path class="cls-1" d="m55.95,84.79s4.59-5.58,9.57-5.67,3.08,2.6.83,2.42c-2.25-.18-7.19,1.11-10.4,3.25Z"/>
      <path class="cls-1" d="m54.93,90.46s4.59-5.58,9.57-5.67c4.98-.09,3.08,2.6.83,2.42s-7.19,1.11-10.4,3.25Z"/>
      <path class="cls-1" d="m53.97,96.73s4.59-5.58,9.57-5.67c4.98-.09,3.08,2.6.83,2.42s-7.19,1.11-10.4,3.25Z"/>
    </g>
    <g>
      <path class="cls-6" d="m43.86,58.93s-6.02.76-12.63,3c-3.52.8-3.58-1.99-.07-3.08,3.52-1.09,11.81-1.01,11.81-1.01,0,0-5.88-2.67-12.6-1.31s-7.04-2.79-4.66-3.37c2.39-.58,14.38.84,16.88,2.96-8.98-6.45-16-5.56-17.87-6.67-1.87-1.11-.53-4.81,4.1-3.35,4.62,1.46,13.54,7.44,14.64,9.43-5.63-7.81-10.14-8.66-11.27-10.48-1.12-1.82,0-3.13,3.45-1.55,3.46,1.58,8.89,11.61,8.89,11.61-.63-4.62-3.49-8.95-4.31-10.54-.81-1.59-.05-4.56,2.27-1.75,2.32,2.81,3.29,11.66,3.27,12.63,1.56-2.73.03-7.95.48-9.86.45-1.91,2.97-1.8,3.36,1.77.38,3.57-2.56,8.58-2.86,8.91,2.4-1.31,3.13-3.94,4.04-5.5.91-1.57,3.02-1.74,2.84,1.05-.18,2.78-6.9,6.23-6.9,6.23,3.01-.37,4.89-.79,6.59-2.04s3.11.24,2.46,1.89-6.32,2.76-8.77,1.83c2.71,2.29,6,.47,6.77,2.16.76,1.69-1.05,2.81-2.94,2.43-1.88-.38-4.43-3.68-4.71-4.08.98,6.28-.85,8.13-2.9,8.76s-2.06-1.21-.82-2.64c1.24-1.43,2.74-4.62,2.7-5.81-2.87,4.74-6.71,6.57-10.15,6.35-3.44-.22-4.5-2.86-1.22-3.15,3.28-.29,9.8-2.55,10.14-4.82Z"/>
      <path class="cls-6" d="m53.36,99.92c3.18-12.99-.37-21.75-2.5-29.03-2.31-7.89-5.41-12.78-5.45-12.83l-.58.37s3.09,4.87,5.37,12.68c2.1,7.19,5.64,15.98,2.5,28.81h.65Z"/>
    </g>
    <g>
      <path class="cls-6" d="m73.34,92.28s5.39,3.15,10.72,7.64c2.44,0,4.01-.79,1.13-3.08-2.88-2.29-10.63-5.24-10.63-5.24,0,0,6.45-.34,12.22,3.37,5.76,3.72,7.58-.03,5.56-1.44-2.01-1.41-13.7-4.46-16.8-3.4,10.71-2.73,16.93.66,19.07.31,2.14-.35,2.24-4.29-2.59-4.62-4.84-.33-15.32,2-17.07,3.45,8.09-5.22,12.6-4.36,14.31-5.65,1.71-1.28,1.15-2.91-2.65-2.7-3.79.21-12.51,7.57-12.51,7.57,2.27-4.07,6.52-7.06,7.85-8.25,1.34-1.19,1.71-4.23-1.48-2.45s-7.31,9.66-7.65,10.57c-.46-3.11,2.88-7.41,3.15-9.35.27-1.94-2.11-2.76-3.77.42-1.66,3.19-.74,8.92-.59,9.34-1.76-2.09-1.48-4.81-1.76-6.6-.28-1.79-2.18-2.72-3.03-.06-.85,2.66,4.15,8.31,4.15,8.31-2.67-1.44-4.27-2.52-5.39-4.3-1.13-1.78-2.98-.91-2.98.86s4.88,4.87,7.5,4.91c-3.36,1.14-5.76-1.75-7.09-.46-1.33,1.29-.04,3.01,1.85,3.34,1.89.33,5.47-1.82,5.88-2.08-3.2,5.49-3.23,5.9-1.55,7.24h2.89s-.98-5.48-.5-6.57c.94,5.46,1.84,5.56,5.12,6.61.91-.02,2.34-.02,3.55-.02-2.95-1.47-7.45-5.42-6.94-7.66Z"/>
      <path class="cls-6" d="m63.6,99.92c1.78-13.25,9.06-8.37,9.11-8.4l.4.56s-7.04-5.25-8.79,7.85h-.72Z"/>
    </g>
    <g>
      <path class="cls-6" d="m50.88,92.94s6.06-.38,12.97.59c3.61.13,3.15-2.62-.51-3.03s-11.79,1.21-11.79,1.21c0,0,5.28-3.72,12.14-3.64,6.86.08,6.4-4.06,3.94-4.18-2.45-.12-13.97,3.51-16.04,6.05,7.62-8.01,14.69-8.44,16.32-9.88,1.63-1.44-.38-4.83-4.65-2.53s-11.91,9.84-12.62,12c4.07-8.72,8.35-10.4,9.12-12.39.77-2-.58-3.07-3.68-.88-3.1,2.19-6.57,13.07-6.57,13.07-.24-4.66,1.76-9.44,2.27-11.16s-.8-4.49-2.55-1.29c-1.75,3.2-1.06,12.07-.86,13.02-2.04-2.39-1.51-7.81-2.31-9.6-.8-1.79-3.26-1.22-2.97,2.36.29,3.58,4.12,7.95,4.47,8.22-2.61-.83-3.81-3.29-5-4.65s-3.29-1.14-2.6,1.56c.7,2.7,7.94,4.83,7.94,4.83-3.03.2-4.95.13-6.86-.78s-3.01.82-2.07,2.31,6.73,1.53,8.96.17c-2.24,2.76-5.81,1.58-6.25,3.38s1.56,2.57,3.34,1.84c1.78-.72,3.67-4.45,3.87-4.89-.15,5.48,2.15,5.28,2.85,5.28h1.94c-1.49-1.17-3.55-3.98-3.72-5.16,3.7,4.12,7.82,5.21,11.16,4.35,3.34-.86,3.88-3.65.61-3.33-3.28.32-10.11-.68-10.86-2.85Z"/>
      <path class="cls-6" d="m53.84,99.92c-.65-2.21-.8-17.12-4.65-7.54l.64.26c3.84-9.59,4.31,5.26,4.79,7.28h-.78Z"/>
    </g>
  </g>
  <path class="cls-5" d="m276,85.68s1.06-21.51-17.34-18.95c8.91,1.53,14.53,5.94,13.88,14.18-2.13-6.5-6.18-9.31-7.68-9.22,4.87,3.69,5.93,9.41,5.97,9.85-6.9-8.6-13.73-11.23-16.91-11,5.58,1.82,13.65,7.08,14.45,11-3.53-3.83-8.21-4.16-10.59-2.97,3.65,0,7.46,3.8,7.46,3.8-7.79-1.92-10.83,1.22-10.83,1.22,0,0,4.64-2.05,10.21.41,5.57,2.47,11.4,1.68,11.4,1.68Z"/>
  <path class="cls-5" d="m221.76,82.76s.75-15.2-12.26-13.39c6.3,1.08,10.27,4.2,9.81,10.02-1.5-4.59-4.37-6.58-5.43-6.52,3.44,2.61,4.19,6.65,4.22,6.96-4.88-6.08-9.7-7.93-11.95-7.77,3.94,1.29,9.65,5.01,10.21,7.77-2.49-2.7-5.8-2.94-7.48-2.1,2.58,0,5.27,2.68,5.27,2.68-5.5-1.36-7.65.86-7.65.86,0,0,4.16-2.43,8.52,2.64,2.81,3.27,6.75-1.16,6.75-1.16Z"/>
  <path class="cls-5" d="m204.85,87.47s.75-15.2-12.26-13.39c6.3,1.08,10.27,4.2,9.81,10.02-1.5-4.59-4.37-6.58-5.43-6.52,3.44,2.61,4.19,6.65,4.22,6.96-4.88-6.08-9.7-7.93-11.95-7.77,3.94,1.29,9.65,5.01,10.21,7.77-2.49-2.7-5.8-2.94-7.48-2.1,2.58,0,5.27,2.68,5.27,2.68-5.5-1.36-7.65.86-7.65.86,0,0,3.28-1.45,7.22.29,3.94,1.74,8.05,1.19,8.05,1.19Z"/>
  <path class="cls-5" d="m279.63,89.43s-1.06-21.51,17.34-18.95c-8.91,1.53-14.53,5.94-13.88,14.18,2.13-6.5,6.18-9.31,7.68-9.22-4.87,3.69-5.93,9.41-5.97,9.85,6.9-8.6,13.73-11.23,16.91-11-5.58,1.82-13.65,7.08-14.45,11,3.53-3.83,8.21-4.16,10.59-2.97-3.65,0-7.46,3.8-7.46,3.8,7.79-1.92,10.83,1.22,10.83,1.22,0,0-4.64-2.05-10.21.41-5.57,2.47-11.4,1.68-11.4,1.68Z"/>
</svg>