<?xml version="1.0" encoding="UTF-8"?>
<svg id="Layer_1" data-name="Layer 1" xmlns="http://www.w3.org/2000/svg" viewBox="0 0 1923.02 213.6">
  <defs>
    <style>
      .cls-1 {
        fill: #fff;
      }

      .cls-2 {
        fill: #282828;
      }

      .cls-3 {
        fill: #e5e5e5;
      }
    </style>
  </defs>
  <path class="cls-3" d="m1922.74,27.72c-2.41,16.5-12.93,91.91-58.27,92.26-49.08.37,3.41,93.62-42.95,93.62s18.08-122.89-62.72-122.89c-67.15,0-35.66,61.06-62.55,60.6-29.66-.51,7.29-62.61-96.12-60.77-57.26,1.02-90.68-60.28-122.2-60.28-98.9-.01-185.69-.03-202.75-.03H380.96c-51.78,0-66.72,67.97-208.86,68.48-29.16.1,2.73,60.26-28.29,60.6-31.19.34,5.45-51.06-35.11-50.72-43.98.37,3.58,88.82-36.3,89.7-38.52.85,18.92-126.64-51.64-127.66C-2.17,70.29.28,51.21.28,51.21V0h1922.47v27.72Z"/>
  <path d="m1923.02,24.52c-2.41,16.5-8.2,89.53-53.54,89.87-49.08.37,3.41,93.62-42.95,93.62s18.08-122.89-62.72-122.89c-67.15,0-35.66,61.06-62.55,60.6-29.66-.51,7.29-62.61-96.12-60.77-57.26,1.02-90.68-60.28-122.2-60.28-98.9-.01-185.69-.03-202.75-.03H385.96c-51.78,0-66.72,67.97-208.86,68.48-29.16.1,2.73,60.26-28.29,60.6-31.19.34,5.45-51.06-35.11-50.72-43.98.37,3.58,88.82-36.3,89.7-38.52.85,18.92-126.64-51.64-127.66C2.83,64.69.55,45.96.55,45.96L.28,0h1922.47l.28,24.52Z"/>
  <path class="cls-2" d="m1922.74,18.11c-2.41,16.5-8.2,89.53-53.54,89.87-49.08.37,3.41,93.62-42.95,93.62s18.08-122.89-62.72-122.89c-67.15,0-35.66,61.06-62.55,60.6-29.66-.51,7.29-62.61-96.12-60.77-57.26,1.02-90.68-60.28-122.2-60.28-98.9-.01-185.69-.03-202.75-.03H385.69c-51.78,0-66.72,67.97-208.86,68.48-29.16.1,2.73,60.26-28.29,60.6-31.19.34,5.45-51.06-35.11-50.72-43.98.37,3.58,88.82-36.3,89.7S96.04,59.64,25.48,58.62C2.56,58.29.28,39.55.28,39.55L0,0l1922.74.22v17.89Z"/>
  <path class="cls-1" d="m283.27,60.82c.43-.27-.74-.48-1.39-.24-9.64,3.43-19.16,13.25-44.63,17.14-34.42,5.27-48.38,3.96-60.95,4.04-.71,0-.95.49-.27.53,27.04,1.64,55.31.36,69.92-1.99,18.51-2.98,37.31-19.48,37.31-19.48Z"/>
  <path class="cls-1" d="m1612.81,75.97c.34-.04-.23-.54-.68-.6-6.57-.85-15.42,2.44-30.9-3.15-20.92-7.55-28.14-12.83-35.11-16.78-.39-.22-.7.01-.34.26,14.32,9.66,30.39,17.82,39.31,20.95,11.3,3.97,27.71-.68,27.71-.68Z"/>
  <path class="cls-1" d="m1843.08,190.87c.38-.22.6.5.25.82-5.2,4.75-16.61,13.46-25.42,7.94-8.35-5.23-7.41-48.87-6.66-66.66.02-.59.63-.67.66-.1.72,16.4,2.95,54.76,8.14,60.08,6.24,6.4,17.59,1.08,23.02-2.09Z"/>
  <path class="cls-1" d="m1708.48,134.64c.2-.12.38.18.21.35-2.57,2.44-8.34,7.02-13.75,5.12-5.14-1.81-8.04-21.28-9.02-29.24-.03-.26.31-.34.37-.08,1.7,7.25,5.99,24.18,9.34,26.22,4.03,2.46,10.04-.62,12.86-2.36Z"/>
  <path class="cls-1" d="m89.82,175.77c.31-.23.46.48.18.81-4.23,4.88-13.45,13.89-20.2,8.66-6.41-4.96-4.38-48.45-3.27-66.19.04-.58.52-.69.52-.11.08,16.32.7,54.45,4.62,59.6,4.71,6.19,13.79.56,18.15-2.76Z"/>
  <path class="cls-1" d="m158.03,143.61c.26-.11.4.31.16.48-3.58,2.47-11.42,6.92-17.33,3.36-5.6-3.38-4.45-28.31-3.74-38.45.02-.33.44-.36.45-.02.3,9.42,1.36,31.47,4.82,34.76,4.16,3.95,11.92,1.44,15.64-.12Z"/>
</svg>