<?xml version="1.0" encoding="UTF-8"?>
<svg id="Layer_1" data-name="Layer 1" xmlns="http://www.w3.org/2000/svg" viewBox="0 0 221.87 247.66">
  <defs>
    <style>
      .cls-1 {
        fill: #fff;
      }

      .cls-2 {
        fill: #cd5151;
      }

      .cls-3 {
        fill: #a3bbce;
      }

      .cls-4 {
        fill: #96adbd;
      }

      .cls-5 {
        fill: #4d4d4d;
      }

      .cls-6 {
        fill: #bb4746;
      }

      .cls-7 {
        fill: #586774;
      }

      .cls-8 {
        fill: #7d4a4a;
      }

      .cls-9 {
        fill: #e58585;
      }

      .cls-10 {
        fill: #b2c8d8;
      }

      .cls-11 {
        fill: #3f4245;
      }

      .cls-12 {
        fill: #728596;
      }
    </style>
  </defs>
  <rect class="cls-1" width="221.87" height="247.66" rx="12" ry="12"/>
  <g>
    <path class="cls-2" d="m104.66,15.21c.07-.1,0-4.45,2.78-5.6,1.65-.69,3.5,0,3.5,0,0,0,2.58-2.1,4.68-1.83,2.1.27,4.24,2.34,4.24,2.34,0,0,4.58-1.36,7.35,1.12,2.77,2.48,2.06,6.21,1.92,6.42s2.65,2.17,4.11,5.7c1.46,3.53-1.76,5.91-2.58,8.45-.81,2.55,3.7,6.92,3.7,6.92,0,0-4.01,4.04-12.83-2-8.83-6.04-16.87-21.52-16.87-21.52Z"/>
    <path class="cls-6" d="m134.36,38.74s-.02-.02-.06-.06c-1.41-.46-4.81-1.76-6.12-3.91-1.66-2.75,1.43-3.9,2.21-6.25s-.61-2.04-1.73-4.24.24-3.22.24-3.22c0,0-.88-.24-2.78-2.24-1.9-2-.68-4.65-.68-4.65,0,0-.64,1.02-3.39.51-2.75-.51-2.34-2.23-2.34-2.23,0,0-3.97-.59-4.82-3.38-.18-.57-.2-.98-.14-1.27-1.88.26-3.8,1.82-3.8,1.82,0,0-1.84-.69-3.5,0-2.78,1.15-2.72,5.5-2.78,5.6,0,0,8.04,15.48,16.87,21.52,8.83,6.04,12.83,2,12.83,2Z"/>
    <path class="cls-9" d="m124.77,13.81s.88-1.26.34-2.17c-.54-.92-2.55-1.17-2.55-1.17,0,0,2.92.93,2.21,3.34Z"/>
    <path class="cls-9" d="m132.24,26.47s.59-1.34-.1-3.48-2.33-2.97-2.33-2.97c0,0,2.97,3.82,2.43,6.45Z"/>
    <path class="cls-8" d="m110.94,185.38c1.69-.02,3.54-.1,5.53-.26,10.15-.79,25.88-10.44,34.57-6.67,8.69,3.76,1.81,13.34,1.81,13.34,0,0,8.51-5.61,8.33-20.64-.18-15.03-8.27-46.64-11.67-70.78s1.12-30.32-12.7-32.59c-7.58-1.24-18-.85-25.86-.24-7.86-.61-18.28-1-25.86.24-13.83,2.26-9.3,8.44-12.7,32.59-3.4,24.15-11.49,55.76-11.67,70.78-.18,15.03,8.33,20.64,8.33,20.64,0,0-6.88-9.58,1.81-13.34,8.69-3.76,24.43,5.88,34.57,6.67,1.99.15,3.84.23,5.53.26Z"/>
    <path class="cls-2" d="m143.14,65.22s24.8,89.79,22.9,111.35c-1.9,21.56-21.45,22.92-20.64,23.19.81.27,9.79-12.22,9.24-37.75-.55-25.53-16.76-91.64-16.76-91.64l5.26-5.16Z"/>
    <path class="cls-2" d="m78.73,65.22s-24.8,89.79-22.9,111.35c1.9,21.56,21.45,22.92,20.64,23.19-.81.27-9.79-12.22-9.24-37.75.55-25.53,16.76-91.64,16.76-91.64l-5.26-5.16Z"/>
    <path class="cls-12" d="m128.32,217.39l2.2,6.13s2.35,2.56,5,5.01c2.65,2.44,8.08,3.05,9.71,4.82,1.63,1.77.81,6.34.81,6.34,0,0-6.92.59-12.29-.16-5.36-.75-7.53-3.94-9.16-4.28s-2.51,1.97-2.51,1.97l-4.55-.88s-.75-11.07,1.22-13.78c1.97-2.72,9.57-5.16,9.57-5.16Z"/>
    <path class="cls-12" d="m93.56,217.39l-2.2,6.13s-2.35,2.56-5,5.01c-2.65,2.44-8.08,3.05-9.71,4.82-1.63,1.77-.81,6.34-.81,6.34,0,0,6.92.59,12.29-.16,5.36-.75,7.53-3.94,9.16-4.28,1.63-.34,2.51,1.97,2.51,1.97l4.55-.88s.75-11.07-1.22-13.78c-1.97-2.72-9.57-5.16-9.57-5.16Z"/>
    <path class="cls-11" d="m130.33,172.91s1.85.52,1.97,2.87c.11,2.35-.54,5.88,0,10.95.54,5.07-2.69,36.93-2.96,36.84s-9.44,2.31-9.35,2.04-1.72-26.36-2.17-32.71c-.45-6.35-1.99-11.13,0-14.44,1.99-3.31,12.52-5.55,12.52-5.55Z"/>
    <path class="cls-11" d="m91.54,172.91s-1.85.52-1.97,2.87c-.11,2.35.54,5.88,0,10.95-.54,5.07,2.69,36.93,2.96,36.84.27-.09,9.44,2.31,9.35,2.04s1.72-26.36,2.17-32.71,1.99-11.13,0-14.44c-1.99-3.31-12.52-5.55-12.52-5.55Z"/>
    <path class="cls-11" d="m139.72,58.65s6.34-1.27,10.05,1.54,4.16,8.87,3.8,13.03c-.36,4.16-.31,10.23-.45,15.93-.15,5.83.86,6.47.86,6.47,0,0,2.17,5.49,2.49,11.36.31,5.63-4.39,26.66-4.39,26.66l-8.5-2.04s-1-12.32-1.55-19.33c-.54-7.01-1.4-8.98-1.22-13.33s-4.83-11.47-7.5-19.65c-2.67-8.18,6.41-20.65,6.41-20.65Z"/>
    <path class="cls-11" d="m82.15,58.65s-6.34-1.27-10.05,1.54c-3.71,2.81-4.16,8.87-3.8,13.03s.31,10.23.45,15.93c.15,5.83-.86,6.47-.86,6.47,0,0-2.17,5.49-2.49,11.36-.31,5.63,4.39,26.66,4.39,26.66l8.5-2.04s1-12.32,1.55-19.33c.54-7.01,1.4-8.98,1.22-13.33s4.83-11.47,7.5-19.65c2.67-8.18-6.41-20.65-6.41-20.65Z"/>
    <path class="cls-11" d="m110.94,133.96l2.67-.27,3.48,45.09c4.53.72,15.79-3.56,15.79-3.56,0,0,.7-35.02.33-44.62s-1.86-24.3-1.86-24.3l-3.85-1.72-16.56-.95-16.56.95-3.85,1.72s-1.49,14.71-1.86,24.3c-.36,9.59.33,44.62.33,44.62,0,0,11.26,4.28,15.79,3.56l3.48-45.09,2.67.27Z"/>
    <path class="cls-12" d="m112.43,138.73s21.94-12.02,23.53-11.54c1.59.48-1.4,5.23-1.53,9.64-.25,8.02,3.48,32.95-.97,37.74-.88.95.2-4.96-6.52-4.34-6.72.61-6.99,4.28-8.83,5.23-1.83.95-2.51,1.77-2.72,0s-2.22-32.92-2.97-36.73Z"/>
    <path class="cls-12" d="m109.44,138.73s-21.94-12.02-23.53-11.54c-1.59.48,1.4,5.23,1.53,9.64.25,8.02-3.48,32.95.97,37.74.88.95-.2-4.96,6.52-4.34,6.72.61,6.99,4.28,8.83,5.23,1.83.95,2.51,1.77,2.72,0s2.22-32.92,2.97-36.73Z"/>
    <path class="cls-12" d="m110.94,134.59h1.83c1.29,0,19.96-12.28,21.35-12.83s-1.93-13.92-1.93-14.87-.84-.59-.84-.59l-1.47-.91-18.94,1.15-18.94-1.15-1.47.91s-.84-.36-.84.59-3.33,14.32-1.93,14.87c1.39.55,20.06,12.83,21.35,12.83h1.84Z"/>
    <path class="cls-7" d="m110.94,134.59h1.83c4.55,0,19.96-12.28,21.35-12.83.53-.21.37-2.28-.02-4.83-5.16,3.72-13.31,6.11-22.49,6.11-.23,0-.45,0-.68,0-.22,0-.45,0-.68,0-9.18,0-17.33-2.4-22.49-6.11-.4,2.54-.55,4.62-.02,4.83,1.39.55,16.8,12.83,21.35,12.83h1.83Z"/>
    <path class="cls-12" d="m135.96,58.42l.84-1.63s2.18-4.29,8.08-4.3c9.87,0,14.12,12.13,14.12,12.13,0,0-16.47,13.76-26.43,13.31-9.96-.45,3.39-19.51,3.39-19.51Z"/>
    <path class="cls-12" d="m85.91,58.42l-.84-1.63s-2.18-4.29-8.08-4.3c-9.87,0-14.12,12.13-14.12,12.13,0,0,16.47,13.76,26.43,13.31,9.96-.45-3.39-19.51-3.39-19.51Z"/>
    <path class="cls-7" d="m157.04,60.64c-1.35,1.36-4.31,1.5-7.28-.45-4.34-2.85-7.67,1.09-10.52-1.82-.88-.9-1.08-2.15-.93-3.43-1.05.97-1.51,1.86-1.51,1.86l-.84,1.63s-13.35,19.05-3.39,19.51c9.96.45,26.43-13.31,26.43-13.31,0,0-.63-1.79-1.96-3.99Z"/>
    <path class="cls-7" d="m64.83,60.64c1.35,1.36,4.31,1.5,7.28-.45,4.34-2.85,7.67,1.09,10.52-1.82.88-.9,1.08-2.15.93-3.43,1.05.97,1.51,1.86,1.51,1.86l.84,1.63s13.35,19.05,3.39,19.51c-9.96.45-26.43-13.31-26.43-13.31,0,0,.63-1.79,1.96-3.99Z"/>
    <path class="cls-12" d="m136.69,75.31s6.52-1.9,12.08-6.15c5.57-4.25,8.65-7.41,9.19-7.26.53.14,2.04,1.7,1.95,2.65s-8.1,8.01-14.08,10.77c-5.97,2.76-9.46,3.58-9.46,3.58l.32-3.58Z"/>
    <path class="cls-12" d="m85.18,75.31s-6.52-1.9-12.08-6.15c-5.57-4.25-8.65-7.41-9.19-7.26-.53.14-2.04,1.7-1.95,2.65s8.1,8.01,14.08,10.77c5.97,2.76,9.46,3.58,9.46,3.58l-.32-3.58Z"/>
    <path class="cls-11" d="m131.44,59.24l3.21-2.85,2.15.41s3.73,19.55-2.68,28.85c-6.42,9.3-2.68-26.41-2.68-26.41Z"/>
    <path class="cls-11" d="m90.43,59.24l-3.21-2.85-2.15.41s-3.73,19.55,2.68,28.85c6.42,9.3,2.68-26.41,2.68-26.41Z"/>
    <path class="cls-11" d="m110.94,109.91c10.35.17,20.41-3.6,20.41-3.6l-.23-5.33-2.89-4.49c-.27.05-8.84.05-17.29.03-8.45.01-17.02.01-17.29-.03l-2.89,4.49-.23,5.33s10.07,3.78,20.41,3.6Z"/>
    <path class="cls-7" d="m110.94,105.4c18.48.03,20.46-4.84,20.46-4.84,7.78-27.15,3.26-44.17,3.26-44.17l-12.17-2.44-1.95-2.44h-19.19l-1.95,2.44-12.17,2.44s-4.53,17.02,3.26,44.17c0,0,1.98,4.87,20.46,4.84Z"/>
    <path class="cls-12" d="m110.94,93.23c.1,0,.19,0,.29,0,13.99-.1,25.14-11.92,24.69-25.91-.23-7.04-1.26-10.93-1.26-10.93l-12.17-2.44-1.95-2.44h-19.19l-1.95,2.44-12.17,2.44s-1.04,3.89-1.26,10.93c-.45,13.99,10.7,25.8,24.69,25.91.09,0,.19,0,.29,0Z"/>
    <path class="cls-7" d="m110.94,58.03c2.26,0,4.52-.36,6.68-1.07,3.99-1.32,4.86-3.01,4.86-3.01v-11l-11.54-.56-11.54.56v11s.86,1.7,4.86,3.01c2.16.71,4.42,1.07,6.68,1.07Z"/>
    <path class="cls-12" d="m110.94,51.95c6.59,0,10.36-4.71,11.13-5.68,2.83-3.58,5.16-13.37,5.16-13.37l-1.02-1.63-15.27-.59-15.27.59-1.02,1.63s2.33,9.79,5.16,13.37c.77.97,4.55,5.68,11.13,5.68Z"/>
    <path class="cls-7" d="m110.94,49c5.29,0,11.54-4.96,15.6-13.49.37-1.32.61-2.28.67-2.53l-2.27-1.76-2.58-.1-11.42,2.69-11.42-2.69-2.58.1-2.27,1.76c.06.25.3,1.2.67,2.53,4.06,8.52,10.31,13.49,15.6,13.49Z"/>
    <path class="cls-12" d="m110.94,33.28l16.29-8.39c-.81-5.3-4.67-9.46-6.82-10.43-3-1.34-6.24-2.02-9.47-2.02s-6.47.67-9.47,2.02c-2.15.96-6,5.13-6.82,10.43l16.29,8.39Z"/>
    <path class="cls-7" d="m110.94,27.83c3.94-.16,8.18-.32,11.45-.45l4.84-2.49c-.04-.24-.09-.48-.14-.71-.85-4.18-3.25-6.74-3.25-6.74,0,0-.08,1.85-2.32,3.25-.46.29-.97.48-1.5.61-1.05.26-2.15.21-3.21,0-1.94-.39-3.95-.69-5.88-.79-1.93.1-3.94.4-5.88.79-1.06.21-2.16.26-3.21,0-.53-.13-1.04-.33-1.5-.61-2.24-1.39-2.32-3.25-2.32-3.25,0,0-2.4,2.56-3.25,6.74-.05.24-.1.47-.14.71l4.84,2.49c3.27.13,7.51.3,11.45.45Z"/>
    <path class="cls-10" d="m110.94,21.58c1.72,0,3.43.2,5.12.61l11.18,2.7s.81,3.53,0,8.01c0,0-3.2,7.9-12.32,13.52-1.22.75-2.59,1.13-3.97,1.13s-2.75-.38-3.97-1.13c-9.13-5.62-12.32-13.52-12.32-13.52-.81-4.48,0-8.01,0-8.01l11.18-2.7c1.68-.41,3.4-.61,5.12-.61Z"/>
    <path class="cls-4" d="m110.94,47.55c1.36,0,2.73-.37,3.94-1.11,9.15-5.63,12.36-13.54,12.36-13.54.12-.66.2-1.3.26-1.92-1.79,3.36-6.16,8.4-16.55,10-10.39-1.6-14.76-6.64-16.55-10,.06.61.14,1.25.26,1.92,0,0,3.2,7.91,12.36,13.54,1.21.74,2.57,1.11,3.94,1.11Z"/>
    <g>
      <path class="cls-5" d="m113.72,43.35h0c-.46,0-.84-.37-.84-.84v-17.24c0-.46.37-.84.84-.84h0c.46,0,.84.37.84.84v17.24c0,.46-.37.84-.84.84Z"/>
      <path class="cls-5" d="m118.86,40.68h0c-.46,0-.84-.37-.84-.84v-14.12c0-.46.37-.84.84-.84h0c.46,0,.84.37.84.84v14.12c0,.46-.37.84-.84.84Z"/>
      <path class="cls-5" d="m123.85,35.99h0c-.46,0-.84-.37-.84-.84v-8.71c0-.46.37-.84.84-.84h0c.46,0,.84.37.84.84v8.71c0,.46-.38.84-.84.84Z"/>
    </g>
    <g>
      <path class="cls-5" d="m108.15,43.35h0c.46,0,.84-.37.84-.84v-17.24c0-.46-.37-.84-.84-.84h0c-.46,0-.84.37-.84.84v17.24c0,.46.38.84.84.84Z"/>
      <path class="cls-5" d="m103.02,40.68h0c.46,0,.84-.37.84-.84v-14.12c0-.46-.37-.84-.84-.84h0c-.46,0-.84.37-.84.84v14.12c0,.46.37.84.84.84Z"/>
      <path class="cls-5" d="m98.03,35.99h0c.46,0,.84-.37.84-.84v-8.71c0-.46-.37-.84-.84-.84h0c-.46,0-.84.37-.84.84v8.71c0,.46.38.84.84.84Z"/>
    </g>
    <path class="cls-7" d="m122.43,161.48c-4.7-3.42-5.02-18.13-4.87-25.51-2.99,1.6-5.13,2.77-5.13,2.77.71,3.6,2.55,31.69,2.92,36.18.05.54,0,.98.25,1.34.22.3.49.32.83.11.41-.18.95-.53,1.68-.91,1.83-.95,2.1-4.62,8.83-5.23,6.72-.61,5.63,5.3,6.52,4.34.3-.33,2.35-3.3,2.16-9.71-4.12-.37-10.27-1.27-13.19-3.39Z"/>
    <path class="cls-7" d="m99.44,161.48c4.7-3.42,5.02-18.13,4.87-25.51,2.99,1.6,5.13,2.77,5.13,2.77-.71,3.6-2.55,31.69-2.92,36.18-.05.54,0,.98-.25,1.34-.22.3-.49.32-.83.11-.41-.18-.95-.53-1.68-.91-1.83-.95-2.1-4.62-8.83-5.23-6.72-.61-5.63,5.3-6.52,4.34-.3-.33-2.35-3.3-2.16-9.71,4.12-.37,10.27-1.27,13.19-3.39Z"/>
    <path class="cls-12" d="m135.19,87.8s-.25-2.7,2.72-5.07,14.6-12.25,16.97-11.24c2.37,1.01.23,6.48-.35,10.08-.58,3.6.88,12.55-.06,14.19-.94,1.63-.87.44-5.91,2s-7.28,3.85-8.35,3.13c-1.07-.72-1.36-5.87-2.45-7.86-1.09-1.99-2.67-4.15-2.57-5.22Z"/>
    <path class="cls-12" d="m86.68,87.8s.25-2.7-2.72-5.07c-2.96-2.36-14.6-12.25-16.97-11.24-2.37,1.01-.23,6.48.35,10.08.58,3.6-.88,12.55.06,14.19.94,1.63.87.44,5.91,2s7.28,3.85,8.35,3.13,1.36-5.87,2.45-7.86c1.09-1.99,2.67-4.15,2.57-5.22Z"/>
    <path class="cls-7" d="m154.46,95.76c.28-.49.35-1.64.32-3.11-3.98.4-9.96.5-12.25-2.16-1.94-2.25-2.93-5.89-3.42-8.73-.47.39-.89.73-1.2.97-2.96,2.36-2.72,5.07-2.72,5.07-.1,1.07,1.48,3.23,2.57,5.22s1.38,7.14,2.45,7.86c1.07.72,3.31-1.58,8.35-3.13s4.97-.36,5.91-2Z"/>
    <path class="cls-7" d="m67.41,95.76c-.28-.49-.35-1.64-.32-3.11,3.98.4,9.96.5,12.25-2.16,1.94-2.25,2.93-5.89,3.42-8.73.47.39.89.73,1.2.97,2.96,2.36,2.72,5.07,2.72,5.07.1,1.07-1.48,3.23-2.57,5.22s-1.38,7.14-2.45,7.86-3.31-1.58-8.35-3.13c-5.04-1.55-4.97-.36-5.91-2Z"/>
    <path class="cls-12" d="m141.28,104.56s4.11-2.77,9.02-3.18c4.91-.41,7.75-.74,8.15,1.02.4,1.76-.34,3.24-.82,6.6s-3.7,20.25-4.29,21.15c-.59.9-8.88.19-10.05-1.26s-3.2-14.55-2.8-18c.4-3.44.06-5.4.79-6.33Z"/>
    <path class="cls-12" d="m80.59,104.56s-4.11-2.77-9.02-3.18c-4.91-.41-7.75-.74-8.15,1.02-.4,1.76.34,3.24.82,6.6.49,3.36,3.7,20.25,4.29,21.15.59.9,8.88.19,10.05-1.26,1.17-1.45,3.2-14.55,2.8-18-.4-3.44-.06-5.4-.79-6.33Z"/>
    <path class="cls-7" d="m148.3,121.24c-2.23-3.7-2.83-13.95-2.98-18.69-2.42.91-4.03,2-4.03,2-.73.93-.39,2.9-.79,6.33-.4,3.46,1.63,16.55,2.8,18,1.17,1.45,9.47,2.16,10.05,1.26.18-.27.59-2.01,1.1-4.39-2.25-.83-4.75-2.21-6.15-4.52Z"/>
    <path class="cls-7" d="m73.57,121.24c2.23-3.7,2.83-13.95,2.98-18.69,2.42.91,4.03,2,4.03,2,.73.93.39,2.9.79,6.33.4,3.46-1.63,16.55-2.8,18s-9.47,2.16-10.05,1.26c-.18-.27-.59-2.01-1.1-4.39,2.25-.83,4.75-2.21,6.15-4.52Z"/>
    <path class="cls-12" d="m143.62,131.21s-2.66,2.75-2.82,4.02c-.16,1.27-2.32,4.51-1.81,5.15s2.93-.38,3.75-1.71.82-.96.95-.69-.68,6.9-1.14,8.59c-.46,1.69-4.48,5.82-3.56,6.68s5.87-3.37,6.41-4.86c.54-1.49,1.22-3.37,1.22-3.37,0,0-.21,3.13-.72,4.08s-3.46,3.59-2.48,4.25c.99.66,4.17-1.74,5.21-3.7,1.04-1.95,1.2-4.06,1.2-4.06,0,0-.3,2.77-.65,3.82s-1.45,1.81-.97,2.17c.49.36,2.86-1.56,3.29-2.93.43-1.37.58-3.28.58-3.28,0,0-.08,2.88-.34,3.59s-.7,1.22-.52,1.25,1.74-.93,2.11-2.87.47-5.57.24-7.96c-.16-1.65-.65-4.13-.94-5.51-.13-.63-.57-1.15-1.17-1.38l-.98-.38c-2.19-.85-4.54-1.16-6.87-.91h0Z"/>
    <path class="cls-12" d="m78.26,131.21s2.66,2.75,2.82,4.02c.16,1.27,2.32,4.51,1.81,5.15-.51.64-2.93-.38-3.75-1.71s-.82-.96-.95-.69c-.13.26.68,6.9,1.14,8.59.46,1.69,4.48,5.82,3.56,6.68s-5.87-3.37-6.41-4.86c-.54-1.49-1.22-3.37-1.22-3.37,0,0,.21,3.13.72,4.08.51.94,3.46,3.59,2.48,4.25s-4.17-1.74-5.21-3.7c-1.04-1.95-1.2-4.06-1.2-4.06,0,0,.3,2.77.65,3.82s1.45,1.81.97,2.17-2.86-1.56-3.29-2.93c-.43-1.37-.58-3.28-.58-3.28,0,0,.08,2.88.34,3.59s.7,1.22.52,1.25-1.74-.93-2.11-2.87-.47-5.57-.24-7.96c.16-1.65.65-4.13.94-5.51.13-.63.57-1.15,1.17-1.38l.98-.38c2.19-.85,4.54-1.16,6.87-.91h0Z"/>
    <path class="cls-12" d="m116.5,179.16c-.17-.94.38-1.88,1.29-2.19,1.02-.35,2.37-.97,3.41-2.05,1.87-1.93,4.82-2.99,7.98-2.31,3.16.68,3.9,1.6,3.9,3.26s.75,5.67-1.87,6.86c-2.61,1.19-6.59,2.85-9.03.85-2.44-2-5.43-3.09-5.67-4.38,0-.01,0-.03,0-.04Z"/>
    <path class="cls-12" d="m105.38,179.16c.17-.94-.38-1.88-1.29-2.19-1.02-.35-2.37-.97-3.41-2.05-1.87-1.93-4.82-2.99-7.98-2.31-3.16.68-3.9,1.6-3.9,3.26s-.75,5.67,1.87,6.86c2.61,1.19,6.59,2.85,9.03.85,2.44-2,5.43-3.09,5.67-4.38,0-.01,0-.03,0-.04Z"/>
    <path class="cls-7" d="m133.15,177.73c-1.78,1.02-5.24,2.52-9.12,1.63-2.69-.61-4.31-1.76-5.28-2.79-.34.15-.67.29-.97.39-.91.31-1.46,1.25-1.29,2.19,0,.01,0,.03,0,.04.24,1.29,3.22,2.38,5.67,4.38,2.44,2,6.42.34,9.03-.85,1.87-.85,2.02-3.15,1.95-4.99Z"/>
    <path class="cls-7" d="m88.72,177.73c1.78,1.02,5.24,2.52,9.12,1.63,2.69-.61,4.31-1.76,5.28-2.79.34.15.67.29.97.39.91.31,1.46,1.25,1.29,2.19,0,.01,0,.03,0,.04-.24,1.29-3.22,2.38-5.67,4.38-2.44,2-6.42.34-9.03-.85-1.87-.85-2.02-3.15-1.95-4.99Z"/>
    <path class="cls-12" d="m115.76,181.77s1.77,1.56,4.34,3.19c2.58,1.63,5.43,2.51,7.74,1.49,2.31-1.02,5.63-3.87,6.31-2.99.68.88-.14.88-.54,4.55s-1.97,28.56-2.65,32.49c-.68,3.94-.14,3.4-1.7,4.41-1.56,1.01-8.15,2.58-9.98,0-1.83-2.58-1.74-27.27-2.47-31.14-.73-3.87-1.95-8.08-2.02-9.71-.07-1.63.27-2.88.95-2.31Z"/>
    <path class="cls-12" d="m106.12,181.77s-1.76,1.56-4.34,3.19-5.43,2.51-7.74,1.49c-2.31-1.02-5.63-3.87-6.31-2.99-.68.88.14.88.54,4.55s1.97,28.56,2.65,32.49c.68,3.94.14,3.4,1.7,4.41,1.56,1.01,8.15,2.58,9.98,0,1.83-2.58,1.74-27.27,2.47-31.14.73-3.87,1.95-8.08,2.02-9.71.07-1.63-.27-2.88-.95-2.31Z"/>
    <path class="cls-7" d="m128.11,221.8c-2.76.74-6.04-17.49-5.36-24.01.49-4.67-1.57-10.17-2.78-12.91-2.51-1.6-4.22-3.11-4.22-3.11-.68-.57-1.02.68-.95,2.31s1.29,5.84,2.02,9.71c.73,3.87.63,28.56,2.47,31.14,1.83,2.58,8.42,1.01,9.98,0s1.02-.48,1.7-4.41c.04-.24.09-.51.13-.81-.97.99-2.02,1.84-2.99,2.1Z"/>
    <path class="cls-7" d="m93.76,221.8c2.76.74,6.04-17.49,5.36-24.01-.49-4.67,1.57-10.17,2.78-12.91,2.51-1.6,4.22-3.11,4.22-3.11.68-.57,1.02.68.95,2.31s-1.29,5.84-2.02,9.71c-.73,3.87-.63,28.56-2.47,31.14-1.83,2.58-8.42,1.01-9.98,0s-1.02-.48-1.7-4.41c-.04-.24-.09-.51-.13-.81.97.99,2.02,1.84,2.99,2.1Z"/>
    <path class="cls-7" d="m146.03,239.68s.14-.81.19-1.88c-2.32.16-7.49.3-11.81-1.13-5.76-1.9-5.64-4.68-9.81-4.07-4.17.61-4.3-.75-4.3-2.72v-3.05s-1.43-.7-2.46-1.69c-.79,4.23-.32,11.19-.32,11.19l4.55.88s.88-2.31,2.51-1.97,3.8,3.53,9.16,4.28c5.36.75,12.29.16,12.29.16Z"/>
    <path class="cls-7" d="m75.84,239.68s-.14-.81-.19-1.88c2.32.16,7.49.3,11.81-1.13,5.76-1.9,5.64-4.68,9.81-4.07,4.17.61,4.3-.75,4.3-2.72v-3.05s1.43-.7,2.46-1.69c.79,4.23.32,11.19.32,11.19l-4.55.88s-.88-2.31-2.51-1.97c-1.63.34-3.8,3.53-9.16,4.28-5.36.75-12.29.16-12.29.16Z"/>
    <path class="cls-2" d="m110.94,60.54c1.29-.07,2.69-.37,4.07-1.07,4.8-2.44,7.88-7.51,7.88-7.51,0,0,2.08-.72,3.89,0s1.72,1.72,1.72,1.72c0,0,2.48-.27,4.32.09,1.84.36,3.99,3.03,3.99,3.03,0,0-5.23,6.74-7.13,12.72-1.65,5.19-9.99,9.15-18.74,10.04-8.75-.89-17.09-4.85-18.74-10.04-1.9-5.97-7.13-12.72-7.13-12.72,0,0,2.15-2.67,3.99-3.03,1.84-.36,4.32-.09,4.32-.09,0,0-.09-1,1.72-1.72s3.89,0,3.89,0c0,0,3.08,5.07,7.88,7.51,1.38.7,2.78,1,4.07,1.07Z"/>
    <path class="cls-6" d="m110.94,79.55c8.75-.89,17.09-4.85,18.74-10.04,1.9-5.97,7.13-12.72,7.13-12.72,0,0-.57-.7-1.36-1.43-1.06.62-3.05,2.12-6.04,5.71-4.75,5.7-3.91,7.94-10.55,10.05-2.63.84-5.47,1.06-7.92,1.02-2.46.04-5.29-.18-7.92-1.02-6.63-2.1-5.79-4.34-10.54-10.05-2.99-3.59-4.97-5.09-6.04-5.71-.8.73-1.36,1.43-1.36,1.43,0,0,5.23,6.74,7.13,12.72,1.65,5.19,9.99,9.15,18.74,10.04Z"/>
    <path class="cls-7" d="m149.11,143.01c-1.22-1.06-2.2.07-3.26-.63s.29-3.05.18-4.8c-.11-1.74-2.69-1.61-3.8-2.4-.67-.48-.36-1.58-.02-2.38-.67.83-1.34,1.8-1.42,2.42-.16,1.27-2.32,4.51-1.81,5.15s2.93-.38,3.75-1.71.82-.96.95-.69-.68,6.9-1.14,8.59c-.46,1.69-4.48,5.82-3.56,6.68s5.87-3.37,6.41-4.86c.54-1.49,1.22-3.37,1.22-3.37,0,0-.21,3.13-.72,4.08s-3.46,3.59-2.48,4.25c.99.66,4.17-1.74,5.21-3.7.85-1.61,1.11-3.3,1.18-3.86-.07.65-.33,2.74-.62,3.61-.35,1.04-1.45,1.81-.97,2.17.49.36,2.86-1.56,3.29-2.93.43-1.37.58-3.28.58-3.28,0,0-.08,2.88-.34,3.59s-.7,1.22-.52,1.25,1.74-.93,2.11-2.87c.18-.91.29-2.2.34-3.56-1.22.54-3.58.09-4.56-.77Z"/>
    <path class="cls-7" d="m72.76,143.01c1.22-1.06,2.2.07,3.26-.63s-.29-3.05-.18-4.8c.11-1.74,2.69-1.61,3.8-2.4.67-.48.36-1.58.02-2.38.67.83,1.34,1.8,1.42,2.42.16,1.27,2.32,4.51,1.81,5.15-.51.64-2.93-.38-3.75-1.71s-.82-.96-.95-.69c-.13.26.68,6.9,1.14,8.59.46,1.69,4.48,5.82,3.56,6.68-.92.85-5.87-3.37-6.41-4.86-.54-1.49-1.22-3.37-1.22-3.37,0,0,.21,3.13.72,4.08.51.94,3.46,3.59,2.48,4.25-.99.66-4.17-1.74-5.21-3.7-.85-1.61-1.11-3.3-1.18-3.86.07.65.33,2.74.62,3.61.35,1.04,1.45,1.81.97,2.17-.49.36-2.86-1.56-3.29-2.93-.43-1.37-.58-3.28-.58-3.28,0,0,.08,2.88.34,3.59s.7,1.22.52,1.25-1.74-.93-2.11-2.87c-.18-.91-.29-2.2-.34-3.56,1.22.54,3.57.09,4.56-.77Z"/>
    <path class="cls-3" d="m110.94,12.99c4.13-.02,6.28,1.17,6.28,1.17,0,0-2.61-.7-6.28-.59-3.67-.12-6.28.59-6.28.59,0,0,2.14-1.19,6.28-1.17Z"/>
    <path class="cls-3" d="m153.59,58.27s-2.1-3.44-6.81-4.53c-2.87-.66-4.89.38-4.89.38,0,0,8.26.39,11.7,4.14Z"/>
    <path class="cls-3" d="m68.28,58.27s2.1-3.44,6.81-4.53c2.87-.66,4.89.38,4.89.38,0,0-8.26.39-11.7,4.14Z"/>
    <path class="cls-3" d="m154.52,74.95s-1.53,3.73-1.49,7.13.44,7.2.44,7.2c0,0-1.39-4.32-1.26-7.61s1.29-7.51,1.29-7.51c0,0,.2-1.17,1.02-.62.45.3.12,1.13,0,1.43Z"/>
    <path class="cls-3" d="m67.35,74.95s1.53,3.73,1.49,7.13c-.03,3.39-.44,7.2-.44,7.2,0,0,1.39-4.32,1.26-7.61s-1.29-7.51-1.29-7.51c0,0-.2-1.17-1.02-.62-.45.3-.12,1.13,0,1.43Z"/>
    <path class="cls-3" d="m154.45,120.52s2.65-12.04,2.83-14.71-.06-3.61-.8-3.25c-.74.36-.25,8.55-2.03,17.96Z"/>
    <path class="cls-3" d="m67.43,120.52s-2.65-12.04-2.83-14.71c-.18-2.67.06-3.61.8-3.25.74.36.25,8.55,2.03,17.96Z"/>
    <path class="cls-3" d="m133.88,132.81s-1.35,4.46-.57,10.32c.78,5.86,1.15,15.7,1.15,15.7,0,0-1.52-10.79-2.1-14.87s-.71-8.96,0-10.32c.71-1.36,1.52-.84,1.52-.84Z"/>
    <path class="cls-3" d="m87.99,132.81s1.35,4.46.57,10.32-1.15,15.7-1.15,15.7c0,0,1.52-10.79,2.1-14.87.58-4.07.71-8.96,0-10.32-.71-1.36-1.52-.84-1.52-.84Z"/>
    <path class="cls-3" d="m153.05,141.52c-.02-.07-.52-5.86-.93-7.08-.41-1.22-1.86-2.22-2.44-2.26-.59-.05-.2.48.57.95s1.44,1.72,1.77,2.84c.33,1.12,1.04,5.55,1.04,5.55Z"/>
    <path class="cls-3" d="m68.82,141.52c.02-.07.52-5.86.93-7.08.41-1.22,1.86-2.22,2.44-2.26s.2.48-.57.95c-.77.48-1.44,1.72-1.77,2.84-.33,1.12-1.04,5.55-1.04,5.55Z"/>
    <path class="cls-3" d="m133.29,75.26s-2.85,7.42-6.97,10.18-6.34,2.99-6.34,2.99c0,0,9.5-5.79,13.31-13.17Z"/>
    <path class="cls-3" d="m88.58,75.26s2.85,7.42,6.97,10.18,6.34,2.99,6.34,2.99c0,0-9.5-5.79-13.31-13.17Z"/>
    <polygon class="cls-3" points="131.35 107.85 132.97 116.26 130.39 108.19 131.35 107.85"/>
    <polygon class="cls-3" points="90.52 107.85 88.91 116.26 91.49 108.19 90.52 107.85"/>
    <path class="cls-3" d="m126.94,173.24s2.58-.05,3.85.63c1.27.68,1.36,1.79,1.36,1.79,0,0-1.31-1.99-5.2-2.42Z"/>
    <path class="cls-3" d="m94.94,173.24s-2.58-.05-3.85.63-1.36,1.79-1.36,1.79c0,0,1.31-1.99,5.2-2.42Z"/>
    <path class="cls-3" d="m130.53,218c0-.14,2.9-32.7,2.76-33.15-.14-.45-.93.11-.93.11l-1.83,33.04Z"/>
    <path class="cls-3" d="m91.34,218c0-.14-2.9-32.7-2.76-33.15.14-.45.93.11.93.11l1.83,33.04Z"/>
    <path class="cls-3" d="m131.27,225.63s4.11,4.09,6.35,5.14,5.13,1.63,6.25,2.44.85,2.1.85,2.1h-.78s-.92-2.14-2.65-2.51c-1.73-.37-3.87-1.4-5.16-2.33-1.29-.93-4.85-4.84-4.85-4.84Z"/>
    <path class="cls-3" d="m90.6,225.63s-4.11,4.09-6.35,5.14-5.13,1.63-6.25,2.44c-1.12.81-.85,2.1-.85,2.1h.78s.92-2.14,2.65-2.51c1.73-.37,3.87-1.4,5.16-2.33,1.29-.93,4.85-4.84,4.85-4.84Z"/>
    <path class="cls-9" d="m110.94,70.73c5.65.14,10.59-3.09,10.59-3.28,0,0-4.65,2.13-10.59,2.3-5.94-.17-10.59-2.3-10.59-2.3,0,.19,4.94,3.42,10.59,3.28Z"/>
    <path class="cls-9" d="m123.9,57.61c-.18.12,3.94-2.74,6.06-3.17,2.13-.43,4.12.68,4.05.7-.07.02-5.25-.75-10.12,2.47Z"/>
    <path class="cls-9" d="m97.97,57.61c.18.12-3.94-2.74-6.06-3.17-2.13-.43-4.12.68-4.05.7.07.02,5.25-.75,10.12,2.47Z"/>
    <path class="cls-9" d="m127.59,53.52s-1.86-1.55-3.26-1.03-4.16,4.48-4.12,4.41c.05-.07,4.28-5.35,7.38-3.39Z"/>
    <path class="cls-9" d="m94.28,53.52s1.86-1.55,3.26-1.03,4.16,4.48,4.12,4.41c-.05-.07-4.28-5.35-7.38-3.39Z"/>
  </g>
</svg>