<?xml version="1.0" encoding="utf-8"?>
<!-- Generator: Adobe Illustrator 27.3.1, SVG Export Plug-In . SVG Version: 6.00 Build 0)  -->
<svg version="1.1" id="Layer_1" xmlns="http://www.w3.org/2000/svg" xmlns:xlink="http://www.w3.org/1999/xlink" x="0px" y="0px"
	 viewBox="0 0 225 250" style="enable-background:new 0 0 225 250;" xml:space="preserve">
<style type="text/css">
	.st0{fill:#FFFFFF;}
	.st1{fill:#CD5151;}
	.st2{fill:#BB4746;}
	.st3{fill:#E58585;}
	.st4{fill:#7D4A4A;}
	.st5{fill:#3F4245;}
	.st6{fill:#728596;}
	.st7{fill:#586774;}
	.st8{fill:#B2C8D8;}
	.st9{fill:#96ADBD;}
	.st10{fill:#4D4D4D;}
	.st11{fill:#A3BBCE;}
</style>
<path class="st0" d="M211.4,248.8H13.6c-6.6,0-12-5.4-12-12V13.2c0-6.6,5.4-12,12-12h197.9c6.6,0,12,5.4,12,12v223.7
	C223.4,243.4,218,248.8,211.4,248.8z"/>
<g>
	<path class="st1" d="M102.4,25.2c0.1-0.2,0-8.6,5.4-10.8c3.2-1.3,6.8,0,6.8,0s5-4.1,9.1-3.5c4.1,0.5,8.2,4.5,8.2,4.5
		s8.9-2.6,14.2,2.2c5.4,4.8,4,12,3.7,12.4s5.1,4.2,8,11c2.8,6.8-3.4,11.4-5,16.4c-1.6,4.9,7.2,13.4,7.2,13.4s-7.8,7.8-24.8-3.9
		C118,55.2,102.4,25.2,102.4,25.2z"/>
	<path class="st2" d="M159.9,70.7c0,0,0,0-0.1-0.1c-2.7-0.9-9.3-3.4-11.8-7.6c-3.2-5.3,2.8-7.6,4.3-12.1s-1.2-3.9-3.4-8.2
		c-2.2-4.3,0.5-6.2,0.5-6.2s-1.7-0.5-5.4-4.3c-3.7-3.9-1.3-9-1.3-9s-1.2,2-6.6,1c-5.3-1-4.5-4.3-4.5-4.3s-7.7-1.1-9.3-6.5
		c-0.3-1.1-0.4-1.9-0.3-2.5c-3.6,0.5-7.4,3.5-7.4,3.5s-3.6-1.3-6.8,0c-5.4,2.2-5.3,10.6-5.4,10.8c0,0,15.6,30,32.7,41.7
		C152.2,78.6,159.9,70.7,159.9,70.7z"/>
	<path class="st3" d="M141.3,22.5c0,0,1.7-2.4,0.7-4.2s-4.9-2.3-4.9-2.3S142.7,17.8,141.3,22.5z"/>
	<path class="st3" d="M155.8,47c0,0,1.2-2.6-0.2-6.7s-4.5-5.8-4.5-5.8S156.9,41.9,155.8,47z"/>
	<path class="st4" d="M197.6,233.6c0,0,19.3,4.4,16.2-7.3c0-4.3-18,10.6-24.6-36.2s2.2-58.7-24.6-63.1c-14.7-2.4-34.9-1.6-50.1-0.5
		c-15.2-1.2-35.4-1.9-50.1,0.5c-26.8,4.4-18,16.3-24.6,63.1c-0.7,8-20.2,7.1-20.6,36.2c-0.4,16.2,16,7.3,16,7.3H197.6z"/>
	<path class="st1" d="M176.9,122c0,0,43.5,53.9,44.1,93.6c1.2,18.3-11.4,20.4-15.8,18.8c-2.5-2.9-11-4.9-4.5-33.6
		c3.4-14.9-33.9-68.7-33.9-68.7L176.9,122z"/>
	<path class="st1" d="M52.2,122c0,0-41.9,74.9-45.1,83.9c-12.9,36.4,17.2,31.4,20,30.1c1.2-2.9,4.2-2.3,6.5-19.1
		c2.1-15.3,28.8-84.9,28.8-84.9L52.2,122z"/>
	<path class="st5" d="M170,103.6c0,0,12.3-2.5,19.5,3c7.2,5.4,8.1,17.2,7.4,25.2c-0.7,8.1-0.6,19.8-0.9,30.8
		c-0.3,11.3,1.7,12.5,1.7,12.5s4.2,10.6,4.8,22c0.6,10.9-9,38.1-9,38.1l-16.5-3.9c0,0-1.4-10.3-2.5-23.9
		c-1.1-13.6-2.7-17.4-2.4-25.8c0.4-8.4-9.3-22.2-14.5-38.1C152.4,127.8,170,103.6,170,103.6z"/>
	<path class="st5" d="M58.8,109.3c0,0-12.3-2.5-19.5,3s-8.1,17.2-7.4,25.2c0.7,8.1,0.6,19.8,0.9,30.8c0.3,11.3-1.7,12.5-1.7,12.5
		s-4.2,10.6-4.8,22c-0.6,10.9,7.8,29.4,7.8,29.4l16.5-3.9c0,0,2.7-1.6,3.7-15.2s2.7-17.4,2.4-25.8c-0.4-8.4,9.3-22.2,14.5-38.1
		C76.4,133.4,58.8,109.3,58.8,109.3z"/>
	<path class="st5" d="M158,227.8c-0.7-18.6-4-26.2-4-26.2l-7.4-3.3l-32.1-1.8l-32.1,1.8l-7.4,3.3c0,0-2.5,7.6-3.2,26.2
		S158.8,246.4,158,227.8z"/>
	<path class="st6" d="M113,235.5c1.2,0,2.6,0,3.5,0c2.5,0,40.2-2.9,42.9-4c2.7-1.1-3.7-26.9-3.7-28.8s-1.6-1.1-1.6-1.1l-2.8-1.8
		l-36.7,2.2l-36.7-2.2l-2.8,1.8c0,0-1.6-0.7-1.6,1.1c0,1.8-6.4,27.7-3.7,28.8s37.2,4,39.7,4C110.4,235.5,111.7,235.5,113,235.5z"/>
	<path class="st6" d="M163,108.9l1.6-3.2c0,0,4.2-8.3,15.6-8.3c19.1,0,27.3,23.5,27.3,23.5s-31.9,26.6-51.2,25.8
		C137.2,145.8,163,108.9,163,108.9z"/>
	<path class="st6" d="M66.1,108.9l-1.6-3.2c0,0-4.2-8.3-15.6-8.3c-19.1,0-27.3,23.5-27.3,23.5s31.9,26.6,51.2,25.8
		C92,145.8,66.1,108.9,66.1,108.9z"/>
	<path class="st7" d="M203.8,113.2c-2.6,2.6-8.3,2.9-14.1-0.9c-8.4-5.5-14.9,2.1-20.4-3.5c-1.7-1.7-2.1-4.2-1.8-6.6
		c-2,1.9-2.9,3.6-2.9,3.6l-1.6,3.2c0,0-25.8,36.9-6.6,37.8c19.3,0.9,51.2-25.8,51.2-25.8S206.4,117.4,203.8,113.2z"/>
	<path class="st7" d="M25.3,113.2c2.6,2.6,8.3,2.9,14.1-0.9c8.4-5.5,14.9,2.1,20.4-3.5c1.7-1.7,2.1-4.2,1.8-6.6
		c2,1.9,2.9,3.6,2.9,3.6l1.6,3.2c0,0,25.8,36.9,6.6,37.8c-19.3,0.9-51.2-25.8-51.2-25.8S22.7,117.4,25.3,113.2z"/>
	<path class="st6" d="M164.4,141.6c0,0,12.6-3.7,23.4-11.9c10.8-8.2,16.8-14.3,17.8-14.1c1,0.3,3.9,3.3,3.8,5.1
		c-0.2,1.8-15.7,15.5-27.3,20.9c-11.6,5.3-18.3,6.9-18.3,6.9L164.4,141.6z"/>
	<path class="st6" d="M64.7,141.6c0,0-12.6-3.7-23.4-11.9c-10.8-8.2-16.8-14.3-17.8-14.1c-1,0.3-3.9,3.3-3.8,5.1
		c0.2,1.8,15.7,15.5,27.3,20.9c11.6,5.3,18.3,6.9,18.3,6.9L64.7,141.6z"/>
	<path class="st5" d="M154.3,110.4l6.2-5.5l4.2,0.8c0,0,7.2,37.9-5.2,55.9C147,179.6,154.3,110.4,154.3,110.4z"/>
	<path class="st5" d="M74.9,110.4l-6.2-5.5l-4.2,0.8c0,0-7.2,37.9,5.2,55.9S74.9,110.4,74.9,110.4z"/>
	<path class="st5" d="M114.6,208.6c20,0.3,39.5-7,39.5-7l-0.4-10.3l-5.6-8.7c-0.5,0.1-17.1,0.1-33.5,0.1c-16.4,0-32.9,0-33.5-0.1
		l-5.6,8.7L75,201.6C75,201.6,94.5,208.9,114.6,208.6z"/>
	<path class="st7" d="M114.6,199.8c35.8,0.1,39.6-9.4,39.6-9.4c15.1-52.6,6.3-85.5,6.3-85.5l-23.6-4.7l-3.8-4.7H96l-3.8,4.7
		l-23.6,4.7c0,0-8.8,33,6.3,85.5C75,190.5,78.8,199.9,114.6,199.8z"/>
	<path class="st6" d="M114.6,176.3c0.2,0,0.4,0,0.6,0c27.1-0.2,48.7-23.1,47.8-50.2c-0.4-13.6-2.4-21.2-2.4-21.2l-23.6-4.7l-3.8-4.7
		H96l-3.8,4.7l-23.6,4.7c0,0-2,7.5-2.4,21.2c-0.9,27.1,20.7,50,47.8,50.2C114.2,176.3,114.4,176.3,114.6,176.3z"/>
	<path class="st7" d="M114.6,108.1c4.4,0,8.8-0.7,12.9-2.1c7.7-2.5,9.4-5.8,9.4-5.8V78.9l-22.3-1.1l-22.3,1.1v21.3
		c0,0,1.7,3.3,9.4,5.8C105.8,107.4,110.2,108.1,114.6,108.1z"/>
	<path class="st6" d="M114.6,96.3c12.8,0,20.1-9.1,21.6-11c5.5-6.9,10-25.9,10-25.9l-2-3.2l-29.6-1.1L85,56.3l-2,3.2
		c0,0,4.5,19,10,25.9C94.5,87.2,101.8,96.3,114.6,96.3z"/>
	<path class="st7" d="M114.6,90.6c10.3,0,22.3-9.6,30.2-26.1c0.7-2.6,1.2-4.4,1.3-4.9l-4.4-3.4l-5-0.2l-22.1,5.2L92.4,56l-5,0.2
		l-4.4,3.4c0.1,0.5,0.6,2.3,1.3,4.9C92.2,81,104.3,90.6,114.6,90.6z"/>
	<path class="st6" d="M114.6,60.2l31.5-16.2c-1.6-10.3-9-18.3-13.2-20.2c-5.8-2.6-12.1-3.9-18.3-3.9c-6.3,0-12.5,1.3-18.3,3.9
		c-4.2,1.9-11.6,9.9-13.2,20.2L114.6,60.2z"/>
	<path class="st7" d="M114.6,49.6c7.6-0.3,15.8-0.6,22.2-0.9l9.4-4.8c-0.1-0.5-0.2-0.9-0.3-1.4c-1.6-8.1-6.3-13.1-6.3-13.1
		s-0.2,3.6-4.5,6.3c-0.9,0.6-1.9,0.9-2.9,1.2c-2,0.5-4.2,0.4-6.2,0c-3.8-0.8-7.7-1.3-11.4-1.5c-3.7,0.2-7.6,0.8-11.4,1.5
		c-2.1,0.4-4.2,0.5-6.2,0c-1-0.3-2-0.6-2.9-1.2c-4.3-2.7-4.5-6.3-4.5-6.3s-4.6,5-6.3,13.1c-0.1,0.5-0.2,0.9-0.3,1.4l9.4,4.8
		C98.7,49,106.9,49.3,114.6,49.6z"/>
	<path class="st8" d="M114.6,37.5c3.3,0,6.6,0.4,9.9,1.2l21.6,5.2c0,0,1.6,6.8,0,15.5c0,0-6.2,15.3-23.9,26.2
		c-2.4,1.5-5,2.2-7.7,2.2s-5.3-0.7-7.7-2.2C89.2,74.7,83,59.4,83,59.4c-1.6-8.7,0-15.5,0-15.5l21.6-5.2
		C107.9,37.9,111.2,37.5,114.6,37.5z"/>
	<path class="st9" d="M114.6,87.8c2.6,0,5.3-0.7,7.6-2.2c17.7-10.9,23.9-26.2,23.9-26.2c0.2-1.3,0.4-2.5,0.5-3.7
		c-3.5,6.5-11.9,16.3-32.1,19.4C94.4,72,86,62.2,82.5,55.7c0.1,1.2,0.3,2.4,0.5,3.7c0,0,6.2,15.3,23.9,26.2
		C109.3,87.1,111.9,87.8,114.6,87.8z"/>
	<g>
		<path class="st10" d="M120,79.7L120,79.7c-0.9,0-1.6-0.7-1.6-1.6V44.7c0-0.9,0.7-1.6,1.6-1.6l0,0c0.9,0,1.6,0.7,1.6,1.6v33.4
			C121.6,79,120.8,79.7,120,79.7z"/>
		<path class="st10" d="M129.9,74.5L129.9,74.5c-0.9,0-1.6-0.7-1.6-1.6V45.5c0-0.9,0.7-1.6,1.6-1.6l0,0c0.9,0,1.6,0.7,1.6,1.6v27.3
			C131.5,73.8,130.8,74.5,129.9,74.5z"/>
		<path class="st10" d="M139.6,65.4L139.6,65.4c-0.9,0-1.6-0.7-1.6-1.6V46.9c0-0.9,0.7-1.6,1.6-1.6l0,0c0.9,0,1.6,0.7,1.6,1.6v16.9
			C141.2,64.7,140.5,65.4,139.6,65.4z"/>
	</g>
	<g>
		<path class="st10" d="M109.2,79.7L109.2,79.7c0.9,0,1.6-0.7,1.6-1.6V44.7c0-0.9-0.7-1.6-1.6-1.6l0,0c-0.9,0-1.6,0.7-1.6,1.6v33.4
			C107.6,79,108.3,79.7,109.2,79.7z"/>
		<path class="st10" d="M99.2,74.5L99.2,74.5c0.9,0,1.6-0.7,1.6-1.6V45.5c0-0.9-0.7-1.6-1.6-1.6l0,0c-0.9,0-1.6,0.7-1.6,1.6v27.3
			C97.6,73.8,98.3,74.5,99.2,74.5z"/>
		<path class="st10" d="M89.6,65.4L89.6,65.4c0.9,0,1.6-0.7,1.6-1.6V46.9c0-0.9-0.7-1.6-1.6-1.6l0,0c-0.9,0-1.6,0.7-1.6,1.6v16.9
			C87.9,64.7,88.7,65.4,89.6,65.4z"/>
	</g>
	<path class="st6" d="M161.5,165.8c0,0-0.5-5.2,5.3-9.8c5.7-4.6,28.3-23.7,32.9-21.8c4.6,2,0.4,12.5-0.7,19.5
		c-1.1,7,1.7,24.3-0.1,27.5c-1.8,3.2-1.7,0.9-11.4,3.9c-9.8,3-14.1,7.5-16.2,6.1c-2.1-1.4-2.6-11.4-4.7-15.2
		C164.4,172,161.3,167.8,161.5,165.8z"/>
	<path class="st6" d="M67.6,165.8c0,0,0.5-5.2-5.3-9.8c-5.7-4.6-28.3-23.7-32.9-21.8c-4.6,2-0.4,12.5,0.7,19.5
		c1.1,7-1.7,24.3,0.1,27.5c1.8,3.2,1.7,0.9,11.4,3.9c9.8,3,14.1,7.5,16.2,6.1c2.1-1.4,2.6-11.4,4.7-15.2
		C64.7,172,67.8,167.8,67.6,165.8z"/>
	<path class="st7" d="M198.9,181.2c0.5-0.9,0.7-3.2,0.6-6c-7.7,0.8-19.3,1-23.7-4.2c-3.8-4.4-5.7-11.4-6.6-16.9
		c-0.9,0.7-1.7,1.4-2.3,1.9c-5.7,4.6-5.3,9.8-5.3,9.8c-0.2,2.1,2.9,6.3,5,10.1c2.1,3.9,2.7,13.8,4.7,15.2c2.1,1.4,6.4-3.1,16.2-6.1
		C197.2,182,197,184.3,198.9,181.2z"/>
	<path class="st7" d="M30.3,181.2c-0.5-0.9-0.7-3.2-0.6-6c7.7,0.8,19.3,1,23.7-4.2c3.8-4.4,5.7-11.4,6.6-16.9
		c0.9,0.7,1.7,1.4,2.3,1.9c5.7,4.6,5.3,9.8,5.3,9.8c0.2,2.1-2.9,6.3-5,10.1c-2.1,3.9-2.7,13.8-4.7,15.2c-2.1,1.4-6.4-3.1-16.2-6.1
		C32,182,32.1,184.3,30.3,181.2z"/>
	<path class="st6" d="M173.3,198.2c0,0,8-5.4,17.5-6.2c9.5-0.8,15-1.4,15.8,2c0.8,3.4-0.7,6.3-1.6,12.8s-8.3,28.4-9.4,30.2
		c-1.1,1.7-17.2,0.4-19.5-2.4c-2.3-2.8-5.1-17.4-4.3-24.1C172.6,203.8,171.9,200,173.3,198.2z"/>
	<path class="st6" d="M55.8,198.2c0,0-8-5.4-17.5-6.2c-9.5-0.8-15-1.4-15.8,2c-0.8,3.4,0.7,6.3,1.6,12.8c0.9,6.5,6.6,28.4,7.7,30.1
		c1.1,1.7,17.2,0.4,19.5-2.4c2.3-2.8,6.7-17.3,6-24C56.6,203.8,57.2,200,55.8,198.2z"/>
	<path class="st7" d="M185.3,219.8c-4.3-7.2-3.8-16.3-4.1-25.5c-4.7,1.8-7.8,3.9-7.8,3.9c-1.4,1.8-0.8,5.6-1.5,12.3
		c-0.8,6.7,1.5,21.3,3.8,24.1c2.3,2.8,19,4.4,20.1,2.6c0.3-0.5,1.8-3.5,2.8-8.1C194.2,227.6,188,224.3,185.3,219.8z"/>
	<path class="st7" d="M41.7,219.9c4.3-7.2,6-16.4,6.3-25.6c4.7,1.8,7.8,3.9,7.8,3.9c1.4,1.8,0.8,5.6,1.5,12.3
		c0.8,6.7-3.7,21.4-6,24.2c-2.3,2.8-18.3,4.2-19.5,2.4c-0.3-0.5-1.6-3.9-2.6-8.5C33.7,227,39,224.4,41.7,219.9z"/>
	<path class="st1" d="M114.6,113c2.5-0.1,5.2-0.7,7.9-2.1c9.3-4.7,15.2-14.5,15.2-14.5s4-1.4,7.5,0s3.3,3.3,3.3,3.3s4.8-0.5,8.4,0.2
		c3.6,0.7,7.7,5.9,7.7,5.9s-10.1,13.1-13.8,24.6c-3.2,10-19.3,17.7-36.3,19.4c-16.9-1.7-33.1-9.4-36.3-19.4
		c-3.7-11.6-13.8-24.6-13.8-24.6s4.2-5.2,7.7-5.9c3.6-0.7,8.4-0.2,8.4-0.2s-0.2-1.9,3.3-3.3s7.5,0,7.5,0s6,9.8,15.2,14.5
		C109.4,112.2,112.1,112.8,114.6,113z"/>
	<path class="st2" d="M114.6,149.8c16.9-1.7,33.1-9.4,36.3-19.4c3.7-11.6,13.8-24.6,13.8-24.6s-1.1-1.4-2.6-2.8
		c-2.1,1.2-5.9,4.1-11.7,11.1c-9.2,11-7.6,15.4-20.4,19.5c-5.1,1.6-10.6,2-15.3,2c-4.8,0.1-10.2-0.4-15.3-2
		C86.4,129.4,88,125,78.8,114c-5.8-6.9-9.6-9.9-11.7-11.1c-1.5,1.4-2.6,2.8-2.6,2.8s10.1,13.1,13.8,24.6
		C81.5,140.4,97.6,148.1,114.6,149.8z"/>
	<path class="st11" d="M114.6,20.9c8,0,12.2,2.3,12.2,2.3s-5.1-1.4-12.2-1.1c-7.1-0.2-12.2,1.1-12.2,1.1S106.6,20.8,114.6,20.9z"/>
	<path class="st11" d="M197.2,108.6c0,0-4.1-6.7-13.2-8.8c-5.6-1.3-9.5,0.7-9.5,0.7S190.5,101.3,197.2,108.6z"/>
	<path class="st11" d="M32,108.6c0,0,4.1-6.7,13.2-8.8c5.6-1.3,9.5,0.7,9.5,0.7S38.6,101.3,32,108.6z"/>
	<path class="st11" d="M199,140.9c0,0-3,7.2-2.9,13.8c0.1,6.6,0.9,13.9,0.9,13.9s-2.7-8.4-2.4-14.7c0.3-6.4,2.5-14.5,2.5-14.5
		s0.4-2.3,2-1.2C199.8,138.7,199.2,140.3,199,140.9z"/>
	<path class="st11" d="M30.2,140.9c0,0,3,7.2,2.9,13.8c-0.1,6.6-0.9,13.9-0.9,13.9s2.7-8.4,2.4-14.7c-0.3-6.4-2.5-14.5-2.5-14.5
		s-0.4-2.3-2-1.2C29.3,138.7,29.9,140.3,30.2,140.9z"/>
	<path class="st11" d="M198.1,228.4c0,0,5.8-22.6,6.2-27.8c0.4-5.2-0.1-7-1.5-6.3C201.3,195,201.6,210.2,198.1,228.4z"/>
	<path class="st11" d="M30.2,225.5c0,0-5-19.7-5.4-24.9c-0.4-5.2,0.1-7,1.5-6.3C27.8,195,26.7,207.3,30.2,225.5z"/>
	<path class="st11" d="M157.9,141.5c0,0-5.5,14.4-13.5,19.7c-8,5.3-12.3,5.8-12.3,5.8S150.5,155.8,157.9,141.5z"/>
	<path class="st11" d="M71.3,141.5c0,0,5.5,14.4,13.5,19.7c8,5.3,12.3,5.8,12.3,5.8S78.6,155.8,71.3,141.5z"/>
	<polygon class="st11" points="154.1,204.6 157.2,220.9 152.2,205.2 	"/>
	<polygon class="st11" points="75,204.6 71.9,220.9 76.9,205.2 	"/>
	<path class="st3" d="M114.6,132.7c10.9,0.3,20.5-6,20.5-6.3c0,0-9,4.1-20.5,4.5c-11.5-0.3-20.5-4.5-20.5-4.5
		C94.1,126.7,103.6,133,114.6,132.7z"/>
	<path class="st3" d="M139.7,107.3c-0.3,0.2,7.6-5.3,11.7-6.1c4.1-0.8,8,1.3,7.8,1.4C159.1,102.6,149.1,101.1,139.7,107.3z"/>
	<path class="st3" d="M89.5,107.3c0.3,0.2-7.6-5.3-11.7-6.1c-4.1-0.8-8,1.3-7.8,1.4C70,102.6,80,101.1,89.5,107.3z"/>
	<path class="st3" d="M146.8,99.4c0,0-3.6-3-6.3-2s-8.1,8.7-8,8.5C132.6,105.8,140.8,95.6,146.8,99.4z"/>
	<path class="st3" d="M82.3,99.4c0,0,3.6-3,6.3-2c2.7,1,8.1,8.7,8,8.5C96.5,105.8,88.3,95.6,82.3,99.4z"/>
</g>
</svg>
