<?xml version="1.0" encoding="utf-8"?>
<!-- Generator: Adobe Illustrator 27.3.1, SVG Export Plug-In . SVG Version: 6.00 Build 0)  -->
<svg version="1.1" id="Layer_1" xmlns="http://www.w3.org/2000/svg" xmlns:xlink="http://www.w3.org/1999/xlink" x="0px" y="0px"
	 viewBox="0 0 225 250" style="enable-background:new 0 0 225 250;" xml:space="preserve">
<style type="text/css">
	.st0{fill:#FFFFFF;}
	.st1{fill:#CD5151;}
	.st2{fill:#BB4746;}
	.st3{fill:#E58585;}
	.st4{fill:#3F4245;}
	.st5{fill:#728596;}
	.st6{fill:#586774;}
	.st7{fill:#B2C8D8;}
	.st8{fill:#96ADBD;}
	.st9{fill:#4D4D4D;}
	.st10{fill:#A3BBCE;}
</style>
<path class="st0" d="M211.4,248.8H13.6c-6.6,0-12-5.4-12-12V13.2c0-6.6,5.4-12,12-12h197.9c6.6,0,12,5.4,12,12v223.7
	C223.4,243.4,218,248.8,211.4,248.8z"/>
<g>
	<path class="st1" d="M94.1,31.7c0.2-0.3,0-13.8,8.7-17.4c5.1-2.1,10.9,0,10.9,0s8-6.5,14.6-5.7c6.5,0.8,13.2,7.3,13.2,7.3
		s14.2-4.2,22.8,3.5c8.6,7.7,6.4,19.3,6,19.9s8.2,6.8,12.8,17.7c4.5,11-5.5,18.4-8,26.3c-2.5,7.9,11.5,21.5,11.5,21.5
		s-12.5,12.6-39.9-6.2C119.1,79.8,94.1,31.7,94.1,31.7z"/>
	<path class="st2" d="M186.4,104.8c0,0-0.1-0.1-0.2-0.2c-4.4-1.4-15-5.5-19-12.2c-5.2-8.5,4.4-12.1,6.9-19.4
		c2.4-7.3-1.9-6.3-5.4-13.2s0.7-10,0.7-10s-2.7-0.7-8.7-7c-5.9-6.2-2.1-14.5-2.1-14.5s-2,3.2-10.6,1.6c-8.5-1.6-7.3-6.9-7.3-6.9
		s-12.3-1.8-15-10.5c-0.5-1.8-0.6-3-0.4-4c-5.8,0.8-11.8,5.6-11.8,5.6s-5.7-2.1-10.9,0c-8.7,3.6-8.4,17.1-8.7,17.4
		c0,0,25,48.1,52.4,66.9C174,117.3,186.4,104.8,186.4,104.8z"/>
	<path class="st3" d="M156.6,27.3c0,0,2.7-3.9,1.1-6.8c-1.7-2.8-7.9-3.6-7.9-3.6S158.8,19.8,156.6,27.3z"/>
	<path class="st3" d="M179.8,66.6c0,0,1.8-4.2-0.3-10.8s-7.2-9.2-7.2-9.2S181.5,58.5,179.8,66.6z"/>
	<path class="st4" d="M73.5,233.4c8.3-25.4-19.9-64.2-19.9-64.2s-44,22.5-42.9,35.4"/>
	<path class="st5" d="M191.4,166l2.6-5.1c0,0,9.9-16.7,19-8.7c0,14.2,4.9,56,4.9,56s-6.1,19.8-37,18.4
		C149.9,225.2,191.4,166,191.4,166z"/>
	<path class="st5" d="M35.8,166l-2.6-5.1c0,0-10.2-19.4-25-7.5C8.1,153.5,7,184.7,7,197.5c0,12.2,8.4,30.5,39.4,29.1
		C77.3,225.2,35.8,166,35.8,166z"/>
	<path class="st6" d="M215.6,185.8c-1-11.1-5-11.1-13.9-20.1c-2.7-2.8-3.4-6.7-2.9-10.7c-3.3,3-4.7,5.8-4.7,5.8l-2.6,5.1
		c0,0-41.5,59.2-10.5,60.6c31,1.4,36.8-20.1,36.8-20.1S216.2,195.8,215.6,185.8z"/>
	<path class="st6" d="M7.2,182.3c-0.5-13.8,9.6-7.5,18.4-16.5c2.7-2.8,3.4-6.7,2.9-10.7c3.3,3,4.7,5.8,4.7,5.8l2.6,5.1
		c0,0,42.1,62.8,11.1,63.4c-22.1,0.5-40.3-14.3-40.3-14.3S7.2,191.9,7.2,182.3z"/>
	<path class="st5" d="M193.9,218.1c0,0,22.2-12.6,23.9-12.1c0.3,3,0.8,6.9,0.8,10c0,3-25.6,13.3-25.6,13.3L193.9,218.1z"/>
	<path class="st5" d="M33.6,218.5c0,0-25.1-11.2-26.8-10.7c0,4.1-0.5,9.4-0.3,12.4s28,9.5,28,9.5L33.6,218.5z"/>
	<path class="st4" d="M177.3,168.5l10-8.9l6.7,1.3c0,0,6.9,52.8-7.2,64.9C178.4,233.1,177.3,168.5,177.3,168.5z"/>
	<path class="st4" d="M49.9,168.5l-10-8.9l-6.7,1.3c0,0-11.7,60.2,6.3,70.9C43.2,236,49.9,168.5,49.9,168.5z"/>
	<path class="st6" d="M111.8,229.1c57.4,0.1,66.4-11.8,66.4-11.8c8.3-34.7,9.1-57.6,9.1-57.6l-37.8-7.6l-6.1-7.6H83.8l-6.1,7.6
		l-37.8,7.6c0,0,1.6,33.8,11.1,57.6C51,217.3,54.4,229.2,111.8,229.1z"/>
	<path class="st5" d="M191.3,193.6c-0.7-21.9-3.9-34-3.9-34l-37.8-7.6l-6.1-7.6H83.8l-6.1,7.6l-37.8,7.6c0,0-3.2,12.1-3.9,34
		c-1.4,43.5-2.4,47.8,76.8,50.8C179.8,245.2,192.7,237.1,191.3,193.6z"/>
	<path class="st6" d="M113.6,164.8c7,0,14.1-1.1,20.8-3.3c12.4-4.1,15.1-9.4,15.1-9.4v-34.2l-35.9-1.7l-35.9,1.7v34.2
		c0,0,2.7,5.3,15.1,9.4C99.6,163.6,106.6,164.8,113.6,164.8z"/>
	<path class="st5" d="M113.6,145.9c20.5,0,32.2-14.6,34.6-17.7c8.8-11.1,16-41.6,16-41.6l-3.2-5.1l-47.5-1.8l-47.5,1.8L63,86.6
		c0,0,7.2,30.4,16,41.6C81.4,131.2,93.1,145.9,113.6,145.9z"/>
	<path class="st6" d="M113.6,136.7c16.5,0,35.9-15.4,48.5-41.9c1.2-4.1,1.9-7.1,2.1-7.9l-7.1-5.5l-8-0.3l-35.5,8.3l-35.5-8.3l-8,0.3
		L63,86.9c0.2,0.8,0.9,3.7,2.1,7.9C77.7,121.2,97.1,136.7,113.6,136.7z"/>
	<path class="st5" d="M113.6,87.8l50.7-26.1c-2.5-16.5-14.5-29.4-21.2-32.4c-9.3-4.2-19.4-6.3-29.5-6.3s-20.1,2.1-29.5,6.3
		c-6.7,3-18.7,16-21.2,32.4L113.6,87.8z"/>
	<path class="st6" d="M113.6,70.9c12.2-0.5,25.4-1,35.6-1.4l15.1-7.8c-0.1-0.8-0.3-1.5-0.4-2.2c-2.6-13-10.1-21-10.1-21
		s-0.2,5.8-7.2,10.1c-1.4,0.9-3,1.5-4.7,1.9c-3.3,0.8-6.7,0.7-10,0c-6-1.2-12.3-2.1-18.3-2.5c-6,0.3-12.2,1.3-18.3,2.5
		c-3.3,0.7-6.7,0.8-10,0c-1.6-0.4-3.2-1-4.7-1.9c-7-4.3-7.2-10.1-7.2-10.1s-7.5,8-10.1,21c-0.2,0.7-0.3,1.5-0.4,2.2L78,69.5
		C88.2,69.9,101.4,70.4,113.6,70.9z"/>
	<path class="st7" d="M113.6,51.4c5.3,0,10.7,0.6,15.9,1.9l34.7,8.4c0,0,2.5,11,0,24.9c0,0-9.9,24.5-38.3,42
		c-3.8,2.3-8.1,3.5-12.3,3.5s-8.6-1.2-12.3-3.5c-28.4-17.5-38.3-42-38.3-42c-2.5-13.9,0-24.9,0-24.9l34.7-8.4
		C102.9,52.1,108.3,51.4,113.6,51.4z"/>
	<path class="st8" d="M113.6,132.2c4.2,0,8.5-1.2,12.2-3.5c28.5-17.5,38.4-42.1,38.4-42.1c0.4-2.1,0.6-4,0.8-6
		c-5.6,10.4-19.2,26.1-51.5,31.1c-32.3-5-45.9-20.7-51.5-31.1c0.2,1.9,0.4,3.9,0.8,6c0,0,10,24.6,38.4,42.1
		C105.1,131,109.4,132.2,113.6,132.2z"/>
	<g>
		<path class="st9" d="M122.3,119.1L122.3,119.1c-1.4,0-2.6-1.2-2.6-2.6V62.9c0-1.4,1.2-2.6,2.6-2.6l0,0c1.4,0,2.6,1.2,2.6,2.6v53.6
			C124.9,118,123.7,119.1,122.3,119.1z"/>
		<path class="st9" d="M138.2,110.8L138.2,110.8c-1.4,0-2.6-1.2-2.6-2.6V64.3c0-1.4,1.2-2.6,2.6-2.6l0,0c1.4,0,2.6,1.2,2.6,2.6v43.9
			C140.8,109.7,139.7,110.8,138.2,110.8z"/>
		<path class="st9" d="M153.7,96.2L153.7,96.2c-1.4,0-2.6-1.2-2.6-2.6V66.5c0-1.4,1.2-2.6,2.6-2.6l0,0c1.4,0,2.6,1.2,2.6,2.6v27.1
			C156.3,95.1,155.2,96.2,153.7,96.2z"/>
	</g>
	<g>
		<path class="st9" d="M105,119.1L105,119.1c1.4,0,2.6-1.2,2.6-2.6V62.9c0-1.4-1.2-2.6-2.6-2.6l0,0c-1.4,0-2.6,1.2-2.6,2.6v53.6
			C102.4,118,103.5,119.1,105,119.1z"/>
		<path class="st9" d="M89,110.8L89,110.8c1.4,0,2.6-1.2,2.6-2.6V64.3c0-1.4-1.2-2.6-2.6-2.6l0,0c-1.4,0-2.6,1.2-2.6,2.6v43.9
			C86.4,109.7,87.5,110.8,89,110.8z"/>
		<path class="st9" d="M73.5,96.2L73.5,96.2c1.4,0,2.6-1.2,2.6-2.6V66.5c0-1.4-1.2-2.6-2.6-2.6l0,0c-1.4,0-2.6,1.2-2.6,2.6v27.1
			C70.9,95.1,72,96.2,73.5,96.2z"/>
	</g>
	<path class="st1" d="M113.6,172.6c4-0.2,8.4-1.1,12.7-3.3c14.9-7.6,24.5-23.4,24.5-23.4s6.5-2.3,12.1,0c5.6,2.3,5.3,5.3,5.3,5.3
		s7.7-0.8,13.4,0.3c5.7,1.1,12.4,9.4,12.4,9.4s-16.3,21-22.2,39.5c-5.1,16.1-31.1,28.4-58.2,31.2c-27.2-2.8-53.1-15.1-58.2-31.2
		c-5.9-18.6-22.2-39.5-22.2-39.5s6.7-8.3,12.4-9.4c5.7-1.1,13.4-0.3,13.4-0.3s-0.3-3.1,5.3-5.3c5.6-2.3,12.1,0,12.1,0
		s9.6,15.8,24.5,23.4C105.2,171.4,109.6,172.3,113.6,172.6z"/>
	<path class="st2" d="M113.6,231.7c27.2-2.8,53.1-15.1,58.2-31.2c5.9-18.6,22.2-39.5,22.2-39.5s-1.8-2.2-4.2-4.5
		c-3.3,1.9-9.5,6.6-18.8,17.8c-14.8,17.7-12.2,24.7-32.8,31.2c-8.2,2.6-17,3.3-24.6,3.2c-7.6,0.1-16.4-0.6-24.6-3.2
		c-20.6-6.5-18-13.5-32.8-31.2c-9.3-11.2-15.5-15.8-18.8-17.8c-2.5,2.3-4.2,4.5-4.2,4.5s16.3,21,22.2,39.5
		C60.5,216.6,86.4,228.9,113.6,231.7z"/>
	<path class="st10" d="M113.6,24.7c12.9-0.1,19.5,3.6,19.5,3.6s-8.1-2.2-19.5-1.8c-11.4-0.4-19.5,1.8-19.5,1.8
		S100.8,24.7,113.6,24.7z"/>
	<path class="st10" d="M39,212.5c0,0,9.6,24.4,15,26.1c3.2,1,6.2,1.5,6.2,1.5S45.6,223.6,39,212.5z"/>
	<path class="st3" d="M113.6,204.3c17.6,0.4,32.9-9.6,32.9-10.2c0,0-14.5,6.6-32.9,7.2c-18.5-0.5-32.9-7.2-32.9-7.2
		C80.7,194.6,96,204.7,113.6,204.3z"/>
	<path class="st3" d="M153.9,163.5c-0.6,0.4,12.2-8.5,18.9-9.8c6.6-1.3,12.8,2.1,12.6,2.2C185.2,155.9,169,153.5,153.9,163.5z"/>
	<path class="st3" d="M73.3,163.5c0.6,0.4-12.2-8.5-18.9-9.8c-6.6-1.3-12.8,2.1-12.6,2.2C42.1,155.9,58.2,153.5,73.3,163.5z"/>
	<path class="st3" d="M165.4,150.7c0,0-5.8-4.8-10.1-3.2c-4.4,1.6-12.9,13.9-12.8,13.7C142.6,161.1,155.7,144.6,165.4,150.7z"/>
	<path class="st3" d="M61.8,150.7c0,0,5.8-4.8,10.1-3.2c4.4,1.6,12.9,13.9,12.8,13.7C84.6,161.1,71.5,144.6,61.8,150.7z"/>
	<path class="st10" d="M156.1,242.6c0,0,3-0.4,6.3-1.3c5.4-1.4,16.1-25.4,16.1-25.4C171.5,226.8,156.1,242.6,156.1,242.6z"/>
</g>
</svg>
