<?xml version="1.0" encoding="utf-8"?>
<!-- Generator: Adobe Illustrator 28.1.0, SVG Export Plug-In . SVG Version: 6.00 Build 0)  -->
<svg version="1.1" xmlns="http://www.w3.org/2000/svg" xmlns:xlink="http://www.w3.org/1999/xlink" x="0px" y="0px"
	 viewBox="0 0 800 800" style="enable-background:new 0 0 800 800;" xml:space="preserve">
<style type="text/css">
	.st0{fill:#656668;}
	.st1{display:none;}
	.st2{display:inline;}
	.st3{fill:none;stroke:#333333;stroke-width:3;stroke-linecap:round;stroke-linejoin:round;stroke-miterlimit:10;}
	.st4{fill:#001922;}
	.st5{fill:#FFFFFF;}
	.st6{fill:#383838;}
	.st7{fill:#F0F2F2;}
	.st8{fill:#001F30;}
</style>
<g id="Layer_6">
	<ellipse class="st0" cx="165.4" cy="161.5" rx="99.9" ry="98.5"/>
</g>
<g id="Layer_2" class="st1">
	<g class="st2">
		<rect x="115.6" y="133.2" class="st3" width="99.5" height="67.8"/>
		<rect x="124.5" y="142.1" class="st3" width="81.7" height="50"/>
		<line class="st3" x1="215.2" y1="133.2" x2="206.2" y2="142.1"/>
		<line class="st3" x1="206.2" y1="192.2" x2="215.2" y2="201.1"/>
		<line class="st3" x1="124.5" y1="192.2" x2="115.6" y2="201.1"/>
		<line class="st3" x1="115.6" y1="133.2" x2="124.5" y2="142.1"/>
		<polyline class="st3" points="137.2,133.2 165.4,105 193.6,133.2 		"/>
	</g>
</g>
<g id="Layer_4">
	<g>
		<path class="st4" d="M203.1,146.7c-4.2-3-10.1-2.2-15.3,1.6c0.6-1.6,1.1-3.3,1.4-5.1c1.8-10.3-2.4-19.4-9.7-20.6
			c-6.4-1.1-12.6,4.1-15.3,12.4c-2.7-8.2-8.9-13.5-15.3-12.4c-3.7,0.7-6.8,3.4-8.5,7.6c-1.6,3.8-2,8.4-1.2,13.1
			c0.3,1.8,0.8,3.5,1.4,5.1c-5.2-3.8-11.2-4.6-15.3-1.6c-5.7,4.2-5.6,13.8,0.3,21.9c2.7,3.7,6.1,6.4,9.8,7.8
			c2.1,0.8,4.3,1.1,6.2,0.9c-5.5,6-7.9,12.2-6.6,17.5c1,3.9,3.8,6.7,7.8,7.8c5,1.4,9.3-0.9,13.1-2.9c2.8-1.5,5.5-2.9,8.2-2.8l0.2,0
			c2.7-0.1,5.4,1.3,8.2,2.8c3.7,1.9,8,4.1,12.8,3c0.1,0,0.2-0.1,0.3-0.1c4-1.1,6.8-4,7.8-7.8c1.3-5.3-1.1-11.5-6.6-17.5
			c1.4,0.1,2.8,0.1,4.3-0.3c4.1-1,8.4-4,11.7-8.5C208.7,160.4,208.8,150.8,203.1,146.7z"/>
		<path class="st5" d="M204.5,144.4c-4.2-3-10.1-2.2-15.3,1.6c0.6-1.6,1.1-3.3,1.4-5.1c1.8-10.3-2.4-19.4-9.7-20.6
			c-6.4-1.1-12.6,4.1-15.3,12.4c-2.7-8.2-8.9-13.5-15.3-12.4c-3.7,0.7-6.8,3.4-8.5,7.6c-1.6,3.8-2,8.4-1.2,13.1
			c0.3,1.8,0.8,3.5,1.4,5.1c-5.2-3.8-11.2-4.6-15.3-1.6c-5.7,4.2-5.6,13.8,0.3,21.9c2.7,3.7,6.1,6.4,9.8,7.8
			c2.1,0.8,4.3,1.1,6.2,0.9c-5.5,6-7.9,12.2-6.6,17.5c1,3.9,3.8,6.7,7.8,7.8c5,1.4,9.3-0.9,13.1-2.9c2.8-1.5,5.5-2.9,8.2-2.8l0.2,0
			c2.7-0.1,5.4,1.3,8.2,2.8c3.7,1.9,8,4.1,12.8,3c0.1,0,0.2-0.1,0.3-0.1c4-1.1,6.8-4,7.8-7.8c1.3-5.3-1.1-11.5-6.6-17.5
			c1.4,0.1,2.8,0.1,4.3-0.3c4.1-1,8.4-4,11.7-8.5C210.1,158.2,210.2,148.6,204.5,144.4z"/>
		<g>
			<path class="st4" d="M165.6,159.6c-8.6,0.2-10.6,8.3-18.3,15.6c-11.4,10.7-9.2,20.1-2.2,22c7,1.9,12.9-5.9,20.5-5.8
				c0,0,0,0,0.1,0c0,0,0,0,0.1,0c7.6-0.2,13.5,7.7,20.5,5.8s9.2-11.2-2.2-22C176.2,167.9,174.2,159.9,165.6,159.6z"/>
			
				<ellipse transform="matrix(0.8086 -0.5883 0.5883 0.8086 -67.1737 111.1347)" class="st4" cx="137.2" cy="158.8" rx="9.4" ry="14.6"/>
			<path class="st4" d="M186.4,153.3c-4.8,6.5-5.2,14.3-1,17.4c4.2,3.1,11.5,0.2,16.2-6.3c4.8-6.5,5.2-14.3,1-17.4
				C198.4,143.9,191.1,146.7,186.4,153.3z"/>
			
				<ellipse transform="matrix(0.9845 -0.1755 0.1755 0.9845 -21.9328 29.1065)" class="st4" cx="153.6" cy="138.6" rx="10" ry="15.4"/>
			<path class="st4" d="M167.8,136.8c-1.5,8.4,1.7,16,7.1,16.9c5.4,1,11-5.1,12.5-13.5c1.5-8.4-1.7-16-7.1-16.9
				C174.9,122.4,169.3,128.4,167.8,136.8z"/>
		</g>
	</g>
</g>
<g id="Layer_5" class="st1">
	<g class="st2">
		<g>
			<g>
				<path class="st6" d="M202.8,186.3c-2.1-7.4-7.8-13.2-15.2-15.3l-13.6-3.9h-8.6h-8.6l-13.6,3.9c-7.4,2.1-13.1,7.9-15.2,15.3
					l-3.7,6.2c10.7,10.2,25.2,16.5,41.1,16.5s30.4-6.3,41.1-16.5L202.8,186.3z"/>
				<path class="st7" d="M173.4,156.2h-8h-8l-2.5,13.2c0,0,4.5,4.7,10.5,5c6-0.2,10.5-5,10.5-5L173.4,156.2z"/>
				<path class="st5" d="M183.3,137.7c0,10.8-8,25.3-17.9,25.3c-9.9,0-17.9-14.5-17.9-25.3c0-10.8,8-19.6,17.9-19.6
					C175.3,118,183.3,126.8,183.3,137.7z"/>
				<path class="st5" d="M149.7,139.2c-0.1,2.1-1.3,4.9-2.8,4.8c-1.4-0.1-2.4-2.9-2.4-5.1c0.1-2.1,1.3-3.8,2.7-3.7
					C148.8,135.3,149.8,137.1,149.7,139.2z"/>
				<path class="st5" d="M185.8,139c0.1,2.1-1,5-2.4,5s-2.7-2.7-2.7-4.9s1-3.9,2.4-3.9C184.6,135.2,185.8,136.9,185.8,139z"/>
			</g>
			<path class="st6" d="M187.3,126.8c0-1.3-0.4-2.6-1.4-3.3c0.3,0,0.4-0.4,0.2-0.6c-0.2-0.2-0.4-0.3-0.7-0.3
				c-1.6-0.4-2.7-1.9-4.1-2.8c-0.9-0.5-1.9-0.8-2.5-1.6c-0.2-0.2-0.3-0.5-0.3-0.8c0-0.1,0.1-0.2,0.1-0.4c0-0.4-0.4-0.6-0.8-0.7
				c-2.2-0.7-4.5-2.1-6.8-2.2c-0.2,0-0.4,0-0.7,0c-2.4,0.1-4,1.2-5,2.9c-0.9-1.7-2.6-2.8-5-2.9c-0.2,0-0.4,0-0.7,0
				c-2.4,0.1-4.6,1.5-6.8,2.2c-0.4,0.1-0.8,0.3-0.8,0.7c0,0.1,0.1,0.2,0.1,0.4c0.1,0.3-0.1,0.6-0.3,0.8c-0.6,0.8-1.7,1.1-2.5,1.6
				c-1.4,0.9-2.5,2.4-4.1,2.8c-0.3,0.1-0.5,0.1-0.7,0.3c-0.2,0.2,0,0.6,0.2,0.6c-1,0.7-1.4,2.1-1.4,3.3c0,1.3,0.4,2.5,0.8,3.7
				c0.4,1.2,0.7,2.5,0.5,3.7c-0.1,0.4-0.2,0.8-0.1,1.2c0.1,0.4,0.4,0.8,0.8,0.8c0.6,0,1.2-1,1.7-0.6c0.2,0.2,0.3,0.5,0.3,0.8
				c0.2,3.3,0.8,6.6,1.8,9.7c0.7-1.3,0.3-2.9,0.1-4.3c-0.3-2.5,0.7-4.2,1.3-6.5c0.5-2,0.2-4.3,2.1-5.5c0.9-0.6,1.5-1.6,2.4-2.2
				c0.9-0.5,1.9-0.6,2.9-0.8c1.3-0.2,2.2-1,3.3-1.6c0.4-0.2,3.7-2.2,3.8-2.2c2.2,1.6,5.5,1.5,7.7,3.1c0.8,0.5,1.3,1.3,2.1,1.8
				c1.3,0.8,3,0.9,3.9,2.1c0.6,0.9,0.5,2,0.8,3c0.8,2.8,1.7,5.8,1.4,8.8c-0.2,1.5-0.6,3,0.1,4.3c1-3.1,1.6-6.4,1.8-9.7
				c0-0.3,0.1-0.6,0.3-0.8c0.5-0.4,1.1,0.6,1.7,0.6c0.4,0,0.7-0.4,0.8-0.8c0.1-0.4,0-0.8-0.1-1.2c-0.2-1.2,0.2-2.5,0.5-3.7
				C186.8,129.3,187.2,128.1,187.3,126.8z"/>
		</g>
	</g>
</g>
<g id="Layer_3">
	<g>
		<g>
			<path class="st8" d="M165.4,263.8c-56.4,0-102.2-45.9-102.2-102.2S109,59.3,165.4,59.3s102.2,45.9,102.2,102.2
				S221.8,263.8,165.4,263.8z M165.4,66.8c-52.2,0-94.7,42.5-94.7,94.7s42.5,94.7,94.7,94.7s94.7-42.5,94.7-94.7
				C260.1,109.3,217.6,66.8,165.4,66.8z"/>
		</g>
		<g>
			<path class="st8" d="M165.4,249.3c-48.4,0-87.8-39.4-87.8-87.8s39.4-87.8,87.8-87.8s87.8,39.4,87.8,87.8
				C253.2,209.9,213.8,249.3,165.4,249.3z M165.4,77c-46.6,0-84.6,37.9-84.6,84.6s37.9,84.6,84.6,84.6c46.6,0,84.6-37.9,84.6-84.6
				S212,77,165.4,77z"/>
		</g>
	</g>
</g>
</svg>
