<?xml version="1.0" encoding="UTF-8"?>
<svg id="Layer_1" data-name="Layer 1" xmlns="http://www.w3.org/2000/svg" viewBox="0 0 1922.19 769">
  <defs>
    <style>
      .cls-1 {
        fill: #fff;
      }

      .cls-2 {
        fill: #282828;
      }

      .cls-3 {
        fill: #e5e5e5;
      }
    </style>
  </defs>
  <path class="cls-3" d="m1922.1,36.66v144c0,21.96-4.91,390.61-68.55,352.43-34.47-20.68,35.39,235.91-30.64,235.91-75.06,0,9.7-284.9-29.11-284.43-82.72,1.02-65.87-110.81-124.09-112.34-145.03-3.82-15.32,300.26-88.85,303.32-92.86,3.87,52.09-352.34-115.4-352.34-129.7,0-119.22-224.51-205.53-225.7-57.27-.79-90.68-60.28-122.2-60.28-98.9-.01-48.52-.03-65.58-.03H479.42c-51.78,0-6.26,238.55-225.19,246.19-131.74,4.6-16.85,375.32-94.98,376.85-50.54.99-3.61-237.26-41.36-238.98-67.4-3.06,24,347.74-52.09,345.19-71.99-2.42,8.17-277.03-46.47-277.28C.1,489.09.1,295.14.1,195.47V0h1922s0,32.19,0,36.66Z"/>
  <path d="m1922,30.89v144.89c0,21.96,5.09,389.5-58.55,351.32-34.47-20.68,35.39,235.91-30.64,235.91-75.06,0,9.7-284.9-29.11-284.43-82.72,1.02-65.87-110.81-124.09-112.34-145.03-3.82-15.32,300.26-88.85,303.32-92.86,3.87,52.09-352.34-115.4-352.34-129.7,0-119.22-224.51-205.53-225.7-57.27-.79-90.68-60.28-122.2-60.28-98.9-.01-48.52-.03-65.58-.03H489.32c-51.78,0-6.26,238.55-225.19,246.19-131.74,4.6-16.85,375.32-94.98,376.85-50.54.99-3.61-237.26-41.36-238.98-67.4-3.06,24,347.74-52.09,345.19-71.99-2.42,8.17-277.28-46.47-277.28C.73,483.19,0,287.21,0,187.53c0-31.66,0-135,0-135L.1,0h1922s-.1,26.42-.1,30.89Z"/>
  <path class="cls-2" d="m1922.1,17.89v144.89c0,21.96,5.09,389.5-58.55,351.32-34.47-20.68,35.39,235.91-30.64,235.91-75.06,0,9.7-284.9-29.11-284.43-82.72,1.02-65.87-110.81-124.09-112.34-145.03-3.82-15.32,300.26-88.85,303.32-92.86,3.87,52.09-352.34-115.4-352.34-129.7,0-119.22-224.51-205.53-225.7-57.27-.79-90.68-60.28-122.2-60.28-98.9-.01-48.52-.03-65.58-.03H489.42c-51.78,0-6.26,238.55-225.19,246.19-131.74,4.6-16.85,375.32-94.98,376.85-50.54.99-3.61-237.26-41.36-238.98-67.4-3.06,24,347.74-52.09,345.19-71.99-2.42,8.17-277.28-46.47-277.28C.82,470.19.1,274.21.1,174.53c0-31.66,0-135,0-135V0h1922v17.89Z"/>
  <path class="cls-1" d="m388.62,190.18c.4-.61-1.09-.71-1.76-.11-10,8.77-17.12,29.46-45.8,42.99-38.74,18.28-55.94,19.26-70.88,22.49-.85.18-.93,1.14-.09,1.05,32.92-3.55,66.06-12.87,82.46-20.86,20.77-10.11,36.07-45.56,36.07-45.56Z"/>
  <path class="cls-1" d="m1278.81,69.28c.36-.02-.27-.56-.76-.64-7.11-1.15-16.5,1.85-33.41-4.5-22.84-8.59-30.85-14.29-38.51-18.61-.43-.24-.76-.02-.36.25,15.82,10.47,33.47,19.48,43.22,23.06,12.34,4.52,29.82.45,29.82.45Z"/>
  <path class="cls-1" d="m1853.31,726.18c.44-.34.82.52.44.97-5.67,6.72-18.38,19.33-30.1,13.87-11.11-5.18-16.77-59.53-18.63-81.75-.06-.73.68-.94.8-.22,3.45,20.26,12.2,67.54,19.43,73.34,8.69,6.97,21.86-1.43,28.06-6.22Z"/>
  <path class="cls-1" d="m1737.13,396.29c-.33-.71-.98-1.14-.74-.48,3.57,9.72,12.33,31.06,25.69,47.6,12.67,15.69,35.1,14.21,43.82,12.92.29-.04-.38-1.18-.73-1.24-9.7-1.46-33.02-5.89-42.02-15.66-10.81-11.74-21.33-32.99-26.02-43.15Z"/>
  <path class="cls-1" d="m96.68,723.97c.55-.31.87.7.37,1.14-7.47,6.58-23.88,18.64-36.63,10.89-12.09-7.35-11.03-68.15-10.08-92.94.03-.82.91-.93.95-.13,1.16,22.87,4.64,76.33,12.17,83.79,9.05,8.97,25.39,1.63,33.21-2.75Z"/>
  <path class="cls-1" d="m184.88,627.44c.36-.09.6.35.27.5-4.89,2.23-15.68,6.13-24.35,2.05-8.22-3.87-8.53-29.06-8.31-39.3,0-.34.59-.33.63.01,1.16,9.58,4.39,32.03,9.56,35.64,6.21,4.34,17.04,2.39,22.2,1.1Z"/>
  <path class="cls-1" d="m1472.47,294.11c.58.08.2-1.02-.45-1.3-9.59-4.22-27.18-2.34-46.02-18.35-25.46-21.63-31.45-33.65-38.42-43.28-.4-.55-1.14-.28-.81.29,12.71,22.43,29.79,43.07,40.75,52.15,13.88,11.49,44.96,10.5,44.96,10.5Z"/>
  <path class="cls-1" d="m1609.28,631.47c.51-.37.85.7.39,1.21-6.85,7.63-21.96,21.78-34.23,14.18-11.64-7.21-12.55-73.33-12.43-100.33,0-.89.83-1.07.89-.2,1.81,24.77,6.77,82.62,14.11,90.25,8.82,9.16,24.02.14,31.27-5.12Z"/>
</svg>