<?xml version="1.0" encoding="UTF-8"?>
<svg id="Layer_1" data-name="Layer 1" xmlns="http://www.w3.org/2000/svg" viewBox="0 0 1920.06 825.07">
  <defs>
    <style>
      .cls-1 {
        fill: #fff;
      }

      .cls-2 {
        fill: #282828;
      }

      .cls-3 {
        fill: #e5e5e5;
      }
    </style>
  </defs>
  <path class="cls-3" d="m.03,0h1920v160.7c0,12.77-8.35,121.38-31.03,159.3-43.8,73.22,73.74,503.02-34.51,505.06-121,2.28,4.18-444.26-73.53-444.26-130.21,0-93.96-140.94-193.53-141.45-302.03-1.55-367.66-159.32-704.94-111.06-68.26,9.77,7.66,101.11-51.32,103.4-79.78,3.11,31.76-132.18-94.98-127.15-77.11,3.06-84.29,126.78-188.94,111.83-121.53-17.36-122.79,143.86-422.81,156.26-123.57,5.11,30.66,352.81-75.57,353.36-97.53.51,13.09-293.64-24.7-379.43C13.08,321.38.03,281.84.03,241.64"/>
  <path d="m0,0h1920.03s-.03,116.15-.03,150.7c0,12.77,1.68,122.38-21,160.3-43.8,73.22,73.74,503.02-34.51,505.06-121,2.28,4.18-444.26-73.53-444.26-130.21,0-93.96-140.94-193.53-141.45-302.03-1.55-367.66-159.32-704.94-111.06-68.26,9.77,7.66,101.11-51.32,103.4-79.78,3.11,31.76-132.18-94.98-127.15-77.11,3.06-84.29,126.78-188.94,111.83-121.53-17.36-122.79,143.86-422.81,156.26-123.57,5.11,30.66,352.81-75.57,353.36-97.53.51,25.53-301.28-31.66-388.09C12.07,305.93,0,272.6,0,232.4"/>
  <path class="cls-2" d="m.03,0h1920v136.7c0,12.77,1.68,122.38-21,160.3-43.8,73.22,73.74,503.02-34.51,505.06-121,2.28,4.18-444.26-73.53-444.26-130.21,0-93.96-140.94-193.53-141.45-302.03-1.55-367.66-159.32-704.94-111.06-68.26,9.77,7.66,101.11-51.32,103.4-79.78,3.11,31.76-132.18-94.98-127.15-77.11,3.06-84.29,126.78-188.94,111.83-121.53-17.36-122.79,143.86-422.81,156.26-123.57,5.11,30.66,352.81-75.57,353.36-97.53.51,25.53-301.28-31.66-388.09C12.1,291.93.03,258.6.03,218.4"/>
  <path class="cls-1" d="m82.6,677.44c.67-.27,1.04.78.43,1.19-9.12,6.04-29.11,16.89-44.3,7.99-14.41-8.44-11.96-69.93-10.34-94.95.05-.82,1.11-.87,1.15-.05.95,23.25,4.11,77.68,13.03,85.86,10.72,9.83,30.54,3.75,40.04-.03Z"/>
  <path class="cls-1" d="m1685.61,257.35c-.16-.57-1.03-1.19-.96-.68,1.71,11.99,8.33,43.18,32.51,66.85,17.76,17.39,45.9,19.8,56.05,20.08.4.01-.2-.97-.67-1.1-10.27-2.73-36.02-10.58-53.8-24.71-18.5-14.71-29.36-47.29-33.13-60.45Z"/>
  <path class="cls-1" d="m1890.64,761.69c.74-.57,1.31.98.65,1.76-9.76,11.57-31.46,33.17-50.21,22.7-17.78-9.93-23.05-106.92-24.47-146.53-.05-1.3,1.17-1.62,1.32-.34,4.16,36.24,14.99,120.87,26.39,131.65,13.7,12.95,35.83-1.13,46.32-9.24Z"/>
  <path class="cls-1" d="m858.42,193.58c.52-.26.78.68.3,1.06-7.19,5.67-22.89,15.95-34.4,8.3-10.91-7.25-7.5-62.75-5.63-85.35.06-.74.88-.81.89-.07.16,20.94,1.25,69.93,7.93,77.08,8.03,8.6,23.48,2.63,30.91-1.02Z"/>
  <path class="cls-1" d="m117.36,334.27c-1.28.11-3.59.87-2.56.84,24.65-.67,91.71-4.45,168.38-25.24,56.32-15.27,98.64-41.4,112.81-50.87.56-.37-2.09.12-2.95.54-18.9,9.4-68.16,32.87-118.42,48.41-52.29,16.16-127.67,23.8-157.27,26.31Z"/>
  <path class="cls-1" d="m1278.77,129.14c-1.18-.52-3.57-.96-2.65-.49,21.95,11.24,82.59,40.12,159.83,58.68,56.74,13.64,106.41,11.03,123.38,9.52.67-.06-1.89-.9-2.85-.94-21.09-.83-75.57-3.88-127.12-14.37-53.63-10.92-123.42-40.4-150.6-52.4Z"/>
</svg>