<?xml version="1.0" encoding="UTF-8"?>
<svg id="Layer_1" data-name="Layer 1" xmlns="http://www.w3.org/2000/svg" viewBox="0 0 1920.11 650.32">
  <defs>
    <style>
      .cls-1 {
        fill: #fff;
      }

      .cls-2 {
        fill: #282828;
      }

      .cls-3 {
        fill: #e5e5e5;
      }
    </style>
  </defs>
  <path class="cls-3" d="m1920.11,73.55c0,14.53-34.74,81.13-43.4,92.68-64.34,85.79,33.76,484.09-47.49,484.09-121.02,0,4.18-444.26-73.53-444.26-130.21,0-93.45-116.43-170.04-137.87-158.17-44.29-437.2,48.94-536.94,46.72-68.94-1.53,7.66,101.11-51.32,103.4-79.78,3.11,31.4-137.87-94.98-127.15-157.66,13.38-266.33,35.23-446.55,35.23S225.28,63.62,135.28,63.62c-106.29,0,16.46,210.92-70.83,213.68-72.77,2.3-6.89-148.6-46.17-195.68C-2.51,56.7.11,62.62.11,45V0h1920s0,39,0,73.55Z"/>
  <path d="m1920.11,67.09c0,14.53-22.91,81.98-31.57,93.53-64.34,85.79,33.76,484.09-47.49,484.09-121.02,0,4.18-444.26-73.53-444.26-130.21,0-93.45-116.43-170.04-137.87-158.17-44.29-437.2,48.94-536.94,46.72-68.94-1.53,7.66,101.11-51.32,103.4-79.78,3.11,31.4-137.87-94.98-127.15-157.66,13.38-266.33,35.23-446.55,35.23S237.11,58,147.11,58c-106.29,0,16.46,210.92-70.83,213.68-72.77,2.3-6.89-148.6-46.17-195.68C9.32,51.08,3.11,53.72,3.11,36.1V4.33L1920.11,0s0,32.53,0,67.09Z"/>
  <path class="cls-2" d="m1920.11,65.04c0,14.53-29.74,80.02-38.4,91.57-64.34,85.79,33.76,484.09-47.49,484.09-121.02,0,4.18-444.26-73.53-444.26-130.21,0-93.45-116.43-170.04-137.87-158.17-44.29-437.2,48.94-536.94,46.72-68.94-1.53,7.66,101.11-51.32,103.4-79.78,3.11,31.4-137.87-94.98-127.15-157.66,13.38-266.33,35.23-446.55,35.23S230.28,54,140.28,54c-106.29,0,16.46,210.92-70.83,213.68-72.77,2.3-6.89-148.6-46.17-195.68C2.49,47.08.11,50.66.11,33.04V0h1920s0,30.49,0,65.04Z"/>
  <path class="cls-1" d="m95.65,250.15c.67-.27,1.04.78.43,1.19-9.12,6.04-29.11,16.89-44.3,7.99-14.41-8.44-11.96-69.93-10.34-94.95.05-.82,1.11-.87,1.15-.05.95,23.25,4.11,77.68,13.03,85.86,10.72,9.83,30.54,3.75,40.04-.03Z"/>
  <path class="cls-1" d="m1657.09,101.61c-.16-.57-1.03-1.19-.96-.68,1.71,11.99,8.33,43.18,32.51,66.85,17.76,17.39,45.9,19.8,56.05,20.08.4.01-.2-.97-.67-1.1-10.27-2.73-36.02-10.58-53.8-24.71-18.5-14.71-29.36-47.29-33.13-60.45Z"/>
  <path class="cls-1" d="m1862.13,598.29c.74-.57,1.31.98.65,1.76-9.76,11.57-31.46,33.17-50.21,22.7-17.78-9.93-23.05-106.92-24.47-146.53-.05-1.3,1.17-1.62,1.32-.34,4.16,36.24,14.99,120.87,26.39,131.65,13.7,12.95,35.83-1.13,46.32-9.24Z"/>
  <path class="cls-1" d="m1023.91,191.65c.56-.25.86.69.34,1.07-7.71,5.58-24.58,15.64-37.19,7.79-11.95-7.45-9.12-63.05-7.45-85.68.06-.75.94-.8.96-.06.5,21,2.45,70.15,9.82,77.43,8.85,8.75,25.52,3,33.51-.54Z"/>
  <path class="cls-1" d="m264.37,76.9c-1.24-.33-3.68-.4-2.69-.08,23.41,7.75,87.76,27,166.93,33.53,58.15,4.79,106.84-5.39,123.39-9.47.65-.16-2-.6-2.96-.49-20.97,2.41-75.28,7.73-127.82,5.25-54.67-2.58-128.15-21.03-156.84-28.74Z"/>
</svg>